M48
;DRILL file {KiCad 4.0.3-stable} date 01/27/17 20:04:41
;FORMAT={-:-/ absolute / metric / decimal}
FMAT,2
METRIC,TZ
T1C0.400
T2C0.500
T3C1.016
T4C1.300
T5C3.500
%
G90
G05
M71
T1
X26.416Y-85.598
X29.718Y-148.59
X29.972Y-26.797
X31.75Y-94.488
X31.75Y-99.314
X39.116Y-87.249
X40.894Y-148.59
X42.545Y-49.657
X43.91Y-49.483
X44.667Y-49.743
X45.466Y-49.784
X56.769Y-67.691
X57.658Y-67.691
X58.039Y-56.007
X58.674Y-67.691
X59.563Y-67.691
X60.579Y-67.691
X61.468Y-141.859
X68.326Y-72.136
X68.326Y-73.025
X68.326Y-73.914
X68.707Y-70.231
X70.358Y-118.364
X71.247Y-114.681
X72.644Y-123.698
X77.216Y-145.669
X77.216Y-146.939
X77.724Y-35.179
X82.804Y-123.698
X82.804Y-134.493
X85.725Y-139.573
X88.9Y-26.543
X89.662Y-139.446
X90.488Y-83.248
X90.551Y-140.462
X92.964Y-81.407
X95.098Y-140.462
X95.25Y-139.548
X95.504Y-81.407
X96.52Y-135.89
X99.187Y-84.455
X100.584Y-85.217
X101.6Y-135.89
X103.124Y-85.725
X105.664Y-85.967
X106.934Y-62.992
X110.744Y-56.388
X110.744Y-60.325
X110.998Y-135.89
X111.76Y-55.753
X112.776Y-55.753
X117.094Y-75.946
X117.602Y-111.506
X118.874Y-84.707
X120.904Y-84.455
X122.555Y-110.617
X122.555Y-119.888
X123.698Y-110.617
X123.698Y-118.618
X124.333Y-137.668
X124.333Y-150.495
X124.46Y-107.061
X124.968Y-117.729
X126.746Y-98.933
X126.746Y-118.11
X126.746Y-120.777
X127.254Y-75.946
X127.254Y-87.376
X127.508Y-98.171
X127.508Y-111.633
X128.524Y-45.212
X128.524Y-155.702
X129.286Y-88.138
X129.286Y-90.932
X129.794Y-112.014
X131.191Y-120.65
X134.493Y-76.962
X134.747Y-107.95
X136.144Y-123.571
X136.228Y-98.975
X136.255Y-97.434
X136.271Y-100.584
X136.273Y-101.471
X136.275Y-99.773
X136.457Y-98.208
X136.652Y-96.647
X137.155Y-96.025
X137.632Y-95.382
X138.136Y-94.761
X138.609Y-94.116
X139.446Y-93.726
X139.634Y-110.175
X140.335Y-111.76
X140.462Y-93.726
X140.843Y-80.137
X141.135Y-111.76
X141.478Y-93.726
X141.605Y-82.296
X141.935Y-111.76
X142.367Y-80.391
X142.367Y-93.726
X142.735Y-111.76
X142.875Y-121.031
X142.875Y-121.92
X142.875Y-122.809
X143.003Y-119.888
X143.383Y-81.788
X143.383Y-93.726
X143.453Y-118.999
X143.535Y-111.76
X144.185Y-118.676
X144.272Y-81.788
X144.272Y-93.726
X144.335Y-111.76
X145.034Y-118.745
X145.135Y-111.76
X145.161Y-81.788
X145.161Y-93.726
X146.05Y-118.872
X146.177Y-81.661
X146.177Y-93.726
X147.066Y-81.661
X147.066Y-93.599
X147.066Y-118.872
X147.955Y-118.745
X148.336Y-74.422
X148.844Y-118.745
X148.971Y-75.057
X149.733Y-118.745
X150.749Y-118.606
X156.845Y-156.083
X159.893Y-152.273
T2
X20.235Y-26.67
X20.235Y-160.02
X21.004Y-24.814
X21.004Y-28.526
X21.004Y-158.164
X21.004Y-161.876
X22.86Y-24.045
X22.86Y-29.295
X22.86Y-157.395
X22.86Y-162.645
X24.716Y-24.814
X24.716Y-28.526
X24.716Y-158.164
X24.716Y-161.876
X25.485Y-26.67
X25.485Y-160.02
X131.995Y-38.1
X132.764Y-36.244
X132.764Y-39.956
X134.62Y-35.475
X134.62Y-40.725
X136.476Y-36.244
X136.476Y-39.956
X137.245Y-38.1
X147.235Y-38.1
X148.004Y-36.244
X148.004Y-39.956
X149.86Y-35.475
X149.86Y-40.725
X151.716Y-36.244
X151.716Y-39.956
X152.485Y-38.1
X166.285Y-26.67
X166.285Y-160.02
X167.054Y-24.814
X167.054Y-28.526
X167.054Y-158.164
X167.054Y-161.876
X168.91Y-24.045
X168.91Y-29.295
X168.91Y-157.395
X168.91Y-162.645
X170.766Y-24.814
X170.766Y-28.526
X170.766Y-158.164
X170.766Y-161.876
X171.535Y-26.67
X171.535Y-160.02
T3
X29.972Y-29.972
X29.972Y-32.512
X29.972Y-35.052
X29.972Y-37.592
X29.972Y-40.132
X29.972Y-42.672
X29.972Y-45.212
X29.972Y-47.752
X50.8Y-152.4
X50.8Y-154.94
X50.8Y-157.48
X52.832Y-29.972
X52.832Y-32.512
X52.832Y-35.052
X52.832Y-37.592
X52.832Y-40.132
X52.832Y-42.672
X52.832Y-45.212
X52.832Y-47.752
X61.722Y-29.972
X61.722Y-32.512
X61.722Y-35.052
X61.722Y-37.592
X61.722Y-40.132
X61.722Y-42.672
X61.722Y-45.212
X61.722Y-47.752
X63.754Y-65.278
X63.754Y-67.818
X63.754Y-126.238
X63.754Y-128.778
X66.04Y-152.4
X66.04Y-154.94
X66.04Y-157.48
X66.294Y-65.278
X66.294Y-67.818
X66.294Y-126.238
X66.294Y-128.778
X68.834Y-65.278
X68.834Y-67.818
X68.834Y-126.238
X68.834Y-128.778
X71.374Y-65.278
X71.374Y-67.818
X71.374Y-126.238
X71.374Y-128.778
X73.914Y-65.278
X73.914Y-67.818
X73.914Y-126.238
X73.914Y-128.778
X76.2Y-157.48
X76.2Y-160.02
X76.454Y-65.278
X76.454Y-67.818
X76.454Y-126.238
X76.454Y-128.778
X78.74Y-157.48
X78.74Y-160.02
X78.994Y-65.278
X78.994Y-67.818
X78.994Y-126.238
X78.994Y-128.778
X81.28Y-157.48
X81.28Y-160.02
X81.534Y-65.278
X81.534Y-67.818
X81.534Y-126.238
X81.534Y-128.778
X83.82Y-157.48
X83.82Y-160.02
X84.074Y-65.278
X84.074Y-67.818
X84.074Y-126.238
X84.074Y-128.778
X84.582Y-29.972
X84.582Y-32.512
X84.582Y-35.052
X84.582Y-37.592
X84.582Y-40.132
X84.582Y-42.672
X84.582Y-45.212
X84.582Y-47.752
X86.36Y-157.48
X86.36Y-160.02
X86.614Y-65.278
X86.614Y-67.818
X86.614Y-126.238
X86.614Y-128.778
X88.9Y-157.48
X88.9Y-160.02
X89.154Y-65.278
X89.154Y-67.818
X89.154Y-126.238
X89.154Y-128.778
X91.44Y-157.48
X91.44Y-160.02
X91.694Y-65.278
X91.694Y-67.818
X91.694Y-126.238
X91.694Y-128.778
X93.472Y-29.972
X93.472Y-32.512
X93.472Y-35.052
X93.472Y-37.592
X93.472Y-40.132
X93.472Y-42.672
X93.472Y-45.212
X93.472Y-47.752
X93.98Y-157.48
X93.98Y-160.02
X94.234Y-65.278
X94.234Y-67.818
X94.234Y-126.238
X94.234Y-128.778
X96.52Y-157.48
X96.52Y-160.02
X96.774Y-65.278
X96.774Y-67.818
X96.774Y-126.238
X96.774Y-128.778
X99.06Y-157.48
X99.06Y-160.02
X99.314Y-65.278
X99.314Y-67.818
X99.314Y-126.238
X99.314Y-128.778
X101.6Y-157.48
X101.6Y-160.02
X101.854Y-65.278
X101.854Y-67.818
X101.854Y-126.238
X101.854Y-128.778
X104.14Y-157.48
X104.14Y-160.02
X104.394Y-65.278
X104.394Y-67.818
X104.394Y-126.238
X104.394Y-128.778
X106.68Y-157.48
X106.68Y-160.02
X106.934Y-65.278
X106.934Y-67.818
X106.934Y-126.238
X106.934Y-128.778
X109.22Y-157.48
X109.22Y-160.02
X109.474Y-65.278
X109.474Y-67.818
X109.474Y-126.238
X109.474Y-128.778
X111.76Y-157.48
X111.76Y-160.02
X112.014Y-65.278
X112.014Y-67.818
X112.014Y-126.238
X112.014Y-128.778
X114.554Y-65.278
X114.554Y-67.818
X114.554Y-126.238
X114.554Y-128.778
X116.332Y-29.972
X116.332Y-32.512
X116.332Y-35.052
X116.332Y-37.592
X116.332Y-40.132
X116.332Y-42.672
X116.332Y-45.212
X116.332Y-47.752
X117.094Y-65.278
X117.094Y-67.818
X117.094Y-126.238
X117.094Y-128.778
X119.38Y-160.02
X119.634Y-65.278
X119.634Y-67.818
X119.634Y-126.238
X119.634Y-128.778
X121.92Y-160.02
X122.174Y-65.278
X122.174Y-67.818
X122.174Y-126.238
X122.174Y-128.778
X124.46Y-160.02
X124.714Y-65.278
X124.714Y-67.818
X124.714Y-126.238
X124.714Y-128.778
X127.Y-160.02
X127.254Y-65.278
X127.254Y-67.818
X127.254Y-126.238
X127.254Y-128.778
X129.54Y-160.02
X129.794Y-65.278
X129.794Y-67.818
X129.794Y-126.238
X129.794Y-128.778
X132.334Y-65.278
X132.334Y-67.818
X132.334Y-126.238
X132.334Y-128.778
X133.35Y-48.26
X134.62Y-160.02
X134.874Y-65.278
X134.874Y-67.818
X134.874Y-126.238
X134.874Y-128.778
X135.89Y-48.26
X137.16Y-160.02
X137.414Y-65.278
X137.414Y-67.818
X137.414Y-126.238
X137.414Y-128.778
X138.43Y-48.26
X139.7Y-160.02
X139.954Y-65.278
X139.954Y-67.818
X139.954Y-126.238
X139.954Y-128.778
X140.97Y-48.26
X142.24Y-160.02
X142.494Y-65.278
X142.494Y-67.818
X142.494Y-126.238
X142.494Y-128.778
X143.51Y-48.26
X144.78Y-160.02
X145.034Y-65.278
X145.034Y-67.818
X145.034Y-126.238
X145.034Y-128.778
X146.05Y-48.26
X147.32Y-160.02
X147.574Y-65.278
X147.574Y-67.818
X147.574Y-126.238
X147.574Y-128.778
X148.59Y-48.26
X149.86Y-160.02
X150.114Y-65.278
X150.114Y-67.818
X150.114Y-126.238
X150.114Y-128.778
X151.13Y-48.26
X152.4Y-160.02
X154.94Y-160.02
X157.48Y-160.02
X161.29Y-103.505
X161.29Y-106.045
X161.29Y-108.585
X161.29Y-111.125
X161.29Y-113.665
X161.29Y-116.205
X161.29Y-118.745
X161.29Y-121.285
X161.29Y-123.825
X161.29Y-126.365
X161.29Y-128.905
X161.29Y-131.445
X161.29Y-133.985
X161.29Y-136.525
X161.29Y-139.065
X161.29Y-141.605
X161.29Y-144.145
X161.29Y-146.685
X163.83Y-63.5
X163.83Y-66.04
X163.83Y-68.58
X163.83Y-74.93
X163.83Y-77.47
X163.83Y-80.01
X163.83Y-82.55
X163.83Y-85.09
X163.83Y-87.63
X163.83Y-90.17
X163.83Y-92.71
X163.83Y-95.25
X163.83Y-97.79
X163.83Y-103.505
X163.83Y-106.045
X163.83Y-108.585
X163.83Y-111.125
X163.83Y-113.665
X163.83Y-116.205
X163.83Y-118.745
X163.83Y-121.285
X163.83Y-123.825
X163.83Y-126.365
X163.83Y-128.905
X163.83Y-131.445
X163.83Y-133.985
X163.83Y-136.525
X163.83Y-139.065
X163.83Y-141.605
X163.83Y-144.145
X163.83Y-146.685
T4
X33.02Y-160.02
X38.02Y-160.02
T5
X22.86Y-26.67
X22.86Y-160.02
X134.62Y-38.1
X149.86Y-38.1
X168.91Y-26.67
X168.91Y-160.02
T0
M30
