G04 #@! TF.FileFunction,Soldermask,Bot*
%FSLAX46Y46*%
G04 Gerber Fmt 4.6, Leading zero omitted, Abs format (unit mm)*
G04 Created by KiCad (PCBNEW 4.0.3-stable) date 01/27/17 20:04:36*
%MOMM*%
%LPD*%
G01*
G04 APERTURE LIST*
%ADD10C,0.100000*%
%ADD11R,2.127200X2.127200*%
%ADD12O,2.127200X2.127200*%
%ADD13R,2.900000X2.900000*%
%ADD14C,2.900000*%
%ADD15R,2.127200X2.432000*%
%ADD16O,2.127200X2.432000*%
%ADD17R,2.432000X2.127200*%
%ADD18O,2.432000X2.127200*%
%ADD19C,1.400000*%
%ADD20C,7.400000*%
%ADD21C,1.000000*%
G04 APERTURE END LIST*
D10*
D11*
X63754000Y-126238000D03*
D12*
X63754000Y-128778000D03*
X66294000Y-126238000D03*
X66294000Y-128778000D03*
X68834000Y-126238000D03*
X68834000Y-128778000D03*
X71374000Y-126238000D03*
X71374000Y-128778000D03*
X73914000Y-126238000D03*
X73914000Y-128778000D03*
X76454000Y-126238000D03*
X76454000Y-128778000D03*
X78994000Y-126238000D03*
X78994000Y-128778000D03*
X81534000Y-126238000D03*
X81534000Y-128778000D03*
X84074000Y-126238000D03*
X84074000Y-128778000D03*
X86614000Y-126238000D03*
X86614000Y-128778000D03*
X89154000Y-126238000D03*
X89154000Y-128778000D03*
X91694000Y-126238000D03*
X91694000Y-128778000D03*
X94234000Y-126238000D03*
X94234000Y-128778000D03*
X96774000Y-126238000D03*
X96774000Y-128778000D03*
X99314000Y-126238000D03*
X99314000Y-128778000D03*
X101854000Y-126238000D03*
X101854000Y-128778000D03*
X104394000Y-126238000D03*
X104394000Y-128778000D03*
X106934000Y-126238000D03*
X106934000Y-128778000D03*
X109474000Y-126238000D03*
X109474000Y-128778000D03*
X112014000Y-126238000D03*
X112014000Y-128778000D03*
X114554000Y-126238000D03*
X114554000Y-128778000D03*
X117094000Y-126238000D03*
X117094000Y-128778000D03*
X119634000Y-126238000D03*
X119634000Y-128778000D03*
X122174000Y-126238000D03*
X122174000Y-128778000D03*
X124714000Y-126238000D03*
X124714000Y-128778000D03*
X127254000Y-126238000D03*
X127254000Y-128778000D03*
X129794000Y-126238000D03*
X129794000Y-128778000D03*
X132334000Y-126238000D03*
X132334000Y-128778000D03*
X134874000Y-126238000D03*
X134874000Y-128778000D03*
X137414000Y-126238000D03*
X137414000Y-128778000D03*
X139954000Y-126238000D03*
X139954000Y-128778000D03*
X142494000Y-126238000D03*
X142494000Y-128778000D03*
X145034000Y-126238000D03*
X145034000Y-128778000D03*
X147574000Y-126238000D03*
X147574000Y-128778000D03*
X150114000Y-126238000D03*
X150114000Y-128778000D03*
D13*
X33020000Y-160020000D03*
D14*
X38020000Y-160020000D03*
D15*
X133350000Y-48260000D03*
D16*
X135890000Y-48260000D03*
X138430000Y-48260000D03*
X140970000Y-48260000D03*
X143510000Y-48260000D03*
X146050000Y-48260000D03*
X148590000Y-48260000D03*
X151130000Y-48260000D03*
D11*
X63754000Y-65278000D03*
D12*
X63754000Y-67818000D03*
X66294000Y-65278000D03*
X66294000Y-67818000D03*
X68834000Y-65278000D03*
X68834000Y-67818000D03*
X71374000Y-65278000D03*
X71374000Y-67818000D03*
X73914000Y-65278000D03*
X73914000Y-67818000D03*
X76454000Y-65278000D03*
X76454000Y-67818000D03*
X78994000Y-65278000D03*
X78994000Y-67818000D03*
X81534000Y-65278000D03*
X81534000Y-67818000D03*
X84074000Y-65278000D03*
X84074000Y-67818000D03*
X86614000Y-65278000D03*
X86614000Y-67818000D03*
X89154000Y-65278000D03*
X89154000Y-67818000D03*
X91694000Y-65278000D03*
X91694000Y-67818000D03*
X94234000Y-65278000D03*
X94234000Y-67818000D03*
X96774000Y-65278000D03*
X96774000Y-67818000D03*
X99314000Y-65278000D03*
X99314000Y-67818000D03*
X101854000Y-65278000D03*
X101854000Y-67818000D03*
X104394000Y-65278000D03*
X104394000Y-67818000D03*
X106934000Y-65278000D03*
X106934000Y-67818000D03*
X109474000Y-65278000D03*
X109474000Y-67818000D03*
X112014000Y-65278000D03*
X112014000Y-67818000D03*
X114554000Y-65278000D03*
X114554000Y-67818000D03*
X117094000Y-65278000D03*
X117094000Y-67818000D03*
X119634000Y-65278000D03*
X119634000Y-67818000D03*
X122174000Y-65278000D03*
X122174000Y-67818000D03*
X124714000Y-65278000D03*
X124714000Y-67818000D03*
X127254000Y-65278000D03*
X127254000Y-67818000D03*
X129794000Y-65278000D03*
X129794000Y-67818000D03*
X132334000Y-65278000D03*
X132334000Y-67818000D03*
X134874000Y-65278000D03*
X134874000Y-67818000D03*
X137414000Y-65278000D03*
X137414000Y-67818000D03*
X139954000Y-65278000D03*
X139954000Y-67818000D03*
X142494000Y-65278000D03*
X142494000Y-67818000D03*
X145034000Y-65278000D03*
X145034000Y-67818000D03*
X147574000Y-65278000D03*
X147574000Y-67818000D03*
X150114000Y-65278000D03*
X150114000Y-67818000D03*
D15*
X134620000Y-160020000D03*
D16*
X137160000Y-160020000D03*
X139700000Y-160020000D03*
X142240000Y-160020000D03*
X144780000Y-160020000D03*
X147320000Y-160020000D03*
X149860000Y-160020000D03*
X152400000Y-160020000D03*
X154940000Y-160020000D03*
X157480000Y-160020000D03*
D15*
X119380000Y-160020000D03*
D16*
X121920000Y-160020000D03*
X124460000Y-160020000D03*
X127000000Y-160020000D03*
X129540000Y-160020000D03*
D17*
X29972000Y-29972000D03*
D18*
X29972000Y-32512000D03*
X29972000Y-35052000D03*
X29972000Y-37592000D03*
X29972000Y-40132000D03*
X29972000Y-42672000D03*
X29972000Y-45212000D03*
X29972000Y-47752000D03*
D17*
X61722000Y-29972000D03*
D18*
X61722000Y-32512000D03*
X61722000Y-35052000D03*
X61722000Y-37592000D03*
X61722000Y-40132000D03*
X61722000Y-42672000D03*
X61722000Y-45212000D03*
X61722000Y-47752000D03*
D17*
X93472000Y-29972000D03*
D18*
X93472000Y-32512000D03*
X93472000Y-35052000D03*
X93472000Y-37592000D03*
X93472000Y-40132000D03*
X93472000Y-42672000D03*
X93472000Y-45212000D03*
X93472000Y-47752000D03*
D17*
X52832000Y-47752000D03*
D18*
X52832000Y-45212000D03*
X52832000Y-42672000D03*
X52832000Y-40132000D03*
X52832000Y-37592000D03*
X52832000Y-35052000D03*
X52832000Y-32512000D03*
X52832000Y-29972000D03*
D17*
X84582000Y-47752000D03*
D18*
X84582000Y-45212000D03*
X84582000Y-42672000D03*
X84582000Y-40132000D03*
X84582000Y-37592000D03*
X84582000Y-35052000D03*
X84582000Y-32512000D03*
X84582000Y-29972000D03*
D17*
X116332000Y-47752000D03*
D18*
X116332000Y-45212000D03*
X116332000Y-42672000D03*
X116332000Y-40132000D03*
X116332000Y-37592000D03*
X116332000Y-35052000D03*
X116332000Y-32512000D03*
X116332000Y-29972000D03*
D19*
X22990000Y-90554000D03*
X22990000Y-98554000D03*
D17*
X66040000Y-157480000D03*
D18*
X66040000Y-154940000D03*
X66040000Y-152400000D03*
D17*
X50800000Y-157480000D03*
D18*
X50800000Y-154940000D03*
X50800000Y-152400000D03*
D17*
X163830000Y-68580000D03*
D18*
X163830000Y-66040000D03*
X163830000Y-63500000D03*
D17*
X163830000Y-97790000D03*
D18*
X163830000Y-95250000D03*
X163830000Y-92710000D03*
X163830000Y-90170000D03*
X163830000Y-87630000D03*
X163830000Y-85090000D03*
X163830000Y-82550000D03*
X163830000Y-80010000D03*
X163830000Y-77470000D03*
X163830000Y-74930000D03*
D11*
X163830000Y-103505000D03*
D12*
X161290000Y-103505000D03*
X163830000Y-106045000D03*
X161290000Y-106045000D03*
X163830000Y-108585000D03*
X161290000Y-108585000D03*
X163830000Y-111125000D03*
X161290000Y-111125000D03*
X163830000Y-113665000D03*
X161290000Y-113665000D03*
X163830000Y-116205000D03*
X161290000Y-116205000D03*
X163830000Y-118745000D03*
X161290000Y-118745000D03*
X163830000Y-121285000D03*
X161290000Y-121285000D03*
X163830000Y-123825000D03*
X161290000Y-123825000D03*
X163830000Y-126365000D03*
X161290000Y-126365000D03*
X163830000Y-128905000D03*
X161290000Y-128905000D03*
X163830000Y-131445000D03*
X161290000Y-131445000D03*
X163830000Y-133985000D03*
X161290000Y-133985000D03*
X163830000Y-136525000D03*
X161290000Y-136525000D03*
X163830000Y-139065000D03*
X161290000Y-139065000D03*
X163830000Y-141605000D03*
X161290000Y-141605000D03*
X163830000Y-144145000D03*
X161290000Y-144145000D03*
X163830000Y-146685000D03*
X161290000Y-146685000D03*
D11*
X76200000Y-157480000D03*
D12*
X76200000Y-160020000D03*
X78740000Y-157480000D03*
X78740000Y-160020000D03*
X81280000Y-157480000D03*
X81280000Y-160020000D03*
X83820000Y-157480000D03*
X83820000Y-160020000D03*
X86360000Y-157480000D03*
X86360000Y-160020000D03*
X88900000Y-157480000D03*
X88900000Y-160020000D03*
X91440000Y-157480000D03*
X91440000Y-160020000D03*
X93980000Y-157480000D03*
X93980000Y-160020000D03*
X96520000Y-157480000D03*
X96520000Y-160020000D03*
X99060000Y-157480000D03*
X99060000Y-160020000D03*
X101600000Y-157480000D03*
X101600000Y-160020000D03*
X104140000Y-157480000D03*
X104140000Y-160020000D03*
X106680000Y-157480000D03*
X106680000Y-160020000D03*
X109220000Y-157480000D03*
X109220000Y-160020000D03*
X111760000Y-157480000D03*
X111760000Y-160020000D03*
D20*
X22860000Y-26670000D03*
D21*
X25485000Y-26670000D03*
X24716155Y-28526155D03*
X22860000Y-29295000D03*
X21003845Y-28526155D03*
X20235000Y-26670000D03*
X21003845Y-24813845D03*
X22860000Y-24045000D03*
X24716155Y-24813845D03*
D20*
X168910000Y-26670000D03*
D21*
X171535000Y-26670000D03*
X170766155Y-28526155D03*
X168910000Y-29295000D03*
X167053845Y-28526155D03*
X166285000Y-26670000D03*
X167053845Y-24813845D03*
X168910000Y-24045000D03*
X170766155Y-24813845D03*
D20*
X168910000Y-160020000D03*
D21*
X171535000Y-160020000D03*
X170766155Y-161876155D03*
X168910000Y-162645000D03*
X167053845Y-161876155D03*
X166285000Y-160020000D03*
X167053845Y-158163845D03*
X168910000Y-157395000D03*
X170766155Y-158163845D03*
D20*
X22860000Y-160020000D03*
D21*
X25485000Y-160020000D03*
X24716155Y-161876155D03*
X22860000Y-162645000D03*
X21003845Y-161876155D03*
X20235000Y-160020000D03*
X21003845Y-158163845D03*
X22860000Y-157395000D03*
X24716155Y-158163845D03*
D20*
X149860000Y-38100000D03*
D21*
X152485000Y-38100000D03*
X151716155Y-39956155D03*
X149860000Y-40725000D03*
X148003845Y-39956155D03*
X147235000Y-38100000D03*
X148003845Y-36243845D03*
X149860000Y-35475000D03*
X151716155Y-36243845D03*
D20*
X134620000Y-38100000D03*
D21*
X137245000Y-38100000D03*
X136476155Y-39956155D03*
X134620000Y-40725000D03*
X132763845Y-39956155D03*
X131995000Y-38100000D03*
X132763845Y-36243845D03*
X134620000Y-35475000D03*
X136476155Y-36243845D03*
M02*
