G04 #@! TF.FileFunction,Legend,Top*
%FSLAX46Y46*%
G04 Gerber Fmt 4.6, Leading zero omitted, Abs format (unit mm)*
G04 Created by KiCad (PCBNEW 4.0.5) date 02/11/17 17:25:21*
%MOMM*%
%LPD*%
G01*
G04 APERTURE LIST*
%ADD10C,0.100000*%
%ADD11C,0.200000*%
%ADD12C,0.300000*%
%ADD13C,0.120000*%
%ADD14C,0.150000*%
%ADD15C,0.250000*%
%ADD16C,0.010000*%
G04 APERTURE END LIST*
D10*
D11*
X155448000Y-132080000D02*
X41148000Y-132080000D01*
X155448000Y-61976000D02*
X41148000Y-61976000D01*
D12*
X78122858Y-97122143D02*
X78337144Y-97193571D01*
X78694287Y-97193571D01*
X78837144Y-97122143D01*
X78908573Y-97050714D01*
X78980001Y-96907857D01*
X78980001Y-96765000D01*
X78908573Y-96622143D01*
X78837144Y-96550714D01*
X78694287Y-96479286D01*
X78408573Y-96407857D01*
X78265715Y-96336429D01*
X78194287Y-96265000D01*
X78122858Y-96122143D01*
X78122858Y-95979286D01*
X78194287Y-95836429D01*
X78265715Y-95765000D01*
X78408573Y-95693571D01*
X78765715Y-95693571D01*
X78980001Y-95765000D01*
X79408572Y-95693571D02*
X80265715Y-95693571D01*
X79837144Y-97193571D02*
X79837144Y-95693571D01*
X80765715Y-97193571D02*
X80765715Y-95693571D01*
X81265715Y-96765000D01*
X81765715Y-95693571D01*
X81765715Y-97193571D01*
X82337144Y-95693571D02*
X83265715Y-95693571D01*
X82765715Y-96265000D01*
X82980001Y-96265000D01*
X83122858Y-96336429D01*
X83194287Y-96407857D01*
X83265715Y-96550714D01*
X83265715Y-96907857D01*
X83194287Y-97050714D01*
X83122858Y-97122143D01*
X82980001Y-97193571D01*
X82551429Y-97193571D01*
X82408572Y-97122143D01*
X82337144Y-97050714D01*
X83837143Y-95836429D02*
X83908572Y-95765000D01*
X84051429Y-95693571D01*
X84408572Y-95693571D01*
X84551429Y-95765000D01*
X84622858Y-95836429D01*
X84694286Y-95979286D01*
X84694286Y-96122143D01*
X84622858Y-96336429D01*
X83765715Y-97193571D01*
X84694286Y-97193571D01*
X86480000Y-97193571D02*
X86480000Y-95693571D01*
X87337143Y-97193571D01*
X87337143Y-95693571D01*
X88694286Y-96193571D02*
X88694286Y-97193571D01*
X88051429Y-96193571D02*
X88051429Y-96979286D01*
X88122857Y-97122143D01*
X88265715Y-97193571D01*
X88480000Y-97193571D01*
X88622857Y-97122143D01*
X88694286Y-97050714D01*
X90051429Y-97122143D02*
X89908572Y-97193571D01*
X89622858Y-97193571D01*
X89480000Y-97122143D01*
X89408572Y-97050714D01*
X89337143Y-96907857D01*
X89337143Y-96479286D01*
X89408572Y-96336429D01*
X89480000Y-96265000D01*
X89622858Y-96193571D01*
X89908572Y-96193571D01*
X90051429Y-96265000D01*
X90908572Y-97193571D02*
X90765714Y-97122143D01*
X90694286Y-96979286D01*
X90694286Y-95693571D01*
X92051428Y-97122143D02*
X91908571Y-97193571D01*
X91622857Y-97193571D01*
X91480000Y-97122143D01*
X91408571Y-96979286D01*
X91408571Y-96407857D01*
X91480000Y-96265000D01*
X91622857Y-96193571D01*
X91908571Y-96193571D01*
X92051428Y-96265000D01*
X92122857Y-96407857D01*
X92122857Y-96550714D01*
X91408571Y-96693571D01*
X92980000Y-97193571D02*
X92837142Y-97122143D01*
X92765714Y-97050714D01*
X92694285Y-96907857D01*
X92694285Y-96479286D01*
X92765714Y-96336429D01*
X92837142Y-96265000D01*
X92980000Y-96193571D01*
X93194285Y-96193571D01*
X93337142Y-96265000D01*
X93408571Y-96336429D01*
X93480000Y-96479286D01*
X93480000Y-96907857D01*
X93408571Y-97050714D01*
X93337142Y-97122143D01*
X93194285Y-97193571D01*
X92980000Y-97193571D01*
X96051428Y-97193571D02*
X95194285Y-97193571D01*
X95622857Y-97193571D02*
X95622857Y-95693571D01*
X95480000Y-95907857D01*
X95337142Y-96050714D01*
X95194285Y-96122143D01*
X97337142Y-96193571D02*
X97337142Y-97193571D01*
X96979999Y-95622143D02*
X96622856Y-96693571D01*
X97551428Y-96693571D01*
X98765713Y-96193571D02*
X98765713Y-97193571D01*
X98408570Y-95622143D02*
X98051427Y-96693571D01*
X98979999Y-96693571D01*
X99551427Y-96193571D02*
X99551427Y-97693571D01*
X99551427Y-96265000D02*
X99694284Y-96193571D01*
X99979998Y-96193571D01*
X100122855Y-96265000D01*
X100194284Y-96336429D01*
X100265713Y-96479286D01*
X100265713Y-96907857D01*
X100194284Y-97050714D01*
X100122855Y-97122143D01*
X99979998Y-97193571D01*
X99694284Y-97193571D01*
X99551427Y-97122143D01*
X100908570Y-97193571D02*
X100908570Y-96193571D01*
X100908570Y-95693571D02*
X100837141Y-95765000D01*
X100908570Y-95836429D01*
X100979998Y-95765000D01*
X100908570Y-95693571D01*
X100908570Y-95836429D01*
X101622856Y-96193571D02*
X101622856Y-97193571D01*
X101622856Y-96336429D02*
X101694284Y-96265000D01*
X101837142Y-96193571D01*
X102051427Y-96193571D01*
X102194284Y-96265000D01*
X102265713Y-96407857D01*
X102265713Y-97193571D01*
X104122856Y-97193571D02*
X104122856Y-95693571D01*
X104122856Y-96265000D02*
X104265713Y-96193571D01*
X104551427Y-96193571D01*
X104694284Y-96265000D01*
X104765713Y-96336429D01*
X104837142Y-96479286D01*
X104837142Y-96907857D01*
X104765713Y-97050714D01*
X104694284Y-97122143D01*
X104551427Y-97193571D01*
X104265713Y-97193571D01*
X104122856Y-97122143D01*
X105694285Y-97193571D02*
X105551427Y-97122143D01*
X105479999Y-97050714D01*
X105408570Y-96907857D01*
X105408570Y-96479286D01*
X105479999Y-96336429D01*
X105551427Y-96265000D01*
X105694285Y-96193571D01*
X105908570Y-96193571D01*
X106051427Y-96265000D01*
X106122856Y-96336429D01*
X106194285Y-96479286D01*
X106194285Y-96907857D01*
X106122856Y-97050714D01*
X106051427Y-97122143D01*
X105908570Y-97193571D01*
X105694285Y-97193571D01*
X107479999Y-97193571D02*
X107479999Y-96407857D01*
X107408570Y-96265000D01*
X107265713Y-96193571D01*
X106979999Y-96193571D01*
X106837142Y-96265000D01*
X107479999Y-97122143D02*
X107337142Y-97193571D01*
X106979999Y-97193571D01*
X106837142Y-97122143D01*
X106765713Y-96979286D01*
X106765713Y-96836429D01*
X106837142Y-96693571D01*
X106979999Y-96622143D01*
X107337142Y-96622143D01*
X107479999Y-96550714D01*
X108194285Y-97193571D02*
X108194285Y-96193571D01*
X108194285Y-96479286D02*
X108265713Y-96336429D01*
X108337142Y-96265000D01*
X108479999Y-96193571D01*
X108622856Y-96193571D01*
X109765713Y-97193571D02*
X109765713Y-95693571D01*
X109765713Y-97122143D02*
X109622856Y-97193571D01*
X109337142Y-97193571D01*
X109194284Y-97122143D01*
X109122856Y-97050714D01*
X109051427Y-96907857D01*
X109051427Y-96479286D01*
X109122856Y-96336429D01*
X109194284Y-96265000D01*
X109337142Y-96193571D01*
X109622856Y-96193571D01*
X109765713Y-96265000D01*
X86051428Y-98743571D02*
X84908571Y-99172143D01*
X86051428Y-99600714D01*
X86765714Y-99172143D02*
X87908571Y-99172143D01*
X90265714Y-98957857D02*
X89765714Y-98957857D01*
X89765714Y-99743571D02*
X89765714Y-98243571D01*
X90480000Y-98243571D01*
X91908571Y-99743571D02*
X91408571Y-99029286D01*
X91051428Y-99743571D02*
X91051428Y-98243571D01*
X91622856Y-98243571D01*
X91765714Y-98315000D01*
X91837142Y-98386429D01*
X91908571Y-98529286D01*
X91908571Y-98743571D01*
X91837142Y-98886429D01*
X91765714Y-98957857D01*
X91622856Y-99029286D01*
X91051428Y-99029286D01*
X92837142Y-98243571D02*
X93122856Y-98243571D01*
X93265714Y-98315000D01*
X93408571Y-98457857D01*
X93479999Y-98743571D01*
X93479999Y-99243571D01*
X93408571Y-99529286D01*
X93265714Y-99672143D01*
X93122856Y-99743571D01*
X92837142Y-99743571D01*
X92694285Y-99672143D01*
X92551428Y-99529286D01*
X92479999Y-99243571D01*
X92479999Y-98743571D01*
X92551428Y-98457857D01*
X92694285Y-98315000D01*
X92837142Y-98243571D01*
X94122857Y-99743571D02*
X94122857Y-98243571D01*
X94980000Y-99743571D01*
X94980000Y-98243571D01*
X95480000Y-98243571D02*
X96337143Y-98243571D01*
X95908572Y-99743571D02*
X95908572Y-98243571D01*
X97980000Y-99743571D02*
X97980000Y-98243571D01*
X97980000Y-98957857D02*
X98837143Y-98957857D01*
X98837143Y-99743571D02*
X98837143Y-98243571D01*
X99551429Y-98957857D02*
X100051429Y-98957857D01*
X100265715Y-99743571D02*
X99551429Y-99743571D01*
X99551429Y-98243571D01*
X100265715Y-98243571D01*
X101765715Y-99743571D02*
X101265715Y-99029286D01*
X100908572Y-99743571D02*
X100908572Y-98243571D01*
X101480000Y-98243571D01*
X101622858Y-98315000D01*
X101694286Y-98386429D01*
X101765715Y-98529286D01*
X101765715Y-98743571D01*
X101694286Y-98886429D01*
X101622858Y-98957857D01*
X101480000Y-99029286D01*
X100908572Y-99029286D01*
X102408572Y-98957857D02*
X102908572Y-98957857D01*
X103122858Y-99743571D02*
X102408572Y-99743571D01*
X102408572Y-98243571D01*
X103122858Y-98243571D01*
X98206187Y-143049524D02*
X98491902Y-143144762D01*
X98968092Y-143144762D01*
X99158568Y-143049524D01*
X99253806Y-142954286D01*
X99349045Y-142763810D01*
X99349045Y-142573333D01*
X99253806Y-142382857D01*
X99158568Y-142287619D01*
X98968092Y-142192381D01*
X98587140Y-142097143D01*
X98396664Y-142001905D01*
X98301425Y-141906667D01*
X98206187Y-141716190D01*
X98206187Y-141525714D01*
X98301425Y-141335238D01*
X98396664Y-141240000D01*
X98587140Y-141144762D01*
X99063330Y-141144762D01*
X99349045Y-141240000D01*
X99920473Y-141144762D02*
X101063330Y-141144762D01*
X100491902Y-143144762D02*
X100491902Y-141144762D01*
X101729997Y-143144762D02*
X101729997Y-141144762D01*
X102396664Y-142573333D01*
X103063331Y-141144762D01*
X103063331Y-143144762D01*
X103825235Y-141144762D02*
X105063331Y-141144762D01*
X104396664Y-141906667D01*
X104682378Y-141906667D01*
X104872854Y-142001905D01*
X104968092Y-142097143D01*
X105063331Y-142287619D01*
X105063331Y-142763810D01*
X104968092Y-142954286D01*
X104872854Y-143049524D01*
X104682378Y-143144762D01*
X104110950Y-143144762D01*
X103920473Y-143049524D01*
X103825235Y-142954286D01*
X105825235Y-141335238D02*
X105920473Y-141240000D01*
X106110950Y-141144762D01*
X106587140Y-141144762D01*
X106777616Y-141240000D01*
X106872854Y-141335238D01*
X106968093Y-141525714D01*
X106968093Y-141716190D01*
X106872854Y-142001905D01*
X105729997Y-143144762D01*
X106968093Y-143144762D01*
X109349045Y-143144762D02*
X109349045Y-141144762D01*
X110491903Y-143144762D01*
X110491903Y-141144762D01*
X112301426Y-141811429D02*
X112301426Y-143144762D01*
X111444283Y-141811429D02*
X111444283Y-142859048D01*
X111539522Y-143049524D01*
X111729998Y-143144762D01*
X112015712Y-143144762D01*
X112206188Y-143049524D01*
X112301426Y-142954286D01*
X114110950Y-143049524D02*
X113920474Y-143144762D01*
X113539522Y-143144762D01*
X113349046Y-143049524D01*
X113253807Y-142954286D01*
X113158569Y-142763810D01*
X113158569Y-142192381D01*
X113253807Y-142001905D01*
X113349046Y-141906667D01*
X113539522Y-141811429D01*
X113920474Y-141811429D01*
X114110950Y-141906667D01*
X115253808Y-143144762D02*
X115063332Y-143049524D01*
X114968093Y-142859048D01*
X114968093Y-141144762D01*
X116777617Y-143049524D02*
X116587141Y-143144762D01*
X116206189Y-143144762D01*
X116015712Y-143049524D01*
X115920474Y-142859048D01*
X115920474Y-142097143D01*
X116015712Y-141906667D01*
X116206189Y-141811429D01*
X116587141Y-141811429D01*
X116777617Y-141906667D01*
X116872855Y-142097143D01*
X116872855Y-142287619D01*
X115920474Y-142478095D01*
X118015713Y-143144762D02*
X117825237Y-143049524D01*
X117729998Y-142954286D01*
X117634760Y-142763810D01*
X117634760Y-142192381D01*
X117729998Y-142001905D01*
X117825237Y-141906667D01*
X118015713Y-141811429D01*
X118301427Y-141811429D01*
X118491903Y-141906667D01*
X118587141Y-142001905D01*
X118682379Y-142192381D01*
X118682379Y-142763810D01*
X118587141Y-142954286D01*
X118491903Y-143049524D01*
X118301427Y-143144762D01*
X118015713Y-143144762D01*
X121063332Y-142097143D02*
X121729999Y-142097143D01*
X122015713Y-143144762D02*
X121063332Y-143144762D01*
X121063332Y-141144762D01*
X122015713Y-141144762D01*
X122682380Y-143144762D02*
X123729999Y-141811429D01*
X122682380Y-141811429D02*
X123729999Y-143144762D01*
X124491904Y-141811429D02*
X124491904Y-143811429D01*
X124491904Y-141906667D02*
X124682381Y-141811429D01*
X125063333Y-141811429D01*
X125253809Y-141906667D01*
X125349047Y-142001905D01*
X125444285Y-142192381D01*
X125444285Y-142763810D01*
X125349047Y-142954286D01*
X125253809Y-143049524D01*
X125063333Y-143144762D01*
X124682381Y-143144762D01*
X124491904Y-143049524D01*
X127158571Y-143144762D02*
X127158571Y-142097143D01*
X127063333Y-141906667D01*
X126872857Y-141811429D01*
X126491905Y-141811429D01*
X126301428Y-141906667D01*
X127158571Y-143049524D02*
X126968095Y-143144762D01*
X126491905Y-143144762D01*
X126301428Y-143049524D01*
X126206190Y-142859048D01*
X126206190Y-142668571D01*
X126301428Y-142478095D01*
X126491905Y-142382857D01*
X126968095Y-142382857D01*
X127158571Y-142287619D01*
X128110952Y-141811429D02*
X128110952Y-143144762D01*
X128110952Y-142001905D02*
X128206191Y-141906667D01*
X128396667Y-141811429D01*
X128682381Y-141811429D01*
X128872857Y-141906667D01*
X128968095Y-142097143D01*
X128968095Y-143144762D01*
X129825238Y-143049524D02*
X130015715Y-143144762D01*
X130396667Y-143144762D01*
X130587143Y-143049524D01*
X130682381Y-142859048D01*
X130682381Y-142763810D01*
X130587143Y-142573333D01*
X130396667Y-142478095D01*
X130110953Y-142478095D01*
X129920476Y-142382857D01*
X129825238Y-142192381D01*
X129825238Y-142097143D01*
X129920476Y-141906667D01*
X130110953Y-141811429D01*
X130396667Y-141811429D01*
X130587143Y-141906667D01*
X131539524Y-143144762D02*
X131539524Y-141811429D01*
X131539524Y-141144762D02*
X131444286Y-141240000D01*
X131539524Y-141335238D01*
X131634763Y-141240000D01*
X131539524Y-141144762D01*
X131539524Y-141335238D01*
X132777620Y-143144762D02*
X132587144Y-143049524D01*
X132491905Y-142954286D01*
X132396667Y-142763810D01*
X132396667Y-142192381D01*
X132491905Y-142001905D01*
X132587144Y-141906667D01*
X132777620Y-141811429D01*
X133063334Y-141811429D01*
X133253810Y-141906667D01*
X133349048Y-142001905D01*
X133444286Y-142192381D01*
X133444286Y-142763810D01*
X133349048Y-142954286D01*
X133253810Y-143049524D01*
X133063334Y-143144762D01*
X132777620Y-143144762D01*
X134301429Y-141811429D02*
X134301429Y-143144762D01*
X134301429Y-142001905D02*
X134396668Y-141906667D01*
X134587144Y-141811429D01*
X134872858Y-141811429D01*
X135063334Y-141906667D01*
X135158572Y-142097143D01*
X135158572Y-143144762D01*
X138301430Y-142097143D02*
X138587144Y-142192381D01*
X138682383Y-142287619D01*
X138777621Y-142478095D01*
X138777621Y-142763810D01*
X138682383Y-142954286D01*
X138587144Y-143049524D01*
X138396668Y-143144762D01*
X137634763Y-143144762D01*
X137634763Y-141144762D01*
X138301430Y-141144762D01*
X138491906Y-141240000D01*
X138587144Y-141335238D01*
X138682383Y-141525714D01*
X138682383Y-141716190D01*
X138587144Y-141906667D01*
X138491906Y-142001905D01*
X138301430Y-142097143D01*
X137634763Y-142097143D01*
X139920478Y-143144762D02*
X139730002Y-143049524D01*
X139634763Y-142954286D01*
X139539525Y-142763810D01*
X139539525Y-142192381D01*
X139634763Y-142001905D01*
X139730002Y-141906667D01*
X139920478Y-141811429D01*
X140206192Y-141811429D01*
X140396668Y-141906667D01*
X140491906Y-142001905D01*
X140587144Y-142192381D01*
X140587144Y-142763810D01*
X140491906Y-142954286D01*
X140396668Y-143049524D01*
X140206192Y-143144762D01*
X139920478Y-143144762D01*
X142301430Y-143144762D02*
X142301430Y-142097143D01*
X142206192Y-141906667D01*
X142015716Y-141811429D01*
X141634764Y-141811429D01*
X141444287Y-141906667D01*
X142301430Y-143049524D02*
X142110954Y-143144762D01*
X141634764Y-143144762D01*
X141444287Y-143049524D01*
X141349049Y-142859048D01*
X141349049Y-142668571D01*
X141444287Y-142478095D01*
X141634764Y-142382857D01*
X142110954Y-142382857D01*
X142301430Y-142287619D01*
X143253811Y-143144762D02*
X143253811Y-141811429D01*
X143253811Y-142192381D02*
X143349050Y-142001905D01*
X143444288Y-141906667D01*
X143634764Y-141811429D01*
X143825240Y-141811429D01*
X145349049Y-143144762D02*
X145349049Y-141144762D01*
X145349049Y-143049524D02*
X145158573Y-143144762D01*
X144777621Y-143144762D01*
X144587145Y-143049524D01*
X144491906Y-142954286D01*
X144396668Y-142763810D01*
X144396668Y-142192381D01*
X144491906Y-142001905D01*
X144587145Y-141906667D01*
X144777621Y-141811429D01*
X145158573Y-141811429D01*
X145349049Y-141906667D01*
X147634764Y-141811429D02*
X148110955Y-143144762D01*
X148587145Y-141811429D01*
X150396670Y-143144762D02*
X149253812Y-143144762D01*
X149825241Y-143144762D02*
X149825241Y-141144762D01*
X149634765Y-141430476D01*
X149444289Y-141620952D01*
X149253812Y-141716190D01*
X151253812Y-142954286D02*
X151349051Y-143049524D01*
X151253812Y-143144762D01*
X151158574Y-143049524D01*
X151253812Y-142954286D01*
X151253812Y-143144762D01*
X152587146Y-141144762D02*
X152777622Y-141144762D01*
X152968098Y-141240000D01*
X153063336Y-141335238D01*
X153158574Y-141525714D01*
X153253813Y-141906667D01*
X153253813Y-142382857D01*
X153158574Y-142763810D01*
X153063336Y-142954286D01*
X152968098Y-143049524D01*
X152777622Y-143144762D01*
X152587146Y-143144762D01*
X152396670Y-143049524D01*
X152301432Y-142954286D01*
X152206193Y-142763810D01*
X152110955Y-142382857D01*
X152110955Y-141906667D01*
X152206193Y-141525714D01*
X152301432Y-141335238D01*
X152396670Y-141240000D01*
X152587146Y-141144762D01*
X120531430Y-145228571D02*
X120531430Y-146300000D01*
X120460002Y-146514286D01*
X120317145Y-146657143D01*
X120102859Y-146728571D01*
X119960002Y-146728571D01*
X121174287Y-146657143D02*
X121388573Y-146728571D01*
X121745716Y-146728571D01*
X121888573Y-146657143D01*
X121960002Y-146585714D01*
X122031430Y-146442857D01*
X122031430Y-146300000D01*
X121960002Y-146157143D01*
X121888573Y-146085714D01*
X121745716Y-146014286D01*
X121460002Y-145942857D01*
X121317144Y-145871429D01*
X121245716Y-145800000D01*
X121174287Y-145657143D01*
X121174287Y-145514286D01*
X121245716Y-145371429D01*
X121317144Y-145300000D01*
X121460002Y-145228571D01*
X121817144Y-145228571D01*
X122031430Y-145300000D01*
X123745715Y-145371429D02*
X123817144Y-145300000D01*
X123960001Y-145228571D01*
X124317144Y-145228571D01*
X124460001Y-145300000D01*
X124531430Y-145371429D01*
X124602858Y-145514286D01*
X124602858Y-145657143D01*
X124531430Y-145871429D01*
X123674287Y-146728571D01*
X124602858Y-146728571D01*
X125531429Y-145228571D02*
X125674286Y-145228571D01*
X125817143Y-145300000D01*
X125888572Y-145371429D01*
X125960001Y-145514286D01*
X126031429Y-145800000D01*
X126031429Y-146157143D01*
X125960001Y-146442857D01*
X125888572Y-146585714D01*
X125817143Y-146657143D01*
X125674286Y-146728571D01*
X125531429Y-146728571D01*
X125388572Y-146657143D01*
X125317143Y-146585714D01*
X125245715Y-146442857D01*
X125174286Y-146157143D01*
X125174286Y-145800000D01*
X125245715Y-145514286D01*
X125317143Y-145371429D01*
X125388572Y-145300000D01*
X125531429Y-145228571D01*
X127460000Y-146728571D02*
X126602857Y-146728571D01*
X127031429Y-146728571D02*
X127031429Y-145228571D01*
X126888572Y-145442857D01*
X126745714Y-145585714D01*
X126602857Y-145657143D01*
X127960000Y-145228571D02*
X128960000Y-145228571D01*
X128317143Y-146728571D01*
X158682858Y-29090000D02*
X158540001Y-29018571D01*
X158325715Y-29018571D01*
X158111430Y-29090000D01*
X157968572Y-29232857D01*
X157897144Y-29375714D01*
X157825715Y-29661429D01*
X157825715Y-29875714D01*
X157897144Y-30161429D01*
X157968572Y-30304286D01*
X158111430Y-30447143D01*
X158325715Y-30518571D01*
X158468572Y-30518571D01*
X158682858Y-30447143D01*
X158754287Y-30375714D01*
X158754287Y-29875714D01*
X158468572Y-29875714D01*
X159682858Y-29804286D02*
X159682858Y-30518571D01*
X159182858Y-29018571D02*
X159682858Y-29804286D01*
X160182858Y-29018571D01*
X160682858Y-29947143D02*
X161825715Y-29947143D01*
X162611429Y-30518571D02*
X162897144Y-30518571D01*
X163040001Y-30447143D01*
X163111429Y-30375714D01*
X163254287Y-30161429D01*
X163325715Y-29875714D01*
X163325715Y-29304286D01*
X163254287Y-29161429D01*
X163182858Y-29090000D01*
X163040001Y-29018571D01*
X162754287Y-29018571D01*
X162611429Y-29090000D01*
X162540001Y-29161429D01*
X162468572Y-29304286D01*
X162468572Y-29661429D01*
X162540001Y-29804286D01*
X162611429Y-29875714D01*
X162754287Y-29947143D01*
X163040001Y-29947143D01*
X163182858Y-29875714D01*
X163254287Y-29804286D01*
X163325715Y-29661429D01*
X164754286Y-30518571D02*
X163897143Y-30518571D01*
X164325715Y-30518571D02*
X164325715Y-29018571D01*
X164182858Y-29232857D01*
X164040000Y-29375714D01*
X163897143Y-29447143D01*
X151754287Y-33068571D02*
X151754287Y-31568571D01*
X152254287Y-32640000D01*
X152754287Y-31568571D01*
X152754287Y-33068571D01*
X153468573Y-33068571D02*
X153468573Y-31568571D01*
X154040001Y-31568571D01*
X154182859Y-31640000D01*
X154254287Y-31711429D01*
X154325716Y-31854286D01*
X154325716Y-32068571D01*
X154254287Y-32211429D01*
X154182859Y-32282857D01*
X154040001Y-32354286D01*
X153468573Y-32354286D01*
X155040001Y-33068571D02*
X155325716Y-33068571D01*
X155468573Y-32997143D01*
X155540001Y-32925714D01*
X155682859Y-32711429D01*
X155754287Y-32425714D01*
X155754287Y-31854286D01*
X155682859Y-31711429D01*
X155611430Y-31640000D01*
X155468573Y-31568571D01*
X155182859Y-31568571D01*
X155040001Y-31640000D01*
X154968573Y-31711429D01*
X154897144Y-31854286D01*
X154897144Y-32211429D01*
X154968573Y-32354286D01*
X155040001Y-32425714D01*
X155182859Y-32497143D01*
X155468573Y-32497143D01*
X155611430Y-32425714D01*
X155682859Y-32354286D01*
X155754287Y-32211429D01*
X156325715Y-31711429D02*
X156397144Y-31640000D01*
X156540001Y-31568571D01*
X156897144Y-31568571D01*
X157040001Y-31640000D01*
X157111430Y-31711429D01*
X157182858Y-31854286D01*
X157182858Y-31997143D01*
X157111430Y-32211429D01*
X156254287Y-33068571D01*
X157182858Y-33068571D01*
X158540001Y-31568571D02*
X157825715Y-31568571D01*
X157754286Y-32282857D01*
X157825715Y-32211429D01*
X157968572Y-32140000D01*
X158325715Y-32140000D01*
X158468572Y-32211429D01*
X158540001Y-32282857D01*
X158611429Y-32425714D01*
X158611429Y-32782857D01*
X158540001Y-32925714D01*
X158468572Y-32997143D01*
X158325715Y-33068571D01*
X157968572Y-33068571D01*
X157825715Y-32997143D01*
X157754286Y-32925714D01*
X159540000Y-31568571D02*
X159682857Y-31568571D01*
X159825714Y-31640000D01*
X159897143Y-31711429D01*
X159968572Y-31854286D01*
X160040000Y-32140000D01*
X160040000Y-32497143D01*
X159968572Y-32782857D01*
X159897143Y-32925714D01*
X159825714Y-32997143D01*
X159682857Y-33068571D01*
X159540000Y-33068571D01*
X159397143Y-32997143D01*
X159325714Y-32925714D01*
X159254286Y-32782857D01*
X159182857Y-32497143D01*
X159182857Y-32140000D01*
X159254286Y-31854286D01*
X159325714Y-31711429D01*
X159397143Y-31640000D01*
X159540000Y-31568571D01*
X160682857Y-32497143D02*
X161825714Y-32497143D01*
X161254285Y-33068571D02*
X161254285Y-31925714D01*
X163040000Y-32282857D02*
X163254286Y-32354286D01*
X163325714Y-32425714D01*
X163397143Y-32568571D01*
X163397143Y-32782857D01*
X163325714Y-32925714D01*
X163254286Y-32997143D01*
X163111428Y-33068571D01*
X162540000Y-33068571D01*
X162540000Y-31568571D01*
X163040000Y-31568571D01*
X163182857Y-31640000D01*
X163254286Y-31711429D01*
X163325714Y-31854286D01*
X163325714Y-31997143D01*
X163254286Y-32140000D01*
X163182857Y-32211429D01*
X163040000Y-32282857D01*
X162540000Y-32282857D01*
X164040000Y-33068571D02*
X164040000Y-31568571D01*
X164540000Y-32640000D01*
X165040000Y-31568571D01*
X165040000Y-33068571D01*
X165754286Y-33068571D02*
X165754286Y-31568571D01*
X166325714Y-31568571D01*
X166468572Y-31640000D01*
X166540000Y-31711429D01*
X166611429Y-31854286D01*
X166611429Y-32068571D01*
X166540000Y-32211429D01*
X166468572Y-32282857D01*
X166325714Y-32354286D01*
X165754286Y-32354286D01*
X167182857Y-31711429D02*
X167254286Y-31640000D01*
X167397143Y-31568571D01*
X167754286Y-31568571D01*
X167897143Y-31640000D01*
X167968572Y-31711429D01*
X168040000Y-31854286D01*
X168040000Y-31997143D01*
X167968572Y-32211429D01*
X167111429Y-33068571D01*
X168040000Y-33068571D01*
X168897143Y-32211429D02*
X168754285Y-32140000D01*
X168682857Y-32068571D01*
X168611428Y-31925714D01*
X168611428Y-31854286D01*
X168682857Y-31711429D01*
X168754285Y-31640000D01*
X168897143Y-31568571D01*
X169182857Y-31568571D01*
X169325714Y-31640000D01*
X169397143Y-31711429D01*
X169468571Y-31854286D01*
X169468571Y-31925714D01*
X169397143Y-32068571D01*
X169325714Y-32140000D01*
X169182857Y-32211429D01*
X168897143Y-32211429D01*
X168754285Y-32282857D01*
X168682857Y-32354286D01*
X168611428Y-32497143D01*
X168611428Y-32782857D01*
X168682857Y-32925714D01*
X168754285Y-32997143D01*
X168897143Y-33068571D01*
X169182857Y-33068571D01*
X169325714Y-32997143D01*
X169397143Y-32925714D01*
X169468571Y-32782857D01*
X169468571Y-32497143D01*
X169397143Y-32354286D01*
X169325714Y-32282857D01*
X169182857Y-32211429D01*
X170397142Y-31568571D02*
X170539999Y-31568571D01*
X170682856Y-31640000D01*
X170754285Y-31711429D01*
X170825714Y-31854286D01*
X170897142Y-32140000D01*
X170897142Y-32497143D01*
X170825714Y-32782857D01*
X170754285Y-32925714D01*
X170682856Y-32997143D01*
X170539999Y-33068571D01*
X170397142Y-33068571D01*
X170254285Y-32997143D01*
X170182856Y-32925714D01*
X170111428Y-32782857D01*
X170039999Y-32497143D01*
X170039999Y-32140000D01*
X170111428Y-31854286D01*
X170182856Y-31711429D01*
X170254285Y-31640000D01*
X170397142Y-31568571D01*
D11*
X109982000Y-49784000D02*
G75*
G03X112522000Y-52324000I2540000J0D01*
G01*
X112522000Y-23622000D02*
G75*
G03X109982000Y-26162000I0J-2540000D01*
G01*
X135382000Y-52324000D02*
G75*
G03X137922000Y-49784000I0J2540000D01*
G01*
X137922000Y-26162000D02*
G75*
G03X135382000Y-23622000I-2540000J0D01*
G01*
X137922000Y-49784000D02*
X137922000Y-26162000D01*
X109982000Y-26162000D02*
X109982000Y-49784000D01*
X112522000Y-52324000D02*
X135382000Y-52324000D01*
X78232000Y-49784000D02*
G75*
G03X80772000Y-52324000I2540000J0D01*
G01*
X80772000Y-23622000D02*
G75*
G03X78232000Y-26162000I0J-2540000D01*
G01*
X103632000Y-52324000D02*
G75*
G03X106172000Y-49784000I0J2540000D01*
G01*
X106172000Y-26162000D02*
G75*
G03X103632000Y-23622000I-2540000J0D01*
G01*
X106172000Y-49784000D02*
X106172000Y-26162000D01*
X78232000Y-26162000D02*
X78232000Y-49784000D01*
X80772000Y-52324000D02*
X103632000Y-52324000D01*
X46482000Y-49784000D02*
G75*
G03X49022000Y-52324000I2540000J0D01*
G01*
X49022000Y-23622000D02*
G75*
G03X46482000Y-26162000I0J-2540000D01*
G01*
X71882000Y-52324000D02*
G75*
G03X74422000Y-49784000I0J2540000D01*
G01*
X74422000Y-26162000D02*
G75*
G03X71882000Y-23622000I-2540000J0D01*
G01*
X74422000Y-49784000D02*
X74422000Y-26162000D01*
X46482000Y-26162000D02*
X46482000Y-49784000D01*
X49022000Y-52324000D02*
X71882000Y-52324000D01*
D12*
X91503714Y-36401714D02*
X91789428Y-36116000D01*
X92360857Y-35830286D01*
X93789428Y-35830286D01*
X94360857Y-36116000D01*
X94646571Y-36401714D01*
X94932286Y-36973143D01*
X94932286Y-37544571D01*
X94646571Y-38401714D01*
X91218000Y-41830286D01*
X94932286Y-41830286D01*
X96774571Y-30869571D02*
X96774571Y-29369571D01*
X97345999Y-29369571D01*
X97488857Y-29441000D01*
X97560285Y-29512429D01*
X97631714Y-29655286D01*
X97631714Y-29869571D01*
X97560285Y-30012429D01*
X97488857Y-30083857D01*
X97345999Y-30155286D01*
X96774571Y-30155286D01*
X98131714Y-29369571D02*
X98488857Y-30869571D01*
X98774571Y-29798143D01*
X99060285Y-30869571D01*
X99417428Y-29369571D01*
X99988857Y-30869571D02*
X99988857Y-29369571D01*
X100488857Y-30441000D01*
X100988857Y-29369571D01*
X100988857Y-30869571D01*
X98274571Y-33419571D02*
X98274571Y-31919571D01*
X98988857Y-33419571D02*
X98988857Y-31919571D01*
X99846000Y-33419571D01*
X99846000Y-31919571D01*
X100346000Y-31919571D02*
X101203143Y-31919571D01*
X100774572Y-33419571D02*
X100774572Y-31919571D01*
X99631715Y-35969571D02*
X99131715Y-35255286D01*
X98774572Y-35969571D02*
X98774572Y-34469571D01*
X99346000Y-34469571D01*
X99488858Y-34541000D01*
X99560286Y-34612429D01*
X99631715Y-34755286D01*
X99631715Y-34969571D01*
X99560286Y-35112429D01*
X99488858Y-35183857D01*
X99346000Y-35255286D01*
X98774572Y-35255286D01*
X100131715Y-34469571D02*
X101131715Y-35969571D01*
X101131715Y-34469571D02*
X100131715Y-35969571D01*
X98917429Y-37019571D02*
X99774572Y-37019571D01*
X99346001Y-38519571D02*
X99346001Y-37019571D01*
X100131715Y-37019571D02*
X101131715Y-38519571D01*
X101131715Y-37019571D02*
X100131715Y-38519571D01*
X97488857Y-40998143D02*
X97703143Y-41069571D01*
X98060286Y-41069571D01*
X98203143Y-40998143D01*
X98274572Y-40926714D01*
X98346000Y-40783857D01*
X98346000Y-40641000D01*
X98274572Y-40498143D01*
X98203143Y-40426714D01*
X98060286Y-40355286D01*
X97774572Y-40283857D01*
X97631714Y-40212429D01*
X97560286Y-40141000D01*
X97488857Y-39998143D01*
X97488857Y-39855286D01*
X97560286Y-39712429D01*
X97631714Y-39641000D01*
X97774572Y-39569571D01*
X98131714Y-39569571D01*
X98346000Y-39641000D01*
X99846000Y-40926714D02*
X99774571Y-40998143D01*
X99560285Y-41069571D01*
X99417428Y-41069571D01*
X99203143Y-40998143D01*
X99060285Y-40855286D01*
X98988857Y-40712429D01*
X98917428Y-40426714D01*
X98917428Y-40212429D01*
X98988857Y-39926714D01*
X99060285Y-39783857D01*
X99203143Y-39641000D01*
X99417428Y-39569571D01*
X99560285Y-39569571D01*
X99774571Y-39641000D01*
X99846000Y-39712429D01*
X101203143Y-41069571D02*
X100488857Y-41069571D01*
X100488857Y-39569571D01*
X97417429Y-43548143D02*
X97631715Y-43619571D01*
X97988858Y-43619571D01*
X98131715Y-43548143D01*
X98203144Y-43476714D01*
X98274572Y-43333857D01*
X98274572Y-43191000D01*
X98203144Y-43048143D01*
X98131715Y-42976714D01*
X97988858Y-42905286D01*
X97703144Y-42833857D01*
X97560286Y-42762429D01*
X97488858Y-42691000D01*
X97417429Y-42548143D01*
X97417429Y-42405286D01*
X97488858Y-42262429D01*
X97560286Y-42191000D01*
X97703144Y-42119571D01*
X98060286Y-42119571D01*
X98274572Y-42191000D01*
X98917429Y-43619571D02*
X98917429Y-42119571D01*
X99274572Y-42119571D01*
X99488857Y-42191000D01*
X99631715Y-42333857D01*
X99703143Y-42476714D01*
X99774572Y-42762429D01*
X99774572Y-42976714D01*
X99703143Y-43262429D01*
X99631715Y-43405286D01*
X99488857Y-43548143D01*
X99274572Y-43619571D01*
X98917429Y-43619571D01*
X100346000Y-43191000D02*
X101060286Y-43191000D01*
X100203143Y-43619571D02*
X100703143Y-42119571D01*
X101203143Y-43619571D01*
X97131715Y-45598143D02*
X98274572Y-45598143D01*
X97703143Y-46169571D02*
X97703143Y-45026714D01*
X99703144Y-44669571D02*
X98988858Y-44669571D01*
X98917429Y-45383857D01*
X98988858Y-45312429D01*
X99131715Y-45241000D01*
X99488858Y-45241000D01*
X99631715Y-45312429D01*
X99703144Y-45383857D01*
X99774572Y-45526714D01*
X99774572Y-45883857D01*
X99703144Y-46026714D01*
X99631715Y-46098143D01*
X99488858Y-46169571D01*
X99131715Y-46169571D01*
X98988858Y-46098143D01*
X98917429Y-46026714D01*
X100203143Y-44669571D02*
X100703143Y-46169571D01*
X101203143Y-44669571D01*
X97917428Y-47291000D02*
X97774571Y-47219571D01*
X97560285Y-47219571D01*
X97346000Y-47291000D01*
X97203142Y-47433857D01*
X97131714Y-47576714D01*
X97060285Y-47862429D01*
X97060285Y-48076714D01*
X97131714Y-48362429D01*
X97203142Y-48505286D01*
X97346000Y-48648143D01*
X97560285Y-48719571D01*
X97703142Y-48719571D01*
X97917428Y-48648143D01*
X97988857Y-48576714D01*
X97988857Y-48076714D01*
X97703142Y-48076714D01*
X98631714Y-48719571D02*
X98631714Y-47219571D01*
X99488857Y-48719571D01*
X99488857Y-47219571D01*
X100203143Y-48719571D02*
X100203143Y-47219571D01*
X100560286Y-47219571D01*
X100774571Y-47291000D01*
X100917429Y-47433857D01*
X100988857Y-47576714D01*
X101060286Y-47862429D01*
X101060286Y-48076714D01*
X100988857Y-48362429D01*
X100917429Y-48505286D01*
X100774571Y-48648143D01*
X100560286Y-48719571D01*
X100203143Y-48719571D01*
X83597714Y-30187000D02*
X84312000Y-30187000D01*
X83454857Y-30615571D02*
X83954857Y-29115571D01*
X84454857Y-30615571D01*
X84954857Y-30615571D02*
X84954857Y-29115571D01*
X85812000Y-30615571D01*
X85812000Y-29115571D01*
X84526286Y-33165571D02*
X84026286Y-32451286D01*
X83669143Y-33165571D02*
X83669143Y-31665571D01*
X84240571Y-31665571D01*
X84383429Y-31737000D01*
X84454857Y-31808429D01*
X84526286Y-31951286D01*
X84526286Y-32165571D01*
X84454857Y-32308429D01*
X84383429Y-32379857D01*
X84240571Y-32451286D01*
X83669143Y-32451286D01*
X85097714Y-33094143D02*
X85312000Y-33165571D01*
X85669143Y-33165571D01*
X85812000Y-33094143D01*
X85883429Y-33022714D01*
X85954857Y-32879857D01*
X85954857Y-32737000D01*
X85883429Y-32594143D01*
X85812000Y-32522714D01*
X85669143Y-32451286D01*
X85383429Y-32379857D01*
X85240571Y-32308429D01*
X85169143Y-32237000D01*
X85097714Y-32094143D01*
X85097714Y-31951286D01*
X85169143Y-31808429D01*
X85240571Y-31737000D01*
X85383429Y-31665571D01*
X85740571Y-31665571D01*
X85954857Y-31737000D01*
X86383428Y-31665571D02*
X87240571Y-31665571D01*
X86812000Y-33165571D02*
X86812000Y-31665571D01*
X84526286Y-35572714D02*
X84454857Y-35644143D01*
X84240571Y-35715571D01*
X84097714Y-35715571D01*
X83883429Y-35644143D01*
X83740571Y-35501286D01*
X83669143Y-35358429D01*
X83597714Y-35072714D01*
X83597714Y-34858429D01*
X83669143Y-34572714D01*
X83740571Y-34429857D01*
X83883429Y-34287000D01*
X84097714Y-34215571D01*
X84240571Y-34215571D01*
X84454857Y-34287000D01*
X84526286Y-34358429D01*
X85097714Y-35644143D02*
X85312000Y-35715571D01*
X85669143Y-35715571D01*
X85812000Y-35644143D01*
X85883429Y-35572714D01*
X85954857Y-35429857D01*
X85954857Y-35287000D01*
X85883429Y-35144143D01*
X85812000Y-35072714D01*
X85669143Y-35001286D01*
X85383429Y-34929857D01*
X85240571Y-34858429D01*
X85169143Y-34787000D01*
X85097714Y-34644143D01*
X85097714Y-34501286D01*
X85169143Y-34358429D01*
X85240571Y-34287000D01*
X85383429Y-34215571D01*
X85740571Y-34215571D01*
X85954857Y-34287000D01*
X83597714Y-38194143D02*
X83812000Y-38265571D01*
X84169143Y-38265571D01*
X84312000Y-38194143D01*
X84383429Y-38122714D01*
X84454857Y-37979857D01*
X84454857Y-37837000D01*
X84383429Y-37694143D01*
X84312000Y-37622714D01*
X84169143Y-37551286D01*
X83883429Y-37479857D01*
X83740571Y-37408429D01*
X83669143Y-37337000D01*
X83597714Y-37194143D01*
X83597714Y-37051286D01*
X83669143Y-36908429D01*
X83740571Y-36837000D01*
X83883429Y-36765571D01*
X84240571Y-36765571D01*
X84454857Y-36837000D01*
X85954857Y-38122714D02*
X85883428Y-38194143D01*
X85669142Y-38265571D01*
X85526285Y-38265571D01*
X85312000Y-38194143D01*
X85169142Y-38051286D01*
X85097714Y-37908429D01*
X85026285Y-37622714D01*
X85026285Y-37408429D01*
X85097714Y-37122714D01*
X85169142Y-36979857D01*
X85312000Y-36837000D01*
X85526285Y-36765571D01*
X85669142Y-36765571D01*
X85883428Y-36837000D01*
X85954857Y-36908429D01*
X86597714Y-38265571D02*
X86597714Y-36765571D01*
X87454857Y-38265571D02*
X86812000Y-37408429D01*
X87454857Y-36765571D02*
X86597714Y-37622714D01*
X83669143Y-40815571D02*
X83669143Y-39315571D01*
X84169143Y-40387000D01*
X84669143Y-39315571D01*
X84669143Y-40815571D01*
X85383429Y-40815571D02*
X85383429Y-39315571D01*
X86026286Y-40744143D02*
X86240572Y-40815571D01*
X86597715Y-40815571D01*
X86740572Y-40744143D01*
X86812001Y-40672714D01*
X86883429Y-40529857D01*
X86883429Y-40387000D01*
X86812001Y-40244143D01*
X86740572Y-40172714D01*
X86597715Y-40101286D01*
X86312001Y-40029857D01*
X86169143Y-39958429D01*
X86097715Y-39887000D01*
X86026286Y-39744143D01*
X86026286Y-39601286D01*
X86097715Y-39458429D01*
X86169143Y-39387000D01*
X86312001Y-39315571D01*
X86669143Y-39315571D01*
X86883429Y-39387000D01*
X87812000Y-39315571D02*
X88097714Y-39315571D01*
X88240572Y-39387000D01*
X88383429Y-39529857D01*
X88454857Y-39815571D01*
X88454857Y-40315571D01*
X88383429Y-40601286D01*
X88240572Y-40744143D01*
X88097714Y-40815571D01*
X87812000Y-40815571D01*
X87669143Y-40744143D01*
X87526286Y-40601286D01*
X87454857Y-40315571D01*
X87454857Y-39815571D01*
X87526286Y-39529857D01*
X87669143Y-39387000D01*
X87812000Y-39315571D01*
X83669143Y-43365571D02*
X83669143Y-41865571D01*
X84169143Y-42937000D01*
X84669143Y-41865571D01*
X84669143Y-43365571D01*
X85669143Y-41865571D02*
X85954857Y-41865571D01*
X86097715Y-41937000D01*
X86240572Y-42079857D01*
X86312000Y-42365571D01*
X86312000Y-42865571D01*
X86240572Y-43151286D01*
X86097715Y-43294143D01*
X85954857Y-43365571D01*
X85669143Y-43365571D01*
X85526286Y-43294143D01*
X85383429Y-43151286D01*
X85312000Y-42865571D01*
X85312000Y-42365571D01*
X85383429Y-42079857D01*
X85526286Y-41937000D01*
X85669143Y-41865571D01*
X86883429Y-43294143D02*
X87097715Y-43365571D01*
X87454858Y-43365571D01*
X87597715Y-43294143D01*
X87669144Y-43222714D01*
X87740572Y-43079857D01*
X87740572Y-42937000D01*
X87669144Y-42794143D01*
X87597715Y-42722714D01*
X87454858Y-42651286D01*
X87169144Y-42579857D01*
X87026286Y-42508429D01*
X86954858Y-42437000D01*
X86883429Y-42294143D01*
X86883429Y-42151286D01*
X86954858Y-42008429D01*
X87026286Y-41937000D01*
X87169144Y-41865571D01*
X87526286Y-41865571D01*
X87740572Y-41937000D01*
X88383429Y-43365571D02*
X88383429Y-41865571D01*
X83669143Y-45344143D02*
X84812000Y-45344143D01*
X84240571Y-45915571D02*
X84240571Y-44772714D01*
X85383429Y-44415571D02*
X86312000Y-44415571D01*
X85812000Y-44987000D01*
X86026286Y-44987000D01*
X86169143Y-45058429D01*
X86240572Y-45129857D01*
X86312000Y-45272714D01*
X86312000Y-45629857D01*
X86240572Y-45772714D01*
X86169143Y-45844143D01*
X86026286Y-45915571D01*
X85597714Y-45915571D01*
X85454857Y-45844143D01*
X85383429Y-45772714D01*
X86954857Y-45772714D02*
X87026285Y-45844143D01*
X86954857Y-45915571D01*
X86883428Y-45844143D01*
X86954857Y-45772714D01*
X86954857Y-45915571D01*
X87526286Y-44415571D02*
X88454857Y-44415571D01*
X87954857Y-44987000D01*
X88169143Y-44987000D01*
X88312000Y-45058429D01*
X88383429Y-45129857D01*
X88454857Y-45272714D01*
X88454857Y-45629857D01*
X88383429Y-45772714D01*
X88312000Y-45844143D01*
X88169143Y-45915571D01*
X87740571Y-45915571D01*
X87597714Y-45844143D01*
X87526286Y-45772714D01*
X88883428Y-44415571D02*
X89383428Y-45915571D01*
X89883428Y-44415571D01*
X84454857Y-47037000D02*
X84312000Y-46965571D01*
X84097714Y-46965571D01*
X83883429Y-47037000D01*
X83740571Y-47179857D01*
X83669143Y-47322714D01*
X83597714Y-47608429D01*
X83597714Y-47822714D01*
X83669143Y-48108429D01*
X83740571Y-48251286D01*
X83883429Y-48394143D01*
X84097714Y-48465571D01*
X84240571Y-48465571D01*
X84454857Y-48394143D01*
X84526286Y-48322714D01*
X84526286Y-47822714D01*
X84240571Y-47822714D01*
X85169143Y-48465571D02*
X85169143Y-46965571D01*
X86026286Y-48465571D01*
X86026286Y-46965571D01*
X86740572Y-48465571D02*
X86740572Y-46965571D01*
X87097715Y-46965571D01*
X87312000Y-47037000D01*
X87454858Y-47179857D01*
X87526286Y-47322714D01*
X87597715Y-47608429D01*
X87597715Y-47822714D01*
X87526286Y-48108429D01*
X87454858Y-48251286D01*
X87312000Y-48394143D01*
X87097715Y-48465571D01*
X86740572Y-48465571D01*
X115093714Y-30187000D02*
X115808000Y-30187000D01*
X114950857Y-30615571D02*
X115450857Y-29115571D01*
X115950857Y-30615571D01*
X116450857Y-30615571D02*
X116450857Y-29115571D01*
X117308000Y-30615571D01*
X117308000Y-29115571D01*
X116022286Y-33165571D02*
X115522286Y-32451286D01*
X115165143Y-33165571D02*
X115165143Y-31665571D01*
X115736571Y-31665571D01*
X115879429Y-31737000D01*
X115950857Y-31808429D01*
X116022286Y-31951286D01*
X116022286Y-32165571D01*
X115950857Y-32308429D01*
X115879429Y-32379857D01*
X115736571Y-32451286D01*
X115165143Y-32451286D01*
X116593714Y-33094143D02*
X116808000Y-33165571D01*
X117165143Y-33165571D01*
X117308000Y-33094143D01*
X117379429Y-33022714D01*
X117450857Y-32879857D01*
X117450857Y-32737000D01*
X117379429Y-32594143D01*
X117308000Y-32522714D01*
X117165143Y-32451286D01*
X116879429Y-32379857D01*
X116736571Y-32308429D01*
X116665143Y-32237000D01*
X116593714Y-32094143D01*
X116593714Y-31951286D01*
X116665143Y-31808429D01*
X116736571Y-31737000D01*
X116879429Y-31665571D01*
X117236571Y-31665571D01*
X117450857Y-31737000D01*
X117879428Y-31665571D02*
X118736571Y-31665571D01*
X118308000Y-33165571D02*
X118308000Y-31665571D01*
X116022286Y-35572714D02*
X115950857Y-35644143D01*
X115736571Y-35715571D01*
X115593714Y-35715571D01*
X115379429Y-35644143D01*
X115236571Y-35501286D01*
X115165143Y-35358429D01*
X115093714Y-35072714D01*
X115093714Y-34858429D01*
X115165143Y-34572714D01*
X115236571Y-34429857D01*
X115379429Y-34287000D01*
X115593714Y-34215571D01*
X115736571Y-34215571D01*
X115950857Y-34287000D01*
X116022286Y-34358429D01*
X116593714Y-35644143D02*
X116808000Y-35715571D01*
X117165143Y-35715571D01*
X117308000Y-35644143D01*
X117379429Y-35572714D01*
X117450857Y-35429857D01*
X117450857Y-35287000D01*
X117379429Y-35144143D01*
X117308000Y-35072714D01*
X117165143Y-35001286D01*
X116879429Y-34929857D01*
X116736571Y-34858429D01*
X116665143Y-34787000D01*
X116593714Y-34644143D01*
X116593714Y-34501286D01*
X116665143Y-34358429D01*
X116736571Y-34287000D01*
X116879429Y-34215571D01*
X117236571Y-34215571D01*
X117450857Y-34287000D01*
X115093714Y-38194143D02*
X115308000Y-38265571D01*
X115665143Y-38265571D01*
X115808000Y-38194143D01*
X115879429Y-38122714D01*
X115950857Y-37979857D01*
X115950857Y-37837000D01*
X115879429Y-37694143D01*
X115808000Y-37622714D01*
X115665143Y-37551286D01*
X115379429Y-37479857D01*
X115236571Y-37408429D01*
X115165143Y-37337000D01*
X115093714Y-37194143D01*
X115093714Y-37051286D01*
X115165143Y-36908429D01*
X115236571Y-36837000D01*
X115379429Y-36765571D01*
X115736571Y-36765571D01*
X115950857Y-36837000D01*
X117450857Y-38122714D02*
X117379428Y-38194143D01*
X117165142Y-38265571D01*
X117022285Y-38265571D01*
X116808000Y-38194143D01*
X116665142Y-38051286D01*
X116593714Y-37908429D01*
X116522285Y-37622714D01*
X116522285Y-37408429D01*
X116593714Y-37122714D01*
X116665142Y-36979857D01*
X116808000Y-36837000D01*
X117022285Y-36765571D01*
X117165142Y-36765571D01*
X117379428Y-36837000D01*
X117450857Y-36908429D01*
X118093714Y-38265571D02*
X118093714Y-36765571D01*
X118950857Y-38265571D02*
X118308000Y-37408429D01*
X118950857Y-36765571D02*
X118093714Y-37622714D01*
X115165143Y-40815571D02*
X115165143Y-39315571D01*
X115665143Y-40387000D01*
X116165143Y-39315571D01*
X116165143Y-40815571D01*
X116879429Y-40815571D02*
X116879429Y-39315571D01*
X117522286Y-40744143D02*
X117736572Y-40815571D01*
X118093715Y-40815571D01*
X118236572Y-40744143D01*
X118308001Y-40672714D01*
X118379429Y-40529857D01*
X118379429Y-40387000D01*
X118308001Y-40244143D01*
X118236572Y-40172714D01*
X118093715Y-40101286D01*
X117808001Y-40029857D01*
X117665143Y-39958429D01*
X117593715Y-39887000D01*
X117522286Y-39744143D01*
X117522286Y-39601286D01*
X117593715Y-39458429D01*
X117665143Y-39387000D01*
X117808001Y-39315571D01*
X118165143Y-39315571D01*
X118379429Y-39387000D01*
X119308000Y-39315571D02*
X119593714Y-39315571D01*
X119736572Y-39387000D01*
X119879429Y-39529857D01*
X119950857Y-39815571D01*
X119950857Y-40315571D01*
X119879429Y-40601286D01*
X119736572Y-40744143D01*
X119593714Y-40815571D01*
X119308000Y-40815571D01*
X119165143Y-40744143D01*
X119022286Y-40601286D01*
X118950857Y-40315571D01*
X118950857Y-39815571D01*
X119022286Y-39529857D01*
X119165143Y-39387000D01*
X119308000Y-39315571D01*
X115165143Y-43365571D02*
X115165143Y-41865571D01*
X115665143Y-42937000D01*
X116165143Y-41865571D01*
X116165143Y-43365571D01*
X117165143Y-41865571D02*
X117450857Y-41865571D01*
X117593715Y-41937000D01*
X117736572Y-42079857D01*
X117808000Y-42365571D01*
X117808000Y-42865571D01*
X117736572Y-43151286D01*
X117593715Y-43294143D01*
X117450857Y-43365571D01*
X117165143Y-43365571D01*
X117022286Y-43294143D01*
X116879429Y-43151286D01*
X116808000Y-42865571D01*
X116808000Y-42365571D01*
X116879429Y-42079857D01*
X117022286Y-41937000D01*
X117165143Y-41865571D01*
X118379429Y-43294143D02*
X118593715Y-43365571D01*
X118950858Y-43365571D01*
X119093715Y-43294143D01*
X119165144Y-43222714D01*
X119236572Y-43079857D01*
X119236572Y-42937000D01*
X119165144Y-42794143D01*
X119093715Y-42722714D01*
X118950858Y-42651286D01*
X118665144Y-42579857D01*
X118522286Y-42508429D01*
X118450858Y-42437000D01*
X118379429Y-42294143D01*
X118379429Y-42151286D01*
X118450858Y-42008429D01*
X118522286Y-41937000D01*
X118665144Y-41865571D01*
X119022286Y-41865571D01*
X119236572Y-41937000D01*
X119879429Y-43365571D02*
X119879429Y-41865571D01*
X115165143Y-45344143D02*
X116308000Y-45344143D01*
X115736571Y-45915571D02*
X115736571Y-44772714D01*
X116879429Y-44415571D02*
X117808000Y-44415571D01*
X117308000Y-44987000D01*
X117522286Y-44987000D01*
X117665143Y-45058429D01*
X117736572Y-45129857D01*
X117808000Y-45272714D01*
X117808000Y-45629857D01*
X117736572Y-45772714D01*
X117665143Y-45844143D01*
X117522286Y-45915571D01*
X117093714Y-45915571D01*
X116950857Y-45844143D01*
X116879429Y-45772714D01*
X118450857Y-45772714D02*
X118522285Y-45844143D01*
X118450857Y-45915571D01*
X118379428Y-45844143D01*
X118450857Y-45772714D01*
X118450857Y-45915571D01*
X119022286Y-44415571D02*
X119950857Y-44415571D01*
X119450857Y-44987000D01*
X119665143Y-44987000D01*
X119808000Y-45058429D01*
X119879429Y-45129857D01*
X119950857Y-45272714D01*
X119950857Y-45629857D01*
X119879429Y-45772714D01*
X119808000Y-45844143D01*
X119665143Y-45915571D01*
X119236571Y-45915571D01*
X119093714Y-45844143D01*
X119022286Y-45772714D01*
X120379428Y-44415571D02*
X120879428Y-45915571D01*
X121379428Y-44415571D01*
X115950857Y-47037000D02*
X115808000Y-46965571D01*
X115593714Y-46965571D01*
X115379429Y-47037000D01*
X115236571Y-47179857D01*
X115165143Y-47322714D01*
X115093714Y-47608429D01*
X115093714Y-47822714D01*
X115165143Y-48108429D01*
X115236571Y-48251286D01*
X115379429Y-48394143D01*
X115593714Y-48465571D01*
X115736571Y-48465571D01*
X115950857Y-48394143D01*
X116022286Y-48322714D01*
X116022286Y-47822714D01*
X115736571Y-47822714D01*
X116665143Y-48465571D02*
X116665143Y-46965571D01*
X117522286Y-48465571D01*
X117522286Y-46965571D01*
X118236572Y-48465571D02*
X118236572Y-46965571D01*
X118593715Y-46965571D01*
X118808000Y-47037000D01*
X118950858Y-47179857D01*
X119022286Y-47322714D01*
X119093715Y-47608429D01*
X119093715Y-47822714D01*
X119022286Y-48108429D01*
X118950858Y-48251286D01*
X118808000Y-48394143D01*
X118593715Y-48465571D01*
X118236572Y-48465571D01*
X128270571Y-30869571D02*
X128270571Y-29369571D01*
X128841999Y-29369571D01*
X128984857Y-29441000D01*
X129056285Y-29512429D01*
X129127714Y-29655286D01*
X129127714Y-29869571D01*
X129056285Y-30012429D01*
X128984857Y-30083857D01*
X128841999Y-30155286D01*
X128270571Y-30155286D01*
X129627714Y-29369571D02*
X129984857Y-30869571D01*
X130270571Y-29798143D01*
X130556285Y-30869571D01*
X130913428Y-29369571D01*
X131484857Y-30869571D02*
X131484857Y-29369571D01*
X131984857Y-30441000D01*
X132484857Y-29369571D01*
X132484857Y-30869571D01*
X129770571Y-33419571D02*
X129770571Y-31919571D01*
X130484857Y-33419571D02*
X130484857Y-31919571D01*
X131342000Y-33419571D01*
X131342000Y-31919571D01*
X131842000Y-31919571D02*
X132699143Y-31919571D01*
X132270572Y-33419571D02*
X132270572Y-31919571D01*
X131127715Y-35969571D02*
X130627715Y-35255286D01*
X130270572Y-35969571D02*
X130270572Y-34469571D01*
X130842000Y-34469571D01*
X130984858Y-34541000D01*
X131056286Y-34612429D01*
X131127715Y-34755286D01*
X131127715Y-34969571D01*
X131056286Y-35112429D01*
X130984858Y-35183857D01*
X130842000Y-35255286D01*
X130270572Y-35255286D01*
X131627715Y-34469571D02*
X132627715Y-35969571D01*
X132627715Y-34469571D02*
X131627715Y-35969571D01*
X130413429Y-37019571D02*
X131270572Y-37019571D01*
X130842001Y-38519571D02*
X130842001Y-37019571D01*
X131627715Y-37019571D02*
X132627715Y-38519571D01*
X132627715Y-37019571D02*
X131627715Y-38519571D01*
X128984857Y-40998143D02*
X129199143Y-41069571D01*
X129556286Y-41069571D01*
X129699143Y-40998143D01*
X129770572Y-40926714D01*
X129842000Y-40783857D01*
X129842000Y-40641000D01*
X129770572Y-40498143D01*
X129699143Y-40426714D01*
X129556286Y-40355286D01*
X129270572Y-40283857D01*
X129127714Y-40212429D01*
X129056286Y-40141000D01*
X128984857Y-39998143D01*
X128984857Y-39855286D01*
X129056286Y-39712429D01*
X129127714Y-39641000D01*
X129270572Y-39569571D01*
X129627714Y-39569571D01*
X129842000Y-39641000D01*
X131342000Y-40926714D02*
X131270571Y-40998143D01*
X131056285Y-41069571D01*
X130913428Y-41069571D01*
X130699143Y-40998143D01*
X130556285Y-40855286D01*
X130484857Y-40712429D01*
X130413428Y-40426714D01*
X130413428Y-40212429D01*
X130484857Y-39926714D01*
X130556285Y-39783857D01*
X130699143Y-39641000D01*
X130913428Y-39569571D01*
X131056285Y-39569571D01*
X131270571Y-39641000D01*
X131342000Y-39712429D01*
X132699143Y-41069571D02*
X131984857Y-41069571D01*
X131984857Y-39569571D01*
X128913429Y-43548143D02*
X129127715Y-43619571D01*
X129484858Y-43619571D01*
X129627715Y-43548143D01*
X129699144Y-43476714D01*
X129770572Y-43333857D01*
X129770572Y-43191000D01*
X129699144Y-43048143D01*
X129627715Y-42976714D01*
X129484858Y-42905286D01*
X129199144Y-42833857D01*
X129056286Y-42762429D01*
X128984858Y-42691000D01*
X128913429Y-42548143D01*
X128913429Y-42405286D01*
X128984858Y-42262429D01*
X129056286Y-42191000D01*
X129199144Y-42119571D01*
X129556286Y-42119571D01*
X129770572Y-42191000D01*
X130413429Y-43619571D02*
X130413429Y-42119571D01*
X130770572Y-42119571D01*
X130984857Y-42191000D01*
X131127715Y-42333857D01*
X131199143Y-42476714D01*
X131270572Y-42762429D01*
X131270572Y-42976714D01*
X131199143Y-43262429D01*
X131127715Y-43405286D01*
X130984857Y-43548143D01*
X130770572Y-43619571D01*
X130413429Y-43619571D01*
X131842000Y-43191000D02*
X132556286Y-43191000D01*
X131699143Y-43619571D02*
X132199143Y-42119571D01*
X132699143Y-43619571D01*
X128627715Y-45598143D02*
X129770572Y-45598143D01*
X129199143Y-46169571D02*
X129199143Y-45026714D01*
X131199144Y-44669571D02*
X130484858Y-44669571D01*
X130413429Y-45383857D01*
X130484858Y-45312429D01*
X130627715Y-45241000D01*
X130984858Y-45241000D01*
X131127715Y-45312429D01*
X131199144Y-45383857D01*
X131270572Y-45526714D01*
X131270572Y-45883857D01*
X131199144Y-46026714D01*
X131127715Y-46098143D01*
X130984858Y-46169571D01*
X130627715Y-46169571D01*
X130484858Y-46098143D01*
X130413429Y-46026714D01*
X131699143Y-44669571D02*
X132199143Y-46169571D01*
X132699143Y-44669571D01*
X129413428Y-47291000D02*
X129270571Y-47219571D01*
X129056285Y-47219571D01*
X128842000Y-47291000D01*
X128699142Y-47433857D01*
X128627714Y-47576714D01*
X128556285Y-47862429D01*
X128556285Y-48076714D01*
X128627714Y-48362429D01*
X128699142Y-48505286D01*
X128842000Y-48648143D01*
X129056285Y-48719571D01*
X129199142Y-48719571D01*
X129413428Y-48648143D01*
X129484857Y-48576714D01*
X129484857Y-48076714D01*
X129199142Y-48076714D01*
X130127714Y-48719571D02*
X130127714Y-47219571D01*
X130984857Y-48719571D01*
X130984857Y-47219571D01*
X131699143Y-48719571D02*
X131699143Y-47219571D01*
X132056286Y-47219571D01*
X132270571Y-47291000D01*
X132413429Y-47433857D01*
X132484857Y-47576714D01*
X132556286Y-47862429D01*
X132556286Y-48076714D01*
X132484857Y-48362429D01*
X132413429Y-48505286D01*
X132270571Y-48648143D01*
X132056286Y-48719571D01*
X131699143Y-48719571D01*
X122714000Y-35830286D02*
X126428286Y-35830286D01*
X124428286Y-38116000D01*
X125285428Y-38116000D01*
X125856857Y-38401714D01*
X126142571Y-38687429D01*
X126428286Y-39258857D01*
X126428286Y-40687429D01*
X126142571Y-41258857D01*
X125856857Y-41544571D01*
X125285428Y-41830286D01*
X123571143Y-41830286D01*
X122999714Y-41544571D01*
X122714000Y-41258857D01*
X63182286Y-41576286D02*
X59753714Y-41576286D01*
X61468000Y-41576286D02*
X61468000Y-35576286D01*
X60896571Y-36433429D01*
X60325143Y-37004857D01*
X59753714Y-37290571D01*
X65024571Y-30615571D02*
X65024571Y-29115571D01*
X65595999Y-29115571D01*
X65738857Y-29187000D01*
X65810285Y-29258429D01*
X65881714Y-29401286D01*
X65881714Y-29615571D01*
X65810285Y-29758429D01*
X65738857Y-29829857D01*
X65595999Y-29901286D01*
X65024571Y-29901286D01*
X66381714Y-29115571D02*
X66738857Y-30615571D01*
X67024571Y-29544143D01*
X67310285Y-30615571D01*
X67667428Y-29115571D01*
X68238857Y-30615571D02*
X68238857Y-29115571D01*
X68738857Y-30187000D01*
X69238857Y-29115571D01*
X69238857Y-30615571D01*
X66524571Y-33165571D02*
X66524571Y-31665571D01*
X67238857Y-33165571D02*
X67238857Y-31665571D01*
X68096000Y-33165571D01*
X68096000Y-31665571D01*
X68596000Y-31665571D02*
X69453143Y-31665571D01*
X69024572Y-33165571D02*
X69024572Y-31665571D01*
X67881715Y-35715571D02*
X67381715Y-35001286D01*
X67024572Y-35715571D02*
X67024572Y-34215571D01*
X67596000Y-34215571D01*
X67738858Y-34287000D01*
X67810286Y-34358429D01*
X67881715Y-34501286D01*
X67881715Y-34715571D01*
X67810286Y-34858429D01*
X67738858Y-34929857D01*
X67596000Y-35001286D01*
X67024572Y-35001286D01*
X68381715Y-34215571D02*
X69381715Y-35715571D01*
X69381715Y-34215571D02*
X68381715Y-35715571D01*
X67167429Y-36765571D02*
X68024572Y-36765571D01*
X67596001Y-38265571D02*
X67596001Y-36765571D01*
X68381715Y-36765571D02*
X69381715Y-38265571D01*
X69381715Y-36765571D02*
X68381715Y-38265571D01*
X65738857Y-40744143D02*
X65953143Y-40815571D01*
X66310286Y-40815571D01*
X66453143Y-40744143D01*
X66524572Y-40672714D01*
X66596000Y-40529857D01*
X66596000Y-40387000D01*
X66524572Y-40244143D01*
X66453143Y-40172714D01*
X66310286Y-40101286D01*
X66024572Y-40029857D01*
X65881714Y-39958429D01*
X65810286Y-39887000D01*
X65738857Y-39744143D01*
X65738857Y-39601286D01*
X65810286Y-39458429D01*
X65881714Y-39387000D01*
X66024572Y-39315571D01*
X66381714Y-39315571D01*
X66596000Y-39387000D01*
X68096000Y-40672714D02*
X68024571Y-40744143D01*
X67810285Y-40815571D01*
X67667428Y-40815571D01*
X67453143Y-40744143D01*
X67310285Y-40601286D01*
X67238857Y-40458429D01*
X67167428Y-40172714D01*
X67167428Y-39958429D01*
X67238857Y-39672714D01*
X67310285Y-39529857D01*
X67453143Y-39387000D01*
X67667428Y-39315571D01*
X67810285Y-39315571D01*
X68024571Y-39387000D01*
X68096000Y-39458429D01*
X69453143Y-40815571D02*
X68738857Y-40815571D01*
X68738857Y-39315571D01*
X65667429Y-43294143D02*
X65881715Y-43365571D01*
X66238858Y-43365571D01*
X66381715Y-43294143D01*
X66453144Y-43222714D01*
X66524572Y-43079857D01*
X66524572Y-42937000D01*
X66453144Y-42794143D01*
X66381715Y-42722714D01*
X66238858Y-42651286D01*
X65953144Y-42579857D01*
X65810286Y-42508429D01*
X65738858Y-42437000D01*
X65667429Y-42294143D01*
X65667429Y-42151286D01*
X65738858Y-42008429D01*
X65810286Y-41937000D01*
X65953144Y-41865571D01*
X66310286Y-41865571D01*
X66524572Y-41937000D01*
X67167429Y-43365571D02*
X67167429Y-41865571D01*
X67524572Y-41865571D01*
X67738857Y-41937000D01*
X67881715Y-42079857D01*
X67953143Y-42222714D01*
X68024572Y-42508429D01*
X68024572Y-42722714D01*
X67953143Y-43008429D01*
X67881715Y-43151286D01*
X67738857Y-43294143D01*
X67524572Y-43365571D01*
X67167429Y-43365571D01*
X68596000Y-42937000D02*
X69310286Y-42937000D01*
X68453143Y-43365571D02*
X68953143Y-41865571D01*
X69453143Y-43365571D01*
X65381715Y-45344143D02*
X66524572Y-45344143D01*
X65953143Y-45915571D02*
X65953143Y-44772714D01*
X67953144Y-44415571D02*
X67238858Y-44415571D01*
X67167429Y-45129857D01*
X67238858Y-45058429D01*
X67381715Y-44987000D01*
X67738858Y-44987000D01*
X67881715Y-45058429D01*
X67953144Y-45129857D01*
X68024572Y-45272714D01*
X68024572Y-45629857D01*
X67953144Y-45772714D01*
X67881715Y-45844143D01*
X67738858Y-45915571D01*
X67381715Y-45915571D01*
X67238858Y-45844143D01*
X67167429Y-45772714D01*
X68453143Y-44415571D02*
X68953143Y-45915571D01*
X69453143Y-44415571D01*
X66167428Y-47037000D02*
X66024571Y-46965571D01*
X65810285Y-46965571D01*
X65596000Y-47037000D01*
X65453142Y-47179857D01*
X65381714Y-47322714D01*
X65310285Y-47608429D01*
X65310285Y-47822714D01*
X65381714Y-48108429D01*
X65453142Y-48251286D01*
X65596000Y-48394143D01*
X65810285Y-48465571D01*
X65953142Y-48465571D01*
X66167428Y-48394143D01*
X66238857Y-48322714D01*
X66238857Y-47822714D01*
X65953142Y-47822714D01*
X66881714Y-48465571D02*
X66881714Y-46965571D01*
X67738857Y-48465571D01*
X67738857Y-46965571D01*
X68453143Y-48465571D02*
X68453143Y-46965571D01*
X68810286Y-46965571D01*
X69024571Y-47037000D01*
X69167429Y-47179857D01*
X69238857Y-47322714D01*
X69310286Y-47608429D01*
X69310286Y-47822714D01*
X69238857Y-48108429D01*
X69167429Y-48251286D01*
X69024571Y-48394143D01*
X68810286Y-48465571D01*
X68453143Y-48465571D01*
X51847714Y-29933000D02*
X52562000Y-29933000D01*
X51704857Y-30361571D02*
X52204857Y-28861571D01*
X52704857Y-30361571D01*
X53204857Y-30361571D02*
X53204857Y-28861571D01*
X54062000Y-30361571D01*
X54062000Y-28861571D01*
X52776286Y-32911571D02*
X52276286Y-32197286D01*
X51919143Y-32911571D02*
X51919143Y-31411571D01*
X52490571Y-31411571D01*
X52633429Y-31483000D01*
X52704857Y-31554429D01*
X52776286Y-31697286D01*
X52776286Y-31911571D01*
X52704857Y-32054429D01*
X52633429Y-32125857D01*
X52490571Y-32197286D01*
X51919143Y-32197286D01*
X53347714Y-32840143D02*
X53562000Y-32911571D01*
X53919143Y-32911571D01*
X54062000Y-32840143D01*
X54133429Y-32768714D01*
X54204857Y-32625857D01*
X54204857Y-32483000D01*
X54133429Y-32340143D01*
X54062000Y-32268714D01*
X53919143Y-32197286D01*
X53633429Y-32125857D01*
X53490571Y-32054429D01*
X53419143Y-31983000D01*
X53347714Y-31840143D01*
X53347714Y-31697286D01*
X53419143Y-31554429D01*
X53490571Y-31483000D01*
X53633429Y-31411571D01*
X53990571Y-31411571D01*
X54204857Y-31483000D01*
X54633428Y-31411571D02*
X55490571Y-31411571D01*
X55062000Y-32911571D02*
X55062000Y-31411571D01*
X52776286Y-35318714D02*
X52704857Y-35390143D01*
X52490571Y-35461571D01*
X52347714Y-35461571D01*
X52133429Y-35390143D01*
X51990571Y-35247286D01*
X51919143Y-35104429D01*
X51847714Y-34818714D01*
X51847714Y-34604429D01*
X51919143Y-34318714D01*
X51990571Y-34175857D01*
X52133429Y-34033000D01*
X52347714Y-33961571D01*
X52490571Y-33961571D01*
X52704857Y-34033000D01*
X52776286Y-34104429D01*
X53347714Y-35390143D02*
X53562000Y-35461571D01*
X53919143Y-35461571D01*
X54062000Y-35390143D01*
X54133429Y-35318714D01*
X54204857Y-35175857D01*
X54204857Y-35033000D01*
X54133429Y-34890143D01*
X54062000Y-34818714D01*
X53919143Y-34747286D01*
X53633429Y-34675857D01*
X53490571Y-34604429D01*
X53419143Y-34533000D01*
X53347714Y-34390143D01*
X53347714Y-34247286D01*
X53419143Y-34104429D01*
X53490571Y-34033000D01*
X53633429Y-33961571D01*
X53990571Y-33961571D01*
X54204857Y-34033000D01*
X51847714Y-37940143D02*
X52062000Y-38011571D01*
X52419143Y-38011571D01*
X52562000Y-37940143D01*
X52633429Y-37868714D01*
X52704857Y-37725857D01*
X52704857Y-37583000D01*
X52633429Y-37440143D01*
X52562000Y-37368714D01*
X52419143Y-37297286D01*
X52133429Y-37225857D01*
X51990571Y-37154429D01*
X51919143Y-37083000D01*
X51847714Y-36940143D01*
X51847714Y-36797286D01*
X51919143Y-36654429D01*
X51990571Y-36583000D01*
X52133429Y-36511571D01*
X52490571Y-36511571D01*
X52704857Y-36583000D01*
X54204857Y-37868714D02*
X54133428Y-37940143D01*
X53919142Y-38011571D01*
X53776285Y-38011571D01*
X53562000Y-37940143D01*
X53419142Y-37797286D01*
X53347714Y-37654429D01*
X53276285Y-37368714D01*
X53276285Y-37154429D01*
X53347714Y-36868714D01*
X53419142Y-36725857D01*
X53562000Y-36583000D01*
X53776285Y-36511571D01*
X53919142Y-36511571D01*
X54133428Y-36583000D01*
X54204857Y-36654429D01*
X54847714Y-38011571D02*
X54847714Y-36511571D01*
X55704857Y-38011571D02*
X55062000Y-37154429D01*
X55704857Y-36511571D02*
X54847714Y-37368714D01*
X51919143Y-40561571D02*
X51919143Y-39061571D01*
X52419143Y-40133000D01*
X52919143Y-39061571D01*
X52919143Y-40561571D01*
X53633429Y-40561571D02*
X53633429Y-39061571D01*
X54276286Y-40490143D02*
X54490572Y-40561571D01*
X54847715Y-40561571D01*
X54990572Y-40490143D01*
X55062001Y-40418714D01*
X55133429Y-40275857D01*
X55133429Y-40133000D01*
X55062001Y-39990143D01*
X54990572Y-39918714D01*
X54847715Y-39847286D01*
X54562001Y-39775857D01*
X54419143Y-39704429D01*
X54347715Y-39633000D01*
X54276286Y-39490143D01*
X54276286Y-39347286D01*
X54347715Y-39204429D01*
X54419143Y-39133000D01*
X54562001Y-39061571D01*
X54919143Y-39061571D01*
X55133429Y-39133000D01*
X56062000Y-39061571D02*
X56347714Y-39061571D01*
X56490572Y-39133000D01*
X56633429Y-39275857D01*
X56704857Y-39561571D01*
X56704857Y-40061571D01*
X56633429Y-40347286D01*
X56490572Y-40490143D01*
X56347714Y-40561571D01*
X56062000Y-40561571D01*
X55919143Y-40490143D01*
X55776286Y-40347286D01*
X55704857Y-40061571D01*
X55704857Y-39561571D01*
X55776286Y-39275857D01*
X55919143Y-39133000D01*
X56062000Y-39061571D01*
X51919143Y-43111571D02*
X51919143Y-41611571D01*
X52419143Y-42683000D01*
X52919143Y-41611571D01*
X52919143Y-43111571D01*
X53919143Y-41611571D02*
X54204857Y-41611571D01*
X54347715Y-41683000D01*
X54490572Y-41825857D01*
X54562000Y-42111571D01*
X54562000Y-42611571D01*
X54490572Y-42897286D01*
X54347715Y-43040143D01*
X54204857Y-43111571D01*
X53919143Y-43111571D01*
X53776286Y-43040143D01*
X53633429Y-42897286D01*
X53562000Y-42611571D01*
X53562000Y-42111571D01*
X53633429Y-41825857D01*
X53776286Y-41683000D01*
X53919143Y-41611571D01*
X55133429Y-43040143D02*
X55347715Y-43111571D01*
X55704858Y-43111571D01*
X55847715Y-43040143D01*
X55919144Y-42968714D01*
X55990572Y-42825857D01*
X55990572Y-42683000D01*
X55919144Y-42540143D01*
X55847715Y-42468714D01*
X55704858Y-42397286D01*
X55419144Y-42325857D01*
X55276286Y-42254429D01*
X55204858Y-42183000D01*
X55133429Y-42040143D01*
X55133429Y-41897286D01*
X55204858Y-41754429D01*
X55276286Y-41683000D01*
X55419144Y-41611571D01*
X55776286Y-41611571D01*
X55990572Y-41683000D01*
X56633429Y-43111571D02*
X56633429Y-41611571D01*
X51919143Y-45090143D02*
X53062000Y-45090143D01*
X52490571Y-45661571D02*
X52490571Y-44518714D01*
X53633429Y-44161571D02*
X54562000Y-44161571D01*
X54062000Y-44733000D01*
X54276286Y-44733000D01*
X54419143Y-44804429D01*
X54490572Y-44875857D01*
X54562000Y-45018714D01*
X54562000Y-45375857D01*
X54490572Y-45518714D01*
X54419143Y-45590143D01*
X54276286Y-45661571D01*
X53847714Y-45661571D01*
X53704857Y-45590143D01*
X53633429Y-45518714D01*
X55204857Y-45518714D02*
X55276285Y-45590143D01*
X55204857Y-45661571D01*
X55133428Y-45590143D01*
X55204857Y-45518714D01*
X55204857Y-45661571D01*
X55776286Y-44161571D02*
X56704857Y-44161571D01*
X56204857Y-44733000D01*
X56419143Y-44733000D01*
X56562000Y-44804429D01*
X56633429Y-44875857D01*
X56704857Y-45018714D01*
X56704857Y-45375857D01*
X56633429Y-45518714D01*
X56562000Y-45590143D01*
X56419143Y-45661571D01*
X55990571Y-45661571D01*
X55847714Y-45590143D01*
X55776286Y-45518714D01*
X57133428Y-44161571D02*
X57633428Y-45661571D01*
X58133428Y-44161571D01*
X52704857Y-46783000D02*
X52562000Y-46711571D01*
X52347714Y-46711571D01*
X52133429Y-46783000D01*
X51990571Y-46925857D01*
X51919143Y-47068714D01*
X51847714Y-47354429D01*
X51847714Y-47568714D01*
X51919143Y-47854429D01*
X51990571Y-47997286D01*
X52133429Y-48140143D01*
X52347714Y-48211571D01*
X52490571Y-48211571D01*
X52704857Y-48140143D01*
X52776286Y-48068714D01*
X52776286Y-47568714D01*
X52490571Y-47568714D01*
X53419143Y-48211571D02*
X53419143Y-46711571D01*
X54276286Y-48211571D01*
X54276286Y-46711571D01*
X54990572Y-48211571D02*
X54990572Y-46711571D01*
X55347715Y-46711571D01*
X55562000Y-46783000D01*
X55704858Y-46925857D01*
X55776286Y-47068714D01*
X55847715Y-47354429D01*
X55847715Y-47568714D01*
X55776286Y-47854429D01*
X55704858Y-47997286D01*
X55562000Y-48140143D01*
X55347715Y-48211571D01*
X54990572Y-48211571D01*
D13*
X42410000Y-147740000D02*
X41410000Y-147740000D01*
X41410000Y-149440000D02*
X42410000Y-149440000D01*
X45567600Y-141833600D02*
G75*
G03X45567600Y-137566400I-1117600J2133600D01*
G01*
X43332400Y-137566400D02*
G75*
G03X43332400Y-141833600I1117600J-2133600D01*
G01*
X47117000Y-137033000D02*
X45567600Y-137033000D01*
X41783000Y-137033000D02*
X43332400Y-137033000D01*
X42545000Y-142367000D02*
X43332400Y-142367000D01*
X46355000Y-142367000D02*
X45567600Y-142367000D01*
X41783000Y-137033000D02*
X41783000Y-141605000D01*
X41783000Y-141605000D02*
X42545000Y-142367000D01*
X46355000Y-142367000D02*
X47117000Y-141605000D01*
X47117000Y-141605000D02*
X47117000Y-137033000D01*
X47490000Y-150280000D02*
X46490000Y-150280000D01*
X46490000Y-151980000D02*
X47490000Y-151980000D01*
X62077600Y-141833600D02*
G75*
G03X62077600Y-137566400I-1117600J2133600D01*
G01*
X59842400Y-137566400D02*
G75*
G03X59842400Y-141833600I1117600J-2133600D01*
G01*
X63627000Y-137033000D02*
X62077600Y-137033000D01*
X58293000Y-137033000D02*
X59842400Y-137033000D01*
X59055000Y-142367000D02*
X59842400Y-142367000D01*
X62865000Y-142367000D02*
X62077600Y-142367000D01*
X58293000Y-137033000D02*
X58293000Y-141605000D01*
X58293000Y-141605000D02*
X59055000Y-142367000D01*
X62865000Y-142367000D02*
X63627000Y-141605000D01*
X63627000Y-141605000D02*
X63627000Y-137033000D01*
X51917600Y-141833600D02*
G75*
G03X51917600Y-137566400I-1117600J2133600D01*
G01*
X49682400Y-137566400D02*
G75*
G03X49682400Y-141833600I1117600J-2133600D01*
G01*
X53467000Y-137033000D02*
X51917600Y-137033000D01*
X48133000Y-137033000D02*
X49682400Y-137033000D01*
X48895000Y-142367000D02*
X49682400Y-142367000D01*
X52705000Y-142367000D02*
X51917600Y-142367000D01*
X48133000Y-137033000D02*
X48133000Y-141605000D01*
X48133000Y-141605000D02*
X48895000Y-142367000D01*
X52705000Y-142367000D02*
X53467000Y-141605000D01*
X53467000Y-141605000D02*
X53467000Y-137033000D01*
X65190000Y-139200000D02*
X65190000Y-140200000D01*
X66890000Y-140200000D02*
X66890000Y-139200000D01*
X55030000Y-139200000D02*
X55030000Y-140200000D01*
X56730000Y-140200000D02*
X56730000Y-139200000D01*
X40410000Y-145200000D02*
X40410000Y-146900000D01*
X40410000Y-146900000D02*
X42960000Y-146900000D01*
X40410000Y-145200000D02*
X42960000Y-145200000D01*
D14*
X151384000Y-130048000D02*
X62484000Y-130048000D01*
X65024000Y-124968000D02*
X151384000Y-124968000D01*
X151384000Y-130048000D02*
X151384000Y-124968000D01*
X62484000Y-130048000D02*
X62484000Y-127508000D01*
X63754000Y-124688000D02*
X62204000Y-124688000D01*
X62484000Y-127508000D02*
X65024000Y-127508000D01*
X65024000Y-127508000D02*
X65024000Y-124968000D01*
X62204000Y-124688000D02*
X62204000Y-126238000D01*
X48220000Y-164120000D02*
X48220000Y-164620000D01*
X52720000Y-160120000D02*
G75*
G03X52720000Y-160120000I-2000000J0D01*
G01*
X47720000Y-160120000D02*
G75*
G03X47720000Y-160120000I-2000000J0D01*
G01*
X43220000Y-162620000D02*
X53220000Y-162620000D01*
X43220000Y-157720000D02*
X53220000Y-157720000D01*
X43220000Y-164120000D02*
X53220000Y-164120000D01*
X43220000Y-164620000D02*
X53220000Y-164620000D01*
X53220000Y-164620000D02*
X53220000Y-154820000D01*
X53220000Y-154820000D02*
X43220000Y-154820000D01*
X43220000Y-154820000D02*
X43220000Y-164620000D01*
X153670000Y-49530000D02*
X171450000Y-49530000D01*
X171450000Y-49530000D02*
X171450000Y-46990000D01*
X171450000Y-46990000D02*
X153670000Y-46990000D01*
X150850000Y-49810000D02*
X152400000Y-49810000D01*
X153670000Y-49530000D02*
X153670000Y-46990000D01*
X152400000Y-46710000D02*
X150850000Y-46710000D01*
X150850000Y-46710000D02*
X150850000Y-49810000D01*
X151384000Y-69088000D02*
X62484000Y-69088000D01*
X65024000Y-64008000D02*
X151384000Y-64008000D01*
X151384000Y-69088000D02*
X151384000Y-64008000D01*
X62484000Y-69088000D02*
X62484000Y-66548000D01*
X63754000Y-63728000D02*
X62204000Y-63728000D01*
X62484000Y-66548000D02*
X65024000Y-66548000D01*
X65024000Y-66548000D02*
X65024000Y-64008000D01*
X62204000Y-63728000D02*
X62204000Y-65278000D01*
X135890000Y-161290000D02*
X158750000Y-161290000D01*
X158750000Y-161290000D02*
X158750000Y-158750000D01*
X158750000Y-158750000D02*
X135890000Y-158750000D01*
X133070000Y-161570000D02*
X134620000Y-161570000D01*
X135890000Y-161290000D02*
X135890000Y-158750000D01*
X134620000Y-158470000D02*
X133070000Y-158470000D01*
X133070000Y-158470000D02*
X133070000Y-161570000D01*
X120650000Y-161290000D02*
X130810000Y-161290000D01*
X130810000Y-161290000D02*
X130810000Y-158750000D01*
X130810000Y-158750000D02*
X120650000Y-158750000D01*
X117830000Y-161570000D02*
X119380000Y-161570000D01*
X120650000Y-161290000D02*
X120650000Y-158750000D01*
X119380000Y-158470000D02*
X117830000Y-158470000D01*
X117830000Y-158470000D02*
X117830000Y-161570000D01*
X47752000Y-31242000D02*
X47752000Y-49022000D01*
X47752000Y-49022000D02*
X50292000Y-49022000D01*
X50292000Y-49022000D02*
X50292000Y-31242000D01*
X47472000Y-28422000D02*
X47472000Y-29972000D01*
X47752000Y-31242000D02*
X50292000Y-31242000D01*
X50572000Y-29972000D02*
X50572000Y-28422000D01*
X50572000Y-28422000D02*
X47472000Y-28422000D01*
X79502000Y-31242000D02*
X79502000Y-49022000D01*
X79502000Y-49022000D02*
X82042000Y-49022000D01*
X82042000Y-49022000D02*
X82042000Y-31242000D01*
X79222000Y-28422000D02*
X79222000Y-29972000D01*
X79502000Y-31242000D02*
X82042000Y-31242000D01*
X82322000Y-29972000D02*
X82322000Y-28422000D01*
X82322000Y-28422000D02*
X79222000Y-28422000D01*
X111252000Y-31242000D02*
X111252000Y-49022000D01*
X111252000Y-49022000D02*
X113792000Y-49022000D01*
X113792000Y-49022000D02*
X113792000Y-31242000D01*
X110972000Y-28422000D02*
X110972000Y-29972000D01*
X111252000Y-31242000D02*
X113792000Y-31242000D01*
X114072000Y-29972000D02*
X114072000Y-28422000D01*
X114072000Y-28422000D02*
X110972000Y-28422000D01*
X73152000Y-46482000D02*
X73152000Y-28702000D01*
X73152000Y-28702000D02*
X70612000Y-28702000D01*
X70612000Y-28702000D02*
X70612000Y-46482000D01*
X73432000Y-49302000D02*
X73432000Y-47752000D01*
X73152000Y-46482000D02*
X70612000Y-46482000D01*
X70332000Y-47752000D02*
X70332000Y-49302000D01*
X70332000Y-49302000D02*
X73432000Y-49302000D01*
X104902000Y-46482000D02*
X104902000Y-28702000D01*
X104902000Y-28702000D02*
X102362000Y-28702000D01*
X102362000Y-28702000D02*
X102362000Y-46482000D01*
X105182000Y-49302000D02*
X105182000Y-47752000D01*
X104902000Y-46482000D02*
X102362000Y-46482000D01*
X102082000Y-47752000D02*
X102082000Y-49302000D01*
X102082000Y-49302000D02*
X105182000Y-49302000D01*
X136652000Y-46482000D02*
X136652000Y-28702000D01*
X136652000Y-28702000D02*
X134112000Y-28702000D01*
X134112000Y-28702000D02*
X134112000Y-46482000D01*
X136932000Y-49302000D02*
X136932000Y-47752000D01*
X136652000Y-46482000D02*
X134112000Y-46482000D01*
X133832000Y-47752000D02*
X133832000Y-49302000D01*
X133832000Y-49302000D02*
X136932000Y-49302000D01*
X53756000Y-88279000D02*
X54956000Y-88279000D01*
X54956000Y-90029000D02*
X53756000Y-90029000D01*
X53756000Y-90565000D02*
X54956000Y-90565000D01*
X54956000Y-92315000D02*
X53756000Y-92315000D01*
X53756000Y-92851000D02*
X54956000Y-92851000D01*
X54956000Y-94601000D02*
X53756000Y-94601000D01*
X53756000Y-95137000D02*
X54956000Y-95137000D01*
X54956000Y-96887000D02*
X53756000Y-96887000D01*
X53756000Y-97423000D02*
X54956000Y-97423000D01*
X54956000Y-99173000D02*
X53756000Y-99173000D01*
X159145000Y-44796000D02*
X159145000Y-43596000D01*
X160895000Y-43596000D02*
X160895000Y-44796000D01*
X161685000Y-44796000D02*
X161685000Y-43596000D01*
X163435000Y-43596000D02*
X163435000Y-44796000D01*
X165975000Y-43596000D02*
X165975000Y-44796000D01*
X164225000Y-44796000D02*
X164225000Y-43596000D01*
X47590000Y-149465000D02*
X46390000Y-149465000D01*
X46390000Y-147715000D02*
X47590000Y-147715000D01*
X42510000Y-152005000D02*
X41310000Y-152005000D01*
X41310000Y-150255000D02*
X42510000Y-150255000D01*
X125335000Y-155864000D02*
X125335000Y-157064000D01*
X123585000Y-157064000D02*
X123585000Y-155864000D01*
X139354000Y-41797000D02*
X140554000Y-41797000D01*
X140554000Y-43547000D02*
X139354000Y-43547000D01*
X139354000Y-39257000D02*
X140554000Y-39257000D01*
X140554000Y-41007000D02*
X139354000Y-41007000D01*
X147150000Y-82555000D02*
X147150000Y-82580000D01*
X151300000Y-82555000D02*
X151300000Y-82660000D01*
X151300000Y-92705000D02*
X151300000Y-92600000D01*
X147150000Y-92705000D02*
X147150000Y-92600000D01*
X147150000Y-82555000D02*
X151300000Y-82555000D01*
X147150000Y-92705000D02*
X151300000Y-92705000D01*
X147150000Y-82580000D02*
X145775000Y-82580000D01*
D15*
X35546000Y-88154000D02*
X35546000Y-97854000D01*
X35546000Y-97854000D02*
X35446000Y-98554000D01*
X35446000Y-98554000D02*
X35346000Y-99154000D01*
X35346000Y-99154000D02*
X35146000Y-99554000D01*
X35146000Y-99554000D02*
X34846000Y-99854000D01*
X34846000Y-99854000D02*
X34846000Y-102854000D01*
X34846000Y-102854000D02*
X49346000Y-102854000D01*
X49346000Y-88154000D02*
X49346000Y-102854000D01*
X49346000Y-88154000D02*
X35546000Y-88154000D01*
D14*
X58737500Y-148627500D02*
X57187500Y-148627500D01*
X57187500Y-148627500D02*
X57187500Y-151727500D01*
X57187500Y-151727500D02*
X58737500Y-151727500D01*
X60007500Y-148907500D02*
X65087500Y-148907500D01*
X65087500Y-148907500D02*
X65087500Y-151447500D01*
X65087500Y-151447500D02*
X60007500Y-151447500D01*
X60007500Y-151447500D02*
X60007500Y-148907500D01*
X58737500Y-158152500D02*
X57187500Y-158152500D01*
X57187500Y-158152500D02*
X57187500Y-161252500D01*
X57187500Y-161252500D02*
X58737500Y-161252500D01*
X60007500Y-158432500D02*
X65087500Y-158432500D01*
X65087500Y-158432500D02*
X65087500Y-160972500D01*
X65087500Y-160972500D02*
X60007500Y-160972500D01*
X60007500Y-160972500D02*
X60007500Y-158432500D01*
X162280000Y-68580000D02*
X162280000Y-70130000D01*
X162280000Y-70130000D02*
X165380000Y-70130000D01*
X165380000Y-70130000D02*
X165380000Y-68580000D01*
X162560000Y-67310000D02*
X162560000Y-62230000D01*
X162560000Y-62230000D02*
X165100000Y-62230000D01*
X165100000Y-62230000D02*
X165100000Y-67310000D01*
X165100000Y-67310000D02*
X162560000Y-67310000D01*
X165100000Y-96520000D02*
X165100000Y-73660000D01*
X165100000Y-73660000D02*
X162560000Y-73660000D01*
X162560000Y-73660000D02*
X162560000Y-96520000D01*
X165380000Y-99340000D02*
X165380000Y-97790000D01*
X165100000Y-96520000D02*
X162560000Y-96520000D01*
X162280000Y-97790000D02*
X162280000Y-99340000D01*
X162280000Y-99340000D02*
X165380000Y-99340000D01*
X160020000Y-102235000D02*
X160020000Y-147955000D01*
X165100000Y-147955000D02*
X165100000Y-104775000D01*
X160020000Y-147955000D02*
X165100000Y-147955000D01*
X160020000Y-102235000D02*
X162560000Y-102235000D01*
X165380000Y-103505000D02*
X165380000Y-101955000D01*
X162560000Y-102235000D02*
X162560000Y-104775000D01*
X162560000Y-104775000D02*
X165100000Y-104775000D01*
X165380000Y-101955000D02*
X163830000Y-101955000D01*
X113030000Y-161290000D02*
X74930000Y-161290000D01*
X77470000Y-156210000D02*
X113030000Y-156210000D01*
X113030000Y-161290000D02*
X113030000Y-156210000D01*
X74930000Y-161290000D02*
X74930000Y-158750000D01*
X76200000Y-155930000D02*
X74650000Y-155930000D01*
X74930000Y-158750000D02*
X77470000Y-158750000D01*
X77470000Y-158750000D02*
X77470000Y-156210000D01*
X74650000Y-155930000D02*
X74650000Y-157480000D01*
D16*
G36*
X122088624Y-24035883D02*
X122202793Y-24086623D01*
X122287895Y-24160775D01*
X122381077Y-24275583D01*
X122425356Y-24401201D01*
X122430942Y-24572536D01*
X122426791Y-24635643D01*
X122382077Y-24758849D01*
X122284630Y-24891926D01*
X122164324Y-24999376D01*
X122087476Y-25038833D01*
X122043771Y-25065373D01*
X122017741Y-25124082D01*
X122005097Y-25234986D01*
X122001545Y-25418113D01*
X122001525Y-25439932D01*
X122001525Y-25813751D01*
X123085384Y-25813751D01*
X123085384Y-26305381D01*
X123086904Y-26527065D01*
X123093554Y-26672227D01*
X123108467Y-26758573D01*
X123134777Y-26803809D01*
X123175616Y-26825641D01*
X123177562Y-26826267D01*
X123324432Y-26917872D01*
X123438769Y-27073707D01*
X123502326Y-27264842D01*
X123509502Y-27352531D01*
X123494758Y-27511404D01*
X123437474Y-27628580D01*
X123371754Y-27702348D01*
X123259925Y-27793609D01*
X123139097Y-27833253D01*
X123013610Y-27840096D01*
X122864006Y-27829374D01*
X122753943Y-27784002D01*
X122637349Y-27684174D01*
X122627005Y-27673888D01*
X122527075Y-27564650D01*
X122482746Y-27474802D01*
X122478246Y-27362180D01*
X122484887Y-27293960D01*
X122541944Y-27089865D01*
X122652771Y-26926112D01*
X122799828Y-26828017D01*
X122810091Y-26824558D01*
X122854179Y-26798219D01*
X122880437Y-26740366D01*
X122893214Y-26630894D01*
X122896857Y-26449700D01*
X122896886Y-26423191D01*
X122896886Y-26049373D01*
X120964790Y-26049373D01*
X120964790Y-26794052D01*
X121124535Y-26888304D01*
X121273429Y-27024995D01*
X121353327Y-27203086D01*
X121363034Y-27398512D01*
X121301354Y-27587206D01*
X121167093Y-27745103D01*
X121167083Y-27745111D01*
X121012689Y-27816847D01*
X120822573Y-27839006D01*
X120640114Y-27810080D01*
X120550887Y-27766549D01*
X120433312Y-27645341D01*
X120343065Y-27484035D01*
X120305127Y-27327832D01*
X120305050Y-27321729D01*
X120345020Y-27151550D01*
X120448011Y-26988807D01*
X120588593Y-26873635D01*
X120658494Y-26833431D01*
X120700259Y-26786754D01*
X120721132Y-26710502D01*
X120728354Y-26581570D01*
X120729168Y-26425157D01*
X120729168Y-26049373D01*
X118797072Y-26049373D01*
X118797072Y-26425157D01*
X118798539Y-26612703D01*
X118807853Y-26729151D01*
X118832381Y-26797651D01*
X118879489Y-26841353D01*
X118940223Y-26874967D01*
X119096905Y-27003198D01*
X119186519Y-27175903D01*
X119206566Y-27368898D01*
X119154548Y-27558001D01*
X119027966Y-27719031D01*
X119027475Y-27719445D01*
X118849858Y-27815104D01*
X118646985Y-27842480D01*
X118452586Y-27800277D01*
X118359158Y-27745111D01*
X118224892Y-27587216D01*
X118163208Y-27398523D01*
X118172911Y-27203098D01*
X118252804Y-27025005D01*
X118401694Y-26888310D01*
X118401705Y-26888304D01*
X118561450Y-26794052D01*
X118561450Y-25813751D01*
X119645309Y-25813751D01*
X119645309Y-25069072D01*
X119483251Y-24973455D01*
X119331039Y-24835308D01*
X119250468Y-24657523D01*
X119242524Y-24462839D01*
X119308195Y-24273996D01*
X119445984Y-24115679D01*
X119607404Y-24041293D01*
X119802214Y-24024007D01*
X119988818Y-24063821D01*
X120080256Y-24115679D01*
X120219479Y-24276498D01*
X120284112Y-24465579D01*
X120275143Y-24660184D01*
X120193561Y-24837571D01*
X120042990Y-24973455D01*
X119880931Y-25069072D01*
X119880931Y-25813751D01*
X121813027Y-25813751D01*
X121813027Y-25437967D01*
X121811509Y-25250324D01*
X121802128Y-25133825D01*
X121777641Y-25065366D01*
X121730806Y-25021842D01*
X121672452Y-24989488D01*
X121519063Y-24860835D01*
X121419087Y-24675297D01*
X121388909Y-24491898D01*
X121420607Y-24351802D01*
X121524708Y-24208389D01*
X121549131Y-24183250D01*
X121667861Y-24080292D01*
X121780513Y-24033700D01*
X121929751Y-24023027D01*
X122088624Y-24035883D01*
X122088624Y-24035883D01*
G37*
X122088624Y-24035883D02*
X122202793Y-24086623D01*
X122287895Y-24160775D01*
X122381077Y-24275583D01*
X122425356Y-24401201D01*
X122430942Y-24572536D01*
X122426791Y-24635643D01*
X122382077Y-24758849D01*
X122284630Y-24891926D01*
X122164324Y-24999376D01*
X122087476Y-25038833D01*
X122043771Y-25065373D01*
X122017741Y-25124082D01*
X122005097Y-25234986D01*
X122001545Y-25418113D01*
X122001525Y-25439932D01*
X122001525Y-25813751D01*
X123085384Y-25813751D01*
X123085384Y-26305381D01*
X123086904Y-26527065D01*
X123093554Y-26672227D01*
X123108467Y-26758573D01*
X123134777Y-26803809D01*
X123175616Y-26825641D01*
X123177562Y-26826267D01*
X123324432Y-26917872D01*
X123438769Y-27073707D01*
X123502326Y-27264842D01*
X123509502Y-27352531D01*
X123494758Y-27511404D01*
X123437474Y-27628580D01*
X123371754Y-27702348D01*
X123259925Y-27793609D01*
X123139097Y-27833253D01*
X123013610Y-27840096D01*
X122864006Y-27829374D01*
X122753943Y-27784002D01*
X122637349Y-27684174D01*
X122627005Y-27673888D01*
X122527075Y-27564650D01*
X122482746Y-27474802D01*
X122478246Y-27362180D01*
X122484887Y-27293960D01*
X122541944Y-27089865D01*
X122652771Y-26926112D01*
X122799828Y-26828017D01*
X122810091Y-26824558D01*
X122854179Y-26798219D01*
X122880437Y-26740366D01*
X122893214Y-26630894D01*
X122896857Y-26449700D01*
X122896886Y-26423191D01*
X122896886Y-26049373D01*
X120964790Y-26049373D01*
X120964790Y-26794052D01*
X121124535Y-26888304D01*
X121273429Y-27024995D01*
X121353327Y-27203086D01*
X121363034Y-27398512D01*
X121301354Y-27587206D01*
X121167093Y-27745103D01*
X121167083Y-27745111D01*
X121012689Y-27816847D01*
X120822573Y-27839006D01*
X120640114Y-27810080D01*
X120550887Y-27766549D01*
X120433312Y-27645341D01*
X120343065Y-27484035D01*
X120305127Y-27327832D01*
X120305050Y-27321729D01*
X120345020Y-27151550D01*
X120448011Y-26988807D01*
X120588593Y-26873635D01*
X120658494Y-26833431D01*
X120700259Y-26786754D01*
X120721132Y-26710502D01*
X120728354Y-26581570D01*
X120729168Y-26425157D01*
X120729168Y-26049373D01*
X118797072Y-26049373D01*
X118797072Y-26425157D01*
X118798539Y-26612703D01*
X118807853Y-26729151D01*
X118832381Y-26797651D01*
X118879489Y-26841353D01*
X118940223Y-26874967D01*
X119096905Y-27003198D01*
X119186519Y-27175903D01*
X119206566Y-27368898D01*
X119154548Y-27558001D01*
X119027966Y-27719031D01*
X119027475Y-27719445D01*
X118849858Y-27815104D01*
X118646985Y-27842480D01*
X118452586Y-27800277D01*
X118359158Y-27745111D01*
X118224892Y-27587216D01*
X118163208Y-27398523D01*
X118172911Y-27203098D01*
X118252804Y-27025005D01*
X118401694Y-26888310D01*
X118401705Y-26888304D01*
X118561450Y-26794052D01*
X118561450Y-25813751D01*
X119645309Y-25813751D01*
X119645309Y-25069072D01*
X119483251Y-24973455D01*
X119331039Y-24835308D01*
X119250468Y-24657523D01*
X119242524Y-24462839D01*
X119308195Y-24273996D01*
X119445984Y-24115679D01*
X119607404Y-24041293D01*
X119802214Y-24024007D01*
X119988818Y-24063821D01*
X120080256Y-24115679D01*
X120219479Y-24276498D01*
X120284112Y-24465579D01*
X120275143Y-24660184D01*
X120193561Y-24837571D01*
X120042990Y-24973455D01*
X119880931Y-25069072D01*
X119880931Y-25813751D01*
X121813027Y-25813751D01*
X121813027Y-25437967D01*
X121811509Y-25250324D01*
X121802128Y-25133825D01*
X121777641Y-25065366D01*
X121730806Y-25021842D01*
X121672452Y-24989488D01*
X121519063Y-24860835D01*
X121419087Y-24675297D01*
X121388909Y-24491898D01*
X121420607Y-24351802D01*
X121524708Y-24208389D01*
X121549131Y-24183250D01*
X121667861Y-24080292D01*
X121780513Y-24033700D01*
X121929751Y-24023027D01*
X122088624Y-24035883D01*
G36*
X124699391Y-26010841D02*
X125016277Y-26025664D01*
X125243497Y-26047779D01*
X125385390Y-26077696D01*
X125426464Y-26096227D01*
X125556442Y-26230689D01*
X125620626Y-26407529D01*
X125614562Y-26597570D01*
X125533800Y-26771636D01*
X125530242Y-26776222D01*
X125430389Y-26903165D01*
X125530242Y-27009454D01*
X125605597Y-27149415D01*
X125630010Y-27328346D01*
X125601499Y-27504684D01*
X125558020Y-27592158D01*
X125472090Y-27672991D01*
X125336912Y-27730983D01*
X125140840Y-27768584D01*
X124872226Y-27788248D01*
X124605142Y-27792709D01*
X124074994Y-27792972D01*
X124074994Y-27086107D01*
X124499113Y-27086107D01*
X124499113Y-27415977D01*
X124823941Y-27415977D01*
X125005532Y-27411179D01*
X125113199Y-27393881D01*
X125166913Y-27359727D01*
X125178442Y-27338652D01*
X125190238Y-27228321D01*
X125180308Y-27173717D01*
X125151582Y-27126604D01*
X125088538Y-27099871D01*
X124969622Y-27088192D01*
X124825807Y-27086107D01*
X124499113Y-27086107D01*
X124074994Y-27086107D01*
X124074994Y-26379243D01*
X124499113Y-26379243D01*
X124499113Y-26713419D01*
X124812282Y-26699485D01*
X125003939Y-26683291D01*
X125119640Y-26652649D01*
X125174763Y-26607033D01*
X125201451Y-26506641D01*
X125140264Y-26434203D01*
X124993808Y-26391304D01*
X124799651Y-26379243D01*
X124499113Y-26379243D01*
X124074994Y-26379243D01*
X124074994Y-25991331D01*
X124699391Y-26010841D01*
X124699391Y-26010841D01*
G37*
X124699391Y-26010841D02*
X125016277Y-26025664D01*
X125243497Y-26047779D01*
X125385390Y-26077696D01*
X125426464Y-26096227D01*
X125556442Y-26230689D01*
X125620626Y-26407529D01*
X125614562Y-26597570D01*
X125533800Y-26771636D01*
X125530242Y-26776222D01*
X125430389Y-26903165D01*
X125530242Y-27009454D01*
X125605597Y-27149415D01*
X125630010Y-27328346D01*
X125601499Y-27504684D01*
X125558020Y-27592158D01*
X125472090Y-27672991D01*
X125336912Y-27730983D01*
X125140840Y-27768584D01*
X124872226Y-27788248D01*
X124605142Y-27792709D01*
X124074994Y-27792972D01*
X124074994Y-27086107D01*
X124499113Y-27086107D01*
X124499113Y-27415977D01*
X124823941Y-27415977D01*
X125005532Y-27411179D01*
X125113199Y-27393881D01*
X125166913Y-27359727D01*
X125178442Y-27338652D01*
X125190238Y-27228321D01*
X125180308Y-27173717D01*
X125151582Y-27126604D01*
X125088538Y-27099871D01*
X124969622Y-27088192D01*
X124825807Y-27086107D01*
X124499113Y-27086107D01*
X124074994Y-27086107D01*
X124074994Y-26379243D01*
X124499113Y-26379243D01*
X124499113Y-26713419D01*
X124812282Y-26699485D01*
X125003939Y-26683291D01*
X125119640Y-26652649D01*
X125174763Y-26607033D01*
X125201451Y-26506641D01*
X125140264Y-26434203D01*
X124993808Y-26391304D01*
X124799651Y-26379243D01*
X124499113Y-26379243D01*
X124074994Y-26379243D01*
X124074994Y-25991331D01*
X124699391Y-26010841D01*
G36*
X126289836Y-26654685D02*
X126292619Y-26948732D01*
X126304892Y-27161589D01*
X126332540Y-27306247D01*
X126381448Y-27395695D01*
X126457501Y-27442924D01*
X126566584Y-27460923D01*
X126656088Y-27463102D01*
X126778759Y-27454762D01*
X126868180Y-27421355D01*
X126929483Y-27350296D01*
X126967799Y-27229003D01*
X126988260Y-27044893D01*
X126995998Y-26785382D01*
X126996701Y-26627941D01*
X126996701Y-26002248D01*
X127429278Y-26002248D01*
X127413268Y-26727823D01*
X127404307Y-27034484D01*
X127389360Y-27261929D01*
X127363081Y-27425187D01*
X127320120Y-27539289D01*
X127255132Y-27619265D01*
X127162767Y-27680144D01*
X127057120Y-27728789D01*
X126885562Y-27772177D01*
X126667355Y-27788733D01*
X126444343Y-27778550D01*
X126258374Y-27741726D01*
X126219150Y-27726879D01*
X126102223Y-27669580D01*
X126016480Y-27606136D01*
X125956704Y-27521446D01*
X125917680Y-27400406D01*
X125894194Y-27227914D01*
X125881030Y-26988867D01*
X125874181Y-26727874D01*
X125859083Y-26002248D01*
X126289836Y-26002248D01*
X126289836Y-26654685D01*
X126289836Y-26654685D01*
G37*
X126289836Y-26654685D02*
X126292619Y-26948732D01*
X126304892Y-27161589D01*
X126332540Y-27306247D01*
X126381448Y-27395695D01*
X126457501Y-27442924D01*
X126566584Y-27460923D01*
X126656088Y-27463102D01*
X126778759Y-27454762D01*
X126868180Y-27421355D01*
X126929483Y-27350296D01*
X126967799Y-27229003D01*
X126988260Y-27044893D01*
X126995998Y-26785382D01*
X126996701Y-26627941D01*
X126996701Y-26002248D01*
X127429278Y-26002248D01*
X127413268Y-26727823D01*
X127404307Y-27034484D01*
X127389360Y-27261929D01*
X127363081Y-27425187D01*
X127320120Y-27539289D01*
X127255132Y-27619265D01*
X127162767Y-27680144D01*
X127057120Y-27728789D01*
X126885562Y-27772177D01*
X126667355Y-27788733D01*
X126444343Y-27778550D01*
X126258374Y-27741726D01*
X126219150Y-27726879D01*
X126102223Y-27669580D01*
X126016480Y-27606136D01*
X125956704Y-27521446D01*
X125917680Y-27400406D01*
X125894194Y-27227914D01*
X125881030Y-26988867D01*
X125874181Y-26727874D01*
X125859083Y-26002248D01*
X126289836Y-26002248D01*
X126289836Y-26654685D01*
G36*
X129211543Y-26379243D02*
X128679038Y-26379243D01*
X128417329Y-26382993D01*
X128235873Y-26397082D01*
X128120872Y-26425764D01*
X128058528Y-26473294D01*
X128035042Y-26543927D01*
X128033436Y-26578331D01*
X128068295Y-26657574D01*
X128176891Y-26712497D01*
X128365256Y-26744799D01*
X128639417Y-26756179D01*
X128664467Y-26756237D01*
X128861410Y-26758919D01*
X128989072Y-26770800D01*
X129072356Y-26797634D01*
X129136168Y-26845176D01*
X129161662Y-26871114D01*
X129248481Y-27020849D01*
X129290976Y-27213357D01*
X129283289Y-27405366D01*
X129248182Y-27510226D01*
X129168799Y-27620016D01*
X129053600Y-27699164D01*
X128888958Y-27751650D01*
X128661248Y-27781458D01*
X128356842Y-27792568D01*
X128280838Y-27792899D01*
X127703565Y-27792972D01*
X127703565Y-27415977D01*
X128239725Y-27415977D01*
X128484384Y-27413461D01*
X128651460Y-27404535D01*
X128757517Y-27387131D01*
X128819122Y-27359182D01*
X128837827Y-27341341D01*
X128874279Y-27250359D01*
X128850484Y-27188187D01*
X128803235Y-27147764D01*
X128709806Y-27119015D01*
X128553329Y-27098390D01*
X128358411Y-27084610D01*
X128123242Y-27064219D01*
X127937204Y-27034026D01*
X127821237Y-26997587D01*
X127810973Y-26991668D01*
X127686864Y-26857719D01*
X127623041Y-26666861D01*
X127622800Y-26468944D01*
X127660266Y-26309138D01*
X127731580Y-26188826D01*
X127848028Y-26103036D01*
X128020898Y-26046793D01*
X128261480Y-26015123D01*
X128581060Y-26003054D01*
X128681395Y-26002511D01*
X129211543Y-26002248D01*
X129211543Y-26379243D01*
X129211543Y-26379243D01*
G37*
X129211543Y-26379243D02*
X128679038Y-26379243D01*
X128417329Y-26382993D01*
X128235873Y-26397082D01*
X128120872Y-26425764D01*
X128058528Y-26473294D01*
X128035042Y-26543927D01*
X128033436Y-26578331D01*
X128068295Y-26657574D01*
X128176891Y-26712497D01*
X128365256Y-26744799D01*
X128639417Y-26756179D01*
X128664467Y-26756237D01*
X128861410Y-26758919D01*
X128989072Y-26770800D01*
X129072356Y-26797634D01*
X129136168Y-26845176D01*
X129161662Y-26871114D01*
X129248481Y-27020849D01*
X129290976Y-27213357D01*
X129283289Y-27405366D01*
X129248182Y-27510226D01*
X129168799Y-27620016D01*
X129053600Y-27699164D01*
X128888958Y-27751650D01*
X128661248Y-27781458D01*
X128356842Y-27792568D01*
X128280838Y-27792899D01*
X127703565Y-27792972D01*
X127703565Y-27415977D01*
X128239725Y-27415977D01*
X128484384Y-27413461D01*
X128651460Y-27404535D01*
X128757517Y-27387131D01*
X128819122Y-27359182D01*
X128837827Y-27341341D01*
X128874279Y-27250359D01*
X128850484Y-27188187D01*
X128803235Y-27147764D01*
X128709806Y-27119015D01*
X128553329Y-27098390D01*
X128358411Y-27084610D01*
X128123242Y-27064219D01*
X127937204Y-27034026D01*
X127821237Y-26997587D01*
X127810973Y-26991668D01*
X127686864Y-26857719D01*
X127623041Y-26666861D01*
X127622800Y-26468944D01*
X127660266Y-26309138D01*
X127731580Y-26188826D01*
X127848028Y-26103036D01*
X128020898Y-26046793D01*
X128261480Y-26015123D01*
X128581060Y-26003054D01*
X128681395Y-26002511D01*
X129211543Y-26002248D01*
X129211543Y-26379243D01*
G36*
X125020581Y-24448359D02*
X125232620Y-24458546D01*
X125376683Y-24487529D01*
X125465903Y-24545130D01*
X125513414Y-24641170D01*
X125532351Y-24785471D01*
X125535847Y-24987856D01*
X125535847Y-25483881D01*
X125253102Y-25483881D01*
X125253102Y-25139873D01*
X125244036Y-24920644D01*
X125212876Y-24780542D01*
X125153678Y-24705839D01*
X125060498Y-24682809D01*
X125055179Y-24682768D01*
X125013701Y-24692852D01*
X124988343Y-24735153D01*
X124975280Y-24827744D01*
X124970683Y-24988699D01*
X124970356Y-25083324D01*
X124970356Y-25483881D01*
X124640486Y-25483881D01*
X124640486Y-25083324D01*
X124639404Y-24889356D01*
X124632500Y-24770976D01*
X124614286Y-24709525D01*
X124579273Y-24686342D01*
X124522675Y-24682768D01*
X124465625Y-24686445D01*
X124430808Y-24709918D01*
X124412734Y-24771847D01*
X124405915Y-24890890D01*
X124404864Y-25083324D01*
X124404864Y-25483881D01*
X124074994Y-25483881D01*
X124074994Y-24447146D01*
X124727431Y-24447146D01*
X125020581Y-24448359D01*
X125020581Y-24448359D01*
G37*
X125020581Y-24448359D02*
X125232620Y-24458546D01*
X125376683Y-24487529D01*
X125465903Y-24545130D01*
X125513414Y-24641170D01*
X125532351Y-24785471D01*
X125535847Y-24987856D01*
X125535847Y-25483881D01*
X125253102Y-25483881D01*
X125253102Y-25139873D01*
X125244036Y-24920644D01*
X125212876Y-24780542D01*
X125153678Y-24705839D01*
X125060498Y-24682809D01*
X125055179Y-24682768D01*
X125013701Y-24692852D01*
X124988343Y-24735153D01*
X124975280Y-24827744D01*
X124970683Y-24988699D01*
X124970356Y-25083324D01*
X124970356Y-25483881D01*
X124640486Y-25483881D01*
X124640486Y-25083324D01*
X124639404Y-24889356D01*
X124632500Y-24770976D01*
X124614286Y-24709525D01*
X124579273Y-24686342D01*
X124522675Y-24682768D01*
X124465625Y-24686445D01*
X124430808Y-24709918D01*
X124412734Y-24771847D01*
X124405915Y-24890890D01*
X124404864Y-25083324D01*
X124404864Y-25483881D01*
X124074994Y-25483881D01*
X124074994Y-24447146D01*
X124727431Y-24447146D01*
X125020581Y-24448359D01*
G36*
X126054215Y-25483881D02*
X125724345Y-25483881D01*
X125724345Y-24447146D01*
X126054215Y-24447146D01*
X126054215Y-25483881D01*
X126054215Y-25483881D01*
G37*
X126054215Y-25483881D02*
X125724345Y-25483881D01*
X125724345Y-24447146D01*
X126054215Y-24447146D01*
X126054215Y-25483881D01*
G36*
X126576448Y-24847703D02*
X126757634Y-24647424D01*
X126872637Y-24530217D01*
X126966307Y-24470145D01*
X127073817Y-24448914D01*
X127142705Y-24447146D01*
X127346590Y-24447146D01*
X127124521Y-24672605D01*
X127011849Y-24793606D01*
X126931932Y-24892046D01*
X126902452Y-24945539D01*
X126933829Y-25001109D01*
X127015550Y-25098490D01*
X127114512Y-25201135D01*
X127224920Y-25314985D01*
X127301619Y-25404574D01*
X127326571Y-25446568D01*
X127284597Y-25468984D01*
X127179039Y-25481245D01*
X127126293Y-25482097D01*
X127003685Y-25473007D01*
X126914888Y-25435541D01*
X126826771Y-25350383D01*
X126761079Y-25269173D01*
X126596144Y-25058033D01*
X126581781Y-25270957D01*
X126568948Y-25401574D01*
X126539719Y-25463596D01*
X126472904Y-25482555D01*
X126405065Y-25483881D01*
X126242712Y-25483881D01*
X126242712Y-23975903D01*
X126572582Y-23975903D01*
X126576448Y-24847703D01*
X126576448Y-24847703D01*
G37*
X126576448Y-24847703D02*
X126757634Y-24647424D01*
X126872637Y-24530217D01*
X126966307Y-24470145D01*
X127073817Y-24448914D01*
X127142705Y-24447146D01*
X127346590Y-24447146D01*
X127124521Y-24672605D01*
X127011849Y-24793606D01*
X126931932Y-24892046D01*
X126902452Y-24945539D01*
X126933829Y-25001109D01*
X127015550Y-25098490D01*
X127114512Y-25201135D01*
X127224920Y-25314985D01*
X127301619Y-25404574D01*
X127326571Y-25446568D01*
X127284597Y-25468984D01*
X127179039Y-25481245D01*
X127126293Y-25482097D01*
X127003685Y-25473007D01*
X126914888Y-25435541D01*
X126826771Y-25350383D01*
X126761079Y-25269173D01*
X126596144Y-25058033D01*
X126581781Y-25270957D01*
X126568948Y-25401574D01*
X126539719Y-25463596D01*
X126472904Y-25482555D01*
X126405065Y-25483881D01*
X126242712Y-25483881D01*
X126242712Y-23975903D01*
X126572582Y-23975903D01*
X126576448Y-24847703D01*
G36*
X127936187Y-24455592D02*
X128069933Y-24488281D01*
X128143051Y-24556245D01*
X128171887Y-24670511D01*
X128174808Y-24750356D01*
X128163008Y-24832017D01*
X128109009Y-24865466D01*
X128009873Y-24871265D01*
X127896197Y-24860722D01*
X127850330Y-24819564D01*
X127844938Y-24777016D01*
X127815473Y-24700261D01*
X127774252Y-24682768D01*
X127738912Y-24699869D01*
X127717283Y-24762119D01*
X127706467Y-24885937D01*
X127703565Y-25083324D01*
X127703565Y-25483881D01*
X127373695Y-25483881D01*
X127373695Y-24447146D01*
X127725470Y-24447146D01*
X127936187Y-24455592D01*
X127936187Y-24455592D01*
G37*
X127936187Y-24455592D02*
X128069933Y-24488281D01*
X128143051Y-24556245D01*
X128171887Y-24670511D01*
X128174808Y-24750356D01*
X128163008Y-24832017D01*
X128109009Y-24865466D01*
X128009873Y-24871265D01*
X127896197Y-24860722D01*
X127850330Y-24819564D01*
X127844938Y-24777016D01*
X127815473Y-24700261D01*
X127774252Y-24682768D01*
X127738912Y-24699869D01*
X127717283Y-24762119D01*
X127706467Y-24885937D01*
X127703565Y-25083324D01*
X127703565Y-25483881D01*
X127373695Y-25483881D01*
X127373695Y-24447146D01*
X127725470Y-24447146D01*
X127936187Y-24455592D01*
G36*
X128916686Y-24419372D02*
X129093865Y-24499122D01*
X129231835Y-24632128D01*
X129315990Y-24805425D01*
X129331720Y-25006046D01*
X129288877Y-25168932D01*
X129178468Y-25345414D01*
X129019610Y-25447807D01*
X128800045Y-25483660D01*
X128777682Y-25483881D01*
X128608987Y-25469139D01*
X128482841Y-25413537D01*
X128408264Y-25354289D01*
X128283907Y-25187762D01*
X128232020Y-24992924D01*
X128236033Y-24948524D01*
X128551846Y-24948524D01*
X128577245Y-25077456D01*
X128656537Y-25174901D01*
X128760276Y-25236117D01*
X128834944Y-25232284D01*
X128922611Y-25160174D01*
X128928797Y-25154011D01*
X128999089Y-25055607D01*
X129023046Y-24975999D01*
X128986350Y-24845271D01*
X128895871Y-24736850D01*
X128781018Y-24683883D01*
X128762848Y-24682768D01*
X128650947Y-24722017D01*
X128578513Y-24820323D01*
X128551846Y-24948524D01*
X128236033Y-24948524D01*
X128249996Y-24794054D01*
X128335223Y-24615428D01*
X128485094Y-24481326D01*
X128503136Y-24471506D01*
X128714907Y-24405845D01*
X128916686Y-24419372D01*
X128916686Y-24419372D01*
G37*
X128916686Y-24419372D02*
X129093865Y-24499122D01*
X129231835Y-24632128D01*
X129315990Y-24805425D01*
X129331720Y-25006046D01*
X129288877Y-25168932D01*
X129178468Y-25345414D01*
X129019610Y-25447807D01*
X128800045Y-25483660D01*
X128777682Y-25483881D01*
X128608987Y-25469139D01*
X128482841Y-25413537D01*
X128408264Y-25354289D01*
X128283907Y-25187762D01*
X128232020Y-24992924D01*
X128236033Y-24948524D01*
X128551846Y-24948524D01*
X128577245Y-25077456D01*
X128656537Y-25174901D01*
X128760276Y-25236117D01*
X128834944Y-25232284D01*
X128922611Y-25160174D01*
X128928797Y-25154011D01*
X128999089Y-25055607D01*
X129023046Y-24975999D01*
X128986350Y-24845271D01*
X128895871Y-24736850D01*
X128781018Y-24683883D01*
X128762848Y-24682768D01*
X128650947Y-24722017D01*
X128578513Y-24820323D01*
X128551846Y-24948524D01*
X128236033Y-24948524D01*
X128249996Y-24794054D01*
X128335223Y-24615428D01*
X128485094Y-24481326D01*
X128503136Y-24471506D01*
X128714907Y-24405845D01*
X128916686Y-24419372D01*
G36*
X126000093Y-23983784D02*
X126045544Y-24023758D01*
X126054215Y-24117276D01*
X126045020Y-24212259D01*
X125998384Y-24251217D01*
X125889280Y-24258649D01*
X125778466Y-24250768D01*
X125733015Y-24210794D01*
X125724345Y-24117276D01*
X125733539Y-24022293D01*
X125780176Y-23983335D01*
X125889280Y-23975903D01*
X126000093Y-23983784D01*
X126000093Y-23983784D01*
G37*
X126000093Y-23983784D02*
X126045544Y-24023758D01*
X126054215Y-24117276D01*
X126045020Y-24212259D01*
X125998384Y-24251217D01*
X125889280Y-24258649D01*
X125778466Y-24250768D01*
X125733015Y-24210794D01*
X125724345Y-24117276D01*
X125733539Y-24022293D01*
X125780176Y-23983335D01*
X125889280Y-23975903D01*
X126000093Y-23983784D01*
G36*
X90084624Y-24035883D02*
X90198793Y-24086623D01*
X90283895Y-24160775D01*
X90377077Y-24275583D01*
X90421356Y-24401201D01*
X90426942Y-24572536D01*
X90422791Y-24635643D01*
X90378077Y-24758849D01*
X90280630Y-24891926D01*
X90160324Y-24999376D01*
X90083476Y-25038833D01*
X90039771Y-25065373D01*
X90013741Y-25124082D01*
X90001097Y-25234986D01*
X89997545Y-25418113D01*
X89997525Y-25439932D01*
X89997525Y-25813751D01*
X91081384Y-25813751D01*
X91081384Y-26305381D01*
X91082904Y-26527065D01*
X91089554Y-26672227D01*
X91104467Y-26758573D01*
X91130777Y-26803809D01*
X91171616Y-26825641D01*
X91173562Y-26826267D01*
X91320432Y-26917872D01*
X91434769Y-27073707D01*
X91498326Y-27264842D01*
X91505502Y-27352531D01*
X91490758Y-27511404D01*
X91433474Y-27628580D01*
X91367754Y-27702348D01*
X91255925Y-27793609D01*
X91135097Y-27833253D01*
X91009610Y-27840096D01*
X90860006Y-27829374D01*
X90749943Y-27784002D01*
X90633349Y-27684174D01*
X90623005Y-27673888D01*
X90523075Y-27564650D01*
X90478746Y-27474802D01*
X90474246Y-27362180D01*
X90480887Y-27293960D01*
X90537944Y-27089865D01*
X90648771Y-26926112D01*
X90795828Y-26828017D01*
X90806091Y-26824558D01*
X90850179Y-26798219D01*
X90876437Y-26740366D01*
X90889214Y-26630894D01*
X90892857Y-26449700D01*
X90892886Y-26423191D01*
X90892886Y-26049373D01*
X88960790Y-26049373D01*
X88960790Y-26794052D01*
X89120535Y-26888304D01*
X89269429Y-27024995D01*
X89349327Y-27203086D01*
X89359034Y-27398512D01*
X89297354Y-27587206D01*
X89163093Y-27745103D01*
X89163083Y-27745111D01*
X89008689Y-27816847D01*
X88818573Y-27839006D01*
X88636114Y-27810080D01*
X88546887Y-27766549D01*
X88429312Y-27645341D01*
X88339065Y-27484035D01*
X88301127Y-27327832D01*
X88301050Y-27321729D01*
X88341020Y-27151550D01*
X88444011Y-26988807D01*
X88584593Y-26873635D01*
X88654494Y-26833431D01*
X88696259Y-26786754D01*
X88717132Y-26710502D01*
X88724354Y-26581570D01*
X88725168Y-26425157D01*
X88725168Y-26049373D01*
X86793072Y-26049373D01*
X86793072Y-26425157D01*
X86794539Y-26612703D01*
X86803853Y-26729151D01*
X86828381Y-26797651D01*
X86875489Y-26841353D01*
X86936223Y-26874967D01*
X87092905Y-27003198D01*
X87182519Y-27175903D01*
X87202566Y-27368898D01*
X87150548Y-27558001D01*
X87023966Y-27719031D01*
X87023475Y-27719445D01*
X86845858Y-27815104D01*
X86642985Y-27842480D01*
X86448586Y-27800277D01*
X86355158Y-27745111D01*
X86220892Y-27587216D01*
X86159208Y-27398523D01*
X86168911Y-27203098D01*
X86248804Y-27025005D01*
X86397694Y-26888310D01*
X86397705Y-26888304D01*
X86557450Y-26794052D01*
X86557450Y-25813751D01*
X87641309Y-25813751D01*
X87641309Y-25069072D01*
X87479251Y-24973455D01*
X87327039Y-24835308D01*
X87246468Y-24657523D01*
X87238524Y-24462839D01*
X87304195Y-24273996D01*
X87441984Y-24115679D01*
X87603404Y-24041293D01*
X87798214Y-24024007D01*
X87984818Y-24063821D01*
X88076256Y-24115679D01*
X88215479Y-24276498D01*
X88280112Y-24465579D01*
X88271143Y-24660184D01*
X88189561Y-24837571D01*
X88038990Y-24973455D01*
X87876931Y-25069072D01*
X87876931Y-25813751D01*
X89809027Y-25813751D01*
X89809027Y-25437967D01*
X89807509Y-25250324D01*
X89798128Y-25133825D01*
X89773641Y-25065366D01*
X89726806Y-25021842D01*
X89668452Y-24989488D01*
X89515063Y-24860835D01*
X89415087Y-24675297D01*
X89384909Y-24491898D01*
X89416607Y-24351802D01*
X89520708Y-24208389D01*
X89545131Y-24183250D01*
X89663861Y-24080292D01*
X89776513Y-24033700D01*
X89925751Y-24023027D01*
X90084624Y-24035883D01*
X90084624Y-24035883D01*
G37*
X90084624Y-24035883D02*
X90198793Y-24086623D01*
X90283895Y-24160775D01*
X90377077Y-24275583D01*
X90421356Y-24401201D01*
X90426942Y-24572536D01*
X90422791Y-24635643D01*
X90378077Y-24758849D01*
X90280630Y-24891926D01*
X90160324Y-24999376D01*
X90083476Y-25038833D01*
X90039771Y-25065373D01*
X90013741Y-25124082D01*
X90001097Y-25234986D01*
X89997545Y-25418113D01*
X89997525Y-25439932D01*
X89997525Y-25813751D01*
X91081384Y-25813751D01*
X91081384Y-26305381D01*
X91082904Y-26527065D01*
X91089554Y-26672227D01*
X91104467Y-26758573D01*
X91130777Y-26803809D01*
X91171616Y-26825641D01*
X91173562Y-26826267D01*
X91320432Y-26917872D01*
X91434769Y-27073707D01*
X91498326Y-27264842D01*
X91505502Y-27352531D01*
X91490758Y-27511404D01*
X91433474Y-27628580D01*
X91367754Y-27702348D01*
X91255925Y-27793609D01*
X91135097Y-27833253D01*
X91009610Y-27840096D01*
X90860006Y-27829374D01*
X90749943Y-27784002D01*
X90633349Y-27684174D01*
X90623005Y-27673888D01*
X90523075Y-27564650D01*
X90478746Y-27474802D01*
X90474246Y-27362180D01*
X90480887Y-27293960D01*
X90537944Y-27089865D01*
X90648771Y-26926112D01*
X90795828Y-26828017D01*
X90806091Y-26824558D01*
X90850179Y-26798219D01*
X90876437Y-26740366D01*
X90889214Y-26630894D01*
X90892857Y-26449700D01*
X90892886Y-26423191D01*
X90892886Y-26049373D01*
X88960790Y-26049373D01*
X88960790Y-26794052D01*
X89120535Y-26888304D01*
X89269429Y-27024995D01*
X89349327Y-27203086D01*
X89359034Y-27398512D01*
X89297354Y-27587206D01*
X89163093Y-27745103D01*
X89163083Y-27745111D01*
X89008689Y-27816847D01*
X88818573Y-27839006D01*
X88636114Y-27810080D01*
X88546887Y-27766549D01*
X88429312Y-27645341D01*
X88339065Y-27484035D01*
X88301127Y-27327832D01*
X88301050Y-27321729D01*
X88341020Y-27151550D01*
X88444011Y-26988807D01*
X88584593Y-26873635D01*
X88654494Y-26833431D01*
X88696259Y-26786754D01*
X88717132Y-26710502D01*
X88724354Y-26581570D01*
X88725168Y-26425157D01*
X88725168Y-26049373D01*
X86793072Y-26049373D01*
X86793072Y-26425157D01*
X86794539Y-26612703D01*
X86803853Y-26729151D01*
X86828381Y-26797651D01*
X86875489Y-26841353D01*
X86936223Y-26874967D01*
X87092905Y-27003198D01*
X87182519Y-27175903D01*
X87202566Y-27368898D01*
X87150548Y-27558001D01*
X87023966Y-27719031D01*
X87023475Y-27719445D01*
X86845858Y-27815104D01*
X86642985Y-27842480D01*
X86448586Y-27800277D01*
X86355158Y-27745111D01*
X86220892Y-27587216D01*
X86159208Y-27398523D01*
X86168911Y-27203098D01*
X86248804Y-27025005D01*
X86397694Y-26888310D01*
X86397705Y-26888304D01*
X86557450Y-26794052D01*
X86557450Y-25813751D01*
X87641309Y-25813751D01*
X87641309Y-25069072D01*
X87479251Y-24973455D01*
X87327039Y-24835308D01*
X87246468Y-24657523D01*
X87238524Y-24462839D01*
X87304195Y-24273996D01*
X87441984Y-24115679D01*
X87603404Y-24041293D01*
X87798214Y-24024007D01*
X87984818Y-24063821D01*
X88076256Y-24115679D01*
X88215479Y-24276498D01*
X88280112Y-24465579D01*
X88271143Y-24660184D01*
X88189561Y-24837571D01*
X88038990Y-24973455D01*
X87876931Y-25069072D01*
X87876931Y-25813751D01*
X89809027Y-25813751D01*
X89809027Y-25437967D01*
X89807509Y-25250324D01*
X89798128Y-25133825D01*
X89773641Y-25065366D01*
X89726806Y-25021842D01*
X89668452Y-24989488D01*
X89515063Y-24860835D01*
X89415087Y-24675297D01*
X89384909Y-24491898D01*
X89416607Y-24351802D01*
X89520708Y-24208389D01*
X89545131Y-24183250D01*
X89663861Y-24080292D01*
X89776513Y-24033700D01*
X89925751Y-24023027D01*
X90084624Y-24035883D01*
G36*
X92695391Y-26010841D02*
X93012277Y-26025664D01*
X93239497Y-26047779D01*
X93381390Y-26077696D01*
X93422464Y-26096227D01*
X93552442Y-26230689D01*
X93616626Y-26407529D01*
X93610562Y-26597570D01*
X93529800Y-26771636D01*
X93526242Y-26776222D01*
X93426389Y-26903165D01*
X93526242Y-27009454D01*
X93601597Y-27149415D01*
X93626010Y-27328346D01*
X93597499Y-27504684D01*
X93554020Y-27592158D01*
X93468090Y-27672991D01*
X93332912Y-27730983D01*
X93136840Y-27768584D01*
X92868226Y-27788248D01*
X92601142Y-27792709D01*
X92070994Y-27792972D01*
X92070994Y-27086107D01*
X92495113Y-27086107D01*
X92495113Y-27415977D01*
X92819941Y-27415977D01*
X93001532Y-27411179D01*
X93109199Y-27393881D01*
X93162913Y-27359727D01*
X93174442Y-27338652D01*
X93186238Y-27228321D01*
X93176308Y-27173717D01*
X93147582Y-27126604D01*
X93084538Y-27099871D01*
X92965622Y-27088192D01*
X92821807Y-27086107D01*
X92495113Y-27086107D01*
X92070994Y-27086107D01*
X92070994Y-26379243D01*
X92495113Y-26379243D01*
X92495113Y-26713419D01*
X92808282Y-26699485D01*
X92999939Y-26683291D01*
X93115640Y-26652649D01*
X93170763Y-26607033D01*
X93197451Y-26506641D01*
X93136264Y-26434203D01*
X92989808Y-26391304D01*
X92795651Y-26379243D01*
X92495113Y-26379243D01*
X92070994Y-26379243D01*
X92070994Y-25991331D01*
X92695391Y-26010841D01*
X92695391Y-26010841D01*
G37*
X92695391Y-26010841D02*
X93012277Y-26025664D01*
X93239497Y-26047779D01*
X93381390Y-26077696D01*
X93422464Y-26096227D01*
X93552442Y-26230689D01*
X93616626Y-26407529D01*
X93610562Y-26597570D01*
X93529800Y-26771636D01*
X93526242Y-26776222D01*
X93426389Y-26903165D01*
X93526242Y-27009454D01*
X93601597Y-27149415D01*
X93626010Y-27328346D01*
X93597499Y-27504684D01*
X93554020Y-27592158D01*
X93468090Y-27672991D01*
X93332912Y-27730983D01*
X93136840Y-27768584D01*
X92868226Y-27788248D01*
X92601142Y-27792709D01*
X92070994Y-27792972D01*
X92070994Y-27086107D01*
X92495113Y-27086107D01*
X92495113Y-27415977D01*
X92819941Y-27415977D01*
X93001532Y-27411179D01*
X93109199Y-27393881D01*
X93162913Y-27359727D01*
X93174442Y-27338652D01*
X93186238Y-27228321D01*
X93176308Y-27173717D01*
X93147582Y-27126604D01*
X93084538Y-27099871D01*
X92965622Y-27088192D01*
X92821807Y-27086107D01*
X92495113Y-27086107D01*
X92070994Y-27086107D01*
X92070994Y-26379243D01*
X92495113Y-26379243D01*
X92495113Y-26713419D01*
X92808282Y-26699485D01*
X92999939Y-26683291D01*
X93115640Y-26652649D01*
X93170763Y-26607033D01*
X93197451Y-26506641D01*
X93136264Y-26434203D01*
X92989808Y-26391304D01*
X92795651Y-26379243D01*
X92495113Y-26379243D01*
X92070994Y-26379243D01*
X92070994Y-25991331D01*
X92695391Y-26010841D01*
G36*
X94285836Y-26654685D02*
X94288619Y-26948732D01*
X94300892Y-27161589D01*
X94328540Y-27306247D01*
X94377448Y-27395695D01*
X94453501Y-27442924D01*
X94562584Y-27460923D01*
X94652088Y-27463102D01*
X94774759Y-27454762D01*
X94864180Y-27421355D01*
X94925483Y-27350296D01*
X94963799Y-27229003D01*
X94984260Y-27044893D01*
X94991998Y-26785382D01*
X94992701Y-26627941D01*
X94992701Y-26002248D01*
X95425278Y-26002248D01*
X95409268Y-26727823D01*
X95400307Y-27034484D01*
X95385360Y-27261929D01*
X95359081Y-27425187D01*
X95316120Y-27539289D01*
X95251132Y-27619265D01*
X95158767Y-27680144D01*
X95053120Y-27728789D01*
X94881562Y-27772177D01*
X94663355Y-27788733D01*
X94440343Y-27778550D01*
X94254374Y-27741726D01*
X94215150Y-27726879D01*
X94098223Y-27669580D01*
X94012480Y-27606136D01*
X93952704Y-27521446D01*
X93913680Y-27400406D01*
X93890194Y-27227914D01*
X93877030Y-26988867D01*
X93870181Y-26727874D01*
X93855083Y-26002248D01*
X94285836Y-26002248D01*
X94285836Y-26654685D01*
X94285836Y-26654685D01*
G37*
X94285836Y-26654685D02*
X94288619Y-26948732D01*
X94300892Y-27161589D01*
X94328540Y-27306247D01*
X94377448Y-27395695D01*
X94453501Y-27442924D01*
X94562584Y-27460923D01*
X94652088Y-27463102D01*
X94774759Y-27454762D01*
X94864180Y-27421355D01*
X94925483Y-27350296D01*
X94963799Y-27229003D01*
X94984260Y-27044893D01*
X94991998Y-26785382D01*
X94992701Y-26627941D01*
X94992701Y-26002248D01*
X95425278Y-26002248D01*
X95409268Y-26727823D01*
X95400307Y-27034484D01*
X95385360Y-27261929D01*
X95359081Y-27425187D01*
X95316120Y-27539289D01*
X95251132Y-27619265D01*
X95158767Y-27680144D01*
X95053120Y-27728789D01*
X94881562Y-27772177D01*
X94663355Y-27788733D01*
X94440343Y-27778550D01*
X94254374Y-27741726D01*
X94215150Y-27726879D01*
X94098223Y-27669580D01*
X94012480Y-27606136D01*
X93952704Y-27521446D01*
X93913680Y-27400406D01*
X93890194Y-27227914D01*
X93877030Y-26988867D01*
X93870181Y-26727874D01*
X93855083Y-26002248D01*
X94285836Y-26002248D01*
X94285836Y-26654685D01*
G36*
X97207543Y-26379243D02*
X96675038Y-26379243D01*
X96413329Y-26382993D01*
X96231873Y-26397082D01*
X96116872Y-26425764D01*
X96054528Y-26473294D01*
X96031042Y-26543927D01*
X96029436Y-26578331D01*
X96064295Y-26657574D01*
X96172891Y-26712497D01*
X96361256Y-26744799D01*
X96635417Y-26756179D01*
X96660467Y-26756237D01*
X96857410Y-26758919D01*
X96985072Y-26770800D01*
X97068356Y-26797634D01*
X97132168Y-26845176D01*
X97157662Y-26871114D01*
X97244481Y-27020849D01*
X97286976Y-27213357D01*
X97279289Y-27405366D01*
X97244182Y-27510226D01*
X97164799Y-27620016D01*
X97049600Y-27699164D01*
X96884958Y-27751650D01*
X96657248Y-27781458D01*
X96352842Y-27792568D01*
X96276838Y-27792899D01*
X95699565Y-27792972D01*
X95699565Y-27415977D01*
X96235725Y-27415977D01*
X96480384Y-27413461D01*
X96647460Y-27404535D01*
X96753517Y-27387131D01*
X96815122Y-27359182D01*
X96833827Y-27341341D01*
X96870279Y-27250359D01*
X96846484Y-27188187D01*
X96799235Y-27147764D01*
X96705806Y-27119015D01*
X96549329Y-27098390D01*
X96354411Y-27084610D01*
X96119242Y-27064219D01*
X95933204Y-27034026D01*
X95817237Y-26997587D01*
X95806973Y-26991668D01*
X95682864Y-26857719D01*
X95619041Y-26666861D01*
X95618800Y-26468944D01*
X95656266Y-26309138D01*
X95727580Y-26188826D01*
X95844028Y-26103036D01*
X96016898Y-26046793D01*
X96257480Y-26015123D01*
X96577060Y-26003054D01*
X96677395Y-26002511D01*
X97207543Y-26002248D01*
X97207543Y-26379243D01*
X97207543Y-26379243D01*
G37*
X97207543Y-26379243D02*
X96675038Y-26379243D01*
X96413329Y-26382993D01*
X96231873Y-26397082D01*
X96116872Y-26425764D01*
X96054528Y-26473294D01*
X96031042Y-26543927D01*
X96029436Y-26578331D01*
X96064295Y-26657574D01*
X96172891Y-26712497D01*
X96361256Y-26744799D01*
X96635417Y-26756179D01*
X96660467Y-26756237D01*
X96857410Y-26758919D01*
X96985072Y-26770800D01*
X97068356Y-26797634D01*
X97132168Y-26845176D01*
X97157662Y-26871114D01*
X97244481Y-27020849D01*
X97286976Y-27213357D01*
X97279289Y-27405366D01*
X97244182Y-27510226D01*
X97164799Y-27620016D01*
X97049600Y-27699164D01*
X96884958Y-27751650D01*
X96657248Y-27781458D01*
X96352842Y-27792568D01*
X96276838Y-27792899D01*
X95699565Y-27792972D01*
X95699565Y-27415977D01*
X96235725Y-27415977D01*
X96480384Y-27413461D01*
X96647460Y-27404535D01*
X96753517Y-27387131D01*
X96815122Y-27359182D01*
X96833827Y-27341341D01*
X96870279Y-27250359D01*
X96846484Y-27188187D01*
X96799235Y-27147764D01*
X96705806Y-27119015D01*
X96549329Y-27098390D01*
X96354411Y-27084610D01*
X96119242Y-27064219D01*
X95933204Y-27034026D01*
X95817237Y-26997587D01*
X95806973Y-26991668D01*
X95682864Y-26857719D01*
X95619041Y-26666861D01*
X95618800Y-26468944D01*
X95656266Y-26309138D01*
X95727580Y-26188826D01*
X95844028Y-26103036D01*
X96016898Y-26046793D01*
X96257480Y-26015123D01*
X96577060Y-26003054D01*
X96677395Y-26002511D01*
X97207543Y-26002248D01*
X97207543Y-26379243D01*
G36*
X93016581Y-24448359D02*
X93228620Y-24458546D01*
X93372683Y-24487529D01*
X93461903Y-24545130D01*
X93509414Y-24641170D01*
X93528351Y-24785471D01*
X93531847Y-24987856D01*
X93531847Y-25483881D01*
X93249102Y-25483881D01*
X93249102Y-25139873D01*
X93240036Y-24920644D01*
X93208876Y-24780542D01*
X93149678Y-24705839D01*
X93056498Y-24682809D01*
X93051179Y-24682768D01*
X93009701Y-24692852D01*
X92984343Y-24735153D01*
X92971280Y-24827744D01*
X92966683Y-24988699D01*
X92966356Y-25083324D01*
X92966356Y-25483881D01*
X92636486Y-25483881D01*
X92636486Y-25083324D01*
X92635404Y-24889356D01*
X92628500Y-24770976D01*
X92610286Y-24709525D01*
X92575273Y-24686342D01*
X92518675Y-24682768D01*
X92461625Y-24686445D01*
X92426808Y-24709918D01*
X92408734Y-24771847D01*
X92401915Y-24890890D01*
X92400864Y-25083324D01*
X92400864Y-25483881D01*
X92070994Y-25483881D01*
X92070994Y-24447146D01*
X92723431Y-24447146D01*
X93016581Y-24448359D01*
X93016581Y-24448359D01*
G37*
X93016581Y-24448359D02*
X93228620Y-24458546D01*
X93372683Y-24487529D01*
X93461903Y-24545130D01*
X93509414Y-24641170D01*
X93528351Y-24785471D01*
X93531847Y-24987856D01*
X93531847Y-25483881D01*
X93249102Y-25483881D01*
X93249102Y-25139873D01*
X93240036Y-24920644D01*
X93208876Y-24780542D01*
X93149678Y-24705839D01*
X93056498Y-24682809D01*
X93051179Y-24682768D01*
X93009701Y-24692852D01*
X92984343Y-24735153D01*
X92971280Y-24827744D01*
X92966683Y-24988699D01*
X92966356Y-25083324D01*
X92966356Y-25483881D01*
X92636486Y-25483881D01*
X92636486Y-25083324D01*
X92635404Y-24889356D01*
X92628500Y-24770976D01*
X92610286Y-24709525D01*
X92575273Y-24686342D01*
X92518675Y-24682768D01*
X92461625Y-24686445D01*
X92426808Y-24709918D01*
X92408734Y-24771847D01*
X92401915Y-24890890D01*
X92400864Y-25083324D01*
X92400864Y-25483881D01*
X92070994Y-25483881D01*
X92070994Y-24447146D01*
X92723431Y-24447146D01*
X93016581Y-24448359D01*
G36*
X94050215Y-25483881D02*
X93720345Y-25483881D01*
X93720345Y-24447146D01*
X94050215Y-24447146D01*
X94050215Y-25483881D01*
X94050215Y-25483881D01*
G37*
X94050215Y-25483881D02*
X93720345Y-25483881D01*
X93720345Y-24447146D01*
X94050215Y-24447146D01*
X94050215Y-25483881D01*
G36*
X94572448Y-24847703D02*
X94753634Y-24647424D01*
X94868637Y-24530217D01*
X94962307Y-24470145D01*
X95069817Y-24448914D01*
X95138705Y-24447146D01*
X95342590Y-24447146D01*
X95120521Y-24672605D01*
X95007849Y-24793606D01*
X94927932Y-24892046D01*
X94898452Y-24945539D01*
X94929829Y-25001109D01*
X95011550Y-25098490D01*
X95110512Y-25201135D01*
X95220920Y-25314985D01*
X95297619Y-25404574D01*
X95322571Y-25446568D01*
X95280597Y-25468984D01*
X95175039Y-25481245D01*
X95122293Y-25482097D01*
X94999685Y-25473007D01*
X94910888Y-25435541D01*
X94822771Y-25350383D01*
X94757079Y-25269173D01*
X94592144Y-25058033D01*
X94577781Y-25270957D01*
X94564948Y-25401574D01*
X94535719Y-25463596D01*
X94468904Y-25482555D01*
X94401065Y-25483881D01*
X94238712Y-25483881D01*
X94238712Y-23975903D01*
X94568582Y-23975903D01*
X94572448Y-24847703D01*
X94572448Y-24847703D01*
G37*
X94572448Y-24847703D02*
X94753634Y-24647424D01*
X94868637Y-24530217D01*
X94962307Y-24470145D01*
X95069817Y-24448914D01*
X95138705Y-24447146D01*
X95342590Y-24447146D01*
X95120521Y-24672605D01*
X95007849Y-24793606D01*
X94927932Y-24892046D01*
X94898452Y-24945539D01*
X94929829Y-25001109D01*
X95011550Y-25098490D01*
X95110512Y-25201135D01*
X95220920Y-25314985D01*
X95297619Y-25404574D01*
X95322571Y-25446568D01*
X95280597Y-25468984D01*
X95175039Y-25481245D01*
X95122293Y-25482097D01*
X94999685Y-25473007D01*
X94910888Y-25435541D01*
X94822771Y-25350383D01*
X94757079Y-25269173D01*
X94592144Y-25058033D01*
X94577781Y-25270957D01*
X94564948Y-25401574D01*
X94535719Y-25463596D01*
X94468904Y-25482555D01*
X94401065Y-25483881D01*
X94238712Y-25483881D01*
X94238712Y-23975903D01*
X94568582Y-23975903D01*
X94572448Y-24847703D01*
G36*
X95932187Y-24455592D02*
X96065933Y-24488281D01*
X96139051Y-24556245D01*
X96167887Y-24670511D01*
X96170808Y-24750356D01*
X96159008Y-24832017D01*
X96105009Y-24865466D01*
X96005873Y-24871265D01*
X95892197Y-24860722D01*
X95846330Y-24819564D01*
X95840938Y-24777016D01*
X95811473Y-24700261D01*
X95770252Y-24682768D01*
X95734912Y-24699869D01*
X95713283Y-24762119D01*
X95702467Y-24885937D01*
X95699565Y-25083324D01*
X95699565Y-25483881D01*
X95369695Y-25483881D01*
X95369695Y-24447146D01*
X95721470Y-24447146D01*
X95932187Y-24455592D01*
X95932187Y-24455592D01*
G37*
X95932187Y-24455592D02*
X96065933Y-24488281D01*
X96139051Y-24556245D01*
X96167887Y-24670511D01*
X96170808Y-24750356D01*
X96159008Y-24832017D01*
X96105009Y-24865466D01*
X96005873Y-24871265D01*
X95892197Y-24860722D01*
X95846330Y-24819564D01*
X95840938Y-24777016D01*
X95811473Y-24700261D01*
X95770252Y-24682768D01*
X95734912Y-24699869D01*
X95713283Y-24762119D01*
X95702467Y-24885937D01*
X95699565Y-25083324D01*
X95699565Y-25483881D01*
X95369695Y-25483881D01*
X95369695Y-24447146D01*
X95721470Y-24447146D01*
X95932187Y-24455592D01*
G36*
X96912686Y-24419372D02*
X97089865Y-24499122D01*
X97227835Y-24632128D01*
X97311990Y-24805425D01*
X97327720Y-25006046D01*
X97284877Y-25168932D01*
X97174468Y-25345414D01*
X97015610Y-25447807D01*
X96796045Y-25483660D01*
X96773682Y-25483881D01*
X96604987Y-25469139D01*
X96478841Y-25413537D01*
X96404264Y-25354289D01*
X96279907Y-25187762D01*
X96228020Y-24992924D01*
X96232033Y-24948524D01*
X96547846Y-24948524D01*
X96573245Y-25077456D01*
X96652537Y-25174901D01*
X96756276Y-25236117D01*
X96830944Y-25232284D01*
X96918611Y-25160174D01*
X96924797Y-25154011D01*
X96995089Y-25055607D01*
X97019046Y-24975999D01*
X96982350Y-24845271D01*
X96891871Y-24736850D01*
X96777018Y-24683883D01*
X96758848Y-24682768D01*
X96646947Y-24722017D01*
X96574513Y-24820323D01*
X96547846Y-24948524D01*
X96232033Y-24948524D01*
X96245996Y-24794054D01*
X96331223Y-24615428D01*
X96481094Y-24481326D01*
X96499136Y-24471506D01*
X96710907Y-24405845D01*
X96912686Y-24419372D01*
X96912686Y-24419372D01*
G37*
X96912686Y-24419372D02*
X97089865Y-24499122D01*
X97227835Y-24632128D01*
X97311990Y-24805425D01*
X97327720Y-25006046D01*
X97284877Y-25168932D01*
X97174468Y-25345414D01*
X97015610Y-25447807D01*
X96796045Y-25483660D01*
X96773682Y-25483881D01*
X96604987Y-25469139D01*
X96478841Y-25413537D01*
X96404264Y-25354289D01*
X96279907Y-25187762D01*
X96228020Y-24992924D01*
X96232033Y-24948524D01*
X96547846Y-24948524D01*
X96573245Y-25077456D01*
X96652537Y-25174901D01*
X96756276Y-25236117D01*
X96830944Y-25232284D01*
X96918611Y-25160174D01*
X96924797Y-25154011D01*
X96995089Y-25055607D01*
X97019046Y-24975999D01*
X96982350Y-24845271D01*
X96891871Y-24736850D01*
X96777018Y-24683883D01*
X96758848Y-24682768D01*
X96646947Y-24722017D01*
X96574513Y-24820323D01*
X96547846Y-24948524D01*
X96232033Y-24948524D01*
X96245996Y-24794054D01*
X96331223Y-24615428D01*
X96481094Y-24481326D01*
X96499136Y-24471506D01*
X96710907Y-24405845D01*
X96912686Y-24419372D01*
G36*
X93996093Y-23983784D02*
X94041544Y-24023758D01*
X94050215Y-24117276D01*
X94041020Y-24212259D01*
X93994384Y-24251217D01*
X93885280Y-24258649D01*
X93774466Y-24250768D01*
X93729015Y-24210794D01*
X93720345Y-24117276D01*
X93729539Y-24022293D01*
X93776176Y-23983335D01*
X93885280Y-23975903D01*
X93996093Y-23983784D01*
X93996093Y-23983784D01*
G37*
X93996093Y-23983784D02*
X94041544Y-24023758D01*
X94050215Y-24117276D01*
X94041020Y-24212259D01*
X93994384Y-24251217D01*
X93885280Y-24258649D01*
X93774466Y-24250768D01*
X93729015Y-24210794D01*
X93720345Y-24117276D01*
X93729539Y-24022293D01*
X93776176Y-23983335D01*
X93885280Y-23975903D01*
X93996093Y-23983784D01*
G36*
X58588624Y-24035883D02*
X58702793Y-24086623D01*
X58787895Y-24160775D01*
X58881077Y-24275583D01*
X58925356Y-24401201D01*
X58930942Y-24572536D01*
X58926791Y-24635643D01*
X58882077Y-24758849D01*
X58784630Y-24891926D01*
X58664324Y-24999376D01*
X58587476Y-25038833D01*
X58543771Y-25065373D01*
X58517741Y-25124082D01*
X58505097Y-25234986D01*
X58501545Y-25418113D01*
X58501525Y-25439932D01*
X58501525Y-25813751D01*
X59585384Y-25813751D01*
X59585384Y-26305381D01*
X59586904Y-26527065D01*
X59593554Y-26672227D01*
X59608467Y-26758573D01*
X59634777Y-26803809D01*
X59675616Y-26825641D01*
X59677562Y-26826267D01*
X59824432Y-26917872D01*
X59938769Y-27073707D01*
X60002326Y-27264842D01*
X60009502Y-27352531D01*
X59994758Y-27511404D01*
X59937474Y-27628580D01*
X59871754Y-27702348D01*
X59759925Y-27793609D01*
X59639097Y-27833253D01*
X59513610Y-27840096D01*
X59364006Y-27829374D01*
X59253943Y-27784002D01*
X59137349Y-27684174D01*
X59127005Y-27673888D01*
X59027075Y-27564650D01*
X58982746Y-27474802D01*
X58978246Y-27362180D01*
X58984887Y-27293960D01*
X59041944Y-27089865D01*
X59152771Y-26926112D01*
X59299828Y-26828017D01*
X59310091Y-26824558D01*
X59354179Y-26798219D01*
X59380437Y-26740366D01*
X59393214Y-26630894D01*
X59396857Y-26449700D01*
X59396886Y-26423191D01*
X59396886Y-26049373D01*
X57464790Y-26049373D01*
X57464790Y-26794052D01*
X57624535Y-26888304D01*
X57773429Y-27024995D01*
X57853327Y-27203086D01*
X57863034Y-27398512D01*
X57801354Y-27587206D01*
X57667093Y-27745103D01*
X57667083Y-27745111D01*
X57512689Y-27816847D01*
X57322573Y-27839006D01*
X57140114Y-27810080D01*
X57050887Y-27766549D01*
X56933312Y-27645341D01*
X56843065Y-27484035D01*
X56805127Y-27327832D01*
X56805050Y-27321729D01*
X56845020Y-27151550D01*
X56948011Y-26988807D01*
X57088593Y-26873635D01*
X57158494Y-26833431D01*
X57200259Y-26786754D01*
X57221132Y-26710502D01*
X57228354Y-26581570D01*
X57229168Y-26425157D01*
X57229168Y-26049373D01*
X55297072Y-26049373D01*
X55297072Y-26425157D01*
X55298539Y-26612703D01*
X55307853Y-26729151D01*
X55332381Y-26797651D01*
X55379489Y-26841353D01*
X55440223Y-26874967D01*
X55596905Y-27003198D01*
X55686519Y-27175903D01*
X55706566Y-27368898D01*
X55654548Y-27558001D01*
X55527966Y-27719031D01*
X55527475Y-27719445D01*
X55349858Y-27815104D01*
X55146985Y-27842480D01*
X54952586Y-27800277D01*
X54859158Y-27745111D01*
X54724892Y-27587216D01*
X54663208Y-27398523D01*
X54672911Y-27203098D01*
X54752804Y-27025005D01*
X54901694Y-26888310D01*
X54901705Y-26888304D01*
X55061450Y-26794052D01*
X55061450Y-25813751D01*
X56145309Y-25813751D01*
X56145309Y-25069072D01*
X55983251Y-24973455D01*
X55831039Y-24835308D01*
X55750468Y-24657523D01*
X55742524Y-24462839D01*
X55808195Y-24273996D01*
X55945984Y-24115679D01*
X56107404Y-24041293D01*
X56302214Y-24024007D01*
X56488818Y-24063821D01*
X56580256Y-24115679D01*
X56719479Y-24276498D01*
X56784112Y-24465579D01*
X56775143Y-24660184D01*
X56693561Y-24837571D01*
X56542990Y-24973455D01*
X56380931Y-25069072D01*
X56380931Y-25813751D01*
X58313027Y-25813751D01*
X58313027Y-25437967D01*
X58311509Y-25250324D01*
X58302128Y-25133825D01*
X58277641Y-25065366D01*
X58230806Y-25021842D01*
X58172452Y-24989488D01*
X58019063Y-24860835D01*
X57919087Y-24675297D01*
X57888909Y-24491898D01*
X57920607Y-24351802D01*
X58024708Y-24208389D01*
X58049131Y-24183250D01*
X58167861Y-24080292D01*
X58280513Y-24033700D01*
X58429751Y-24023027D01*
X58588624Y-24035883D01*
X58588624Y-24035883D01*
G37*
X58588624Y-24035883D02*
X58702793Y-24086623D01*
X58787895Y-24160775D01*
X58881077Y-24275583D01*
X58925356Y-24401201D01*
X58930942Y-24572536D01*
X58926791Y-24635643D01*
X58882077Y-24758849D01*
X58784630Y-24891926D01*
X58664324Y-24999376D01*
X58587476Y-25038833D01*
X58543771Y-25065373D01*
X58517741Y-25124082D01*
X58505097Y-25234986D01*
X58501545Y-25418113D01*
X58501525Y-25439932D01*
X58501525Y-25813751D01*
X59585384Y-25813751D01*
X59585384Y-26305381D01*
X59586904Y-26527065D01*
X59593554Y-26672227D01*
X59608467Y-26758573D01*
X59634777Y-26803809D01*
X59675616Y-26825641D01*
X59677562Y-26826267D01*
X59824432Y-26917872D01*
X59938769Y-27073707D01*
X60002326Y-27264842D01*
X60009502Y-27352531D01*
X59994758Y-27511404D01*
X59937474Y-27628580D01*
X59871754Y-27702348D01*
X59759925Y-27793609D01*
X59639097Y-27833253D01*
X59513610Y-27840096D01*
X59364006Y-27829374D01*
X59253943Y-27784002D01*
X59137349Y-27684174D01*
X59127005Y-27673888D01*
X59027075Y-27564650D01*
X58982746Y-27474802D01*
X58978246Y-27362180D01*
X58984887Y-27293960D01*
X59041944Y-27089865D01*
X59152771Y-26926112D01*
X59299828Y-26828017D01*
X59310091Y-26824558D01*
X59354179Y-26798219D01*
X59380437Y-26740366D01*
X59393214Y-26630894D01*
X59396857Y-26449700D01*
X59396886Y-26423191D01*
X59396886Y-26049373D01*
X57464790Y-26049373D01*
X57464790Y-26794052D01*
X57624535Y-26888304D01*
X57773429Y-27024995D01*
X57853327Y-27203086D01*
X57863034Y-27398512D01*
X57801354Y-27587206D01*
X57667093Y-27745103D01*
X57667083Y-27745111D01*
X57512689Y-27816847D01*
X57322573Y-27839006D01*
X57140114Y-27810080D01*
X57050887Y-27766549D01*
X56933312Y-27645341D01*
X56843065Y-27484035D01*
X56805127Y-27327832D01*
X56805050Y-27321729D01*
X56845020Y-27151550D01*
X56948011Y-26988807D01*
X57088593Y-26873635D01*
X57158494Y-26833431D01*
X57200259Y-26786754D01*
X57221132Y-26710502D01*
X57228354Y-26581570D01*
X57229168Y-26425157D01*
X57229168Y-26049373D01*
X55297072Y-26049373D01*
X55297072Y-26425157D01*
X55298539Y-26612703D01*
X55307853Y-26729151D01*
X55332381Y-26797651D01*
X55379489Y-26841353D01*
X55440223Y-26874967D01*
X55596905Y-27003198D01*
X55686519Y-27175903D01*
X55706566Y-27368898D01*
X55654548Y-27558001D01*
X55527966Y-27719031D01*
X55527475Y-27719445D01*
X55349858Y-27815104D01*
X55146985Y-27842480D01*
X54952586Y-27800277D01*
X54859158Y-27745111D01*
X54724892Y-27587216D01*
X54663208Y-27398523D01*
X54672911Y-27203098D01*
X54752804Y-27025005D01*
X54901694Y-26888310D01*
X54901705Y-26888304D01*
X55061450Y-26794052D01*
X55061450Y-25813751D01*
X56145309Y-25813751D01*
X56145309Y-25069072D01*
X55983251Y-24973455D01*
X55831039Y-24835308D01*
X55750468Y-24657523D01*
X55742524Y-24462839D01*
X55808195Y-24273996D01*
X55945984Y-24115679D01*
X56107404Y-24041293D01*
X56302214Y-24024007D01*
X56488818Y-24063821D01*
X56580256Y-24115679D01*
X56719479Y-24276498D01*
X56784112Y-24465579D01*
X56775143Y-24660184D01*
X56693561Y-24837571D01*
X56542990Y-24973455D01*
X56380931Y-25069072D01*
X56380931Y-25813751D01*
X58313027Y-25813751D01*
X58313027Y-25437967D01*
X58311509Y-25250324D01*
X58302128Y-25133825D01*
X58277641Y-25065366D01*
X58230806Y-25021842D01*
X58172452Y-24989488D01*
X58019063Y-24860835D01*
X57919087Y-24675297D01*
X57888909Y-24491898D01*
X57920607Y-24351802D01*
X58024708Y-24208389D01*
X58049131Y-24183250D01*
X58167861Y-24080292D01*
X58280513Y-24033700D01*
X58429751Y-24023027D01*
X58588624Y-24035883D01*
G36*
X61199391Y-26010841D02*
X61516277Y-26025664D01*
X61743497Y-26047779D01*
X61885390Y-26077696D01*
X61926464Y-26096227D01*
X62056442Y-26230689D01*
X62120626Y-26407529D01*
X62114562Y-26597570D01*
X62033800Y-26771636D01*
X62030242Y-26776222D01*
X61930389Y-26903165D01*
X62030242Y-27009454D01*
X62105597Y-27149415D01*
X62130010Y-27328346D01*
X62101499Y-27504684D01*
X62058020Y-27592158D01*
X61972090Y-27672991D01*
X61836912Y-27730983D01*
X61640840Y-27768584D01*
X61372226Y-27788248D01*
X61105142Y-27792709D01*
X60574994Y-27792972D01*
X60574994Y-27086107D01*
X60999113Y-27086107D01*
X60999113Y-27415977D01*
X61323941Y-27415977D01*
X61505532Y-27411179D01*
X61613199Y-27393881D01*
X61666913Y-27359727D01*
X61678442Y-27338652D01*
X61690238Y-27228321D01*
X61680308Y-27173717D01*
X61651582Y-27126604D01*
X61588538Y-27099871D01*
X61469622Y-27088192D01*
X61325807Y-27086107D01*
X60999113Y-27086107D01*
X60574994Y-27086107D01*
X60574994Y-26379243D01*
X60999113Y-26379243D01*
X60999113Y-26713419D01*
X61312282Y-26699485D01*
X61503939Y-26683291D01*
X61619640Y-26652649D01*
X61674763Y-26607033D01*
X61701451Y-26506641D01*
X61640264Y-26434203D01*
X61493808Y-26391304D01*
X61299651Y-26379243D01*
X60999113Y-26379243D01*
X60574994Y-26379243D01*
X60574994Y-25991331D01*
X61199391Y-26010841D01*
X61199391Y-26010841D01*
G37*
X61199391Y-26010841D02*
X61516277Y-26025664D01*
X61743497Y-26047779D01*
X61885390Y-26077696D01*
X61926464Y-26096227D01*
X62056442Y-26230689D01*
X62120626Y-26407529D01*
X62114562Y-26597570D01*
X62033800Y-26771636D01*
X62030242Y-26776222D01*
X61930389Y-26903165D01*
X62030242Y-27009454D01*
X62105597Y-27149415D01*
X62130010Y-27328346D01*
X62101499Y-27504684D01*
X62058020Y-27592158D01*
X61972090Y-27672991D01*
X61836912Y-27730983D01*
X61640840Y-27768584D01*
X61372226Y-27788248D01*
X61105142Y-27792709D01*
X60574994Y-27792972D01*
X60574994Y-27086107D01*
X60999113Y-27086107D01*
X60999113Y-27415977D01*
X61323941Y-27415977D01*
X61505532Y-27411179D01*
X61613199Y-27393881D01*
X61666913Y-27359727D01*
X61678442Y-27338652D01*
X61690238Y-27228321D01*
X61680308Y-27173717D01*
X61651582Y-27126604D01*
X61588538Y-27099871D01*
X61469622Y-27088192D01*
X61325807Y-27086107D01*
X60999113Y-27086107D01*
X60574994Y-27086107D01*
X60574994Y-26379243D01*
X60999113Y-26379243D01*
X60999113Y-26713419D01*
X61312282Y-26699485D01*
X61503939Y-26683291D01*
X61619640Y-26652649D01*
X61674763Y-26607033D01*
X61701451Y-26506641D01*
X61640264Y-26434203D01*
X61493808Y-26391304D01*
X61299651Y-26379243D01*
X60999113Y-26379243D01*
X60574994Y-26379243D01*
X60574994Y-25991331D01*
X61199391Y-26010841D01*
G36*
X62789836Y-26654685D02*
X62792619Y-26948732D01*
X62804892Y-27161589D01*
X62832540Y-27306247D01*
X62881448Y-27395695D01*
X62957501Y-27442924D01*
X63066584Y-27460923D01*
X63156088Y-27463102D01*
X63278759Y-27454762D01*
X63368180Y-27421355D01*
X63429483Y-27350296D01*
X63467799Y-27229003D01*
X63488260Y-27044893D01*
X63495998Y-26785382D01*
X63496701Y-26627941D01*
X63496701Y-26002248D01*
X63929278Y-26002248D01*
X63913268Y-26727823D01*
X63904307Y-27034484D01*
X63889360Y-27261929D01*
X63863081Y-27425187D01*
X63820120Y-27539289D01*
X63755132Y-27619265D01*
X63662767Y-27680144D01*
X63557120Y-27728789D01*
X63385562Y-27772177D01*
X63167355Y-27788733D01*
X62944343Y-27778550D01*
X62758374Y-27741726D01*
X62719150Y-27726879D01*
X62602223Y-27669580D01*
X62516480Y-27606136D01*
X62456704Y-27521446D01*
X62417680Y-27400406D01*
X62394194Y-27227914D01*
X62381030Y-26988867D01*
X62374181Y-26727874D01*
X62359083Y-26002248D01*
X62789836Y-26002248D01*
X62789836Y-26654685D01*
X62789836Y-26654685D01*
G37*
X62789836Y-26654685D02*
X62792619Y-26948732D01*
X62804892Y-27161589D01*
X62832540Y-27306247D01*
X62881448Y-27395695D01*
X62957501Y-27442924D01*
X63066584Y-27460923D01*
X63156088Y-27463102D01*
X63278759Y-27454762D01*
X63368180Y-27421355D01*
X63429483Y-27350296D01*
X63467799Y-27229003D01*
X63488260Y-27044893D01*
X63495998Y-26785382D01*
X63496701Y-26627941D01*
X63496701Y-26002248D01*
X63929278Y-26002248D01*
X63913268Y-26727823D01*
X63904307Y-27034484D01*
X63889360Y-27261929D01*
X63863081Y-27425187D01*
X63820120Y-27539289D01*
X63755132Y-27619265D01*
X63662767Y-27680144D01*
X63557120Y-27728789D01*
X63385562Y-27772177D01*
X63167355Y-27788733D01*
X62944343Y-27778550D01*
X62758374Y-27741726D01*
X62719150Y-27726879D01*
X62602223Y-27669580D01*
X62516480Y-27606136D01*
X62456704Y-27521446D01*
X62417680Y-27400406D01*
X62394194Y-27227914D01*
X62381030Y-26988867D01*
X62374181Y-26727874D01*
X62359083Y-26002248D01*
X62789836Y-26002248D01*
X62789836Y-26654685D01*
G36*
X65711543Y-26379243D02*
X65179038Y-26379243D01*
X64917329Y-26382993D01*
X64735873Y-26397082D01*
X64620872Y-26425764D01*
X64558528Y-26473294D01*
X64535042Y-26543927D01*
X64533436Y-26578331D01*
X64568295Y-26657574D01*
X64676891Y-26712497D01*
X64865256Y-26744799D01*
X65139417Y-26756179D01*
X65164467Y-26756237D01*
X65361410Y-26758919D01*
X65489072Y-26770800D01*
X65572356Y-26797634D01*
X65636168Y-26845176D01*
X65661662Y-26871114D01*
X65748481Y-27020849D01*
X65790976Y-27213357D01*
X65783289Y-27405366D01*
X65748182Y-27510226D01*
X65668799Y-27620016D01*
X65553600Y-27699164D01*
X65388958Y-27751650D01*
X65161248Y-27781458D01*
X64856842Y-27792568D01*
X64780838Y-27792899D01*
X64203565Y-27792972D01*
X64203565Y-27415977D01*
X64739725Y-27415977D01*
X64984384Y-27413461D01*
X65151460Y-27404535D01*
X65257517Y-27387131D01*
X65319122Y-27359182D01*
X65337827Y-27341341D01*
X65374279Y-27250359D01*
X65350484Y-27188187D01*
X65303235Y-27147764D01*
X65209806Y-27119015D01*
X65053329Y-27098390D01*
X64858411Y-27084610D01*
X64623242Y-27064219D01*
X64437204Y-27034026D01*
X64321237Y-26997587D01*
X64310973Y-26991668D01*
X64186864Y-26857719D01*
X64123041Y-26666861D01*
X64122800Y-26468944D01*
X64160266Y-26309138D01*
X64231580Y-26188826D01*
X64348028Y-26103036D01*
X64520898Y-26046793D01*
X64761480Y-26015123D01*
X65081060Y-26003054D01*
X65181395Y-26002511D01*
X65711543Y-26002248D01*
X65711543Y-26379243D01*
X65711543Y-26379243D01*
G37*
X65711543Y-26379243D02*
X65179038Y-26379243D01*
X64917329Y-26382993D01*
X64735873Y-26397082D01*
X64620872Y-26425764D01*
X64558528Y-26473294D01*
X64535042Y-26543927D01*
X64533436Y-26578331D01*
X64568295Y-26657574D01*
X64676891Y-26712497D01*
X64865256Y-26744799D01*
X65139417Y-26756179D01*
X65164467Y-26756237D01*
X65361410Y-26758919D01*
X65489072Y-26770800D01*
X65572356Y-26797634D01*
X65636168Y-26845176D01*
X65661662Y-26871114D01*
X65748481Y-27020849D01*
X65790976Y-27213357D01*
X65783289Y-27405366D01*
X65748182Y-27510226D01*
X65668799Y-27620016D01*
X65553600Y-27699164D01*
X65388958Y-27751650D01*
X65161248Y-27781458D01*
X64856842Y-27792568D01*
X64780838Y-27792899D01*
X64203565Y-27792972D01*
X64203565Y-27415977D01*
X64739725Y-27415977D01*
X64984384Y-27413461D01*
X65151460Y-27404535D01*
X65257517Y-27387131D01*
X65319122Y-27359182D01*
X65337827Y-27341341D01*
X65374279Y-27250359D01*
X65350484Y-27188187D01*
X65303235Y-27147764D01*
X65209806Y-27119015D01*
X65053329Y-27098390D01*
X64858411Y-27084610D01*
X64623242Y-27064219D01*
X64437204Y-27034026D01*
X64321237Y-26997587D01*
X64310973Y-26991668D01*
X64186864Y-26857719D01*
X64123041Y-26666861D01*
X64122800Y-26468944D01*
X64160266Y-26309138D01*
X64231580Y-26188826D01*
X64348028Y-26103036D01*
X64520898Y-26046793D01*
X64761480Y-26015123D01*
X65081060Y-26003054D01*
X65181395Y-26002511D01*
X65711543Y-26002248D01*
X65711543Y-26379243D01*
G36*
X61520581Y-24448359D02*
X61732620Y-24458546D01*
X61876683Y-24487529D01*
X61965903Y-24545130D01*
X62013414Y-24641170D01*
X62032351Y-24785471D01*
X62035847Y-24987856D01*
X62035847Y-25483881D01*
X61753102Y-25483881D01*
X61753102Y-25139873D01*
X61744036Y-24920644D01*
X61712876Y-24780542D01*
X61653678Y-24705839D01*
X61560498Y-24682809D01*
X61555179Y-24682768D01*
X61513701Y-24692852D01*
X61488343Y-24735153D01*
X61475280Y-24827744D01*
X61470683Y-24988699D01*
X61470356Y-25083324D01*
X61470356Y-25483881D01*
X61140486Y-25483881D01*
X61140486Y-25083324D01*
X61139404Y-24889356D01*
X61132500Y-24770976D01*
X61114286Y-24709525D01*
X61079273Y-24686342D01*
X61022675Y-24682768D01*
X60965625Y-24686445D01*
X60930808Y-24709918D01*
X60912734Y-24771847D01*
X60905915Y-24890890D01*
X60904864Y-25083324D01*
X60904864Y-25483881D01*
X60574994Y-25483881D01*
X60574994Y-24447146D01*
X61227431Y-24447146D01*
X61520581Y-24448359D01*
X61520581Y-24448359D01*
G37*
X61520581Y-24448359D02*
X61732620Y-24458546D01*
X61876683Y-24487529D01*
X61965903Y-24545130D01*
X62013414Y-24641170D01*
X62032351Y-24785471D01*
X62035847Y-24987856D01*
X62035847Y-25483881D01*
X61753102Y-25483881D01*
X61753102Y-25139873D01*
X61744036Y-24920644D01*
X61712876Y-24780542D01*
X61653678Y-24705839D01*
X61560498Y-24682809D01*
X61555179Y-24682768D01*
X61513701Y-24692852D01*
X61488343Y-24735153D01*
X61475280Y-24827744D01*
X61470683Y-24988699D01*
X61470356Y-25083324D01*
X61470356Y-25483881D01*
X61140486Y-25483881D01*
X61140486Y-25083324D01*
X61139404Y-24889356D01*
X61132500Y-24770976D01*
X61114286Y-24709525D01*
X61079273Y-24686342D01*
X61022675Y-24682768D01*
X60965625Y-24686445D01*
X60930808Y-24709918D01*
X60912734Y-24771847D01*
X60905915Y-24890890D01*
X60904864Y-25083324D01*
X60904864Y-25483881D01*
X60574994Y-25483881D01*
X60574994Y-24447146D01*
X61227431Y-24447146D01*
X61520581Y-24448359D01*
G36*
X62554215Y-25483881D02*
X62224345Y-25483881D01*
X62224345Y-24447146D01*
X62554215Y-24447146D01*
X62554215Y-25483881D01*
X62554215Y-25483881D01*
G37*
X62554215Y-25483881D02*
X62224345Y-25483881D01*
X62224345Y-24447146D01*
X62554215Y-24447146D01*
X62554215Y-25483881D01*
G36*
X63076448Y-24847703D02*
X63257634Y-24647424D01*
X63372637Y-24530217D01*
X63466307Y-24470145D01*
X63573817Y-24448914D01*
X63642705Y-24447146D01*
X63846590Y-24447146D01*
X63624521Y-24672605D01*
X63511849Y-24793606D01*
X63431932Y-24892046D01*
X63402452Y-24945539D01*
X63433829Y-25001109D01*
X63515550Y-25098490D01*
X63614512Y-25201135D01*
X63724920Y-25314985D01*
X63801619Y-25404574D01*
X63826571Y-25446568D01*
X63784597Y-25468984D01*
X63679039Y-25481245D01*
X63626293Y-25482097D01*
X63503685Y-25473007D01*
X63414888Y-25435541D01*
X63326771Y-25350383D01*
X63261079Y-25269173D01*
X63096144Y-25058033D01*
X63081781Y-25270957D01*
X63068948Y-25401574D01*
X63039719Y-25463596D01*
X62972904Y-25482555D01*
X62905065Y-25483881D01*
X62742712Y-25483881D01*
X62742712Y-23975903D01*
X63072582Y-23975903D01*
X63076448Y-24847703D01*
X63076448Y-24847703D01*
G37*
X63076448Y-24847703D02*
X63257634Y-24647424D01*
X63372637Y-24530217D01*
X63466307Y-24470145D01*
X63573817Y-24448914D01*
X63642705Y-24447146D01*
X63846590Y-24447146D01*
X63624521Y-24672605D01*
X63511849Y-24793606D01*
X63431932Y-24892046D01*
X63402452Y-24945539D01*
X63433829Y-25001109D01*
X63515550Y-25098490D01*
X63614512Y-25201135D01*
X63724920Y-25314985D01*
X63801619Y-25404574D01*
X63826571Y-25446568D01*
X63784597Y-25468984D01*
X63679039Y-25481245D01*
X63626293Y-25482097D01*
X63503685Y-25473007D01*
X63414888Y-25435541D01*
X63326771Y-25350383D01*
X63261079Y-25269173D01*
X63096144Y-25058033D01*
X63081781Y-25270957D01*
X63068948Y-25401574D01*
X63039719Y-25463596D01*
X62972904Y-25482555D01*
X62905065Y-25483881D01*
X62742712Y-25483881D01*
X62742712Y-23975903D01*
X63072582Y-23975903D01*
X63076448Y-24847703D01*
G36*
X64436187Y-24455592D02*
X64569933Y-24488281D01*
X64643051Y-24556245D01*
X64671887Y-24670511D01*
X64674808Y-24750356D01*
X64663008Y-24832017D01*
X64609009Y-24865466D01*
X64509873Y-24871265D01*
X64396197Y-24860722D01*
X64350330Y-24819564D01*
X64344938Y-24777016D01*
X64315473Y-24700261D01*
X64274252Y-24682768D01*
X64238912Y-24699869D01*
X64217283Y-24762119D01*
X64206467Y-24885937D01*
X64203565Y-25083324D01*
X64203565Y-25483881D01*
X63873695Y-25483881D01*
X63873695Y-24447146D01*
X64225470Y-24447146D01*
X64436187Y-24455592D01*
X64436187Y-24455592D01*
G37*
X64436187Y-24455592D02*
X64569933Y-24488281D01*
X64643051Y-24556245D01*
X64671887Y-24670511D01*
X64674808Y-24750356D01*
X64663008Y-24832017D01*
X64609009Y-24865466D01*
X64509873Y-24871265D01*
X64396197Y-24860722D01*
X64350330Y-24819564D01*
X64344938Y-24777016D01*
X64315473Y-24700261D01*
X64274252Y-24682768D01*
X64238912Y-24699869D01*
X64217283Y-24762119D01*
X64206467Y-24885937D01*
X64203565Y-25083324D01*
X64203565Y-25483881D01*
X63873695Y-25483881D01*
X63873695Y-24447146D01*
X64225470Y-24447146D01*
X64436187Y-24455592D01*
G36*
X65416686Y-24419372D02*
X65593865Y-24499122D01*
X65731835Y-24632128D01*
X65815990Y-24805425D01*
X65831720Y-25006046D01*
X65788877Y-25168932D01*
X65678468Y-25345414D01*
X65519610Y-25447807D01*
X65300045Y-25483660D01*
X65277682Y-25483881D01*
X65108987Y-25469139D01*
X64982841Y-25413537D01*
X64908264Y-25354289D01*
X64783907Y-25187762D01*
X64732020Y-24992924D01*
X64736033Y-24948524D01*
X65051846Y-24948524D01*
X65077245Y-25077456D01*
X65156537Y-25174901D01*
X65260276Y-25236117D01*
X65334944Y-25232284D01*
X65422611Y-25160174D01*
X65428797Y-25154011D01*
X65499089Y-25055607D01*
X65523046Y-24975999D01*
X65486350Y-24845271D01*
X65395871Y-24736850D01*
X65281018Y-24683883D01*
X65262848Y-24682768D01*
X65150947Y-24722017D01*
X65078513Y-24820323D01*
X65051846Y-24948524D01*
X64736033Y-24948524D01*
X64749996Y-24794054D01*
X64835223Y-24615428D01*
X64985094Y-24481326D01*
X65003136Y-24471506D01*
X65214907Y-24405845D01*
X65416686Y-24419372D01*
X65416686Y-24419372D01*
G37*
X65416686Y-24419372D02*
X65593865Y-24499122D01*
X65731835Y-24632128D01*
X65815990Y-24805425D01*
X65831720Y-25006046D01*
X65788877Y-25168932D01*
X65678468Y-25345414D01*
X65519610Y-25447807D01*
X65300045Y-25483660D01*
X65277682Y-25483881D01*
X65108987Y-25469139D01*
X64982841Y-25413537D01*
X64908264Y-25354289D01*
X64783907Y-25187762D01*
X64732020Y-24992924D01*
X64736033Y-24948524D01*
X65051846Y-24948524D01*
X65077245Y-25077456D01*
X65156537Y-25174901D01*
X65260276Y-25236117D01*
X65334944Y-25232284D01*
X65422611Y-25160174D01*
X65428797Y-25154011D01*
X65499089Y-25055607D01*
X65523046Y-24975999D01*
X65486350Y-24845271D01*
X65395871Y-24736850D01*
X65281018Y-24683883D01*
X65262848Y-24682768D01*
X65150947Y-24722017D01*
X65078513Y-24820323D01*
X65051846Y-24948524D01*
X64736033Y-24948524D01*
X64749996Y-24794054D01*
X64835223Y-24615428D01*
X64985094Y-24481326D01*
X65003136Y-24471506D01*
X65214907Y-24405845D01*
X65416686Y-24419372D01*
G36*
X62500093Y-23983784D02*
X62545544Y-24023758D01*
X62554215Y-24117276D01*
X62545020Y-24212259D01*
X62498384Y-24251217D01*
X62389280Y-24258649D01*
X62278466Y-24250768D01*
X62233015Y-24210794D01*
X62224345Y-24117276D01*
X62233539Y-24022293D01*
X62280176Y-23983335D01*
X62389280Y-23975903D01*
X62500093Y-23983784D01*
X62500093Y-23983784D01*
G37*
X62500093Y-23983784D02*
X62545544Y-24023758D01*
X62554215Y-24117276D01*
X62545020Y-24212259D01*
X62498384Y-24251217D01*
X62389280Y-24258649D01*
X62278466Y-24250768D01*
X62233015Y-24210794D01*
X62224345Y-24117276D01*
X62233539Y-24022293D01*
X62280176Y-23983335D01*
X62389280Y-23975903D01*
X62500093Y-23983784D01*
D14*
X36917334Y-148947143D02*
X36869715Y-148994762D01*
X36726858Y-149042381D01*
X36631620Y-149042381D01*
X36488762Y-148994762D01*
X36393524Y-148899524D01*
X36345905Y-148804286D01*
X36298286Y-148613810D01*
X36298286Y-148470952D01*
X36345905Y-148280476D01*
X36393524Y-148185238D01*
X36488762Y-148090000D01*
X36631620Y-148042381D01*
X36726858Y-148042381D01*
X36869715Y-148090000D01*
X36917334Y-148137619D01*
X37869715Y-149042381D02*
X37298286Y-149042381D01*
X37584000Y-149042381D02*
X37584000Y-148042381D01*
X37488762Y-148185238D01*
X37393524Y-148280476D01*
X37298286Y-148328095D01*
X44283334Y-134977143D02*
X44235715Y-135024762D01*
X44092858Y-135072381D01*
X43997620Y-135072381D01*
X43854762Y-135024762D01*
X43759524Y-134929524D01*
X43711905Y-134834286D01*
X43664286Y-134643810D01*
X43664286Y-134500952D01*
X43711905Y-134310476D01*
X43759524Y-134215238D01*
X43854762Y-134120000D01*
X43997620Y-134072381D01*
X44092858Y-134072381D01*
X44235715Y-134120000D01*
X44283334Y-134167619D01*
X44664286Y-134167619D02*
X44711905Y-134120000D01*
X44807143Y-134072381D01*
X45045239Y-134072381D01*
X45140477Y-134120000D01*
X45188096Y-134167619D01*
X45235715Y-134262857D01*
X45235715Y-134358095D01*
X45188096Y-134500952D01*
X44616667Y-135072381D01*
X45235715Y-135072381D01*
X46883629Y-143459152D02*
X46883629Y-142697247D01*
X47264581Y-143078199D02*
X46502676Y-143078199D01*
X49998334Y-151487143D02*
X49950715Y-151534762D01*
X49807858Y-151582381D01*
X49712620Y-151582381D01*
X49569762Y-151534762D01*
X49474524Y-151439524D01*
X49426905Y-151344286D01*
X49379286Y-151153810D01*
X49379286Y-151010952D01*
X49426905Y-150820476D01*
X49474524Y-150725238D01*
X49569762Y-150630000D01*
X49712620Y-150582381D01*
X49807858Y-150582381D01*
X49950715Y-150630000D01*
X49998334Y-150677619D01*
X50331667Y-150582381D02*
X50950715Y-150582381D01*
X50617381Y-150963333D01*
X50760239Y-150963333D01*
X50855477Y-151010952D01*
X50903096Y-151058571D01*
X50950715Y-151153810D01*
X50950715Y-151391905D01*
X50903096Y-151487143D01*
X50855477Y-151534762D01*
X50760239Y-151582381D01*
X50474524Y-151582381D01*
X50379286Y-151534762D01*
X50331667Y-151487143D01*
X65873334Y-136882143D02*
X65825715Y-136929762D01*
X65682858Y-136977381D01*
X65587620Y-136977381D01*
X65444762Y-136929762D01*
X65349524Y-136834524D01*
X65301905Y-136739286D01*
X65254286Y-136548810D01*
X65254286Y-136405952D01*
X65301905Y-136215476D01*
X65349524Y-136120238D01*
X65444762Y-136025000D01*
X65587620Y-135977381D01*
X65682858Y-135977381D01*
X65825715Y-136025000D01*
X65873334Y-136072619D01*
X66730477Y-136310714D02*
X66730477Y-136977381D01*
X66492381Y-135929762D02*
X66254286Y-136644048D01*
X66873334Y-136644048D01*
X63393629Y-143459152D02*
X63393629Y-142697247D01*
X63774581Y-143078199D02*
X63012676Y-143078199D01*
X50633334Y-134977143D02*
X50585715Y-135024762D01*
X50442858Y-135072381D01*
X50347620Y-135072381D01*
X50204762Y-135024762D01*
X50109524Y-134929524D01*
X50061905Y-134834286D01*
X50014286Y-134643810D01*
X50014286Y-134500952D01*
X50061905Y-134310476D01*
X50109524Y-134215238D01*
X50204762Y-134120000D01*
X50347620Y-134072381D01*
X50442858Y-134072381D01*
X50585715Y-134120000D01*
X50633334Y-134167619D01*
X51538096Y-134072381D02*
X51061905Y-134072381D01*
X51014286Y-134548571D01*
X51061905Y-134500952D01*
X51157143Y-134453333D01*
X51395239Y-134453333D01*
X51490477Y-134500952D01*
X51538096Y-134548571D01*
X51585715Y-134643810D01*
X51585715Y-134881905D01*
X51538096Y-134977143D01*
X51490477Y-135024762D01*
X51395239Y-135072381D01*
X51157143Y-135072381D01*
X51061905Y-135024762D01*
X51014286Y-134977143D01*
X53233629Y-143459152D02*
X53233629Y-142697247D01*
X53614581Y-143078199D02*
X52852676Y-143078199D01*
X60793334Y-134977143D02*
X60745715Y-135024762D01*
X60602858Y-135072381D01*
X60507620Y-135072381D01*
X60364762Y-135024762D01*
X60269524Y-134929524D01*
X60221905Y-134834286D01*
X60174286Y-134643810D01*
X60174286Y-134500952D01*
X60221905Y-134310476D01*
X60269524Y-134215238D01*
X60364762Y-134120000D01*
X60507620Y-134072381D01*
X60602858Y-134072381D01*
X60745715Y-134120000D01*
X60793334Y-134167619D01*
X61650477Y-134072381D02*
X61460000Y-134072381D01*
X61364762Y-134120000D01*
X61317143Y-134167619D01*
X61221905Y-134310476D01*
X61174286Y-134500952D01*
X61174286Y-134881905D01*
X61221905Y-134977143D01*
X61269524Y-135024762D01*
X61364762Y-135072381D01*
X61555239Y-135072381D01*
X61650477Y-135024762D01*
X61698096Y-134977143D01*
X61745715Y-134881905D01*
X61745715Y-134643810D01*
X61698096Y-134548571D01*
X61650477Y-134500952D01*
X61555239Y-134453333D01*
X61364762Y-134453333D01*
X61269524Y-134500952D01*
X61221905Y-134548571D01*
X61174286Y-134643810D01*
X55713334Y-136882143D02*
X55665715Y-136929762D01*
X55522858Y-136977381D01*
X55427620Y-136977381D01*
X55284762Y-136929762D01*
X55189524Y-136834524D01*
X55141905Y-136739286D01*
X55094286Y-136548810D01*
X55094286Y-136405952D01*
X55141905Y-136215476D01*
X55189524Y-136120238D01*
X55284762Y-136025000D01*
X55427620Y-135977381D01*
X55522858Y-135977381D01*
X55665715Y-136025000D01*
X55713334Y-136072619D01*
X56046667Y-135977381D02*
X56713334Y-135977381D01*
X56284762Y-136977381D01*
X37996905Y-146502381D02*
X37996905Y-145502381D01*
X38235000Y-145502381D01*
X38377858Y-145550000D01*
X38473096Y-145645238D01*
X38520715Y-145740476D01*
X38568334Y-145930952D01*
X38568334Y-146073810D01*
X38520715Y-146264286D01*
X38473096Y-146359524D01*
X38377858Y-146454762D01*
X38235000Y-146502381D01*
X37996905Y-146502381D01*
X39520715Y-146502381D02*
X38949286Y-146502381D01*
X39235000Y-146502381D02*
X39235000Y-145502381D01*
X39139762Y-145645238D01*
X39044524Y-145740476D01*
X38949286Y-145788095D01*
X60094905Y-126690381D02*
X60094905Y-125690381D01*
X60475858Y-125690381D01*
X60571096Y-125738000D01*
X60618715Y-125785619D01*
X60666334Y-125880857D01*
X60666334Y-126023714D01*
X60618715Y-126118952D01*
X60571096Y-126166571D01*
X60475858Y-126214190D01*
X60094905Y-126214190D01*
X61618715Y-126690381D02*
X61047286Y-126690381D01*
X61333000Y-126690381D02*
X61333000Y-125690381D01*
X61237762Y-125833238D01*
X61142524Y-125928476D01*
X61047286Y-125976095D01*
X54506905Y-163647381D02*
X54506905Y-162647381D01*
X54887858Y-162647381D01*
X54983096Y-162695000D01*
X55030715Y-162742619D01*
X55078334Y-162837857D01*
X55078334Y-162980714D01*
X55030715Y-163075952D01*
X54983096Y-163123571D01*
X54887858Y-163171190D01*
X54506905Y-163171190D01*
X55411667Y-162647381D02*
X56030715Y-162647381D01*
X55697381Y-163028333D01*
X55840239Y-163028333D01*
X55935477Y-163075952D01*
X55983096Y-163123571D01*
X56030715Y-163218810D01*
X56030715Y-163456905D01*
X55983096Y-163552143D01*
X55935477Y-163599762D01*
X55840239Y-163647381D01*
X55554524Y-163647381D01*
X55459286Y-163599762D01*
X55411667Y-163552143D01*
X148486905Y-48712381D02*
X148486905Y-47712381D01*
X148867858Y-47712381D01*
X148963096Y-47760000D01*
X149010715Y-47807619D01*
X149058334Y-47902857D01*
X149058334Y-48045714D01*
X149010715Y-48140952D01*
X148963096Y-48188571D01*
X148867858Y-48236190D01*
X148486905Y-48236190D01*
X149915477Y-48045714D02*
X149915477Y-48712381D01*
X149677381Y-47664762D02*
X149439286Y-48379048D01*
X150058334Y-48379048D01*
X59459905Y-65730381D02*
X59459905Y-64730381D01*
X59840858Y-64730381D01*
X59936096Y-64778000D01*
X59983715Y-64825619D01*
X60031334Y-64920857D01*
X60031334Y-65063714D01*
X59983715Y-65158952D01*
X59936096Y-65206571D01*
X59840858Y-65254190D01*
X59459905Y-65254190D01*
X60936096Y-64730381D02*
X60459905Y-64730381D01*
X60412286Y-65206571D01*
X60459905Y-65158952D01*
X60555143Y-65111333D01*
X60793239Y-65111333D01*
X60888477Y-65158952D01*
X60936096Y-65206571D01*
X60983715Y-65301810D01*
X60983715Y-65539905D01*
X60936096Y-65635143D01*
X60888477Y-65682762D01*
X60793239Y-65730381D01*
X60555143Y-65730381D01*
X60459905Y-65682762D01*
X60412286Y-65635143D01*
X133881905Y-163647381D02*
X133881905Y-162647381D01*
X134262858Y-162647381D01*
X134358096Y-162695000D01*
X134405715Y-162742619D01*
X134453334Y-162837857D01*
X134453334Y-162980714D01*
X134405715Y-163075952D01*
X134358096Y-163123571D01*
X134262858Y-163171190D01*
X133881905Y-163171190D01*
X135310477Y-162647381D02*
X135120000Y-162647381D01*
X135024762Y-162695000D01*
X134977143Y-162742619D01*
X134881905Y-162885476D01*
X134834286Y-163075952D01*
X134834286Y-163456905D01*
X134881905Y-163552143D01*
X134929524Y-163599762D01*
X135024762Y-163647381D01*
X135215239Y-163647381D01*
X135310477Y-163599762D01*
X135358096Y-163552143D01*
X135405715Y-163456905D01*
X135405715Y-163218810D01*
X135358096Y-163123571D01*
X135310477Y-163075952D01*
X135215239Y-163028333D01*
X135024762Y-163028333D01*
X134929524Y-163075952D01*
X134881905Y-163123571D01*
X134834286Y-163218810D01*
X118641905Y-163647381D02*
X118641905Y-162647381D01*
X119022858Y-162647381D01*
X119118096Y-162695000D01*
X119165715Y-162742619D01*
X119213334Y-162837857D01*
X119213334Y-162980714D01*
X119165715Y-163075952D01*
X119118096Y-163123571D01*
X119022858Y-163171190D01*
X118641905Y-163171190D01*
X119546667Y-162647381D02*
X120213334Y-162647381D01*
X119784762Y-163647381D01*
X48283905Y-50998381D02*
X48283905Y-49998381D01*
X48664858Y-49998381D01*
X48760096Y-50046000D01*
X48807715Y-50093619D01*
X48855334Y-50188857D01*
X48855334Y-50331714D01*
X48807715Y-50426952D01*
X48760096Y-50474571D01*
X48664858Y-50522190D01*
X48283905Y-50522190D01*
X49426762Y-50426952D02*
X49331524Y-50379333D01*
X49283905Y-50331714D01*
X49236286Y-50236476D01*
X49236286Y-50188857D01*
X49283905Y-50093619D01*
X49331524Y-50046000D01*
X49426762Y-49998381D01*
X49617239Y-49998381D01*
X49712477Y-50046000D01*
X49760096Y-50093619D01*
X49807715Y-50188857D01*
X49807715Y-50236476D01*
X49760096Y-50331714D01*
X49712477Y-50379333D01*
X49617239Y-50426952D01*
X49426762Y-50426952D01*
X49331524Y-50474571D01*
X49283905Y-50522190D01*
X49236286Y-50617429D01*
X49236286Y-50807905D01*
X49283905Y-50903143D01*
X49331524Y-50950762D01*
X49426762Y-50998381D01*
X49617239Y-50998381D01*
X49712477Y-50950762D01*
X49760096Y-50903143D01*
X49807715Y-50807905D01*
X49807715Y-50617429D01*
X49760096Y-50522190D01*
X49712477Y-50474571D01*
X49617239Y-50426952D01*
X80033905Y-50998381D02*
X80033905Y-49998381D01*
X80414858Y-49998381D01*
X80510096Y-50046000D01*
X80557715Y-50093619D01*
X80605334Y-50188857D01*
X80605334Y-50331714D01*
X80557715Y-50426952D01*
X80510096Y-50474571D01*
X80414858Y-50522190D01*
X80033905Y-50522190D01*
X81081524Y-50998381D02*
X81272000Y-50998381D01*
X81367239Y-50950762D01*
X81414858Y-50903143D01*
X81510096Y-50760286D01*
X81557715Y-50569810D01*
X81557715Y-50188857D01*
X81510096Y-50093619D01*
X81462477Y-50046000D01*
X81367239Y-49998381D01*
X81176762Y-49998381D01*
X81081524Y-50046000D01*
X81033905Y-50093619D01*
X80986286Y-50188857D01*
X80986286Y-50426952D01*
X81033905Y-50522190D01*
X81081524Y-50569810D01*
X81176762Y-50617429D01*
X81367239Y-50617429D01*
X81462477Y-50569810D01*
X81510096Y-50522190D01*
X81557715Y-50426952D01*
X111307714Y-50998381D02*
X111307714Y-49998381D01*
X111688667Y-49998381D01*
X111783905Y-50046000D01*
X111831524Y-50093619D01*
X111879143Y-50188857D01*
X111879143Y-50331714D01*
X111831524Y-50426952D01*
X111783905Y-50474571D01*
X111688667Y-50522190D01*
X111307714Y-50522190D01*
X112831524Y-50998381D02*
X112260095Y-50998381D01*
X112545809Y-50998381D02*
X112545809Y-49998381D01*
X112450571Y-50141238D01*
X112355333Y-50236476D01*
X112260095Y-50284095D01*
X113450571Y-49998381D02*
X113545810Y-49998381D01*
X113641048Y-50046000D01*
X113688667Y-50093619D01*
X113736286Y-50188857D01*
X113783905Y-50379333D01*
X113783905Y-50617429D01*
X113736286Y-50807905D01*
X113688667Y-50903143D01*
X113641048Y-50950762D01*
X113545810Y-50998381D01*
X113450571Y-50998381D01*
X113355333Y-50950762D01*
X113307714Y-50903143D01*
X113260095Y-50807905D01*
X113212476Y-50617429D01*
X113212476Y-50379333D01*
X113260095Y-50188857D01*
X113307714Y-50093619D01*
X113355333Y-50046000D01*
X113450571Y-49998381D01*
X70667714Y-50998381D02*
X70667714Y-49998381D01*
X71048667Y-49998381D01*
X71143905Y-50046000D01*
X71191524Y-50093619D01*
X71239143Y-50188857D01*
X71239143Y-50331714D01*
X71191524Y-50426952D01*
X71143905Y-50474571D01*
X71048667Y-50522190D01*
X70667714Y-50522190D01*
X72191524Y-50998381D02*
X71620095Y-50998381D01*
X71905809Y-50998381D02*
X71905809Y-49998381D01*
X71810571Y-50141238D01*
X71715333Y-50236476D01*
X71620095Y-50284095D01*
X73143905Y-50998381D02*
X72572476Y-50998381D01*
X72858190Y-50998381D02*
X72858190Y-49998381D01*
X72762952Y-50141238D01*
X72667714Y-50236476D01*
X72572476Y-50284095D01*
X102417714Y-50998381D02*
X102417714Y-49998381D01*
X102798667Y-49998381D01*
X102893905Y-50046000D01*
X102941524Y-50093619D01*
X102989143Y-50188857D01*
X102989143Y-50331714D01*
X102941524Y-50426952D01*
X102893905Y-50474571D01*
X102798667Y-50522190D01*
X102417714Y-50522190D01*
X103941524Y-50998381D02*
X103370095Y-50998381D01*
X103655809Y-50998381D02*
X103655809Y-49998381D01*
X103560571Y-50141238D01*
X103465333Y-50236476D01*
X103370095Y-50284095D01*
X104322476Y-50093619D02*
X104370095Y-50046000D01*
X104465333Y-49998381D01*
X104703429Y-49998381D01*
X104798667Y-50046000D01*
X104846286Y-50093619D01*
X104893905Y-50188857D01*
X104893905Y-50284095D01*
X104846286Y-50426952D01*
X104274857Y-50998381D01*
X104893905Y-50998381D01*
X134167714Y-50998381D02*
X134167714Y-49998381D01*
X134548667Y-49998381D01*
X134643905Y-50046000D01*
X134691524Y-50093619D01*
X134739143Y-50188857D01*
X134739143Y-50331714D01*
X134691524Y-50426952D01*
X134643905Y-50474571D01*
X134548667Y-50522190D01*
X134167714Y-50522190D01*
X135691524Y-50998381D02*
X135120095Y-50998381D01*
X135405809Y-50998381D02*
X135405809Y-49998381D01*
X135310571Y-50141238D01*
X135215333Y-50236476D01*
X135120095Y-50284095D01*
X136024857Y-49998381D02*
X136643905Y-49998381D01*
X136310571Y-50379333D01*
X136453429Y-50379333D01*
X136548667Y-50426952D01*
X136596286Y-50474571D01*
X136643905Y-50569810D01*
X136643905Y-50807905D01*
X136596286Y-50903143D01*
X136548667Y-50950762D01*
X136453429Y-50998381D01*
X136167714Y-50998381D01*
X136072476Y-50950762D01*
X136024857Y-50903143D01*
X57237334Y-89352381D02*
X56904000Y-88876190D01*
X56665905Y-89352381D02*
X56665905Y-88352381D01*
X57046858Y-88352381D01*
X57142096Y-88400000D01*
X57189715Y-88447619D01*
X57237334Y-88542857D01*
X57237334Y-88685714D01*
X57189715Y-88780952D01*
X57142096Y-88828571D01*
X57046858Y-88876190D01*
X56665905Y-88876190D01*
X58189715Y-89352381D02*
X57618286Y-89352381D01*
X57904000Y-89352381D02*
X57904000Y-88352381D01*
X57808762Y-88495238D01*
X57713524Y-88590476D01*
X57618286Y-88638095D01*
X57237334Y-91892381D02*
X56904000Y-91416190D01*
X56665905Y-91892381D02*
X56665905Y-90892381D01*
X57046858Y-90892381D01*
X57142096Y-90940000D01*
X57189715Y-90987619D01*
X57237334Y-91082857D01*
X57237334Y-91225714D01*
X57189715Y-91320952D01*
X57142096Y-91368571D01*
X57046858Y-91416190D01*
X56665905Y-91416190D01*
X57618286Y-90987619D02*
X57665905Y-90940000D01*
X57761143Y-90892381D01*
X57999239Y-90892381D01*
X58094477Y-90940000D01*
X58142096Y-90987619D01*
X58189715Y-91082857D01*
X58189715Y-91178095D01*
X58142096Y-91320952D01*
X57570667Y-91892381D01*
X58189715Y-91892381D01*
X57237334Y-94178381D02*
X56904000Y-93702190D01*
X56665905Y-94178381D02*
X56665905Y-93178381D01*
X57046858Y-93178381D01*
X57142096Y-93226000D01*
X57189715Y-93273619D01*
X57237334Y-93368857D01*
X57237334Y-93511714D01*
X57189715Y-93606952D01*
X57142096Y-93654571D01*
X57046858Y-93702190D01*
X56665905Y-93702190D01*
X57570667Y-93178381D02*
X58189715Y-93178381D01*
X57856381Y-93559333D01*
X57999239Y-93559333D01*
X58094477Y-93606952D01*
X58142096Y-93654571D01*
X58189715Y-93749810D01*
X58189715Y-93987905D01*
X58142096Y-94083143D01*
X58094477Y-94130762D01*
X57999239Y-94178381D01*
X57713524Y-94178381D01*
X57618286Y-94130762D01*
X57570667Y-94083143D01*
X57237334Y-96464381D02*
X56904000Y-95988190D01*
X56665905Y-96464381D02*
X56665905Y-95464381D01*
X57046858Y-95464381D01*
X57142096Y-95512000D01*
X57189715Y-95559619D01*
X57237334Y-95654857D01*
X57237334Y-95797714D01*
X57189715Y-95892952D01*
X57142096Y-95940571D01*
X57046858Y-95988190D01*
X56665905Y-95988190D01*
X58094477Y-95797714D02*
X58094477Y-96464381D01*
X57856381Y-95416762D02*
X57618286Y-96131048D01*
X58237334Y-96131048D01*
X57237334Y-98750381D02*
X56904000Y-98274190D01*
X56665905Y-98750381D02*
X56665905Y-97750381D01*
X57046858Y-97750381D01*
X57142096Y-97798000D01*
X57189715Y-97845619D01*
X57237334Y-97940857D01*
X57237334Y-98083714D01*
X57189715Y-98178952D01*
X57142096Y-98226571D01*
X57046858Y-98274190D01*
X56665905Y-98274190D01*
X58142096Y-97750381D02*
X57665905Y-97750381D01*
X57618286Y-98226571D01*
X57665905Y-98178952D01*
X57761143Y-98131333D01*
X57999239Y-98131333D01*
X58094477Y-98178952D01*
X58142096Y-98226571D01*
X58189715Y-98321810D01*
X58189715Y-98559905D01*
X58142096Y-98655143D01*
X58094477Y-98702762D01*
X57999239Y-98750381D01*
X57761143Y-98750381D01*
X57665905Y-98702762D01*
X57618286Y-98655143D01*
X159853334Y-41727381D02*
X159520000Y-41251190D01*
X159281905Y-41727381D02*
X159281905Y-40727381D01*
X159662858Y-40727381D01*
X159758096Y-40775000D01*
X159805715Y-40822619D01*
X159853334Y-40917857D01*
X159853334Y-41060714D01*
X159805715Y-41155952D01*
X159758096Y-41203571D01*
X159662858Y-41251190D01*
X159281905Y-41251190D01*
X160710477Y-40727381D02*
X160520000Y-40727381D01*
X160424762Y-40775000D01*
X160377143Y-40822619D01*
X160281905Y-40965476D01*
X160234286Y-41155952D01*
X160234286Y-41536905D01*
X160281905Y-41632143D01*
X160329524Y-41679762D01*
X160424762Y-41727381D01*
X160615239Y-41727381D01*
X160710477Y-41679762D01*
X160758096Y-41632143D01*
X160805715Y-41536905D01*
X160805715Y-41298810D01*
X160758096Y-41203571D01*
X160710477Y-41155952D01*
X160615239Y-41108333D01*
X160424762Y-41108333D01*
X160329524Y-41155952D01*
X160281905Y-41203571D01*
X160234286Y-41298810D01*
X162393334Y-41727381D02*
X162060000Y-41251190D01*
X161821905Y-41727381D02*
X161821905Y-40727381D01*
X162202858Y-40727381D01*
X162298096Y-40775000D01*
X162345715Y-40822619D01*
X162393334Y-40917857D01*
X162393334Y-41060714D01*
X162345715Y-41155952D01*
X162298096Y-41203571D01*
X162202858Y-41251190D01*
X161821905Y-41251190D01*
X162726667Y-40727381D02*
X163393334Y-40727381D01*
X162964762Y-41727381D01*
X164933334Y-41727381D02*
X164600000Y-41251190D01*
X164361905Y-41727381D02*
X164361905Y-40727381D01*
X164742858Y-40727381D01*
X164838096Y-40775000D01*
X164885715Y-40822619D01*
X164933334Y-40917857D01*
X164933334Y-41060714D01*
X164885715Y-41155952D01*
X164838096Y-41203571D01*
X164742858Y-41251190D01*
X164361905Y-41251190D01*
X165504762Y-41155952D02*
X165409524Y-41108333D01*
X165361905Y-41060714D01*
X165314286Y-40965476D01*
X165314286Y-40917857D01*
X165361905Y-40822619D01*
X165409524Y-40775000D01*
X165504762Y-40727381D01*
X165695239Y-40727381D01*
X165790477Y-40775000D01*
X165838096Y-40822619D01*
X165885715Y-40917857D01*
X165885715Y-40965476D01*
X165838096Y-41060714D01*
X165790477Y-41108333D01*
X165695239Y-41155952D01*
X165504762Y-41155952D01*
X165409524Y-41203571D01*
X165361905Y-41251190D01*
X165314286Y-41346429D01*
X165314286Y-41536905D01*
X165361905Y-41632143D01*
X165409524Y-41679762D01*
X165504762Y-41727381D01*
X165695239Y-41727381D01*
X165790477Y-41679762D01*
X165838096Y-41632143D01*
X165885715Y-41536905D01*
X165885715Y-41346429D01*
X165838096Y-41251190D01*
X165790477Y-41203571D01*
X165695239Y-41155952D01*
X51268334Y-149042381D02*
X50935000Y-148566190D01*
X50696905Y-149042381D02*
X50696905Y-148042381D01*
X51077858Y-148042381D01*
X51173096Y-148090000D01*
X51220715Y-148137619D01*
X51268334Y-148232857D01*
X51268334Y-148375714D01*
X51220715Y-148470952D01*
X51173096Y-148518571D01*
X51077858Y-148566190D01*
X50696905Y-148566190D01*
X51744524Y-149042381D02*
X51935000Y-149042381D01*
X52030239Y-148994762D01*
X52077858Y-148947143D01*
X52173096Y-148804286D01*
X52220715Y-148613810D01*
X52220715Y-148232857D01*
X52173096Y-148137619D01*
X52125477Y-148090000D01*
X52030239Y-148042381D01*
X51839762Y-148042381D01*
X51744524Y-148090000D01*
X51696905Y-148137619D01*
X51649286Y-148232857D01*
X51649286Y-148470952D01*
X51696905Y-148566190D01*
X51744524Y-148613810D01*
X51839762Y-148661429D01*
X52030239Y-148661429D01*
X52125477Y-148613810D01*
X52173096Y-148566190D01*
X52220715Y-148470952D01*
X37457143Y-151582381D02*
X37123809Y-151106190D01*
X36885714Y-151582381D02*
X36885714Y-150582381D01*
X37266667Y-150582381D01*
X37361905Y-150630000D01*
X37409524Y-150677619D01*
X37457143Y-150772857D01*
X37457143Y-150915714D01*
X37409524Y-151010952D01*
X37361905Y-151058571D01*
X37266667Y-151106190D01*
X36885714Y-151106190D01*
X38409524Y-151582381D02*
X37838095Y-151582381D01*
X38123809Y-151582381D02*
X38123809Y-150582381D01*
X38028571Y-150725238D01*
X37933333Y-150820476D01*
X37838095Y-150868095D01*
X39028571Y-150582381D02*
X39123810Y-150582381D01*
X39219048Y-150630000D01*
X39266667Y-150677619D01*
X39314286Y-150772857D01*
X39361905Y-150963333D01*
X39361905Y-151201429D01*
X39314286Y-151391905D01*
X39266667Y-151487143D01*
X39219048Y-151534762D01*
X39123810Y-151582381D01*
X39028571Y-151582381D01*
X38933333Y-151534762D01*
X38885714Y-151487143D01*
X38838095Y-151391905D01*
X38790476Y-151201429D01*
X38790476Y-150963333D01*
X38838095Y-150772857D01*
X38885714Y-150677619D01*
X38933333Y-150630000D01*
X39028571Y-150582381D01*
X123817143Y-154122381D02*
X123483809Y-153646190D01*
X123245714Y-154122381D02*
X123245714Y-153122381D01*
X123626667Y-153122381D01*
X123721905Y-153170000D01*
X123769524Y-153217619D01*
X123817143Y-153312857D01*
X123817143Y-153455714D01*
X123769524Y-153550952D01*
X123721905Y-153598571D01*
X123626667Y-153646190D01*
X123245714Y-153646190D01*
X124769524Y-154122381D02*
X124198095Y-154122381D01*
X124483809Y-154122381D02*
X124483809Y-153122381D01*
X124388571Y-153265238D01*
X124293333Y-153360476D01*
X124198095Y-153408095D01*
X125721905Y-154122381D02*
X125150476Y-154122381D01*
X125436190Y-154122381D02*
X125436190Y-153122381D01*
X125340952Y-153265238D01*
X125245714Y-153360476D01*
X125150476Y-153408095D01*
X142867143Y-43251381D02*
X142533809Y-42775190D01*
X142295714Y-43251381D02*
X142295714Y-42251381D01*
X142676667Y-42251381D01*
X142771905Y-42299000D01*
X142819524Y-42346619D01*
X142867143Y-42441857D01*
X142867143Y-42584714D01*
X142819524Y-42679952D01*
X142771905Y-42727571D01*
X142676667Y-42775190D01*
X142295714Y-42775190D01*
X143819524Y-43251381D02*
X143248095Y-43251381D01*
X143533809Y-43251381D02*
X143533809Y-42251381D01*
X143438571Y-42394238D01*
X143343333Y-42489476D01*
X143248095Y-42537095D01*
X144152857Y-42251381D02*
X144771905Y-42251381D01*
X144438571Y-42632333D01*
X144581429Y-42632333D01*
X144676667Y-42679952D01*
X144724286Y-42727571D01*
X144771905Y-42822810D01*
X144771905Y-43060905D01*
X144724286Y-43156143D01*
X144676667Y-43203762D01*
X144581429Y-43251381D01*
X144295714Y-43251381D01*
X144200476Y-43203762D01*
X144152857Y-43156143D01*
X142867143Y-40457381D02*
X142533809Y-39981190D01*
X142295714Y-40457381D02*
X142295714Y-39457381D01*
X142676667Y-39457381D01*
X142771905Y-39505000D01*
X142819524Y-39552619D01*
X142867143Y-39647857D01*
X142867143Y-39790714D01*
X142819524Y-39885952D01*
X142771905Y-39933571D01*
X142676667Y-39981190D01*
X142295714Y-39981190D01*
X143819524Y-40457381D02*
X143248095Y-40457381D01*
X143533809Y-40457381D02*
X143533809Y-39457381D01*
X143438571Y-39600238D01*
X143343333Y-39695476D01*
X143248095Y-39743095D01*
X144676667Y-39790714D02*
X144676667Y-40457381D01*
X144438571Y-39409762D02*
X144200476Y-40124048D01*
X144819524Y-40124048D01*
X148463095Y-81082381D02*
X148463095Y-81891905D01*
X148510714Y-81987143D01*
X148558333Y-82034762D01*
X148653571Y-82082381D01*
X148844048Y-82082381D01*
X148939286Y-82034762D01*
X148986905Y-81987143D01*
X149034524Y-81891905D01*
X149034524Y-81082381D01*
X150034524Y-82082381D02*
X149463095Y-82082381D01*
X149748809Y-82082381D02*
X149748809Y-81082381D01*
X149653571Y-81225238D01*
X149558333Y-81320476D01*
X149463095Y-81368095D01*
X44704095Y-86066381D02*
X44704095Y-86875905D01*
X44751714Y-86971143D01*
X44799333Y-87018762D01*
X44894571Y-87066381D01*
X45085048Y-87066381D01*
X45180286Y-87018762D01*
X45227905Y-86971143D01*
X45275524Y-86875905D01*
X45275524Y-86066381D01*
X45704095Y-86161619D02*
X45751714Y-86114000D01*
X45846952Y-86066381D01*
X46085048Y-86066381D01*
X46180286Y-86114000D01*
X46227905Y-86161619D01*
X46275524Y-86256857D01*
X46275524Y-86352095D01*
X46227905Y-86494952D01*
X45656476Y-87066381D01*
X46275524Y-87066381D01*
X67310095Y-149820381D02*
X67310095Y-150629905D01*
X67357714Y-150725143D01*
X67405333Y-150772762D01*
X67500571Y-150820381D01*
X67691048Y-150820381D01*
X67786286Y-150772762D01*
X67833905Y-150725143D01*
X67881524Y-150629905D01*
X67881524Y-149820381D01*
X68262476Y-149820381D02*
X68881524Y-149820381D01*
X68548190Y-150201333D01*
X68691048Y-150201333D01*
X68786286Y-150248952D01*
X68833905Y-150296571D01*
X68881524Y-150391810D01*
X68881524Y-150629905D01*
X68833905Y-150725143D01*
X68786286Y-150772762D01*
X68691048Y-150820381D01*
X68405333Y-150820381D01*
X68310095Y-150772762D01*
X68262476Y-150725143D01*
X67310095Y-158964381D02*
X67310095Y-159773905D01*
X67357714Y-159869143D01*
X67405333Y-159916762D01*
X67500571Y-159964381D01*
X67691048Y-159964381D01*
X67786286Y-159916762D01*
X67833905Y-159869143D01*
X67881524Y-159773905D01*
X67881524Y-158964381D01*
X68786286Y-159297714D02*
X68786286Y-159964381D01*
X68548190Y-158916762D02*
X68310095Y-159631048D01*
X68929143Y-159631048D01*
X158932714Y-69032381D02*
X158932714Y-68032381D01*
X159313667Y-68032381D01*
X159408905Y-68080000D01*
X159456524Y-68127619D01*
X159504143Y-68222857D01*
X159504143Y-68365714D01*
X159456524Y-68460952D01*
X159408905Y-68508571D01*
X159313667Y-68556190D01*
X158932714Y-68556190D01*
X160456524Y-69032381D02*
X159885095Y-69032381D01*
X160170809Y-69032381D02*
X160170809Y-68032381D01*
X160075571Y-68175238D01*
X159980333Y-68270476D01*
X159885095Y-68318095D01*
X161361286Y-68032381D02*
X160885095Y-68032381D01*
X160837476Y-68508571D01*
X160885095Y-68460952D01*
X160980333Y-68413333D01*
X161218429Y-68413333D01*
X161313667Y-68460952D01*
X161361286Y-68508571D01*
X161408905Y-68603810D01*
X161408905Y-68841905D01*
X161361286Y-68937143D01*
X161313667Y-68984762D01*
X161218429Y-69032381D01*
X160980333Y-69032381D01*
X160885095Y-68984762D01*
X160837476Y-68937143D01*
X160043905Y-98242381D02*
X160043905Y-97242381D01*
X160424858Y-97242381D01*
X160520096Y-97290000D01*
X160567715Y-97337619D01*
X160615334Y-97432857D01*
X160615334Y-97575714D01*
X160567715Y-97670952D01*
X160520096Y-97718571D01*
X160424858Y-97766190D01*
X160043905Y-97766190D01*
X160996286Y-97337619D02*
X161043905Y-97290000D01*
X161139143Y-97242381D01*
X161377239Y-97242381D01*
X161472477Y-97290000D01*
X161520096Y-97337619D01*
X161567715Y-97432857D01*
X161567715Y-97528095D01*
X161520096Y-97670952D01*
X160948667Y-98242381D01*
X161567715Y-98242381D01*
X156392714Y-147137381D02*
X156392714Y-146137381D01*
X156773667Y-146137381D01*
X156868905Y-146185000D01*
X156916524Y-146232619D01*
X156964143Y-146327857D01*
X156964143Y-146470714D01*
X156916524Y-146565952D01*
X156868905Y-146613571D01*
X156773667Y-146661190D01*
X156392714Y-146661190D01*
X157916524Y-147137381D02*
X157345095Y-147137381D01*
X157630809Y-147137381D02*
X157630809Y-146137381D01*
X157535571Y-146280238D01*
X157440333Y-146375476D01*
X157345095Y-146423095D01*
X158773667Y-146137381D02*
X158583190Y-146137381D01*
X158487952Y-146185000D01*
X158440333Y-146232619D01*
X158345095Y-146375476D01*
X158297476Y-146565952D01*
X158297476Y-146946905D01*
X158345095Y-147042143D01*
X158392714Y-147089762D01*
X158487952Y-147137381D01*
X158678429Y-147137381D01*
X158773667Y-147089762D01*
X158821286Y-147042143D01*
X158868905Y-146946905D01*
X158868905Y-146708810D01*
X158821286Y-146613571D01*
X158773667Y-146565952D01*
X158678429Y-146518333D01*
X158487952Y-146518333D01*
X158392714Y-146565952D01*
X158345095Y-146613571D01*
X158297476Y-146708810D01*
X74985714Y-163647381D02*
X74985714Y-162647381D01*
X75366667Y-162647381D01*
X75461905Y-162695000D01*
X75509524Y-162742619D01*
X75557143Y-162837857D01*
X75557143Y-162980714D01*
X75509524Y-163075952D01*
X75461905Y-163123571D01*
X75366667Y-163171190D01*
X74985714Y-163171190D01*
X76509524Y-163647381D02*
X75938095Y-163647381D01*
X76223809Y-163647381D02*
X76223809Y-162647381D01*
X76128571Y-162790238D01*
X76033333Y-162885476D01*
X75938095Y-162933095D01*
X77366667Y-162980714D02*
X77366667Y-163647381D01*
X77128571Y-162599762D02*
X76890476Y-163314048D01*
X77509524Y-163314048D01*
M02*
