M48
;DRILL file {KiCad 4.0.5} date 02/11/17 17:25:24
;FORMAT={-:-/ absolute / metric / decimal}
FMAT,2
METRIC,TZ
T1C0.400
T2C0.500
T3C1.016
T4C1.300
T5C3.500
%
G90
G05
M71
T1
X38.608Y-148.59
X42.672Y-85.598
X48.006Y-94.488
X48.006Y-99.314
X49.022Y-26.797
X49.784Y-148.59
X55.372Y-87.249
X55.88Y-142.24
X56.769Y-67.691
X57.658Y-50.038
X57.658Y-67.691
X58.674Y-50.038
X58.674Y-67.691
X59.563Y-67.691
X59.69Y-50.038
X60.579Y-67.691
X60.706Y-50.038
X68.326Y-72.136
X68.326Y-73.025
X68.326Y-73.914
X68.707Y-70.231
X70.104Y-119.38
X76.073Y-118.745
X77.216Y-145.669
X77.216Y-146.939
X78.486Y-60.071
X78.486Y-60.96
X82.804Y-123.698
X85.344Y-62.738
X85.725Y-133.477
X85.725Y-139.573
X89.662Y-139.446
X89.916Y-33.528
X89.916Y-40.132
X90.488Y-83.248
X90.551Y-140.462
X92.964Y-81.407
X93.599Y-48.006
X95.098Y-140.462
X95.25Y-139.548
X95.504Y-81.407
X96.52Y-135.89
X96.774Y-35.179
X96.774Y-60.96
X99.187Y-84.455
X100.584Y-85.217
X101.6Y-135.89
X103.124Y-85.725
X105.664Y-85.967
X106.934Y-62.992
X107.95Y-26.543
X110.998Y-135.89
X111.76Y-147.447
X113.284Y-71.12
X116.205Y-62.611
X117.094Y-75.946
X117.602Y-111.506
X118.874Y-84.707
X120.904Y-84.455
X122.555Y-110.617
X122.555Y-119.888
X123.698Y-110.617
X123.698Y-118.618
X124.333Y-137.668
X124.333Y-150.495
X124.46Y-107.061
X124.968Y-117.729
X125.476Y-34.036
X125.476Y-47.752
X126.746Y-98.933
X126.746Y-118.11
X126.746Y-120.777
X127.254Y-75.692
X127.254Y-87.376
X127.508Y-98.171
X127.508Y-111.633
X128.524Y-120.777
X128.524Y-155.702
X129.286Y-88.138
X129.286Y-90.932
X129.794Y-55.118
X129.794Y-112.014
X130.81Y-55.118
X131.191Y-120.65
X131.826Y-55.118
X134.493Y-76.962
X134.747Y-107.95
X136.228Y-98.975
X136.255Y-97.434
X136.271Y-100.584
X136.273Y-101.471
X136.275Y-99.773
X136.457Y-98.208
X136.652Y-96.647
X137.155Y-96.025
X137.632Y-95.382
X137.922Y-137.541
X138.136Y-94.761
X138.609Y-94.116
X139.446Y-93.726
X139.634Y-110.175
X139.954Y-79.883
X140.335Y-111.76
X140.462Y-93.726
X141.135Y-111.76
X141.478Y-93.726
X141.605Y-82.296
X141.935Y-111.76
X142.367Y-80.391
X142.367Y-93.726
X142.735Y-111.76
X142.875Y-121.031
X142.875Y-121.92
X142.875Y-122.809
X143.003Y-119.888
X143.383Y-81.788
X143.383Y-93.726
X143.453Y-118.999
X143.535Y-111.76
X144.185Y-118.676
X144.272Y-81.788
X144.272Y-93.726
X144.335Y-111.76
X145.034Y-118.745
X145.135Y-111.76
X145.161Y-81.788
X145.161Y-93.726
X146.05Y-118.872
X146.177Y-81.661
X146.177Y-93.726
X147.066Y-81.661
X147.066Y-93.599
X147.066Y-118.872
X147.574Y-45.212
X147.955Y-118.745
X148.336Y-74.422
X148.844Y-118.745
X148.971Y-75.057
X149.733Y-118.745
X150.749Y-118.606
X155.575Y-146.685
X156.845Y-156.083
X159.893Y-152.273
T2
X34.205Y-26.67
X34.205Y-160.02
X34.974Y-24.814
X34.974Y-28.526
X34.974Y-158.164
X34.974Y-161.876
X36.83Y-24.045
X36.83Y-29.295
X36.83Y-157.395
X36.83Y-162.645
X38.686Y-24.814
X38.686Y-28.526
X38.686Y-158.164
X38.686Y-161.876
X39.455Y-26.67
X39.455Y-160.02
X151.045Y-38.1
X151.814Y-36.244
X151.814Y-39.956
X153.67Y-35.475
X153.67Y-40.725
X155.526Y-36.244
X155.526Y-39.956
X156.295Y-38.1
X166.285Y-26.67
X166.285Y-38.1
X166.285Y-160.02
X167.054Y-24.814
X167.054Y-28.526
X167.054Y-36.244
X167.054Y-39.956
X167.054Y-158.164
X167.054Y-161.876
X168.91Y-24.045
X168.91Y-29.295
X168.91Y-35.475
X168.91Y-40.725
X168.91Y-157.395
X168.91Y-162.645
X170.766Y-24.814
X170.766Y-28.526
X170.766Y-36.244
X170.766Y-39.956
X170.766Y-158.164
X170.766Y-161.876
X171.535Y-26.67
X171.535Y-38.1
X171.535Y-160.02
T3
X49.022Y-29.972
X49.022Y-32.512
X49.022Y-35.052
X49.022Y-37.592
X49.022Y-40.132
X49.022Y-42.672
X49.022Y-45.212
X49.022Y-47.752
X58.737Y-150.177
X58.737Y-159.702
X61.277Y-150.177
X61.277Y-159.702
X63.754Y-65.278
X63.754Y-67.818
X63.754Y-126.238
X63.754Y-128.778
X63.817Y-150.177
X63.817Y-159.702
X66.294Y-65.278
X66.294Y-67.818
X66.294Y-126.238
X66.294Y-128.778
X68.834Y-65.278
X68.834Y-67.818
X68.834Y-126.238
X68.834Y-128.778
X71.374Y-65.278
X71.374Y-67.818
X71.374Y-126.238
X71.374Y-128.778
X71.882Y-29.972
X71.882Y-32.512
X71.882Y-35.052
X71.882Y-37.592
X71.882Y-40.132
X71.882Y-42.672
X71.882Y-45.212
X71.882Y-47.752
X73.914Y-65.278
X73.914Y-67.818
X73.914Y-126.238
X73.914Y-128.778
X76.2Y-157.48
X76.2Y-160.02
X76.454Y-65.278
X76.454Y-67.818
X76.454Y-126.238
X76.454Y-128.778
X78.74Y-157.48
X78.74Y-160.02
X78.994Y-65.278
X78.994Y-67.818
X78.994Y-126.238
X78.994Y-128.778
X80.772Y-29.972
X80.772Y-32.512
X80.772Y-35.052
X80.772Y-37.592
X80.772Y-40.132
X80.772Y-42.672
X80.772Y-45.212
X80.772Y-47.752
X81.28Y-157.48
X81.28Y-160.02
X81.534Y-65.278
X81.534Y-67.818
X81.534Y-126.238
X81.534Y-128.778
X83.82Y-157.48
X83.82Y-160.02
X84.074Y-65.278
X84.074Y-67.818
X84.074Y-126.238
X84.074Y-128.778
X86.36Y-157.48
X86.36Y-160.02
X86.614Y-65.278
X86.614Y-67.818
X86.614Y-126.238
X86.614Y-128.778
X88.9Y-157.48
X88.9Y-160.02
X89.154Y-65.278
X89.154Y-67.818
X89.154Y-126.238
X89.154Y-128.778
X91.44Y-157.48
X91.44Y-160.02
X91.694Y-65.278
X91.694Y-67.818
X91.694Y-126.238
X91.694Y-128.778
X93.98Y-157.48
X93.98Y-160.02
X94.234Y-65.278
X94.234Y-67.818
X94.234Y-126.238
X94.234Y-128.778
X96.52Y-157.48
X96.52Y-160.02
X96.774Y-65.278
X96.774Y-67.818
X96.774Y-126.238
X96.774Y-128.778
X99.06Y-157.48
X99.06Y-160.02
X99.314Y-65.278
X99.314Y-67.818
X99.314Y-126.238
X99.314Y-128.778
X101.6Y-157.48
X101.6Y-160.02
X101.854Y-65.278
X101.854Y-67.818
X101.854Y-126.238
X101.854Y-128.778
X103.632Y-29.972
X103.632Y-32.512
X103.632Y-35.052
X103.632Y-37.592
X103.632Y-40.132
X103.632Y-42.672
X103.632Y-45.212
X103.632Y-47.752
X104.14Y-157.48
X104.14Y-160.02
X104.394Y-65.278
X104.394Y-67.818
X104.394Y-126.238
X104.394Y-128.778
X106.68Y-157.48
X106.68Y-160.02
X106.934Y-65.278
X106.934Y-67.818
X106.934Y-126.238
X106.934Y-128.778
X109.22Y-157.48
X109.22Y-160.02
X109.474Y-65.278
X109.474Y-67.818
X109.474Y-126.238
X109.474Y-128.778
X111.76Y-157.48
X111.76Y-160.02
X112.014Y-65.278
X112.014Y-67.818
X112.014Y-126.238
X112.014Y-128.778
X112.522Y-29.972
X112.522Y-32.512
X112.522Y-35.052
X112.522Y-37.592
X112.522Y-40.132
X112.522Y-42.672
X112.522Y-45.212
X112.522Y-47.752
X114.554Y-65.278
X114.554Y-67.818
X114.554Y-126.238
X114.554Y-128.778
X117.094Y-65.278
X117.094Y-67.818
X117.094Y-126.238
X117.094Y-128.778
X119.38Y-160.02
X119.634Y-65.278
X119.634Y-67.818
X119.634Y-126.238
X119.634Y-128.778
X121.92Y-160.02
X122.174Y-65.278
X122.174Y-67.818
X122.174Y-126.238
X122.174Y-128.778
X124.46Y-160.02
X124.714Y-65.278
X124.714Y-67.818
X124.714Y-126.238
X124.714Y-128.778
X127.Y-160.02
X127.254Y-65.278
X127.254Y-67.818
X127.254Y-126.238
X127.254Y-128.778
X129.54Y-160.02
X129.794Y-65.278
X129.794Y-67.818
X129.794Y-126.238
X129.794Y-128.778
X132.334Y-65.278
X132.334Y-67.818
X132.334Y-126.238
X132.334Y-128.778
X134.62Y-160.02
X134.874Y-65.278
X134.874Y-67.818
X134.874Y-126.238
X134.874Y-128.778
X135.382Y-29.972
X135.382Y-32.512
X135.382Y-35.052
X135.382Y-37.592
X135.382Y-40.132
X135.382Y-42.672
X135.382Y-45.212
X135.382Y-47.752
X137.16Y-160.02
X137.414Y-65.278
X137.414Y-67.818
X137.414Y-126.238
X137.414Y-128.778
X139.7Y-160.02
X139.954Y-65.278
X139.954Y-67.818
X139.954Y-126.238
X139.954Y-128.778
X142.24Y-160.02
X142.494Y-65.278
X142.494Y-67.818
X142.494Y-126.238
X142.494Y-128.778
X144.78Y-160.02
X145.034Y-65.278
X145.034Y-67.818
X145.034Y-126.238
X145.034Y-128.778
X147.32Y-160.02
X147.574Y-65.278
X147.574Y-67.818
X147.574Y-126.238
X147.574Y-128.778
X149.86Y-160.02
X150.114Y-65.278
X150.114Y-67.818
X150.114Y-126.238
X150.114Y-128.778
X152.4Y-48.26
X152.4Y-160.02
X154.94Y-48.26
X154.94Y-160.02
X157.48Y-48.26
X157.48Y-160.02
X160.02Y-48.26
X161.29Y-103.505
X161.29Y-106.045
X161.29Y-108.585
X161.29Y-111.125
X161.29Y-113.665
X161.29Y-116.205
X161.29Y-118.745
X161.29Y-121.285
X161.29Y-123.825
X161.29Y-126.365
X161.29Y-128.905
X161.29Y-131.445
X161.29Y-133.985
X161.29Y-136.525
X161.29Y-139.065
X161.29Y-141.605
X161.29Y-144.145
X161.29Y-146.685
X162.56Y-48.26
X163.83Y-63.5
X163.83Y-66.04
X163.83Y-68.58
X163.83Y-74.93
X163.83Y-77.47
X163.83Y-80.01
X163.83Y-82.55
X163.83Y-85.09
X163.83Y-87.63
X163.83Y-90.17
X163.83Y-92.71
X163.83Y-95.25
X163.83Y-97.79
X163.83Y-103.505
X163.83Y-106.045
X163.83Y-108.585
X163.83Y-111.125
X163.83Y-113.665
X163.83Y-116.205
X163.83Y-118.745
X163.83Y-121.285
X163.83Y-123.825
X163.83Y-126.365
X163.83Y-128.905
X163.83Y-131.445
X163.83Y-133.985
X163.83Y-136.525
X163.83Y-139.065
X163.83Y-141.605
X163.83Y-144.145
X163.83Y-146.685
X165.1Y-48.26
X167.64Y-48.26
X170.18Y-48.26
T4
X45.72Y-160.02
X50.72Y-160.02
T5
X36.83Y-26.67
X36.83Y-160.02
X153.67Y-38.1
X168.91Y-26.67
X168.91Y-38.1
X168.91Y-160.02
T0
M30
