G04 #@! TF.FileFunction,Soldermask,Bot*
%FSLAX46Y46*%
G04 Gerber Fmt 4.6, Leading zero omitted, Abs format (unit mm)*
G04 Created by KiCad (PCBNEW 4.0.5) date 02/11/17 17:25:21*
%MOMM*%
%LPD*%
G01*
G04 APERTURE LIST*
%ADD10C,0.100000*%
%ADD11R,2.127200X2.127200*%
%ADD12O,2.127200X2.127200*%
%ADD13R,2.900000X2.900000*%
%ADD14C,2.900000*%
%ADD15R,2.127200X2.432000*%
%ADD16O,2.127200X2.432000*%
%ADD17R,2.432000X2.127200*%
%ADD18O,2.432000X2.127200*%
%ADD19C,1.400000*%
%ADD20C,7.400000*%
%ADD21C,1.000000*%
G04 APERTURE END LIST*
D10*
D11*
X63754000Y-126238000D03*
D12*
X63754000Y-128778000D03*
X66294000Y-126238000D03*
X66294000Y-128778000D03*
X68834000Y-126238000D03*
X68834000Y-128778000D03*
X71374000Y-126238000D03*
X71374000Y-128778000D03*
X73914000Y-126238000D03*
X73914000Y-128778000D03*
X76454000Y-126238000D03*
X76454000Y-128778000D03*
X78994000Y-126238000D03*
X78994000Y-128778000D03*
X81534000Y-126238000D03*
X81534000Y-128778000D03*
X84074000Y-126238000D03*
X84074000Y-128778000D03*
X86614000Y-126238000D03*
X86614000Y-128778000D03*
X89154000Y-126238000D03*
X89154000Y-128778000D03*
X91694000Y-126238000D03*
X91694000Y-128778000D03*
X94234000Y-126238000D03*
X94234000Y-128778000D03*
X96774000Y-126238000D03*
X96774000Y-128778000D03*
X99314000Y-126238000D03*
X99314000Y-128778000D03*
X101854000Y-126238000D03*
X101854000Y-128778000D03*
X104394000Y-126238000D03*
X104394000Y-128778000D03*
X106934000Y-126238000D03*
X106934000Y-128778000D03*
X109474000Y-126238000D03*
X109474000Y-128778000D03*
X112014000Y-126238000D03*
X112014000Y-128778000D03*
X114554000Y-126238000D03*
X114554000Y-128778000D03*
X117094000Y-126238000D03*
X117094000Y-128778000D03*
X119634000Y-126238000D03*
X119634000Y-128778000D03*
X122174000Y-126238000D03*
X122174000Y-128778000D03*
X124714000Y-126238000D03*
X124714000Y-128778000D03*
X127254000Y-126238000D03*
X127254000Y-128778000D03*
X129794000Y-126238000D03*
X129794000Y-128778000D03*
X132334000Y-126238000D03*
X132334000Y-128778000D03*
X134874000Y-126238000D03*
X134874000Y-128778000D03*
X137414000Y-126238000D03*
X137414000Y-128778000D03*
X139954000Y-126238000D03*
X139954000Y-128778000D03*
X142494000Y-126238000D03*
X142494000Y-128778000D03*
X145034000Y-126238000D03*
X145034000Y-128778000D03*
X147574000Y-126238000D03*
X147574000Y-128778000D03*
X150114000Y-126238000D03*
X150114000Y-128778000D03*
D13*
X45720000Y-160020000D03*
D14*
X50720000Y-160020000D03*
D15*
X152400000Y-48260000D03*
D16*
X154940000Y-48260000D03*
X157480000Y-48260000D03*
X160020000Y-48260000D03*
X162560000Y-48260000D03*
X165100000Y-48260000D03*
X167640000Y-48260000D03*
X170180000Y-48260000D03*
D11*
X63754000Y-65278000D03*
D12*
X63754000Y-67818000D03*
X66294000Y-65278000D03*
X66294000Y-67818000D03*
X68834000Y-65278000D03*
X68834000Y-67818000D03*
X71374000Y-65278000D03*
X71374000Y-67818000D03*
X73914000Y-65278000D03*
X73914000Y-67818000D03*
X76454000Y-65278000D03*
X76454000Y-67818000D03*
X78994000Y-65278000D03*
X78994000Y-67818000D03*
X81534000Y-65278000D03*
X81534000Y-67818000D03*
X84074000Y-65278000D03*
X84074000Y-67818000D03*
X86614000Y-65278000D03*
X86614000Y-67818000D03*
X89154000Y-65278000D03*
X89154000Y-67818000D03*
X91694000Y-65278000D03*
X91694000Y-67818000D03*
X94234000Y-65278000D03*
X94234000Y-67818000D03*
X96774000Y-65278000D03*
X96774000Y-67818000D03*
X99314000Y-65278000D03*
X99314000Y-67818000D03*
X101854000Y-65278000D03*
X101854000Y-67818000D03*
X104394000Y-65278000D03*
X104394000Y-67818000D03*
X106934000Y-65278000D03*
X106934000Y-67818000D03*
X109474000Y-65278000D03*
X109474000Y-67818000D03*
X112014000Y-65278000D03*
X112014000Y-67818000D03*
X114554000Y-65278000D03*
X114554000Y-67818000D03*
X117094000Y-65278000D03*
X117094000Y-67818000D03*
X119634000Y-65278000D03*
X119634000Y-67818000D03*
X122174000Y-65278000D03*
X122174000Y-67818000D03*
X124714000Y-65278000D03*
X124714000Y-67818000D03*
X127254000Y-65278000D03*
X127254000Y-67818000D03*
X129794000Y-65278000D03*
X129794000Y-67818000D03*
X132334000Y-65278000D03*
X132334000Y-67818000D03*
X134874000Y-65278000D03*
X134874000Y-67818000D03*
X137414000Y-65278000D03*
X137414000Y-67818000D03*
X139954000Y-65278000D03*
X139954000Y-67818000D03*
X142494000Y-65278000D03*
X142494000Y-67818000D03*
X145034000Y-65278000D03*
X145034000Y-67818000D03*
X147574000Y-65278000D03*
X147574000Y-67818000D03*
X150114000Y-65278000D03*
X150114000Y-67818000D03*
D15*
X134620000Y-160020000D03*
D16*
X137160000Y-160020000D03*
X139700000Y-160020000D03*
X142240000Y-160020000D03*
X144780000Y-160020000D03*
X147320000Y-160020000D03*
X149860000Y-160020000D03*
X152400000Y-160020000D03*
X154940000Y-160020000D03*
X157480000Y-160020000D03*
D15*
X119380000Y-160020000D03*
D16*
X121920000Y-160020000D03*
X124460000Y-160020000D03*
X127000000Y-160020000D03*
X129540000Y-160020000D03*
D17*
X49022000Y-29972000D03*
D18*
X49022000Y-32512000D03*
X49022000Y-35052000D03*
X49022000Y-37592000D03*
X49022000Y-40132000D03*
X49022000Y-42672000D03*
X49022000Y-45212000D03*
X49022000Y-47752000D03*
D17*
X80772000Y-29972000D03*
D18*
X80772000Y-32512000D03*
X80772000Y-35052000D03*
X80772000Y-37592000D03*
X80772000Y-40132000D03*
X80772000Y-42672000D03*
X80772000Y-45212000D03*
X80772000Y-47752000D03*
D17*
X112522000Y-29972000D03*
D18*
X112522000Y-32512000D03*
X112522000Y-35052000D03*
X112522000Y-37592000D03*
X112522000Y-40132000D03*
X112522000Y-42672000D03*
X112522000Y-45212000D03*
X112522000Y-47752000D03*
D17*
X71882000Y-47752000D03*
D18*
X71882000Y-45212000D03*
X71882000Y-42672000D03*
X71882000Y-40132000D03*
X71882000Y-37592000D03*
X71882000Y-35052000D03*
X71882000Y-32512000D03*
X71882000Y-29972000D03*
D17*
X103632000Y-47752000D03*
D18*
X103632000Y-45212000D03*
X103632000Y-42672000D03*
X103632000Y-40132000D03*
X103632000Y-37592000D03*
X103632000Y-35052000D03*
X103632000Y-32512000D03*
X103632000Y-29972000D03*
D17*
X135382000Y-47752000D03*
D18*
X135382000Y-45212000D03*
X135382000Y-42672000D03*
X135382000Y-40132000D03*
X135382000Y-37592000D03*
X135382000Y-35052000D03*
X135382000Y-32512000D03*
X135382000Y-29972000D03*
D19*
X39246000Y-90554000D03*
X39246000Y-98554000D03*
D15*
X58737500Y-150177500D03*
D16*
X61277500Y-150177500D03*
X63817500Y-150177500D03*
D15*
X58737500Y-159702500D03*
D16*
X61277500Y-159702500D03*
X63817500Y-159702500D03*
D17*
X163830000Y-68580000D03*
D18*
X163830000Y-66040000D03*
X163830000Y-63500000D03*
D17*
X163830000Y-97790000D03*
D18*
X163830000Y-95250000D03*
X163830000Y-92710000D03*
X163830000Y-90170000D03*
X163830000Y-87630000D03*
X163830000Y-85090000D03*
X163830000Y-82550000D03*
X163830000Y-80010000D03*
X163830000Y-77470000D03*
X163830000Y-74930000D03*
D11*
X163830000Y-103505000D03*
D12*
X161290000Y-103505000D03*
X163830000Y-106045000D03*
X161290000Y-106045000D03*
X163830000Y-108585000D03*
X161290000Y-108585000D03*
X163830000Y-111125000D03*
X161290000Y-111125000D03*
X163830000Y-113665000D03*
X161290000Y-113665000D03*
X163830000Y-116205000D03*
X161290000Y-116205000D03*
X163830000Y-118745000D03*
X161290000Y-118745000D03*
X163830000Y-121285000D03*
X161290000Y-121285000D03*
X163830000Y-123825000D03*
X161290000Y-123825000D03*
X163830000Y-126365000D03*
X161290000Y-126365000D03*
X163830000Y-128905000D03*
X161290000Y-128905000D03*
X163830000Y-131445000D03*
X161290000Y-131445000D03*
X163830000Y-133985000D03*
X161290000Y-133985000D03*
X163830000Y-136525000D03*
X161290000Y-136525000D03*
X163830000Y-139065000D03*
X161290000Y-139065000D03*
X163830000Y-141605000D03*
X161290000Y-141605000D03*
X163830000Y-144145000D03*
X161290000Y-144145000D03*
X163830000Y-146685000D03*
X161290000Y-146685000D03*
D11*
X76200000Y-157480000D03*
D12*
X76200000Y-160020000D03*
X78740000Y-157480000D03*
X78740000Y-160020000D03*
X81280000Y-157480000D03*
X81280000Y-160020000D03*
X83820000Y-157480000D03*
X83820000Y-160020000D03*
X86360000Y-157480000D03*
X86360000Y-160020000D03*
X88900000Y-157480000D03*
X88900000Y-160020000D03*
X91440000Y-157480000D03*
X91440000Y-160020000D03*
X93980000Y-157480000D03*
X93980000Y-160020000D03*
X96520000Y-157480000D03*
X96520000Y-160020000D03*
X99060000Y-157480000D03*
X99060000Y-160020000D03*
X101600000Y-157480000D03*
X101600000Y-160020000D03*
X104140000Y-157480000D03*
X104140000Y-160020000D03*
X106680000Y-157480000D03*
X106680000Y-160020000D03*
X109220000Y-157480000D03*
X109220000Y-160020000D03*
X111760000Y-157480000D03*
X111760000Y-160020000D03*
D20*
X36830000Y-26670000D03*
D21*
X39455000Y-26670000D03*
X38686155Y-28526155D03*
X36830000Y-29295000D03*
X34973845Y-28526155D03*
X34205000Y-26670000D03*
X34973845Y-24813845D03*
X36830000Y-24045000D03*
X38686155Y-24813845D03*
D20*
X168910000Y-26670000D03*
D21*
X171535000Y-26670000D03*
X170766155Y-28526155D03*
X168910000Y-29295000D03*
X167053845Y-28526155D03*
X166285000Y-26670000D03*
X167053845Y-24813845D03*
X168910000Y-24045000D03*
X170766155Y-24813845D03*
D20*
X168910000Y-160020000D03*
D21*
X171535000Y-160020000D03*
X170766155Y-161876155D03*
X168910000Y-162645000D03*
X167053845Y-161876155D03*
X166285000Y-160020000D03*
X167053845Y-158163845D03*
X168910000Y-157395000D03*
X170766155Y-158163845D03*
D20*
X36830000Y-160020000D03*
D21*
X39455000Y-160020000D03*
X38686155Y-161876155D03*
X36830000Y-162645000D03*
X34973845Y-161876155D03*
X34205000Y-160020000D03*
X34973845Y-158163845D03*
X36830000Y-157395000D03*
X38686155Y-158163845D03*
D20*
X168910000Y-38100000D03*
D21*
X171535000Y-38100000D03*
X170766155Y-39956155D03*
X168910000Y-40725000D03*
X167053845Y-39956155D03*
X166285000Y-38100000D03*
X167053845Y-36243845D03*
X168910000Y-35475000D03*
X170766155Y-36243845D03*
D20*
X153670000Y-38100000D03*
D21*
X156295000Y-38100000D03*
X155526155Y-39956155D03*
X153670000Y-40725000D03*
X151813845Y-39956155D03*
X151045000Y-38100000D03*
X151813845Y-36243845D03*
X153670000Y-35475000D03*
X155526155Y-36243845D03*
M02*
