G04 #@! TF.FileFunction,Copper,L2,Bot,Signal*
%FSLAX46Y46*%
G04 Gerber Fmt 4.6, Leading zero omitted, Abs format (unit mm)*
G04 Created by KiCad (PCBNEW 4.0.5) date 02/02/17 21:36:50*
%MOMM*%
%LPD*%
G01*
G04 APERTURE LIST*
%ADD10C,0.100000*%
%ADD11C,1.400000*%
%ADD12O,1.400000X1.400000*%
%ADD13R,1.700000X1.700000*%
%ADD14O,1.700000X1.700000*%
%ADD15R,3.000000X3.000000*%
%ADD16C,3.000000*%
%ADD17C,6.400000*%
%ADD18C,0.600000*%
%ADD19C,0.400000*%
%ADD20C,1.500000*%
%ADD21C,0.254000*%
G04 APERTURE END LIST*
D10*
D11*
X122555000Y-80645000D03*
D12*
X122555000Y-88265000D03*
D11*
X112395000Y-80645000D03*
D12*
X112395000Y-88265000D03*
D11*
X102235000Y-80645000D03*
D12*
X102235000Y-88265000D03*
D11*
X92075000Y-80645000D03*
D12*
X92075000Y-88265000D03*
D11*
X81915000Y-88265000D03*
D12*
X81915000Y-80645000D03*
D11*
X71755000Y-80645000D03*
D12*
X71755000Y-88265000D03*
D13*
X116205000Y-122555000D03*
D14*
X116205000Y-120015000D03*
X116205000Y-117475000D03*
D13*
X119380000Y-122555000D03*
D14*
X119380000Y-120015000D03*
X119380000Y-117475000D03*
D13*
X49530000Y-127000000D03*
D14*
X49530000Y-124460000D03*
X52070000Y-127000000D03*
X52070000Y-124460000D03*
X54610000Y-127000000D03*
X54610000Y-124460000D03*
X57150000Y-127000000D03*
X57150000Y-124460000D03*
X59690000Y-127000000D03*
X59690000Y-124460000D03*
X62230000Y-127000000D03*
X62230000Y-124460000D03*
X64770000Y-127000000D03*
X64770000Y-124460000D03*
X67310000Y-127000000D03*
X67310000Y-124460000D03*
X69850000Y-127000000D03*
X69850000Y-124460000D03*
X72390000Y-127000000D03*
X72390000Y-124460000D03*
X74930000Y-127000000D03*
X74930000Y-124460000D03*
X77470000Y-127000000D03*
X77470000Y-124460000D03*
X80010000Y-127000000D03*
X80010000Y-124460000D03*
X82550000Y-127000000D03*
X82550000Y-124460000D03*
X85090000Y-127000000D03*
X85090000Y-124460000D03*
D13*
X52070000Y-115570000D03*
D14*
X52070000Y-113030000D03*
X54610000Y-115570000D03*
X54610000Y-113030000D03*
X57150000Y-115570000D03*
X57150000Y-113030000D03*
X59690000Y-115570000D03*
X59690000Y-113030000D03*
X62230000Y-115570000D03*
X62230000Y-113030000D03*
X64770000Y-115570000D03*
X64770000Y-113030000D03*
X67310000Y-115570000D03*
X67310000Y-113030000D03*
X69850000Y-115570000D03*
X69850000Y-113030000D03*
D13*
X60960000Y-88900000D03*
D14*
X60960000Y-91440000D03*
X60960000Y-93980000D03*
X60960000Y-96520000D03*
X60960000Y-99060000D03*
X60960000Y-101600000D03*
D13*
X55880000Y-88900000D03*
D14*
X55880000Y-91440000D03*
X55880000Y-93980000D03*
X55880000Y-96520000D03*
X55880000Y-99060000D03*
X55880000Y-101600000D03*
D13*
X50800000Y-88900000D03*
D14*
X50800000Y-91440000D03*
X50800000Y-93980000D03*
X50800000Y-96520000D03*
X50800000Y-99060000D03*
X50800000Y-101600000D03*
D13*
X45720000Y-88900000D03*
D14*
X45720000Y-91440000D03*
X45720000Y-93980000D03*
X45720000Y-96520000D03*
X45720000Y-99060000D03*
X45720000Y-101600000D03*
D15*
X132715000Y-76835000D03*
D16*
X132715000Y-81915000D03*
D15*
X132715000Y-86995000D03*
D16*
X132715000Y-92075000D03*
D15*
X132715000Y-97155000D03*
D16*
X132715000Y-102235000D03*
X132715000Y-107315000D03*
D15*
X86995000Y-69215000D03*
D16*
X92075000Y-69215000D03*
D15*
X97155000Y-69215000D03*
D16*
X102235000Y-69215000D03*
D15*
X107315000Y-69215000D03*
D16*
X112395000Y-69215000D03*
D15*
X117475000Y-69215000D03*
D16*
X122555000Y-69215000D03*
D15*
X76835000Y-69215000D03*
D16*
X81915000Y-69215000D03*
D15*
X66675000Y-69215000D03*
D16*
X71755000Y-69215000D03*
D15*
X56515000Y-69215000D03*
D16*
X61595000Y-69215000D03*
D15*
X46355000Y-69215000D03*
D16*
X51435000Y-69215000D03*
D15*
X132715000Y-112395000D03*
D16*
X132715000Y-117475000D03*
D15*
X132715000Y-122555000D03*
D16*
X132715000Y-127635000D03*
D17*
X133350000Y-68580000D03*
X39370000Y-68580000D03*
X39370000Y-134620000D03*
X133350000Y-134620000D03*
D18*
X91440000Y-113665000D03*
X73660000Y-99060000D03*
X72390000Y-101600000D03*
X76200000Y-97790000D03*
X74930000Y-100330000D03*
X78740000Y-104140000D03*
X77470000Y-105410000D03*
X81280000Y-106680000D03*
X80010000Y-107950000D03*
X88900000Y-113665000D03*
D19*
X132715000Y-112395000D02*
X92710000Y-112395000D01*
X92710000Y-112395000D02*
X91440000Y-112395000D01*
X81915000Y-88265000D02*
X79375000Y-88265000D01*
X91440000Y-102235000D02*
X91440000Y-112395000D01*
X91440000Y-112395000D02*
X91440000Y-113665000D01*
X84455000Y-95250000D02*
X91440000Y-102235000D01*
X71120000Y-95250000D02*
X84455000Y-95250000D01*
X69850000Y-93980000D02*
X71120000Y-95250000D01*
X69850000Y-78740000D02*
X69850000Y-93980000D01*
X70485000Y-78105000D02*
X69850000Y-78740000D01*
X75565000Y-78105000D02*
X70485000Y-78105000D01*
X77470000Y-80010000D02*
X75565000Y-78105000D01*
X77470000Y-86360000D02*
X77470000Y-80010000D01*
X79375000Y-88265000D02*
X77470000Y-86360000D01*
D20*
X132715000Y-127635000D02*
X129159000Y-127635000D01*
X129159000Y-127635000D02*
X129032000Y-127508000D01*
X132715000Y-86995000D02*
X125730000Y-86995000D01*
X84455000Y-83185000D02*
X81915000Y-80645000D01*
X121920000Y-83185000D02*
X84455000Y-83185000D01*
X125730000Y-86995000D02*
X121920000Y-83185000D01*
X80010000Y-91440000D02*
X78105000Y-91440000D01*
X73660000Y-80645000D02*
X74930000Y-81915000D01*
X71755000Y-80645000D02*
X73660000Y-80645000D01*
X120015000Y-91440000D02*
X80010000Y-91440000D01*
X127635000Y-107315000D02*
X132715000Y-107315000D01*
X124460000Y-104140000D02*
X127635000Y-107315000D01*
X124460000Y-95885000D02*
X124460000Y-104140000D01*
X121920000Y-93345000D02*
X124460000Y-95885000D01*
X121920000Y-93345000D02*
X120015000Y-91440000D01*
X74930000Y-88265000D02*
X74930000Y-81915000D01*
X78105000Y-91440000D02*
X74930000Y-88265000D01*
X132715000Y-92075000D02*
X137160000Y-92075000D01*
X137160000Y-92075000D02*
X137160000Y-92710000D01*
X132715000Y-81915000D02*
X135255000Y-81915000D01*
X135255000Y-122555000D02*
X137160000Y-120650000D01*
X135255000Y-122555000D02*
X132715000Y-122555000D01*
X137160000Y-83820000D02*
X137160000Y-92710000D01*
X137160000Y-92710000D02*
X137160000Y-120650000D01*
X135255000Y-81915000D02*
X137160000Y-83820000D01*
D19*
X82550000Y-124460000D02*
X82550000Y-116840000D01*
X119380000Y-124460000D02*
X119380000Y-122555000D01*
X118745000Y-125095000D02*
X119380000Y-124460000D01*
X113665000Y-125095000D02*
X118745000Y-125095000D01*
X112395000Y-123825000D02*
X113665000Y-125095000D01*
X112395000Y-116205000D02*
X112395000Y-123825000D01*
X111125000Y-114935000D02*
X112395000Y-116205000D01*
X84455000Y-114935000D02*
X111125000Y-114935000D01*
X82550000Y-116840000D02*
X84455000Y-114935000D01*
X52070000Y-124460000D02*
X50800000Y-123190000D01*
X50800000Y-114300000D02*
X52070000Y-113030000D01*
X50800000Y-123190000D02*
X50800000Y-114300000D01*
X54610000Y-124460000D02*
X53340000Y-123190000D01*
X53340000Y-114300000D02*
X54610000Y-113030000D01*
X53340000Y-123190000D02*
X53340000Y-114300000D01*
X57150000Y-124460000D02*
X55880000Y-123190000D01*
X55880000Y-114300000D02*
X57150000Y-113030000D01*
X55880000Y-123190000D02*
X55880000Y-114300000D01*
X59690000Y-124460000D02*
X58420000Y-123190000D01*
X58420000Y-114300000D02*
X59690000Y-113030000D01*
X58420000Y-123190000D02*
X58420000Y-114300000D01*
X62230000Y-124460000D02*
X60960000Y-123190000D01*
X60960000Y-114300000D02*
X62230000Y-113030000D01*
X60960000Y-123190000D02*
X60960000Y-114300000D01*
X64770000Y-124460000D02*
X63500000Y-123190000D01*
X63500000Y-114300000D02*
X64770000Y-113030000D01*
X63500000Y-123190000D02*
X63500000Y-114300000D01*
X67310000Y-124460000D02*
X66040000Y-123190000D01*
X66040000Y-114300000D02*
X67310000Y-113030000D01*
X66040000Y-123190000D02*
X66040000Y-114300000D01*
X69850000Y-124460000D02*
X68580000Y-123190000D01*
X68580000Y-114300000D02*
X69850000Y-113030000D01*
X68580000Y-123190000D02*
X68580000Y-114300000D01*
X69850000Y-99060000D02*
X73660000Y-99060000D01*
X69850000Y-99060000D02*
X60960000Y-99060000D01*
X69850000Y-101600000D02*
X72390000Y-101600000D01*
X69850000Y-101600000D02*
X60960000Y-101600000D01*
X55880000Y-99060000D02*
X57150000Y-97790000D01*
X57150000Y-97790000D02*
X76200000Y-97790000D01*
X55880000Y-101600000D02*
X57150000Y-100330000D01*
X57150000Y-100330000D02*
X74930000Y-100330000D01*
X50800000Y-99060000D02*
X52070000Y-99060000D01*
X54610000Y-104140000D02*
X78740000Y-104140000D01*
X53340000Y-102870000D02*
X54610000Y-104140000D01*
X53340000Y-100330000D02*
X53340000Y-102870000D01*
X52070000Y-99060000D02*
X53340000Y-100330000D01*
X50800000Y-101600000D02*
X50800000Y-104140000D01*
X52070000Y-105410000D02*
X77470000Y-105410000D01*
X50800000Y-104140000D02*
X52070000Y-105410000D01*
X45720000Y-99060000D02*
X46990000Y-99060000D01*
X50800000Y-106680000D02*
X81280000Y-106680000D01*
X48260000Y-104140000D02*
X50800000Y-106680000D01*
X48260000Y-100330000D02*
X48260000Y-104140000D01*
X46990000Y-99060000D02*
X48260000Y-100330000D01*
X45720000Y-101600000D02*
X45720000Y-104140000D01*
X49530000Y-107950000D02*
X80010000Y-107950000D01*
X45720000Y-104140000D02*
X49530000Y-107950000D01*
X83820000Y-96520000D02*
X60960000Y-96520000D01*
X83820000Y-96520000D02*
X88900000Y-101600000D01*
X88900000Y-113665000D02*
X88900000Y-101600000D01*
X55880000Y-96520000D02*
X60960000Y-96520000D01*
X50800000Y-96520000D02*
X55880000Y-96520000D01*
X45720000Y-96520000D02*
X50800000Y-96520000D01*
D21*
G36*
X138303000Y-83085587D02*
X138139343Y-82840657D01*
X136234343Y-80935657D01*
X136003539Y-80781439D01*
X135785017Y-80635427D01*
X135255000Y-80530000D01*
X134349129Y-80530000D01*
X133925959Y-80106091D01*
X133141541Y-79780372D01*
X132292185Y-79779630D01*
X131507200Y-80103980D01*
X130906091Y-80704041D01*
X130580372Y-81488459D01*
X130579630Y-82337815D01*
X130903980Y-83122800D01*
X131504041Y-83723909D01*
X132288459Y-84049628D01*
X133137815Y-84050370D01*
X133922800Y-83726020D01*
X134349564Y-83300000D01*
X134681314Y-83300000D01*
X135775000Y-84393686D01*
X135775000Y-90690000D01*
X134349129Y-90690000D01*
X133925959Y-90266091D01*
X133141541Y-89940372D01*
X132292185Y-89939630D01*
X131507200Y-90263980D01*
X130906091Y-90864041D01*
X130580372Y-91648459D01*
X130579630Y-92497815D01*
X130903980Y-93282800D01*
X131504041Y-93883909D01*
X132288459Y-94209628D01*
X133137815Y-94210370D01*
X133922800Y-93886020D01*
X134349564Y-93460000D01*
X135775000Y-93460000D01*
X135775000Y-120076314D01*
X134851968Y-120999346D01*
X134818162Y-120819683D01*
X134679090Y-120603559D01*
X134466890Y-120458569D01*
X134215000Y-120407560D01*
X131215000Y-120407560D01*
X130979683Y-120451838D01*
X130763559Y-120590910D01*
X130618569Y-120803110D01*
X130567560Y-121055000D01*
X130567560Y-124055000D01*
X130611838Y-124290317D01*
X130750910Y-124506441D01*
X130963110Y-124651431D01*
X131215000Y-124702440D01*
X134215000Y-124702440D01*
X134450317Y-124658162D01*
X134666441Y-124519090D01*
X134811431Y-124306890D01*
X134862440Y-124055000D01*
X134862440Y-123940000D01*
X135255000Y-123940000D01*
X135785017Y-123834573D01*
X136234343Y-123534343D01*
X138139343Y-121629343D01*
X138303000Y-121384413D01*
X138303000Y-139573000D01*
X34417000Y-139573000D01*
X34417000Y-135379482D01*
X35534336Y-135379482D01*
X36116950Y-136789515D01*
X37194811Y-137869259D01*
X38603825Y-138454333D01*
X40129482Y-138455664D01*
X41539515Y-137873050D01*
X42619259Y-136795189D01*
X43204333Y-135386175D01*
X43204338Y-135379482D01*
X129514336Y-135379482D01*
X130096950Y-136789515D01*
X131174811Y-137869259D01*
X132583825Y-138454333D01*
X134109482Y-138455664D01*
X135519515Y-137873050D01*
X136599259Y-136795189D01*
X137184333Y-135386175D01*
X137185664Y-133860518D01*
X136603050Y-132450485D01*
X135525189Y-131370741D01*
X134116175Y-130785667D01*
X132590518Y-130784336D01*
X131180485Y-131366950D01*
X130100741Y-132444811D01*
X129515667Y-133853825D01*
X129514336Y-135379482D01*
X43204338Y-135379482D01*
X43205664Y-133860518D01*
X42623050Y-132450485D01*
X41545189Y-131370741D01*
X40136175Y-130785667D01*
X38610518Y-130784336D01*
X37200485Y-131366950D01*
X36120741Y-132444811D01*
X35535667Y-133853825D01*
X35534336Y-135379482D01*
X34417000Y-135379482D01*
X34417000Y-129148970D01*
X131380635Y-129148970D01*
X131540418Y-129467739D01*
X132331187Y-129777723D01*
X133180387Y-129761497D01*
X133889582Y-129467739D01*
X134049365Y-129148970D01*
X132715000Y-127814605D01*
X131380635Y-129148970D01*
X34417000Y-129148970D01*
X34417000Y-127285750D01*
X48045000Y-127285750D01*
X48045000Y-127976309D01*
X48141673Y-128209698D01*
X48320301Y-128388327D01*
X48553690Y-128485000D01*
X49244250Y-128485000D01*
X49403000Y-128326250D01*
X49403000Y-127127000D01*
X48203750Y-127127000D01*
X48045000Y-127285750D01*
X34417000Y-127285750D01*
X34417000Y-126023691D01*
X48045000Y-126023691D01*
X48045000Y-126714250D01*
X48203750Y-126873000D01*
X49403000Y-126873000D01*
X49403000Y-124587000D01*
X48209181Y-124587000D01*
X48088514Y-124816892D01*
X48334817Y-125341358D01*
X48534208Y-125523070D01*
X48320301Y-125611673D01*
X48141673Y-125790302D01*
X48045000Y-126023691D01*
X34417000Y-126023691D01*
X34417000Y-124103108D01*
X48088514Y-124103108D01*
X48209181Y-124333000D01*
X49403000Y-124333000D01*
X49403000Y-123139845D01*
X49173110Y-123018524D01*
X48763076Y-123188355D01*
X48334817Y-123578642D01*
X48088514Y-124103108D01*
X34417000Y-124103108D01*
X34417000Y-96520000D01*
X44205907Y-96520000D01*
X44318946Y-97088285D01*
X44640853Y-97570054D01*
X44970026Y-97790000D01*
X44640853Y-98009946D01*
X44318946Y-98491715D01*
X44205907Y-99060000D01*
X44318946Y-99628285D01*
X44640853Y-100110054D01*
X44970026Y-100330000D01*
X44640853Y-100549946D01*
X44318946Y-101031715D01*
X44205907Y-101600000D01*
X44318946Y-102168285D01*
X44640853Y-102650054D01*
X44885000Y-102813187D01*
X44885000Y-104140000D01*
X44948561Y-104459541D01*
X45088479Y-104668943D01*
X45129566Y-104730434D01*
X48939566Y-108540434D01*
X49210460Y-108721440D01*
X49530000Y-108785000D01*
X79582766Y-108785000D01*
X79823201Y-108884838D01*
X80195167Y-108885162D01*
X80538943Y-108743117D01*
X80802192Y-108480327D01*
X80944838Y-108136799D01*
X80945162Y-107764833D01*
X80841933Y-107515000D01*
X80852766Y-107515000D01*
X81093201Y-107614838D01*
X81465167Y-107615162D01*
X81808943Y-107473117D01*
X82072192Y-107210327D01*
X82214838Y-106866799D01*
X82215162Y-106494833D01*
X82073117Y-106151057D01*
X81810327Y-105887808D01*
X81466799Y-105745162D01*
X81094833Y-105744838D01*
X80852422Y-105845000D01*
X78301775Y-105845000D01*
X78404838Y-105596799D01*
X78405162Y-105224833D01*
X78301933Y-104975000D01*
X78312766Y-104975000D01*
X78553201Y-105074838D01*
X78925167Y-105075162D01*
X79268943Y-104933117D01*
X79532192Y-104670327D01*
X79674838Y-104326799D01*
X79675162Y-103954833D01*
X79533117Y-103611057D01*
X79270327Y-103347808D01*
X78926799Y-103205162D01*
X78554833Y-103204838D01*
X78312422Y-103305000D01*
X54955868Y-103305000D01*
X54175000Y-102524132D01*
X54175000Y-100330000D01*
X54111439Y-100010459D01*
X53930434Y-99739566D01*
X52660434Y-98469566D01*
X52389541Y-98288561D01*
X52070000Y-98225000D01*
X52022841Y-98225000D01*
X51879147Y-98009946D01*
X51549974Y-97790000D01*
X51879147Y-97570054D01*
X52022841Y-97355000D01*
X54657159Y-97355000D01*
X54800853Y-97570054D01*
X55130026Y-97790000D01*
X54800853Y-98009946D01*
X54478946Y-98491715D01*
X54365907Y-99060000D01*
X54478946Y-99628285D01*
X54800853Y-100110054D01*
X55130026Y-100330000D01*
X54800853Y-100549946D01*
X54478946Y-101031715D01*
X54365907Y-101600000D01*
X54478946Y-102168285D01*
X54800853Y-102650054D01*
X55282622Y-102971961D01*
X55850907Y-103085000D01*
X55909093Y-103085000D01*
X56477378Y-102971961D01*
X56959147Y-102650054D01*
X57281054Y-102168285D01*
X57394093Y-101600000D01*
X57338807Y-101322061D01*
X57495868Y-101165000D01*
X59532434Y-101165000D01*
X59445907Y-101600000D01*
X59558946Y-102168285D01*
X59880853Y-102650054D01*
X60362622Y-102971961D01*
X60930907Y-103085000D01*
X60989093Y-103085000D01*
X61557378Y-102971961D01*
X62039147Y-102650054D01*
X62182841Y-102435000D01*
X71962766Y-102435000D01*
X72203201Y-102534838D01*
X72575167Y-102535162D01*
X72918943Y-102393117D01*
X73182192Y-102130327D01*
X73324838Y-101786799D01*
X73325162Y-101414833D01*
X73221933Y-101165000D01*
X74502766Y-101165000D01*
X74743201Y-101264838D01*
X75115167Y-101265162D01*
X75458943Y-101123117D01*
X75722192Y-100860327D01*
X75864838Y-100516799D01*
X75865162Y-100144833D01*
X75723117Y-99801057D01*
X75460327Y-99537808D01*
X75116799Y-99395162D01*
X74744833Y-99394838D01*
X74502422Y-99495000D01*
X74491775Y-99495000D01*
X74594838Y-99246799D01*
X74595162Y-98874833D01*
X74491933Y-98625000D01*
X75772766Y-98625000D01*
X76013201Y-98724838D01*
X76385167Y-98725162D01*
X76728943Y-98583117D01*
X76992192Y-98320327D01*
X77134838Y-97976799D01*
X77135162Y-97604833D01*
X77031933Y-97355000D01*
X83474132Y-97355000D01*
X88065000Y-101945868D01*
X88065000Y-113237766D01*
X87965162Y-113478201D01*
X87964838Y-113850167D01*
X88068067Y-114100000D01*
X84455000Y-114100000D01*
X84135459Y-114163561D01*
X83931264Y-114300000D01*
X83864566Y-114344566D01*
X81959566Y-116249566D01*
X81778561Y-116520459D01*
X81715000Y-116840000D01*
X81715000Y-123237159D01*
X81499946Y-123380853D01*
X81280000Y-123710026D01*
X81060054Y-123380853D01*
X80578285Y-123058946D01*
X80010000Y-122945907D01*
X79441715Y-123058946D01*
X78959946Y-123380853D01*
X78740000Y-123710026D01*
X78520054Y-123380853D01*
X78038285Y-123058946D01*
X77470000Y-122945907D01*
X76901715Y-123058946D01*
X76419946Y-123380853D01*
X76200000Y-123710026D01*
X75980054Y-123380853D01*
X75498285Y-123058946D01*
X74930000Y-122945907D01*
X74361715Y-123058946D01*
X73879946Y-123380853D01*
X73660000Y-123710026D01*
X73440054Y-123380853D01*
X72958285Y-123058946D01*
X72390000Y-122945907D01*
X71821715Y-123058946D01*
X71339946Y-123380853D01*
X71120000Y-123710026D01*
X70900054Y-123380853D01*
X70418285Y-123058946D01*
X69850000Y-122945907D01*
X69572061Y-123001193D01*
X69415000Y-122844132D01*
X69415000Y-116997566D01*
X69850000Y-117084093D01*
X70418285Y-116971054D01*
X70900054Y-116649147D01*
X71221961Y-116167378D01*
X71335000Y-115599093D01*
X71335000Y-115540907D01*
X71221961Y-114972622D01*
X70900054Y-114490853D01*
X70614422Y-114300000D01*
X70900054Y-114109147D01*
X71221961Y-113627378D01*
X71335000Y-113059093D01*
X71335000Y-113000907D01*
X71221961Y-112432622D01*
X70900054Y-111950853D01*
X70418285Y-111628946D01*
X69850000Y-111515907D01*
X69281715Y-111628946D01*
X68799946Y-111950853D01*
X68580000Y-112280026D01*
X68360054Y-111950853D01*
X67878285Y-111628946D01*
X67310000Y-111515907D01*
X66741715Y-111628946D01*
X66259946Y-111950853D01*
X66040000Y-112280026D01*
X65820054Y-111950853D01*
X65338285Y-111628946D01*
X64770000Y-111515907D01*
X64201715Y-111628946D01*
X63719946Y-111950853D01*
X63500000Y-112280026D01*
X63280054Y-111950853D01*
X62798285Y-111628946D01*
X62230000Y-111515907D01*
X61661715Y-111628946D01*
X61179946Y-111950853D01*
X60960000Y-112280026D01*
X60740054Y-111950853D01*
X60258285Y-111628946D01*
X59690000Y-111515907D01*
X59121715Y-111628946D01*
X58639946Y-111950853D01*
X58420000Y-112280026D01*
X58200054Y-111950853D01*
X57718285Y-111628946D01*
X57150000Y-111515907D01*
X56581715Y-111628946D01*
X56099946Y-111950853D01*
X55880000Y-112280026D01*
X55660054Y-111950853D01*
X55178285Y-111628946D01*
X54610000Y-111515907D01*
X54041715Y-111628946D01*
X53559946Y-111950853D01*
X53340000Y-112280026D01*
X53120054Y-111950853D01*
X52638285Y-111628946D01*
X52070000Y-111515907D01*
X51501715Y-111628946D01*
X51019946Y-111950853D01*
X50698039Y-112432622D01*
X50585000Y-113000907D01*
X50585000Y-113059093D01*
X50630632Y-113288500D01*
X50209566Y-113709566D01*
X50028561Y-113980459D01*
X49965000Y-114300000D01*
X49965000Y-123050876D01*
X49886890Y-123018524D01*
X49657000Y-123139845D01*
X49657000Y-124333000D01*
X49677000Y-124333000D01*
X49677000Y-124587000D01*
X49657000Y-124587000D01*
X49657000Y-126873000D01*
X49677000Y-126873000D01*
X49677000Y-127127000D01*
X49657000Y-127127000D01*
X49657000Y-128326250D01*
X49815750Y-128485000D01*
X50506310Y-128485000D01*
X50739699Y-128388327D01*
X50918327Y-128209698D01*
X50990597Y-128035223D01*
X51019946Y-128079147D01*
X51501715Y-128401054D01*
X52070000Y-128514093D01*
X52638285Y-128401054D01*
X53120054Y-128079147D01*
X53340000Y-127749974D01*
X53559946Y-128079147D01*
X54041715Y-128401054D01*
X54610000Y-128514093D01*
X55178285Y-128401054D01*
X55660054Y-128079147D01*
X55880000Y-127749974D01*
X56099946Y-128079147D01*
X56581715Y-128401054D01*
X57150000Y-128514093D01*
X57718285Y-128401054D01*
X58200054Y-128079147D01*
X58420000Y-127749974D01*
X58639946Y-128079147D01*
X59121715Y-128401054D01*
X59690000Y-128514093D01*
X60258285Y-128401054D01*
X60740054Y-128079147D01*
X60960000Y-127749974D01*
X61179946Y-128079147D01*
X61661715Y-128401054D01*
X62230000Y-128514093D01*
X62798285Y-128401054D01*
X63280054Y-128079147D01*
X63500000Y-127749974D01*
X63719946Y-128079147D01*
X64201715Y-128401054D01*
X64770000Y-128514093D01*
X65338285Y-128401054D01*
X65820054Y-128079147D01*
X66040000Y-127749974D01*
X66259946Y-128079147D01*
X66741715Y-128401054D01*
X67310000Y-128514093D01*
X67878285Y-128401054D01*
X68360054Y-128079147D01*
X68580000Y-127749974D01*
X68799946Y-128079147D01*
X69281715Y-128401054D01*
X69850000Y-128514093D01*
X70418285Y-128401054D01*
X70900054Y-128079147D01*
X71120000Y-127749974D01*
X71339946Y-128079147D01*
X71821715Y-128401054D01*
X72390000Y-128514093D01*
X72958285Y-128401054D01*
X73440054Y-128079147D01*
X73660000Y-127749974D01*
X73879946Y-128079147D01*
X74361715Y-128401054D01*
X74930000Y-128514093D01*
X75498285Y-128401054D01*
X75980054Y-128079147D01*
X76200000Y-127749974D01*
X76419946Y-128079147D01*
X76901715Y-128401054D01*
X77470000Y-128514093D01*
X78038285Y-128401054D01*
X78520054Y-128079147D01*
X78740000Y-127749974D01*
X78959946Y-128079147D01*
X79441715Y-128401054D01*
X80010000Y-128514093D01*
X80578285Y-128401054D01*
X81060054Y-128079147D01*
X81280000Y-127749974D01*
X81499946Y-128079147D01*
X81981715Y-128401054D01*
X82550000Y-128514093D01*
X83118285Y-128401054D01*
X83600054Y-128079147D01*
X83827702Y-127738447D01*
X83894817Y-127881358D01*
X84323076Y-128271645D01*
X84733110Y-128441476D01*
X84963000Y-128320155D01*
X84963000Y-127127000D01*
X85217000Y-127127000D01*
X85217000Y-128320155D01*
X85446890Y-128441476D01*
X85856924Y-128271645D01*
X86285183Y-127881358D01*
X86531486Y-127356892D01*
X86476003Y-127251187D01*
X130572277Y-127251187D01*
X130588503Y-128100387D01*
X130882261Y-128809582D01*
X131201030Y-128969365D01*
X132535395Y-127635000D01*
X132894605Y-127635000D01*
X134228970Y-128969365D01*
X134547739Y-128809582D01*
X134857723Y-128018813D01*
X134841497Y-127169613D01*
X134547739Y-126460418D01*
X134228970Y-126300635D01*
X132894605Y-127635000D01*
X132535395Y-127635000D01*
X131201030Y-126300635D01*
X130882261Y-126460418D01*
X130572277Y-127251187D01*
X86476003Y-127251187D01*
X86410819Y-127127000D01*
X85217000Y-127127000D01*
X84963000Y-127127000D01*
X84943000Y-127127000D01*
X84943000Y-126873000D01*
X84963000Y-126873000D01*
X84963000Y-124587000D01*
X85217000Y-124587000D01*
X85217000Y-126873000D01*
X86410819Y-126873000D01*
X86531486Y-126643108D01*
X86286305Y-126121030D01*
X131380635Y-126121030D01*
X132715000Y-127455395D01*
X134049365Y-126121030D01*
X133889582Y-125802261D01*
X133098813Y-125492277D01*
X132249613Y-125508503D01*
X131540418Y-125802261D01*
X131380635Y-126121030D01*
X86286305Y-126121030D01*
X86285183Y-126118642D01*
X85858729Y-125730000D01*
X86285183Y-125341358D01*
X86531486Y-124816892D01*
X86410819Y-124587000D01*
X85217000Y-124587000D01*
X84963000Y-124587000D01*
X84943000Y-124587000D01*
X84943000Y-124333000D01*
X84963000Y-124333000D01*
X84963000Y-123139845D01*
X85217000Y-123139845D01*
X85217000Y-124333000D01*
X86410819Y-124333000D01*
X86531486Y-124103108D01*
X86285183Y-123578642D01*
X85856924Y-123188355D01*
X85446890Y-123018524D01*
X85217000Y-123139845D01*
X84963000Y-123139845D01*
X84733110Y-123018524D01*
X84323076Y-123188355D01*
X83894817Y-123578642D01*
X83827702Y-123721553D01*
X83600054Y-123380853D01*
X83385000Y-123237159D01*
X83385000Y-117185868D01*
X84800868Y-115770000D01*
X110779132Y-115770000D01*
X111560000Y-116550868D01*
X111560000Y-123825000D01*
X111623561Y-124144541D01*
X111804566Y-124415434D01*
X113074566Y-125685434D01*
X113345459Y-125866439D01*
X113665000Y-125930000D01*
X118745000Y-125930000D01*
X119064541Y-125866439D01*
X119335434Y-125685434D01*
X119970434Y-125050434D01*
X120151440Y-124779540D01*
X120215000Y-124460000D01*
X120215000Y-124052440D01*
X120230000Y-124052440D01*
X120465317Y-124008162D01*
X120681441Y-123869090D01*
X120826431Y-123656890D01*
X120877440Y-123405000D01*
X120877440Y-121705000D01*
X120833162Y-121469683D01*
X120694090Y-121253559D01*
X120481890Y-121108569D01*
X120414459Y-121094914D01*
X120459147Y-121065054D01*
X120781054Y-120583285D01*
X120894093Y-120015000D01*
X120781054Y-119446715D01*
X120475200Y-118988970D01*
X131380635Y-118988970D01*
X131540418Y-119307739D01*
X132331187Y-119617723D01*
X133180387Y-119601497D01*
X133889582Y-119307739D01*
X134049365Y-118988970D01*
X132715000Y-117654605D01*
X131380635Y-118988970D01*
X120475200Y-118988970D01*
X120459147Y-118964946D01*
X120118447Y-118737298D01*
X120261358Y-118670183D01*
X120651645Y-118241924D01*
X120821476Y-117831890D01*
X120700155Y-117602000D01*
X119507000Y-117602000D01*
X119507000Y-117622000D01*
X119253000Y-117622000D01*
X119253000Y-117602000D01*
X118059845Y-117602000D01*
X117938524Y-117831890D01*
X118108355Y-118241924D01*
X118498642Y-118670183D01*
X118641553Y-118737298D01*
X118300853Y-118964946D01*
X117978946Y-119446715D01*
X117865907Y-120015000D01*
X117978946Y-120583285D01*
X118300853Y-121065054D01*
X118342452Y-121092850D01*
X118294683Y-121101838D01*
X118078559Y-121240910D01*
X117933569Y-121453110D01*
X117882560Y-121705000D01*
X117882560Y-123405000D01*
X117926838Y-123640317D01*
X118065910Y-123856441D01*
X118278110Y-124001431D01*
X118530000Y-124052440D01*
X118545000Y-124052440D01*
X118545000Y-124114132D01*
X118399132Y-124260000D01*
X114010868Y-124260000D01*
X113230000Y-123479132D01*
X113230000Y-120015000D01*
X114690907Y-120015000D01*
X114803946Y-120583285D01*
X115125853Y-121065054D01*
X115167452Y-121092850D01*
X115119683Y-121101838D01*
X114903559Y-121240910D01*
X114758569Y-121453110D01*
X114707560Y-121705000D01*
X114707560Y-123405000D01*
X114751838Y-123640317D01*
X114890910Y-123856441D01*
X115103110Y-124001431D01*
X115355000Y-124052440D01*
X117055000Y-124052440D01*
X117290317Y-124008162D01*
X117506441Y-123869090D01*
X117651431Y-123656890D01*
X117702440Y-123405000D01*
X117702440Y-121705000D01*
X117658162Y-121469683D01*
X117519090Y-121253559D01*
X117306890Y-121108569D01*
X117239459Y-121094914D01*
X117284147Y-121065054D01*
X117606054Y-120583285D01*
X117719093Y-120015000D01*
X117606054Y-119446715D01*
X117284147Y-118964946D01*
X116943447Y-118737298D01*
X117086358Y-118670183D01*
X117476645Y-118241924D01*
X117646476Y-117831890D01*
X117525155Y-117602000D01*
X116332000Y-117602000D01*
X116332000Y-117622000D01*
X116078000Y-117622000D01*
X116078000Y-117602000D01*
X114884845Y-117602000D01*
X114763524Y-117831890D01*
X114933355Y-118241924D01*
X115323642Y-118670183D01*
X115466553Y-118737298D01*
X115125853Y-118964946D01*
X114803946Y-119446715D01*
X114690907Y-120015000D01*
X113230000Y-120015000D01*
X113230000Y-117118110D01*
X114763524Y-117118110D01*
X114884845Y-117348000D01*
X116078000Y-117348000D01*
X116078000Y-116154181D01*
X116332000Y-116154181D01*
X116332000Y-117348000D01*
X117525155Y-117348000D01*
X117646476Y-117118110D01*
X117938524Y-117118110D01*
X118059845Y-117348000D01*
X119253000Y-117348000D01*
X119253000Y-116154181D01*
X119507000Y-116154181D01*
X119507000Y-117348000D01*
X120700155Y-117348000D01*
X120821476Y-117118110D01*
X120810325Y-117091187D01*
X130572277Y-117091187D01*
X130588503Y-117940387D01*
X130882261Y-118649582D01*
X131201030Y-118809365D01*
X132535395Y-117475000D01*
X132894605Y-117475000D01*
X134228970Y-118809365D01*
X134547739Y-118649582D01*
X134857723Y-117858813D01*
X134841497Y-117009613D01*
X134547739Y-116300418D01*
X134228970Y-116140635D01*
X132894605Y-117475000D01*
X132535395Y-117475000D01*
X131201030Y-116140635D01*
X130882261Y-116300418D01*
X130572277Y-117091187D01*
X120810325Y-117091187D01*
X120651645Y-116708076D01*
X120261358Y-116279817D01*
X119736892Y-116033514D01*
X119507000Y-116154181D01*
X119253000Y-116154181D01*
X119023108Y-116033514D01*
X118498642Y-116279817D01*
X118108355Y-116708076D01*
X117938524Y-117118110D01*
X117646476Y-117118110D01*
X117476645Y-116708076D01*
X117086358Y-116279817D01*
X116561892Y-116033514D01*
X116332000Y-116154181D01*
X116078000Y-116154181D01*
X115848108Y-116033514D01*
X115323642Y-116279817D01*
X114933355Y-116708076D01*
X114763524Y-117118110D01*
X113230000Y-117118110D01*
X113230000Y-116205000D01*
X113181472Y-115961030D01*
X131380635Y-115961030D01*
X132715000Y-117295395D01*
X134049365Y-115961030D01*
X133889582Y-115642261D01*
X133098813Y-115332277D01*
X132249613Y-115348503D01*
X131540418Y-115642261D01*
X131380635Y-115961030D01*
X113181472Y-115961030D01*
X113166439Y-115885459D01*
X112985434Y-115614566D01*
X111715434Y-114344566D01*
X111648736Y-114300000D01*
X111444541Y-114163561D01*
X111125000Y-114100000D01*
X92271775Y-114100000D01*
X92374838Y-113851799D01*
X92375162Y-113479833D01*
X92275000Y-113237422D01*
X92275000Y-113230000D01*
X130567560Y-113230000D01*
X130567560Y-113895000D01*
X130611838Y-114130317D01*
X130750910Y-114346441D01*
X130963110Y-114491431D01*
X131215000Y-114542440D01*
X134215000Y-114542440D01*
X134450317Y-114498162D01*
X134666441Y-114359090D01*
X134811431Y-114146890D01*
X134862440Y-113895000D01*
X134862440Y-110895000D01*
X134818162Y-110659683D01*
X134679090Y-110443559D01*
X134466890Y-110298569D01*
X134215000Y-110247560D01*
X131215000Y-110247560D01*
X130979683Y-110291838D01*
X130763559Y-110430910D01*
X130618569Y-110643110D01*
X130567560Y-110895000D01*
X130567560Y-111560000D01*
X92275000Y-111560000D01*
X92275000Y-102235000D01*
X92266135Y-102190434D01*
X92211440Y-101915460D01*
X92030434Y-101644566D01*
X85045434Y-94659566D01*
X84964409Y-94605427D01*
X84774541Y-94478561D01*
X84455000Y-94415000D01*
X71465868Y-94415000D01*
X70685000Y-93634132D01*
X70685000Y-89046551D01*
X70811012Y-89235142D01*
X71244118Y-89524533D01*
X71755000Y-89626154D01*
X72265882Y-89524533D01*
X72698988Y-89235142D01*
X72988379Y-88802036D01*
X73090000Y-88291154D01*
X73090000Y-88238846D01*
X72988379Y-87727964D01*
X72698988Y-87294858D01*
X72265882Y-87005467D01*
X71755000Y-86903846D01*
X71244118Y-87005467D01*
X70811012Y-87294858D01*
X70685000Y-87483449D01*
X70685000Y-81488665D01*
X70775657Y-81624343D01*
X70987824Y-81766108D01*
X70997796Y-81776098D01*
X71010947Y-81781559D01*
X71224983Y-81924573D01*
X71475249Y-81974354D01*
X71488287Y-81979768D01*
X71502529Y-81979780D01*
X71755000Y-82030000D01*
X73086314Y-82030000D01*
X73545000Y-82488686D01*
X73545000Y-88265000D01*
X73650427Y-88795017D01*
X73852982Y-89098162D01*
X73950657Y-89244343D01*
X77125657Y-92419343D01*
X77574983Y-92719573D01*
X78105000Y-92825000D01*
X119441314Y-92825000D01*
X123075000Y-96458686D01*
X123075000Y-104140000D01*
X123180427Y-104670017D01*
X123341740Y-104911439D01*
X123480657Y-105119343D01*
X126655657Y-108294343D01*
X127104983Y-108594573D01*
X127635000Y-108700000D01*
X131080871Y-108700000D01*
X131504041Y-109123909D01*
X132288459Y-109449628D01*
X133137815Y-109450370D01*
X133922800Y-109126020D01*
X134523909Y-108525959D01*
X134849628Y-107741541D01*
X134850370Y-106892185D01*
X134526020Y-106107200D01*
X133925959Y-105506091D01*
X133141541Y-105180372D01*
X132292185Y-105179630D01*
X131507200Y-105503980D01*
X131080436Y-105930000D01*
X128208686Y-105930000D01*
X126027656Y-103748970D01*
X131380635Y-103748970D01*
X131540418Y-104067739D01*
X132331187Y-104377723D01*
X133180387Y-104361497D01*
X133889582Y-104067739D01*
X134049365Y-103748970D01*
X132715000Y-102414605D01*
X131380635Y-103748970D01*
X126027656Y-103748970D01*
X125845000Y-103566314D01*
X125845000Y-101851187D01*
X130572277Y-101851187D01*
X130588503Y-102700387D01*
X130882261Y-103409582D01*
X131201030Y-103569365D01*
X132535395Y-102235000D01*
X132894605Y-102235000D01*
X134228970Y-103569365D01*
X134547739Y-103409582D01*
X134857723Y-102618813D01*
X134841497Y-101769613D01*
X134547739Y-101060418D01*
X134228970Y-100900635D01*
X132894605Y-102235000D01*
X132535395Y-102235000D01*
X131201030Y-100900635D01*
X130882261Y-101060418D01*
X130572277Y-101851187D01*
X125845000Y-101851187D01*
X125845000Y-100721030D01*
X131380635Y-100721030D01*
X132715000Y-102055395D01*
X134049365Y-100721030D01*
X133889582Y-100402261D01*
X133098813Y-100092277D01*
X132249613Y-100108503D01*
X131540418Y-100402261D01*
X131380635Y-100721030D01*
X125845000Y-100721030D01*
X125845000Y-95885000D01*
X125799251Y-95655000D01*
X130567560Y-95655000D01*
X130567560Y-98655000D01*
X130611838Y-98890317D01*
X130750910Y-99106441D01*
X130963110Y-99251431D01*
X131215000Y-99302440D01*
X134215000Y-99302440D01*
X134450317Y-99258162D01*
X134666441Y-99119090D01*
X134811431Y-98906890D01*
X134862440Y-98655000D01*
X134862440Y-95655000D01*
X134818162Y-95419683D01*
X134679090Y-95203559D01*
X134466890Y-95058569D01*
X134215000Y-95007560D01*
X131215000Y-95007560D01*
X130979683Y-95051838D01*
X130763559Y-95190910D01*
X130618569Y-95403110D01*
X130567560Y-95655000D01*
X125799251Y-95655000D01*
X125739573Y-95354983D01*
X125439343Y-94905657D01*
X120994343Y-90460657D01*
X120833465Y-90353162D01*
X120545017Y-90160427D01*
X120015000Y-90055000D01*
X78678686Y-90055000D01*
X76315000Y-87691314D01*
X76315000Y-81915000D01*
X76209573Y-81384983D01*
X75909343Y-80935657D01*
X74639343Y-79665657D01*
X74503665Y-79575000D01*
X74190017Y-79365427D01*
X73660000Y-79260000D01*
X71755000Y-79260000D01*
X71504733Y-79309781D01*
X71490617Y-79309769D01*
X71477456Y-79315207D01*
X71224983Y-79365427D01*
X71012818Y-79507191D01*
X70999771Y-79512582D01*
X70989692Y-79522643D01*
X70775657Y-79665657D01*
X70685000Y-79801335D01*
X70685000Y-79085868D01*
X70830868Y-78940000D01*
X75219132Y-78940000D01*
X76635000Y-80355868D01*
X76635000Y-86360000D01*
X76698561Y-86679541D01*
X76848437Y-86903846D01*
X76879566Y-86950434D01*
X78784566Y-88855434D01*
X79055459Y-89036439D01*
X79375000Y-89100000D01*
X80862214Y-89100000D01*
X81157796Y-89396098D01*
X81648287Y-89599768D01*
X82179383Y-89600231D01*
X82670229Y-89397418D01*
X83046098Y-89022204D01*
X83249768Y-88531713D01*
X83250023Y-88238846D01*
X90740000Y-88238846D01*
X90740000Y-88291154D01*
X90841621Y-88802036D01*
X91131012Y-89235142D01*
X91564118Y-89524533D01*
X92075000Y-89626154D01*
X92585882Y-89524533D01*
X93018988Y-89235142D01*
X93308379Y-88802036D01*
X93410000Y-88291154D01*
X93410000Y-88238846D01*
X100900000Y-88238846D01*
X100900000Y-88291154D01*
X101001621Y-88802036D01*
X101291012Y-89235142D01*
X101724118Y-89524533D01*
X102235000Y-89626154D01*
X102745882Y-89524533D01*
X103178988Y-89235142D01*
X103468379Y-88802036D01*
X103570000Y-88291154D01*
X103570000Y-88238846D01*
X111060000Y-88238846D01*
X111060000Y-88291154D01*
X111161621Y-88802036D01*
X111451012Y-89235142D01*
X111884118Y-89524533D01*
X112395000Y-89626154D01*
X112905882Y-89524533D01*
X113338988Y-89235142D01*
X113628379Y-88802036D01*
X113730000Y-88291154D01*
X113730000Y-88238846D01*
X121220000Y-88238846D01*
X121220000Y-88291154D01*
X121321621Y-88802036D01*
X121611012Y-89235142D01*
X122044118Y-89524533D01*
X122555000Y-89626154D01*
X123065882Y-89524533D01*
X123498988Y-89235142D01*
X123788379Y-88802036D01*
X123890000Y-88291154D01*
X123890000Y-88238846D01*
X123788379Y-87727964D01*
X123498988Y-87294858D01*
X123065882Y-87005467D01*
X122555000Y-86903846D01*
X122044118Y-87005467D01*
X121611012Y-87294858D01*
X121321621Y-87727964D01*
X121220000Y-88238846D01*
X113730000Y-88238846D01*
X113628379Y-87727964D01*
X113338988Y-87294858D01*
X112905882Y-87005467D01*
X112395000Y-86903846D01*
X111884118Y-87005467D01*
X111451012Y-87294858D01*
X111161621Y-87727964D01*
X111060000Y-88238846D01*
X103570000Y-88238846D01*
X103468379Y-87727964D01*
X103178988Y-87294858D01*
X102745882Y-87005467D01*
X102235000Y-86903846D01*
X101724118Y-87005467D01*
X101291012Y-87294858D01*
X101001621Y-87727964D01*
X100900000Y-88238846D01*
X93410000Y-88238846D01*
X93308379Y-87727964D01*
X93018988Y-87294858D01*
X92585882Y-87005467D01*
X92075000Y-86903846D01*
X91564118Y-87005467D01*
X91131012Y-87294858D01*
X90841621Y-87727964D01*
X90740000Y-88238846D01*
X83250023Y-88238846D01*
X83250231Y-88000617D01*
X83047418Y-87509771D01*
X82672204Y-87133902D01*
X82181713Y-86930232D01*
X81650617Y-86929769D01*
X81159771Y-87132582D01*
X80861834Y-87430000D01*
X79720868Y-87430000D01*
X78305000Y-86014132D01*
X78305000Y-80645000D01*
X80530000Y-80645000D01*
X80635427Y-81175016D01*
X80935657Y-81624343D01*
X83475657Y-84164343D01*
X83924983Y-84464573D01*
X84455000Y-84570000D01*
X121346314Y-84570000D01*
X124750657Y-87974343D01*
X125199984Y-88274574D01*
X125730000Y-88380000D01*
X130567560Y-88380000D01*
X130567560Y-88495000D01*
X130611838Y-88730317D01*
X130750910Y-88946441D01*
X130963110Y-89091431D01*
X131215000Y-89142440D01*
X134215000Y-89142440D01*
X134450317Y-89098162D01*
X134666441Y-88959090D01*
X134811431Y-88746890D01*
X134862440Y-88495000D01*
X134862440Y-85495000D01*
X134818162Y-85259683D01*
X134679090Y-85043559D01*
X134466890Y-84898569D01*
X134215000Y-84847560D01*
X131215000Y-84847560D01*
X130979683Y-84891838D01*
X130763559Y-85030910D01*
X130618569Y-85243110D01*
X130567560Y-85495000D01*
X130567560Y-85610000D01*
X126303686Y-85610000D01*
X122899343Y-82205657D01*
X122561633Y-81980006D01*
X122819383Y-81980231D01*
X123310229Y-81777418D01*
X123686098Y-81402204D01*
X123889768Y-80911713D01*
X123890231Y-80380617D01*
X123687418Y-79889771D01*
X123312204Y-79513902D01*
X122821713Y-79310232D01*
X122290617Y-79309769D01*
X121799771Y-79512582D01*
X121423902Y-79887796D01*
X121220232Y-80378287D01*
X121219769Y-80909383D01*
X121422582Y-81400229D01*
X121797796Y-81776098D01*
X121855358Y-81800000D01*
X113095576Y-81800000D01*
X113150229Y-81777418D01*
X113526098Y-81402204D01*
X113729768Y-80911713D01*
X113730231Y-80380617D01*
X113527418Y-79889771D01*
X113152204Y-79513902D01*
X112661713Y-79310232D01*
X112130617Y-79309769D01*
X111639771Y-79512582D01*
X111263902Y-79887796D01*
X111060232Y-80378287D01*
X111059769Y-80909383D01*
X111262582Y-81400229D01*
X111637796Y-81776098D01*
X111695358Y-81800000D01*
X102935576Y-81800000D01*
X102990229Y-81777418D01*
X103366098Y-81402204D01*
X103569768Y-80911713D01*
X103570231Y-80380617D01*
X103367418Y-79889771D01*
X102992204Y-79513902D01*
X102501713Y-79310232D01*
X101970617Y-79309769D01*
X101479771Y-79512582D01*
X101103902Y-79887796D01*
X100900232Y-80378287D01*
X100899769Y-80909383D01*
X101102582Y-81400229D01*
X101477796Y-81776098D01*
X101535358Y-81800000D01*
X92775576Y-81800000D01*
X92830229Y-81777418D01*
X93206098Y-81402204D01*
X93409768Y-80911713D01*
X93410231Y-80380617D01*
X93207418Y-79889771D01*
X92832204Y-79513902D01*
X92341713Y-79310232D01*
X91810617Y-79309769D01*
X91319771Y-79512582D01*
X90943902Y-79887796D01*
X90740232Y-80378287D01*
X90739769Y-80909383D01*
X90942582Y-81400229D01*
X91317796Y-81776098D01*
X91375358Y-81800000D01*
X85028686Y-81800000D01*
X82894343Y-79665657D01*
X82445016Y-79365427D01*
X81915000Y-79260000D01*
X81384984Y-79365427D01*
X80935657Y-79665657D01*
X80635427Y-80114984D01*
X80530000Y-80645000D01*
X78305000Y-80645000D01*
X78305000Y-80010000D01*
X78241439Y-79690459D01*
X78060434Y-79419566D01*
X76155434Y-77514566D01*
X75884541Y-77333561D01*
X75565000Y-77270000D01*
X70485000Y-77270000D01*
X70165460Y-77333560D01*
X69894566Y-77514566D01*
X69259566Y-78149566D01*
X69078561Y-78420459D01*
X69015000Y-78740000D01*
X69015000Y-93980000D01*
X69078561Y-94299541D01*
X69259566Y-94570434D01*
X70374132Y-95685000D01*
X62182841Y-95685000D01*
X62039147Y-95469946D01*
X61698447Y-95242298D01*
X61841358Y-95175183D01*
X62231645Y-94746924D01*
X62401476Y-94336890D01*
X62280155Y-94107000D01*
X61087000Y-94107000D01*
X61087000Y-94127000D01*
X60833000Y-94127000D01*
X60833000Y-94107000D01*
X59639845Y-94107000D01*
X59518524Y-94336890D01*
X59688355Y-94746924D01*
X60078642Y-95175183D01*
X60221553Y-95242298D01*
X59880853Y-95469946D01*
X59737159Y-95685000D01*
X57102841Y-95685000D01*
X56959147Y-95469946D01*
X56618447Y-95242298D01*
X56761358Y-95175183D01*
X57151645Y-94746924D01*
X57321476Y-94336890D01*
X57200155Y-94107000D01*
X56007000Y-94107000D01*
X56007000Y-94127000D01*
X55753000Y-94127000D01*
X55753000Y-94107000D01*
X54559845Y-94107000D01*
X54438524Y-94336890D01*
X54608355Y-94746924D01*
X54998642Y-95175183D01*
X55141553Y-95242298D01*
X54800853Y-95469946D01*
X54657159Y-95685000D01*
X52022841Y-95685000D01*
X51879147Y-95469946D01*
X51538447Y-95242298D01*
X51681358Y-95175183D01*
X52071645Y-94746924D01*
X52241476Y-94336890D01*
X52120155Y-94107000D01*
X50927000Y-94107000D01*
X50927000Y-94127000D01*
X50673000Y-94127000D01*
X50673000Y-94107000D01*
X49479845Y-94107000D01*
X49358524Y-94336890D01*
X49528355Y-94746924D01*
X49918642Y-95175183D01*
X50061553Y-95242298D01*
X49720853Y-95469946D01*
X49577159Y-95685000D01*
X46942841Y-95685000D01*
X46799147Y-95469946D01*
X46458447Y-95242298D01*
X46601358Y-95175183D01*
X46991645Y-94746924D01*
X47161476Y-94336890D01*
X47040155Y-94107000D01*
X45847000Y-94107000D01*
X45847000Y-94127000D01*
X45593000Y-94127000D01*
X45593000Y-94107000D01*
X44399845Y-94107000D01*
X44278524Y-94336890D01*
X44448355Y-94746924D01*
X44838642Y-95175183D01*
X44981553Y-95242298D01*
X44640853Y-95469946D01*
X44318946Y-95951715D01*
X44205907Y-96520000D01*
X34417000Y-96520000D01*
X34417000Y-91440000D01*
X44205907Y-91440000D01*
X44318946Y-92008285D01*
X44640853Y-92490054D01*
X44981553Y-92717702D01*
X44838642Y-92784817D01*
X44448355Y-93213076D01*
X44278524Y-93623110D01*
X44399845Y-93853000D01*
X45593000Y-93853000D01*
X45593000Y-93833000D01*
X45847000Y-93833000D01*
X45847000Y-93853000D01*
X47040155Y-93853000D01*
X47161476Y-93623110D01*
X46991645Y-93213076D01*
X46601358Y-92784817D01*
X46458447Y-92717702D01*
X46799147Y-92490054D01*
X47121054Y-92008285D01*
X47234093Y-91440000D01*
X49285907Y-91440000D01*
X49398946Y-92008285D01*
X49720853Y-92490054D01*
X50061553Y-92717702D01*
X49918642Y-92784817D01*
X49528355Y-93213076D01*
X49358524Y-93623110D01*
X49479845Y-93853000D01*
X50673000Y-93853000D01*
X50673000Y-93833000D01*
X50927000Y-93833000D01*
X50927000Y-93853000D01*
X52120155Y-93853000D01*
X52241476Y-93623110D01*
X52071645Y-93213076D01*
X51681358Y-92784817D01*
X51538447Y-92717702D01*
X51879147Y-92490054D01*
X52201054Y-92008285D01*
X52314093Y-91440000D01*
X54365907Y-91440000D01*
X54478946Y-92008285D01*
X54800853Y-92490054D01*
X55141553Y-92717702D01*
X54998642Y-92784817D01*
X54608355Y-93213076D01*
X54438524Y-93623110D01*
X54559845Y-93853000D01*
X55753000Y-93853000D01*
X55753000Y-93833000D01*
X56007000Y-93833000D01*
X56007000Y-93853000D01*
X57200155Y-93853000D01*
X57321476Y-93623110D01*
X57151645Y-93213076D01*
X56761358Y-92784817D01*
X56618447Y-92717702D01*
X56959147Y-92490054D01*
X57281054Y-92008285D01*
X57394093Y-91440000D01*
X59445907Y-91440000D01*
X59558946Y-92008285D01*
X59880853Y-92490054D01*
X60221553Y-92717702D01*
X60078642Y-92784817D01*
X59688355Y-93213076D01*
X59518524Y-93623110D01*
X59639845Y-93853000D01*
X60833000Y-93853000D01*
X60833000Y-93833000D01*
X61087000Y-93833000D01*
X61087000Y-93853000D01*
X62280155Y-93853000D01*
X62401476Y-93623110D01*
X62231645Y-93213076D01*
X61841358Y-92784817D01*
X61698447Y-92717702D01*
X62039147Y-92490054D01*
X62361054Y-92008285D01*
X62474093Y-91440000D01*
X62361054Y-90871715D01*
X62039147Y-90389946D01*
X61997548Y-90362150D01*
X62045317Y-90353162D01*
X62261441Y-90214090D01*
X62406431Y-90001890D01*
X62457440Y-89750000D01*
X62457440Y-88050000D01*
X62413162Y-87814683D01*
X62274090Y-87598559D01*
X62061890Y-87453569D01*
X61810000Y-87402560D01*
X60110000Y-87402560D01*
X59874683Y-87446838D01*
X59658559Y-87585910D01*
X59513569Y-87798110D01*
X59462560Y-88050000D01*
X59462560Y-89750000D01*
X59506838Y-89985317D01*
X59645910Y-90201441D01*
X59858110Y-90346431D01*
X59925541Y-90360086D01*
X59880853Y-90389946D01*
X59558946Y-90871715D01*
X59445907Y-91440000D01*
X57394093Y-91440000D01*
X57281054Y-90871715D01*
X56959147Y-90389946D01*
X56917548Y-90362150D01*
X56965317Y-90353162D01*
X57181441Y-90214090D01*
X57326431Y-90001890D01*
X57377440Y-89750000D01*
X57377440Y-88050000D01*
X57333162Y-87814683D01*
X57194090Y-87598559D01*
X56981890Y-87453569D01*
X56730000Y-87402560D01*
X55030000Y-87402560D01*
X54794683Y-87446838D01*
X54578559Y-87585910D01*
X54433569Y-87798110D01*
X54382560Y-88050000D01*
X54382560Y-89750000D01*
X54426838Y-89985317D01*
X54565910Y-90201441D01*
X54778110Y-90346431D01*
X54845541Y-90360086D01*
X54800853Y-90389946D01*
X54478946Y-90871715D01*
X54365907Y-91440000D01*
X52314093Y-91440000D01*
X52201054Y-90871715D01*
X51879147Y-90389946D01*
X51837548Y-90362150D01*
X51885317Y-90353162D01*
X52101441Y-90214090D01*
X52246431Y-90001890D01*
X52297440Y-89750000D01*
X52297440Y-88050000D01*
X52253162Y-87814683D01*
X52114090Y-87598559D01*
X51901890Y-87453569D01*
X51650000Y-87402560D01*
X49950000Y-87402560D01*
X49714683Y-87446838D01*
X49498559Y-87585910D01*
X49353569Y-87798110D01*
X49302560Y-88050000D01*
X49302560Y-89750000D01*
X49346838Y-89985317D01*
X49485910Y-90201441D01*
X49698110Y-90346431D01*
X49765541Y-90360086D01*
X49720853Y-90389946D01*
X49398946Y-90871715D01*
X49285907Y-91440000D01*
X47234093Y-91440000D01*
X47121054Y-90871715D01*
X46799147Y-90389946D01*
X46757548Y-90362150D01*
X46805317Y-90353162D01*
X47021441Y-90214090D01*
X47166431Y-90001890D01*
X47217440Y-89750000D01*
X47217440Y-88050000D01*
X47173162Y-87814683D01*
X47034090Y-87598559D01*
X46821890Y-87453569D01*
X46570000Y-87402560D01*
X44870000Y-87402560D01*
X44634683Y-87446838D01*
X44418559Y-87585910D01*
X44273569Y-87798110D01*
X44222560Y-88050000D01*
X44222560Y-89750000D01*
X44266838Y-89985317D01*
X44405910Y-90201441D01*
X44618110Y-90346431D01*
X44685541Y-90360086D01*
X44640853Y-90389946D01*
X44318946Y-90871715D01*
X44205907Y-91440000D01*
X34417000Y-91440000D01*
X34417000Y-75335000D01*
X130567560Y-75335000D01*
X130567560Y-78335000D01*
X130611838Y-78570317D01*
X130750910Y-78786441D01*
X130963110Y-78931431D01*
X131215000Y-78982440D01*
X134215000Y-78982440D01*
X134450317Y-78938162D01*
X134666441Y-78799090D01*
X134811431Y-78586890D01*
X134862440Y-78335000D01*
X134862440Y-75335000D01*
X134818162Y-75099683D01*
X134679090Y-74883559D01*
X134466890Y-74738569D01*
X134215000Y-74687560D01*
X131215000Y-74687560D01*
X130979683Y-74731838D01*
X130763559Y-74870910D01*
X130618569Y-75083110D01*
X130567560Y-75335000D01*
X34417000Y-75335000D01*
X34417000Y-69339482D01*
X35534336Y-69339482D01*
X36116950Y-70749515D01*
X37194811Y-71829259D01*
X38603825Y-72414333D01*
X40129482Y-72415664D01*
X41539515Y-71833050D01*
X42619259Y-70755189D01*
X43204333Y-69346175D01*
X43205664Y-67820518D01*
X43162065Y-67715000D01*
X44207560Y-67715000D01*
X44207560Y-70715000D01*
X44251838Y-70950317D01*
X44390910Y-71166441D01*
X44603110Y-71311431D01*
X44855000Y-71362440D01*
X47855000Y-71362440D01*
X48090317Y-71318162D01*
X48306441Y-71179090D01*
X48451431Y-70966890D01*
X48502440Y-70715000D01*
X48502440Y-69637815D01*
X49299630Y-69637815D01*
X49623980Y-70422800D01*
X50224041Y-71023909D01*
X51008459Y-71349628D01*
X51857815Y-71350370D01*
X52642800Y-71026020D01*
X53243909Y-70425959D01*
X53569628Y-69641541D01*
X53570370Y-68792185D01*
X53246020Y-68007200D01*
X52954330Y-67715000D01*
X54367560Y-67715000D01*
X54367560Y-70715000D01*
X54411838Y-70950317D01*
X54550910Y-71166441D01*
X54763110Y-71311431D01*
X55015000Y-71362440D01*
X58015000Y-71362440D01*
X58250317Y-71318162D01*
X58466441Y-71179090D01*
X58611431Y-70966890D01*
X58662440Y-70715000D01*
X58662440Y-69637815D01*
X59459630Y-69637815D01*
X59783980Y-70422800D01*
X60384041Y-71023909D01*
X61168459Y-71349628D01*
X62017815Y-71350370D01*
X62802800Y-71026020D01*
X63403909Y-70425959D01*
X63729628Y-69641541D01*
X63730370Y-68792185D01*
X63406020Y-68007200D01*
X63114330Y-67715000D01*
X64527560Y-67715000D01*
X64527560Y-70715000D01*
X64571838Y-70950317D01*
X64710910Y-71166441D01*
X64923110Y-71311431D01*
X65175000Y-71362440D01*
X68175000Y-71362440D01*
X68410317Y-71318162D01*
X68626441Y-71179090D01*
X68771431Y-70966890D01*
X68822440Y-70715000D01*
X68822440Y-69637815D01*
X69619630Y-69637815D01*
X69943980Y-70422800D01*
X70544041Y-71023909D01*
X71328459Y-71349628D01*
X72177815Y-71350370D01*
X72962800Y-71026020D01*
X73563909Y-70425959D01*
X73889628Y-69641541D01*
X73890370Y-68792185D01*
X73566020Y-68007200D01*
X73274330Y-67715000D01*
X74687560Y-67715000D01*
X74687560Y-70715000D01*
X74731838Y-70950317D01*
X74870910Y-71166441D01*
X75083110Y-71311431D01*
X75335000Y-71362440D01*
X78335000Y-71362440D01*
X78570317Y-71318162D01*
X78786441Y-71179090D01*
X78931431Y-70966890D01*
X78982440Y-70715000D01*
X78982440Y-69637815D01*
X79779630Y-69637815D01*
X80103980Y-70422800D01*
X80704041Y-71023909D01*
X81488459Y-71349628D01*
X82337815Y-71350370D01*
X83122800Y-71026020D01*
X83723909Y-70425959D01*
X84049628Y-69641541D01*
X84049750Y-69500750D01*
X84860000Y-69500750D01*
X84860000Y-70841310D01*
X84956673Y-71074699D01*
X85135302Y-71253327D01*
X85368691Y-71350000D01*
X86709250Y-71350000D01*
X86868000Y-71191250D01*
X86868000Y-69342000D01*
X87122000Y-69342000D01*
X87122000Y-71191250D01*
X87280750Y-71350000D01*
X88621309Y-71350000D01*
X88854698Y-71253327D01*
X89033327Y-71074699D01*
X89130000Y-70841310D01*
X89130000Y-69637815D01*
X89939630Y-69637815D01*
X90263980Y-70422800D01*
X90864041Y-71023909D01*
X91648459Y-71349628D01*
X92497815Y-71350370D01*
X93282800Y-71026020D01*
X93883909Y-70425959D01*
X94209628Y-69641541D01*
X94209750Y-69500750D01*
X95020000Y-69500750D01*
X95020000Y-70841310D01*
X95116673Y-71074699D01*
X95295302Y-71253327D01*
X95528691Y-71350000D01*
X96869250Y-71350000D01*
X97028000Y-71191250D01*
X97028000Y-69342000D01*
X97282000Y-69342000D01*
X97282000Y-71191250D01*
X97440750Y-71350000D01*
X98781309Y-71350000D01*
X99014698Y-71253327D01*
X99193327Y-71074699D01*
X99290000Y-70841310D01*
X99290000Y-69637815D01*
X100099630Y-69637815D01*
X100423980Y-70422800D01*
X101024041Y-71023909D01*
X101808459Y-71349628D01*
X102657815Y-71350370D01*
X103442800Y-71026020D01*
X104043909Y-70425959D01*
X104369628Y-69641541D01*
X104369750Y-69500750D01*
X105180000Y-69500750D01*
X105180000Y-70841310D01*
X105276673Y-71074699D01*
X105455302Y-71253327D01*
X105688691Y-71350000D01*
X107029250Y-71350000D01*
X107188000Y-71191250D01*
X107188000Y-69342000D01*
X107442000Y-69342000D01*
X107442000Y-71191250D01*
X107600750Y-71350000D01*
X108941309Y-71350000D01*
X109174698Y-71253327D01*
X109353327Y-71074699D01*
X109450000Y-70841310D01*
X109450000Y-69637815D01*
X110259630Y-69637815D01*
X110583980Y-70422800D01*
X111184041Y-71023909D01*
X111968459Y-71349628D01*
X112817815Y-71350370D01*
X113602800Y-71026020D01*
X114203909Y-70425959D01*
X114529628Y-69641541D01*
X114529750Y-69500750D01*
X115340000Y-69500750D01*
X115340000Y-70841310D01*
X115436673Y-71074699D01*
X115615302Y-71253327D01*
X115848691Y-71350000D01*
X117189250Y-71350000D01*
X117348000Y-71191250D01*
X117348000Y-69342000D01*
X117602000Y-69342000D01*
X117602000Y-71191250D01*
X117760750Y-71350000D01*
X119101309Y-71350000D01*
X119334698Y-71253327D01*
X119513327Y-71074699D01*
X119610000Y-70841310D01*
X119610000Y-69637815D01*
X120419630Y-69637815D01*
X120743980Y-70422800D01*
X121344041Y-71023909D01*
X122128459Y-71349628D01*
X122977815Y-71350370D01*
X123762800Y-71026020D01*
X124363909Y-70425959D01*
X124689628Y-69641541D01*
X124689891Y-69339482D01*
X129514336Y-69339482D01*
X130096950Y-70749515D01*
X131174811Y-71829259D01*
X132583825Y-72414333D01*
X134109482Y-72415664D01*
X135519515Y-71833050D01*
X136599259Y-70755189D01*
X137184333Y-69346175D01*
X137185664Y-67820518D01*
X136603050Y-66410485D01*
X135525189Y-65330741D01*
X134116175Y-64745667D01*
X132590518Y-64744336D01*
X131180485Y-65326950D01*
X130100741Y-66404811D01*
X129515667Y-67813825D01*
X129514336Y-69339482D01*
X124689891Y-69339482D01*
X124690370Y-68792185D01*
X124366020Y-68007200D01*
X123765959Y-67406091D01*
X122981541Y-67080372D01*
X122132185Y-67079630D01*
X121347200Y-67403980D01*
X120746091Y-68004041D01*
X120420372Y-68788459D01*
X120419630Y-69637815D01*
X119610000Y-69637815D01*
X119610000Y-69500750D01*
X119451250Y-69342000D01*
X117602000Y-69342000D01*
X117348000Y-69342000D01*
X115498750Y-69342000D01*
X115340000Y-69500750D01*
X114529750Y-69500750D01*
X114530370Y-68792185D01*
X114206020Y-68007200D01*
X113788240Y-67588690D01*
X115340000Y-67588690D01*
X115340000Y-68929250D01*
X115498750Y-69088000D01*
X117348000Y-69088000D01*
X117348000Y-67238750D01*
X117602000Y-67238750D01*
X117602000Y-69088000D01*
X119451250Y-69088000D01*
X119610000Y-68929250D01*
X119610000Y-67588690D01*
X119513327Y-67355301D01*
X119334698Y-67176673D01*
X119101309Y-67080000D01*
X117760750Y-67080000D01*
X117602000Y-67238750D01*
X117348000Y-67238750D01*
X117189250Y-67080000D01*
X115848691Y-67080000D01*
X115615302Y-67176673D01*
X115436673Y-67355301D01*
X115340000Y-67588690D01*
X113788240Y-67588690D01*
X113605959Y-67406091D01*
X112821541Y-67080372D01*
X111972185Y-67079630D01*
X111187200Y-67403980D01*
X110586091Y-68004041D01*
X110260372Y-68788459D01*
X110259630Y-69637815D01*
X109450000Y-69637815D01*
X109450000Y-69500750D01*
X109291250Y-69342000D01*
X107442000Y-69342000D01*
X107188000Y-69342000D01*
X105338750Y-69342000D01*
X105180000Y-69500750D01*
X104369750Y-69500750D01*
X104370370Y-68792185D01*
X104046020Y-68007200D01*
X103628240Y-67588690D01*
X105180000Y-67588690D01*
X105180000Y-68929250D01*
X105338750Y-69088000D01*
X107188000Y-69088000D01*
X107188000Y-67238750D01*
X107442000Y-67238750D01*
X107442000Y-69088000D01*
X109291250Y-69088000D01*
X109450000Y-68929250D01*
X109450000Y-67588690D01*
X109353327Y-67355301D01*
X109174698Y-67176673D01*
X108941309Y-67080000D01*
X107600750Y-67080000D01*
X107442000Y-67238750D01*
X107188000Y-67238750D01*
X107029250Y-67080000D01*
X105688691Y-67080000D01*
X105455302Y-67176673D01*
X105276673Y-67355301D01*
X105180000Y-67588690D01*
X103628240Y-67588690D01*
X103445959Y-67406091D01*
X102661541Y-67080372D01*
X101812185Y-67079630D01*
X101027200Y-67403980D01*
X100426091Y-68004041D01*
X100100372Y-68788459D01*
X100099630Y-69637815D01*
X99290000Y-69637815D01*
X99290000Y-69500750D01*
X99131250Y-69342000D01*
X97282000Y-69342000D01*
X97028000Y-69342000D01*
X95178750Y-69342000D01*
X95020000Y-69500750D01*
X94209750Y-69500750D01*
X94210370Y-68792185D01*
X93886020Y-68007200D01*
X93468240Y-67588690D01*
X95020000Y-67588690D01*
X95020000Y-68929250D01*
X95178750Y-69088000D01*
X97028000Y-69088000D01*
X97028000Y-67238750D01*
X97282000Y-67238750D01*
X97282000Y-69088000D01*
X99131250Y-69088000D01*
X99290000Y-68929250D01*
X99290000Y-67588690D01*
X99193327Y-67355301D01*
X99014698Y-67176673D01*
X98781309Y-67080000D01*
X97440750Y-67080000D01*
X97282000Y-67238750D01*
X97028000Y-67238750D01*
X96869250Y-67080000D01*
X95528691Y-67080000D01*
X95295302Y-67176673D01*
X95116673Y-67355301D01*
X95020000Y-67588690D01*
X93468240Y-67588690D01*
X93285959Y-67406091D01*
X92501541Y-67080372D01*
X91652185Y-67079630D01*
X90867200Y-67403980D01*
X90266091Y-68004041D01*
X89940372Y-68788459D01*
X89939630Y-69637815D01*
X89130000Y-69637815D01*
X89130000Y-69500750D01*
X88971250Y-69342000D01*
X87122000Y-69342000D01*
X86868000Y-69342000D01*
X85018750Y-69342000D01*
X84860000Y-69500750D01*
X84049750Y-69500750D01*
X84050370Y-68792185D01*
X83726020Y-68007200D01*
X83308240Y-67588690D01*
X84860000Y-67588690D01*
X84860000Y-68929250D01*
X85018750Y-69088000D01*
X86868000Y-69088000D01*
X86868000Y-67238750D01*
X87122000Y-67238750D01*
X87122000Y-69088000D01*
X88971250Y-69088000D01*
X89130000Y-68929250D01*
X89130000Y-67588690D01*
X89033327Y-67355301D01*
X88854698Y-67176673D01*
X88621309Y-67080000D01*
X87280750Y-67080000D01*
X87122000Y-67238750D01*
X86868000Y-67238750D01*
X86709250Y-67080000D01*
X85368691Y-67080000D01*
X85135302Y-67176673D01*
X84956673Y-67355301D01*
X84860000Y-67588690D01*
X83308240Y-67588690D01*
X83125959Y-67406091D01*
X82341541Y-67080372D01*
X81492185Y-67079630D01*
X80707200Y-67403980D01*
X80106091Y-68004041D01*
X79780372Y-68788459D01*
X79779630Y-69637815D01*
X78982440Y-69637815D01*
X78982440Y-67715000D01*
X78938162Y-67479683D01*
X78799090Y-67263559D01*
X78586890Y-67118569D01*
X78335000Y-67067560D01*
X75335000Y-67067560D01*
X75099683Y-67111838D01*
X74883559Y-67250910D01*
X74738569Y-67463110D01*
X74687560Y-67715000D01*
X73274330Y-67715000D01*
X72965959Y-67406091D01*
X72181541Y-67080372D01*
X71332185Y-67079630D01*
X70547200Y-67403980D01*
X69946091Y-68004041D01*
X69620372Y-68788459D01*
X69619630Y-69637815D01*
X68822440Y-69637815D01*
X68822440Y-67715000D01*
X68778162Y-67479683D01*
X68639090Y-67263559D01*
X68426890Y-67118569D01*
X68175000Y-67067560D01*
X65175000Y-67067560D01*
X64939683Y-67111838D01*
X64723559Y-67250910D01*
X64578569Y-67463110D01*
X64527560Y-67715000D01*
X63114330Y-67715000D01*
X62805959Y-67406091D01*
X62021541Y-67080372D01*
X61172185Y-67079630D01*
X60387200Y-67403980D01*
X59786091Y-68004041D01*
X59460372Y-68788459D01*
X59459630Y-69637815D01*
X58662440Y-69637815D01*
X58662440Y-67715000D01*
X58618162Y-67479683D01*
X58479090Y-67263559D01*
X58266890Y-67118569D01*
X58015000Y-67067560D01*
X55015000Y-67067560D01*
X54779683Y-67111838D01*
X54563559Y-67250910D01*
X54418569Y-67463110D01*
X54367560Y-67715000D01*
X52954330Y-67715000D01*
X52645959Y-67406091D01*
X51861541Y-67080372D01*
X51012185Y-67079630D01*
X50227200Y-67403980D01*
X49626091Y-68004041D01*
X49300372Y-68788459D01*
X49299630Y-69637815D01*
X48502440Y-69637815D01*
X48502440Y-67715000D01*
X48458162Y-67479683D01*
X48319090Y-67263559D01*
X48106890Y-67118569D01*
X47855000Y-67067560D01*
X44855000Y-67067560D01*
X44619683Y-67111838D01*
X44403559Y-67250910D01*
X44258569Y-67463110D01*
X44207560Y-67715000D01*
X43162065Y-67715000D01*
X42623050Y-66410485D01*
X41545189Y-65330741D01*
X40136175Y-64745667D01*
X38610518Y-64744336D01*
X37200485Y-65326950D01*
X36120741Y-66404811D01*
X35535667Y-67813825D01*
X35534336Y-69339482D01*
X34417000Y-69339482D01*
X34417000Y-63627000D01*
X138303000Y-63627000D01*
X138303000Y-83085587D01*
X138303000Y-83085587D01*
G37*
X138303000Y-83085587D02*
X138139343Y-82840657D01*
X136234343Y-80935657D01*
X136003539Y-80781439D01*
X135785017Y-80635427D01*
X135255000Y-80530000D01*
X134349129Y-80530000D01*
X133925959Y-80106091D01*
X133141541Y-79780372D01*
X132292185Y-79779630D01*
X131507200Y-80103980D01*
X130906091Y-80704041D01*
X130580372Y-81488459D01*
X130579630Y-82337815D01*
X130903980Y-83122800D01*
X131504041Y-83723909D01*
X132288459Y-84049628D01*
X133137815Y-84050370D01*
X133922800Y-83726020D01*
X134349564Y-83300000D01*
X134681314Y-83300000D01*
X135775000Y-84393686D01*
X135775000Y-90690000D01*
X134349129Y-90690000D01*
X133925959Y-90266091D01*
X133141541Y-89940372D01*
X132292185Y-89939630D01*
X131507200Y-90263980D01*
X130906091Y-90864041D01*
X130580372Y-91648459D01*
X130579630Y-92497815D01*
X130903980Y-93282800D01*
X131504041Y-93883909D01*
X132288459Y-94209628D01*
X133137815Y-94210370D01*
X133922800Y-93886020D01*
X134349564Y-93460000D01*
X135775000Y-93460000D01*
X135775000Y-120076314D01*
X134851968Y-120999346D01*
X134818162Y-120819683D01*
X134679090Y-120603559D01*
X134466890Y-120458569D01*
X134215000Y-120407560D01*
X131215000Y-120407560D01*
X130979683Y-120451838D01*
X130763559Y-120590910D01*
X130618569Y-120803110D01*
X130567560Y-121055000D01*
X130567560Y-124055000D01*
X130611838Y-124290317D01*
X130750910Y-124506441D01*
X130963110Y-124651431D01*
X131215000Y-124702440D01*
X134215000Y-124702440D01*
X134450317Y-124658162D01*
X134666441Y-124519090D01*
X134811431Y-124306890D01*
X134862440Y-124055000D01*
X134862440Y-123940000D01*
X135255000Y-123940000D01*
X135785017Y-123834573D01*
X136234343Y-123534343D01*
X138139343Y-121629343D01*
X138303000Y-121384413D01*
X138303000Y-139573000D01*
X34417000Y-139573000D01*
X34417000Y-135379482D01*
X35534336Y-135379482D01*
X36116950Y-136789515D01*
X37194811Y-137869259D01*
X38603825Y-138454333D01*
X40129482Y-138455664D01*
X41539515Y-137873050D01*
X42619259Y-136795189D01*
X43204333Y-135386175D01*
X43204338Y-135379482D01*
X129514336Y-135379482D01*
X130096950Y-136789515D01*
X131174811Y-137869259D01*
X132583825Y-138454333D01*
X134109482Y-138455664D01*
X135519515Y-137873050D01*
X136599259Y-136795189D01*
X137184333Y-135386175D01*
X137185664Y-133860518D01*
X136603050Y-132450485D01*
X135525189Y-131370741D01*
X134116175Y-130785667D01*
X132590518Y-130784336D01*
X131180485Y-131366950D01*
X130100741Y-132444811D01*
X129515667Y-133853825D01*
X129514336Y-135379482D01*
X43204338Y-135379482D01*
X43205664Y-133860518D01*
X42623050Y-132450485D01*
X41545189Y-131370741D01*
X40136175Y-130785667D01*
X38610518Y-130784336D01*
X37200485Y-131366950D01*
X36120741Y-132444811D01*
X35535667Y-133853825D01*
X35534336Y-135379482D01*
X34417000Y-135379482D01*
X34417000Y-129148970D01*
X131380635Y-129148970D01*
X131540418Y-129467739D01*
X132331187Y-129777723D01*
X133180387Y-129761497D01*
X133889582Y-129467739D01*
X134049365Y-129148970D01*
X132715000Y-127814605D01*
X131380635Y-129148970D01*
X34417000Y-129148970D01*
X34417000Y-127285750D01*
X48045000Y-127285750D01*
X48045000Y-127976309D01*
X48141673Y-128209698D01*
X48320301Y-128388327D01*
X48553690Y-128485000D01*
X49244250Y-128485000D01*
X49403000Y-128326250D01*
X49403000Y-127127000D01*
X48203750Y-127127000D01*
X48045000Y-127285750D01*
X34417000Y-127285750D01*
X34417000Y-126023691D01*
X48045000Y-126023691D01*
X48045000Y-126714250D01*
X48203750Y-126873000D01*
X49403000Y-126873000D01*
X49403000Y-124587000D01*
X48209181Y-124587000D01*
X48088514Y-124816892D01*
X48334817Y-125341358D01*
X48534208Y-125523070D01*
X48320301Y-125611673D01*
X48141673Y-125790302D01*
X48045000Y-126023691D01*
X34417000Y-126023691D01*
X34417000Y-124103108D01*
X48088514Y-124103108D01*
X48209181Y-124333000D01*
X49403000Y-124333000D01*
X49403000Y-123139845D01*
X49173110Y-123018524D01*
X48763076Y-123188355D01*
X48334817Y-123578642D01*
X48088514Y-124103108D01*
X34417000Y-124103108D01*
X34417000Y-96520000D01*
X44205907Y-96520000D01*
X44318946Y-97088285D01*
X44640853Y-97570054D01*
X44970026Y-97790000D01*
X44640853Y-98009946D01*
X44318946Y-98491715D01*
X44205907Y-99060000D01*
X44318946Y-99628285D01*
X44640853Y-100110054D01*
X44970026Y-100330000D01*
X44640853Y-100549946D01*
X44318946Y-101031715D01*
X44205907Y-101600000D01*
X44318946Y-102168285D01*
X44640853Y-102650054D01*
X44885000Y-102813187D01*
X44885000Y-104140000D01*
X44948561Y-104459541D01*
X45088479Y-104668943D01*
X45129566Y-104730434D01*
X48939566Y-108540434D01*
X49210460Y-108721440D01*
X49530000Y-108785000D01*
X79582766Y-108785000D01*
X79823201Y-108884838D01*
X80195167Y-108885162D01*
X80538943Y-108743117D01*
X80802192Y-108480327D01*
X80944838Y-108136799D01*
X80945162Y-107764833D01*
X80841933Y-107515000D01*
X80852766Y-107515000D01*
X81093201Y-107614838D01*
X81465167Y-107615162D01*
X81808943Y-107473117D01*
X82072192Y-107210327D01*
X82214838Y-106866799D01*
X82215162Y-106494833D01*
X82073117Y-106151057D01*
X81810327Y-105887808D01*
X81466799Y-105745162D01*
X81094833Y-105744838D01*
X80852422Y-105845000D01*
X78301775Y-105845000D01*
X78404838Y-105596799D01*
X78405162Y-105224833D01*
X78301933Y-104975000D01*
X78312766Y-104975000D01*
X78553201Y-105074838D01*
X78925167Y-105075162D01*
X79268943Y-104933117D01*
X79532192Y-104670327D01*
X79674838Y-104326799D01*
X79675162Y-103954833D01*
X79533117Y-103611057D01*
X79270327Y-103347808D01*
X78926799Y-103205162D01*
X78554833Y-103204838D01*
X78312422Y-103305000D01*
X54955868Y-103305000D01*
X54175000Y-102524132D01*
X54175000Y-100330000D01*
X54111439Y-100010459D01*
X53930434Y-99739566D01*
X52660434Y-98469566D01*
X52389541Y-98288561D01*
X52070000Y-98225000D01*
X52022841Y-98225000D01*
X51879147Y-98009946D01*
X51549974Y-97790000D01*
X51879147Y-97570054D01*
X52022841Y-97355000D01*
X54657159Y-97355000D01*
X54800853Y-97570054D01*
X55130026Y-97790000D01*
X54800853Y-98009946D01*
X54478946Y-98491715D01*
X54365907Y-99060000D01*
X54478946Y-99628285D01*
X54800853Y-100110054D01*
X55130026Y-100330000D01*
X54800853Y-100549946D01*
X54478946Y-101031715D01*
X54365907Y-101600000D01*
X54478946Y-102168285D01*
X54800853Y-102650054D01*
X55282622Y-102971961D01*
X55850907Y-103085000D01*
X55909093Y-103085000D01*
X56477378Y-102971961D01*
X56959147Y-102650054D01*
X57281054Y-102168285D01*
X57394093Y-101600000D01*
X57338807Y-101322061D01*
X57495868Y-101165000D01*
X59532434Y-101165000D01*
X59445907Y-101600000D01*
X59558946Y-102168285D01*
X59880853Y-102650054D01*
X60362622Y-102971961D01*
X60930907Y-103085000D01*
X60989093Y-103085000D01*
X61557378Y-102971961D01*
X62039147Y-102650054D01*
X62182841Y-102435000D01*
X71962766Y-102435000D01*
X72203201Y-102534838D01*
X72575167Y-102535162D01*
X72918943Y-102393117D01*
X73182192Y-102130327D01*
X73324838Y-101786799D01*
X73325162Y-101414833D01*
X73221933Y-101165000D01*
X74502766Y-101165000D01*
X74743201Y-101264838D01*
X75115167Y-101265162D01*
X75458943Y-101123117D01*
X75722192Y-100860327D01*
X75864838Y-100516799D01*
X75865162Y-100144833D01*
X75723117Y-99801057D01*
X75460327Y-99537808D01*
X75116799Y-99395162D01*
X74744833Y-99394838D01*
X74502422Y-99495000D01*
X74491775Y-99495000D01*
X74594838Y-99246799D01*
X74595162Y-98874833D01*
X74491933Y-98625000D01*
X75772766Y-98625000D01*
X76013201Y-98724838D01*
X76385167Y-98725162D01*
X76728943Y-98583117D01*
X76992192Y-98320327D01*
X77134838Y-97976799D01*
X77135162Y-97604833D01*
X77031933Y-97355000D01*
X83474132Y-97355000D01*
X88065000Y-101945868D01*
X88065000Y-113237766D01*
X87965162Y-113478201D01*
X87964838Y-113850167D01*
X88068067Y-114100000D01*
X84455000Y-114100000D01*
X84135459Y-114163561D01*
X83931264Y-114300000D01*
X83864566Y-114344566D01*
X81959566Y-116249566D01*
X81778561Y-116520459D01*
X81715000Y-116840000D01*
X81715000Y-123237159D01*
X81499946Y-123380853D01*
X81280000Y-123710026D01*
X81060054Y-123380853D01*
X80578285Y-123058946D01*
X80010000Y-122945907D01*
X79441715Y-123058946D01*
X78959946Y-123380853D01*
X78740000Y-123710026D01*
X78520054Y-123380853D01*
X78038285Y-123058946D01*
X77470000Y-122945907D01*
X76901715Y-123058946D01*
X76419946Y-123380853D01*
X76200000Y-123710026D01*
X75980054Y-123380853D01*
X75498285Y-123058946D01*
X74930000Y-122945907D01*
X74361715Y-123058946D01*
X73879946Y-123380853D01*
X73660000Y-123710026D01*
X73440054Y-123380853D01*
X72958285Y-123058946D01*
X72390000Y-122945907D01*
X71821715Y-123058946D01*
X71339946Y-123380853D01*
X71120000Y-123710026D01*
X70900054Y-123380853D01*
X70418285Y-123058946D01*
X69850000Y-122945907D01*
X69572061Y-123001193D01*
X69415000Y-122844132D01*
X69415000Y-116997566D01*
X69850000Y-117084093D01*
X70418285Y-116971054D01*
X70900054Y-116649147D01*
X71221961Y-116167378D01*
X71335000Y-115599093D01*
X71335000Y-115540907D01*
X71221961Y-114972622D01*
X70900054Y-114490853D01*
X70614422Y-114300000D01*
X70900054Y-114109147D01*
X71221961Y-113627378D01*
X71335000Y-113059093D01*
X71335000Y-113000907D01*
X71221961Y-112432622D01*
X70900054Y-111950853D01*
X70418285Y-111628946D01*
X69850000Y-111515907D01*
X69281715Y-111628946D01*
X68799946Y-111950853D01*
X68580000Y-112280026D01*
X68360054Y-111950853D01*
X67878285Y-111628946D01*
X67310000Y-111515907D01*
X66741715Y-111628946D01*
X66259946Y-111950853D01*
X66040000Y-112280026D01*
X65820054Y-111950853D01*
X65338285Y-111628946D01*
X64770000Y-111515907D01*
X64201715Y-111628946D01*
X63719946Y-111950853D01*
X63500000Y-112280026D01*
X63280054Y-111950853D01*
X62798285Y-111628946D01*
X62230000Y-111515907D01*
X61661715Y-111628946D01*
X61179946Y-111950853D01*
X60960000Y-112280026D01*
X60740054Y-111950853D01*
X60258285Y-111628946D01*
X59690000Y-111515907D01*
X59121715Y-111628946D01*
X58639946Y-111950853D01*
X58420000Y-112280026D01*
X58200054Y-111950853D01*
X57718285Y-111628946D01*
X57150000Y-111515907D01*
X56581715Y-111628946D01*
X56099946Y-111950853D01*
X55880000Y-112280026D01*
X55660054Y-111950853D01*
X55178285Y-111628946D01*
X54610000Y-111515907D01*
X54041715Y-111628946D01*
X53559946Y-111950853D01*
X53340000Y-112280026D01*
X53120054Y-111950853D01*
X52638285Y-111628946D01*
X52070000Y-111515907D01*
X51501715Y-111628946D01*
X51019946Y-111950853D01*
X50698039Y-112432622D01*
X50585000Y-113000907D01*
X50585000Y-113059093D01*
X50630632Y-113288500D01*
X50209566Y-113709566D01*
X50028561Y-113980459D01*
X49965000Y-114300000D01*
X49965000Y-123050876D01*
X49886890Y-123018524D01*
X49657000Y-123139845D01*
X49657000Y-124333000D01*
X49677000Y-124333000D01*
X49677000Y-124587000D01*
X49657000Y-124587000D01*
X49657000Y-126873000D01*
X49677000Y-126873000D01*
X49677000Y-127127000D01*
X49657000Y-127127000D01*
X49657000Y-128326250D01*
X49815750Y-128485000D01*
X50506310Y-128485000D01*
X50739699Y-128388327D01*
X50918327Y-128209698D01*
X50990597Y-128035223D01*
X51019946Y-128079147D01*
X51501715Y-128401054D01*
X52070000Y-128514093D01*
X52638285Y-128401054D01*
X53120054Y-128079147D01*
X53340000Y-127749974D01*
X53559946Y-128079147D01*
X54041715Y-128401054D01*
X54610000Y-128514093D01*
X55178285Y-128401054D01*
X55660054Y-128079147D01*
X55880000Y-127749974D01*
X56099946Y-128079147D01*
X56581715Y-128401054D01*
X57150000Y-128514093D01*
X57718285Y-128401054D01*
X58200054Y-128079147D01*
X58420000Y-127749974D01*
X58639946Y-128079147D01*
X59121715Y-128401054D01*
X59690000Y-128514093D01*
X60258285Y-128401054D01*
X60740054Y-128079147D01*
X60960000Y-127749974D01*
X61179946Y-128079147D01*
X61661715Y-128401054D01*
X62230000Y-128514093D01*
X62798285Y-128401054D01*
X63280054Y-128079147D01*
X63500000Y-127749974D01*
X63719946Y-128079147D01*
X64201715Y-128401054D01*
X64770000Y-128514093D01*
X65338285Y-128401054D01*
X65820054Y-128079147D01*
X66040000Y-127749974D01*
X66259946Y-128079147D01*
X66741715Y-128401054D01*
X67310000Y-128514093D01*
X67878285Y-128401054D01*
X68360054Y-128079147D01*
X68580000Y-127749974D01*
X68799946Y-128079147D01*
X69281715Y-128401054D01*
X69850000Y-128514093D01*
X70418285Y-128401054D01*
X70900054Y-128079147D01*
X71120000Y-127749974D01*
X71339946Y-128079147D01*
X71821715Y-128401054D01*
X72390000Y-128514093D01*
X72958285Y-128401054D01*
X73440054Y-128079147D01*
X73660000Y-127749974D01*
X73879946Y-128079147D01*
X74361715Y-128401054D01*
X74930000Y-128514093D01*
X75498285Y-128401054D01*
X75980054Y-128079147D01*
X76200000Y-127749974D01*
X76419946Y-128079147D01*
X76901715Y-128401054D01*
X77470000Y-128514093D01*
X78038285Y-128401054D01*
X78520054Y-128079147D01*
X78740000Y-127749974D01*
X78959946Y-128079147D01*
X79441715Y-128401054D01*
X80010000Y-128514093D01*
X80578285Y-128401054D01*
X81060054Y-128079147D01*
X81280000Y-127749974D01*
X81499946Y-128079147D01*
X81981715Y-128401054D01*
X82550000Y-128514093D01*
X83118285Y-128401054D01*
X83600054Y-128079147D01*
X83827702Y-127738447D01*
X83894817Y-127881358D01*
X84323076Y-128271645D01*
X84733110Y-128441476D01*
X84963000Y-128320155D01*
X84963000Y-127127000D01*
X85217000Y-127127000D01*
X85217000Y-128320155D01*
X85446890Y-128441476D01*
X85856924Y-128271645D01*
X86285183Y-127881358D01*
X86531486Y-127356892D01*
X86476003Y-127251187D01*
X130572277Y-127251187D01*
X130588503Y-128100387D01*
X130882261Y-128809582D01*
X131201030Y-128969365D01*
X132535395Y-127635000D01*
X132894605Y-127635000D01*
X134228970Y-128969365D01*
X134547739Y-128809582D01*
X134857723Y-128018813D01*
X134841497Y-127169613D01*
X134547739Y-126460418D01*
X134228970Y-126300635D01*
X132894605Y-127635000D01*
X132535395Y-127635000D01*
X131201030Y-126300635D01*
X130882261Y-126460418D01*
X130572277Y-127251187D01*
X86476003Y-127251187D01*
X86410819Y-127127000D01*
X85217000Y-127127000D01*
X84963000Y-127127000D01*
X84943000Y-127127000D01*
X84943000Y-126873000D01*
X84963000Y-126873000D01*
X84963000Y-124587000D01*
X85217000Y-124587000D01*
X85217000Y-126873000D01*
X86410819Y-126873000D01*
X86531486Y-126643108D01*
X86286305Y-126121030D01*
X131380635Y-126121030D01*
X132715000Y-127455395D01*
X134049365Y-126121030D01*
X133889582Y-125802261D01*
X133098813Y-125492277D01*
X132249613Y-125508503D01*
X131540418Y-125802261D01*
X131380635Y-126121030D01*
X86286305Y-126121030D01*
X86285183Y-126118642D01*
X85858729Y-125730000D01*
X86285183Y-125341358D01*
X86531486Y-124816892D01*
X86410819Y-124587000D01*
X85217000Y-124587000D01*
X84963000Y-124587000D01*
X84943000Y-124587000D01*
X84943000Y-124333000D01*
X84963000Y-124333000D01*
X84963000Y-123139845D01*
X85217000Y-123139845D01*
X85217000Y-124333000D01*
X86410819Y-124333000D01*
X86531486Y-124103108D01*
X86285183Y-123578642D01*
X85856924Y-123188355D01*
X85446890Y-123018524D01*
X85217000Y-123139845D01*
X84963000Y-123139845D01*
X84733110Y-123018524D01*
X84323076Y-123188355D01*
X83894817Y-123578642D01*
X83827702Y-123721553D01*
X83600054Y-123380853D01*
X83385000Y-123237159D01*
X83385000Y-117185868D01*
X84800868Y-115770000D01*
X110779132Y-115770000D01*
X111560000Y-116550868D01*
X111560000Y-123825000D01*
X111623561Y-124144541D01*
X111804566Y-124415434D01*
X113074566Y-125685434D01*
X113345459Y-125866439D01*
X113665000Y-125930000D01*
X118745000Y-125930000D01*
X119064541Y-125866439D01*
X119335434Y-125685434D01*
X119970434Y-125050434D01*
X120151440Y-124779540D01*
X120215000Y-124460000D01*
X120215000Y-124052440D01*
X120230000Y-124052440D01*
X120465317Y-124008162D01*
X120681441Y-123869090D01*
X120826431Y-123656890D01*
X120877440Y-123405000D01*
X120877440Y-121705000D01*
X120833162Y-121469683D01*
X120694090Y-121253559D01*
X120481890Y-121108569D01*
X120414459Y-121094914D01*
X120459147Y-121065054D01*
X120781054Y-120583285D01*
X120894093Y-120015000D01*
X120781054Y-119446715D01*
X120475200Y-118988970D01*
X131380635Y-118988970D01*
X131540418Y-119307739D01*
X132331187Y-119617723D01*
X133180387Y-119601497D01*
X133889582Y-119307739D01*
X134049365Y-118988970D01*
X132715000Y-117654605D01*
X131380635Y-118988970D01*
X120475200Y-118988970D01*
X120459147Y-118964946D01*
X120118447Y-118737298D01*
X120261358Y-118670183D01*
X120651645Y-118241924D01*
X120821476Y-117831890D01*
X120700155Y-117602000D01*
X119507000Y-117602000D01*
X119507000Y-117622000D01*
X119253000Y-117622000D01*
X119253000Y-117602000D01*
X118059845Y-117602000D01*
X117938524Y-117831890D01*
X118108355Y-118241924D01*
X118498642Y-118670183D01*
X118641553Y-118737298D01*
X118300853Y-118964946D01*
X117978946Y-119446715D01*
X117865907Y-120015000D01*
X117978946Y-120583285D01*
X118300853Y-121065054D01*
X118342452Y-121092850D01*
X118294683Y-121101838D01*
X118078559Y-121240910D01*
X117933569Y-121453110D01*
X117882560Y-121705000D01*
X117882560Y-123405000D01*
X117926838Y-123640317D01*
X118065910Y-123856441D01*
X118278110Y-124001431D01*
X118530000Y-124052440D01*
X118545000Y-124052440D01*
X118545000Y-124114132D01*
X118399132Y-124260000D01*
X114010868Y-124260000D01*
X113230000Y-123479132D01*
X113230000Y-120015000D01*
X114690907Y-120015000D01*
X114803946Y-120583285D01*
X115125853Y-121065054D01*
X115167452Y-121092850D01*
X115119683Y-121101838D01*
X114903559Y-121240910D01*
X114758569Y-121453110D01*
X114707560Y-121705000D01*
X114707560Y-123405000D01*
X114751838Y-123640317D01*
X114890910Y-123856441D01*
X115103110Y-124001431D01*
X115355000Y-124052440D01*
X117055000Y-124052440D01*
X117290317Y-124008162D01*
X117506441Y-123869090D01*
X117651431Y-123656890D01*
X117702440Y-123405000D01*
X117702440Y-121705000D01*
X117658162Y-121469683D01*
X117519090Y-121253559D01*
X117306890Y-121108569D01*
X117239459Y-121094914D01*
X117284147Y-121065054D01*
X117606054Y-120583285D01*
X117719093Y-120015000D01*
X117606054Y-119446715D01*
X117284147Y-118964946D01*
X116943447Y-118737298D01*
X117086358Y-118670183D01*
X117476645Y-118241924D01*
X117646476Y-117831890D01*
X117525155Y-117602000D01*
X116332000Y-117602000D01*
X116332000Y-117622000D01*
X116078000Y-117622000D01*
X116078000Y-117602000D01*
X114884845Y-117602000D01*
X114763524Y-117831890D01*
X114933355Y-118241924D01*
X115323642Y-118670183D01*
X115466553Y-118737298D01*
X115125853Y-118964946D01*
X114803946Y-119446715D01*
X114690907Y-120015000D01*
X113230000Y-120015000D01*
X113230000Y-117118110D01*
X114763524Y-117118110D01*
X114884845Y-117348000D01*
X116078000Y-117348000D01*
X116078000Y-116154181D01*
X116332000Y-116154181D01*
X116332000Y-117348000D01*
X117525155Y-117348000D01*
X117646476Y-117118110D01*
X117938524Y-117118110D01*
X118059845Y-117348000D01*
X119253000Y-117348000D01*
X119253000Y-116154181D01*
X119507000Y-116154181D01*
X119507000Y-117348000D01*
X120700155Y-117348000D01*
X120821476Y-117118110D01*
X120810325Y-117091187D01*
X130572277Y-117091187D01*
X130588503Y-117940387D01*
X130882261Y-118649582D01*
X131201030Y-118809365D01*
X132535395Y-117475000D01*
X132894605Y-117475000D01*
X134228970Y-118809365D01*
X134547739Y-118649582D01*
X134857723Y-117858813D01*
X134841497Y-117009613D01*
X134547739Y-116300418D01*
X134228970Y-116140635D01*
X132894605Y-117475000D01*
X132535395Y-117475000D01*
X131201030Y-116140635D01*
X130882261Y-116300418D01*
X130572277Y-117091187D01*
X120810325Y-117091187D01*
X120651645Y-116708076D01*
X120261358Y-116279817D01*
X119736892Y-116033514D01*
X119507000Y-116154181D01*
X119253000Y-116154181D01*
X119023108Y-116033514D01*
X118498642Y-116279817D01*
X118108355Y-116708076D01*
X117938524Y-117118110D01*
X117646476Y-117118110D01*
X117476645Y-116708076D01*
X117086358Y-116279817D01*
X116561892Y-116033514D01*
X116332000Y-116154181D01*
X116078000Y-116154181D01*
X115848108Y-116033514D01*
X115323642Y-116279817D01*
X114933355Y-116708076D01*
X114763524Y-117118110D01*
X113230000Y-117118110D01*
X113230000Y-116205000D01*
X113181472Y-115961030D01*
X131380635Y-115961030D01*
X132715000Y-117295395D01*
X134049365Y-115961030D01*
X133889582Y-115642261D01*
X133098813Y-115332277D01*
X132249613Y-115348503D01*
X131540418Y-115642261D01*
X131380635Y-115961030D01*
X113181472Y-115961030D01*
X113166439Y-115885459D01*
X112985434Y-115614566D01*
X111715434Y-114344566D01*
X111648736Y-114300000D01*
X111444541Y-114163561D01*
X111125000Y-114100000D01*
X92271775Y-114100000D01*
X92374838Y-113851799D01*
X92375162Y-113479833D01*
X92275000Y-113237422D01*
X92275000Y-113230000D01*
X130567560Y-113230000D01*
X130567560Y-113895000D01*
X130611838Y-114130317D01*
X130750910Y-114346441D01*
X130963110Y-114491431D01*
X131215000Y-114542440D01*
X134215000Y-114542440D01*
X134450317Y-114498162D01*
X134666441Y-114359090D01*
X134811431Y-114146890D01*
X134862440Y-113895000D01*
X134862440Y-110895000D01*
X134818162Y-110659683D01*
X134679090Y-110443559D01*
X134466890Y-110298569D01*
X134215000Y-110247560D01*
X131215000Y-110247560D01*
X130979683Y-110291838D01*
X130763559Y-110430910D01*
X130618569Y-110643110D01*
X130567560Y-110895000D01*
X130567560Y-111560000D01*
X92275000Y-111560000D01*
X92275000Y-102235000D01*
X92266135Y-102190434D01*
X92211440Y-101915460D01*
X92030434Y-101644566D01*
X85045434Y-94659566D01*
X84964409Y-94605427D01*
X84774541Y-94478561D01*
X84455000Y-94415000D01*
X71465868Y-94415000D01*
X70685000Y-93634132D01*
X70685000Y-89046551D01*
X70811012Y-89235142D01*
X71244118Y-89524533D01*
X71755000Y-89626154D01*
X72265882Y-89524533D01*
X72698988Y-89235142D01*
X72988379Y-88802036D01*
X73090000Y-88291154D01*
X73090000Y-88238846D01*
X72988379Y-87727964D01*
X72698988Y-87294858D01*
X72265882Y-87005467D01*
X71755000Y-86903846D01*
X71244118Y-87005467D01*
X70811012Y-87294858D01*
X70685000Y-87483449D01*
X70685000Y-81488665D01*
X70775657Y-81624343D01*
X70987824Y-81766108D01*
X70997796Y-81776098D01*
X71010947Y-81781559D01*
X71224983Y-81924573D01*
X71475249Y-81974354D01*
X71488287Y-81979768D01*
X71502529Y-81979780D01*
X71755000Y-82030000D01*
X73086314Y-82030000D01*
X73545000Y-82488686D01*
X73545000Y-88265000D01*
X73650427Y-88795017D01*
X73852982Y-89098162D01*
X73950657Y-89244343D01*
X77125657Y-92419343D01*
X77574983Y-92719573D01*
X78105000Y-92825000D01*
X119441314Y-92825000D01*
X123075000Y-96458686D01*
X123075000Y-104140000D01*
X123180427Y-104670017D01*
X123341740Y-104911439D01*
X123480657Y-105119343D01*
X126655657Y-108294343D01*
X127104983Y-108594573D01*
X127635000Y-108700000D01*
X131080871Y-108700000D01*
X131504041Y-109123909D01*
X132288459Y-109449628D01*
X133137815Y-109450370D01*
X133922800Y-109126020D01*
X134523909Y-108525959D01*
X134849628Y-107741541D01*
X134850370Y-106892185D01*
X134526020Y-106107200D01*
X133925959Y-105506091D01*
X133141541Y-105180372D01*
X132292185Y-105179630D01*
X131507200Y-105503980D01*
X131080436Y-105930000D01*
X128208686Y-105930000D01*
X126027656Y-103748970D01*
X131380635Y-103748970D01*
X131540418Y-104067739D01*
X132331187Y-104377723D01*
X133180387Y-104361497D01*
X133889582Y-104067739D01*
X134049365Y-103748970D01*
X132715000Y-102414605D01*
X131380635Y-103748970D01*
X126027656Y-103748970D01*
X125845000Y-103566314D01*
X125845000Y-101851187D01*
X130572277Y-101851187D01*
X130588503Y-102700387D01*
X130882261Y-103409582D01*
X131201030Y-103569365D01*
X132535395Y-102235000D01*
X132894605Y-102235000D01*
X134228970Y-103569365D01*
X134547739Y-103409582D01*
X134857723Y-102618813D01*
X134841497Y-101769613D01*
X134547739Y-101060418D01*
X134228970Y-100900635D01*
X132894605Y-102235000D01*
X132535395Y-102235000D01*
X131201030Y-100900635D01*
X130882261Y-101060418D01*
X130572277Y-101851187D01*
X125845000Y-101851187D01*
X125845000Y-100721030D01*
X131380635Y-100721030D01*
X132715000Y-102055395D01*
X134049365Y-100721030D01*
X133889582Y-100402261D01*
X133098813Y-100092277D01*
X132249613Y-100108503D01*
X131540418Y-100402261D01*
X131380635Y-100721030D01*
X125845000Y-100721030D01*
X125845000Y-95885000D01*
X125799251Y-95655000D01*
X130567560Y-95655000D01*
X130567560Y-98655000D01*
X130611838Y-98890317D01*
X130750910Y-99106441D01*
X130963110Y-99251431D01*
X131215000Y-99302440D01*
X134215000Y-99302440D01*
X134450317Y-99258162D01*
X134666441Y-99119090D01*
X134811431Y-98906890D01*
X134862440Y-98655000D01*
X134862440Y-95655000D01*
X134818162Y-95419683D01*
X134679090Y-95203559D01*
X134466890Y-95058569D01*
X134215000Y-95007560D01*
X131215000Y-95007560D01*
X130979683Y-95051838D01*
X130763559Y-95190910D01*
X130618569Y-95403110D01*
X130567560Y-95655000D01*
X125799251Y-95655000D01*
X125739573Y-95354983D01*
X125439343Y-94905657D01*
X120994343Y-90460657D01*
X120833465Y-90353162D01*
X120545017Y-90160427D01*
X120015000Y-90055000D01*
X78678686Y-90055000D01*
X76315000Y-87691314D01*
X76315000Y-81915000D01*
X76209573Y-81384983D01*
X75909343Y-80935657D01*
X74639343Y-79665657D01*
X74503665Y-79575000D01*
X74190017Y-79365427D01*
X73660000Y-79260000D01*
X71755000Y-79260000D01*
X71504733Y-79309781D01*
X71490617Y-79309769D01*
X71477456Y-79315207D01*
X71224983Y-79365427D01*
X71012818Y-79507191D01*
X70999771Y-79512582D01*
X70989692Y-79522643D01*
X70775657Y-79665657D01*
X70685000Y-79801335D01*
X70685000Y-79085868D01*
X70830868Y-78940000D01*
X75219132Y-78940000D01*
X76635000Y-80355868D01*
X76635000Y-86360000D01*
X76698561Y-86679541D01*
X76848437Y-86903846D01*
X76879566Y-86950434D01*
X78784566Y-88855434D01*
X79055459Y-89036439D01*
X79375000Y-89100000D01*
X80862214Y-89100000D01*
X81157796Y-89396098D01*
X81648287Y-89599768D01*
X82179383Y-89600231D01*
X82670229Y-89397418D01*
X83046098Y-89022204D01*
X83249768Y-88531713D01*
X83250023Y-88238846D01*
X90740000Y-88238846D01*
X90740000Y-88291154D01*
X90841621Y-88802036D01*
X91131012Y-89235142D01*
X91564118Y-89524533D01*
X92075000Y-89626154D01*
X92585882Y-89524533D01*
X93018988Y-89235142D01*
X93308379Y-88802036D01*
X93410000Y-88291154D01*
X93410000Y-88238846D01*
X100900000Y-88238846D01*
X100900000Y-88291154D01*
X101001621Y-88802036D01*
X101291012Y-89235142D01*
X101724118Y-89524533D01*
X102235000Y-89626154D01*
X102745882Y-89524533D01*
X103178988Y-89235142D01*
X103468379Y-88802036D01*
X103570000Y-88291154D01*
X103570000Y-88238846D01*
X111060000Y-88238846D01*
X111060000Y-88291154D01*
X111161621Y-88802036D01*
X111451012Y-89235142D01*
X111884118Y-89524533D01*
X112395000Y-89626154D01*
X112905882Y-89524533D01*
X113338988Y-89235142D01*
X113628379Y-88802036D01*
X113730000Y-88291154D01*
X113730000Y-88238846D01*
X121220000Y-88238846D01*
X121220000Y-88291154D01*
X121321621Y-88802036D01*
X121611012Y-89235142D01*
X122044118Y-89524533D01*
X122555000Y-89626154D01*
X123065882Y-89524533D01*
X123498988Y-89235142D01*
X123788379Y-88802036D01*
X123890000Y-88291154D01*
X123890000Y-88238846D01*
X123788379Y-87727964D01*
X123498988Y-87294858D01*
X123065882Y-87005467D01*
X122555000Y-86903846D01*
X122044118Y-87005467D01*
X121611012Y-87294858D01*
X121321621Y-87727964D01*
X121220000Y-88238846D01*
X113730000Y-88238846D01*
X113628379Y-87727964D01*
X113338988Y-87294858D01*
X112905882Y-87005467D01*
X112395000Y-86903846D01*
X111884118Y-87005467D01*
X111451012Y-87294858D01*
X111161621Y-87727964D01*
X111060000Y-88238846D01*
X103570000Y-88238846D01*
X103468379Y-87727964D01*
X103178988Y-87294858D01*
X102745882Y-87005467D01*
X102235000Y-86903846D01*
X101724118Y-87005467D01*
X101291012Y-87294858D01*
X101001621Y-87727964D01*
X100900000Y-88238846D01*
X93410000Y-88238846D01*
X93308379Y-87727964D01*
X93018988Y-87294858D01*
X92585882Y-87005467D01*
X92075000Y-86903846D01*
X91564118Y-87005467D01*
X91131012Y-87294858D01*
X90841621Y-87727964D01*
X90740000Y-88238846D01*
X83250023Y-88238846D01*
X83250231Y-88000617D01*
X83047418Y-87509771D01*
X82672204Y-87133902D01*
X82181713Y-86930232D01*
X81650617Y-86929769D01*
X81159771Y-87132582D01*
X80861834Y-87430000D01*
X79720868Y-87430000D01*
X78305000Y-86014132D01*
X78305000Y-80645000D01*
X80530000Y-80645000D01*
X80635427Y-81175016D01*
X80935657Y-81624343D01*
X83475657Y-84164343D01*
X83924983Y-84464573D01*
X84455000Y-84570000D01*
X121346314Y-84570000D01*
X124750657Y-87974343D01*
X125199984Y-88274574D01*
X125730000Y-88380000D01*
X130567560Y-88380000D01*
X130567560Y-88495000D01*
X130611838Y-88730317D01*
X130750910Y-88946441D01*
X130963110Y-89091431D01*
X131215000Y-89142440D01*
X134215000Y-89142440D01*
X134450317Y-89098162D01*
X134666441Y-88959090D01*
X134811431Y-88746890D01*
X134862440Y-88495000D01*
X134862440Y-85495000D01*
X134818162Y-85259683D01*
X134679090Y-85043559D01*
X134466890Y-84898569D01*
X134215000Y-84847560D01*
X131215000Y-84847560D01*
X130979683Y-84891838D01*
X130763559Y-85030910D01*
X130618569Y-85243110D01*
X130567560Y-85495000D01*
X130567560Y-85610000D01*
X126303686Y-85610000D01*
X122899343Y-82205657D01*
X122561633Y-81980006D01*
X122819383Y-81980231D01*
X123310229Y-81777418D01*
X123686098Y-81402204D01*
X123889768Y-80911713D01*
X123890231Y-80380617D01*
X123687418Y-79889771D01*
X123312204Y-79513902D01*
X122821713Y-79310232D01*
X122290617Y-79309769D01*
X121799771Y-79512582D01*
X121423902Y-79887796D01*
X121220232Y-80378287D01*
X121219769Y-80909383D01*
X121422582Y-81400229D01*
X121797796Y-81776098D01*
X121855358Y-81800000D01*
X113095576Y-81800000D01*
X113150229Y-81777418D01*
X113526098Y-81402204D01*
X113729768Y-80911713D01*
X113730231Y-80380617D01*
X113527418Y-79889771D01*
X113152204Y-79513902D01*
X112661713Y-79310232D01*
X112130617Y-79309769D01*
X111639771Y-79512582D01*
X111263902Y-79887796D01*
X111060232Y-80378287D01*
X111059769Y-80909383D01*
X111262582Y-81400229D01*
X111637796Y-81776098D01*
X111695358Y-81800000D01*
X102935576Y-81800000D01*
X102990229Y-81777418D01*
X103366098Y-81402204D01*
X103569768Y-80911713D01*
X103570231Y-80380617D01*
X103367418Y-79889771D01*
X102992204Y-79513902D01*
X102501713Y-79310232D01*
X101970617Y-79309769D01*
X101479771Y-79512582D01*
X101103902Y-79887796D01*
X100900232Y-80378287D01*
X100899769Y-80909383D01*
X101102582Y-81400229D01*
X101477796Y-81776098D01*
X101535358Y-81800000D01*
X92775576Y-81800000D01*
X92830229Y-81777418D01*
X93206098Y-81402204D01*
X93409768Y-80911713D01*
X93410231Y-80380617D01*
X93207418Y-79889771D01*
X92832204Y-79513902D01*
X92341713Y-79310232D01*
X91810617Y-79309769D01*
X91319771Y-79512582D01*
X90943902Y-79887796D01*
X90740232Y-80378287D01*
X90739769Y-80909383D01*
X90942582Y-81400229D01*
X91317796Y-81776098D01*
X91375358Y-81800000D01*
X85028686Y-81800000D01*
X82894343Y-79665657D01*
X82445016Y-79365427D01*
X81915000Y-79260000D01*
X81384984Y-79365427D01*
X80935657Y-79665657D01*
X80635427Y-80114984D01*
X80530000Y-80645000D01*
X78305000Y-80645000D01*
X78305000Y-80010000D01*
X78241439Y-79690459D01*
X78060434Y-79419566D01*
X76155434Y-77514566D01*
X75884541Y-77333561D01*
X75565000Y-77270000D01*
X70485000Y-77270000D01*
X70165460Y-77333560D01*
X69894566Y-77514566D01*
X69259566Y-78149566D01*
X69078561Y-78420459D01*
X69015000Y-78740000D01*
X69015000Y-93980000D01*
X69078561Y-94299541D01*
X69259566Y-94570434D01*
X70374132Y-95685000D01*
X62182841Y-95685000D01*
X62039147Y-95469946D01*
X61698447Y-95242298D01*
X61841358Y-95175183D01*
X62231645Y-94746924D01*
X62401476Y-94336890D01*
X62280155Y-94107000D01*
X61087000Y-94107000D01*
X61087000Y-94127000D01*
X60833000Y-94127000D01*
X60833000Y-94107000D01*
X59639845Y-94107000D01*
X59518524Y-94336890D01*
X59688355Y-94746924D01*
X60078642Y-95175183D01*
X60221553Y-95242298D01*
X59880853Y-95469946D01*
X59737159Y-95685000D01*
X57102841Y-95685000D01*
X56959147Y-95469946D01*
X56618447Y-95242298D01*
X56761358Y-95175183D01*
X57151645Y-94746924D01*
X57321476Y-94336890D01*
X57200155Y-94107000D01*
X56007000Y-94107000D01*
X56007000Y-94127000D01*
X55753000Y-94127000D01*
X55753000Y-94107000D01*
X54559845Y-94107000D01*
X54438524Y-94336890D01*
X54608355Y-94746924D01*
X54998642Y-95175183D01*
X55141553Y-95242298D01*
X54800853Y-95469946D01*
X54657159Y-95685000D01*
X52022841Y-95685000D01*
X51879147Y-95469946D01*
X51538447Y-95242298D01*
X51681358Y-95175183D01*
X52071645Y-94746924D01*
X52241476Y-94336890D01*
X52120155Y-94107000D01*
X50927000Y-94107000D01*
X50927000Y-94127000D01*
X50673000Y-94127000D01*
X50673000Y-94107000D01*
X49479845Y-94107000D01*
X49358524Y-94336890D01*
X49528355Y-94746924D01*
X49918642Y-95175183D01*
X50061553Y-95242298D01*
X49720853Y-95469946D01*
X49577159Y-95685000D01*
X46942841Y-95685000D01*
X46799147Y-95469946D01*
X46458447Y-95242298D01*
X46601358Y-95175183D01*
X46991645Y-94746924D01*
X47161476Y-94336890D01*
X47040155Y-94107000D01*
X45847000Y-94107000D01*
X45847000Y-94127000D01*
X45593000Y-94127000D01*
X45593000Y-94107000D01*
X44399845Y-94107000D01*
X44278524Y-94336890D01*
X44448355Y-94746924D01*
X44838642Y-95175183D01*
X44981553Y-95242298D01*
X44640853Y-95469946D01*
X44318946Y-95951715D01*
X44205907Y-96520000D01*
X34417000Y-96520000D01*
X34417000Y-91440000D01*
X44205907Y-91440000D01*
X44318946Y-92008285D01*
X44640853Y-92490054D01*
X44981553Y-92717702D01*
X44838642Y-92784817D01*
X44448355Y-93213076D01*
X44278524Y-93623110D01*
X44399845Y-93853000D01*
X45593000Y-93853000D01*
X45593000Y-93833000D01*
X45847000Y-93833000D01*
X45847000Y-93853000D01*
X47040155Y-93853000D01*
X47161476Y-93623110D01*
X46991645Y-93213076D01*
X46601358Y-92784817D01*
X46458447Y-92717702D01*
X46799147Y-92490054D01*
X47121054Y-92008285D01*
X47234093Y-91440000D01*
X49285907Y-91440000D01*
X49398946Y-92008285D01*
X49720853Y-92490054D01*
X50061553Y-92717702D01*
X49918642Y-92784817D01*
X49528355Y-93213076D01*
X49358524Y-93623110D01*
X49479845Y-93853000D01*
X50673000Y-93853000D01*
X50673000Y-93833000D01*
X50927000Y-93833000D01*
X50927000Y-93853000D01*
X52120155Y-93853000D01*
X52241476Y-93623110D01*
X52071645Y-93213076D01*
X51681358Y-92784817D01*
X51538447Y-92717702D01*
X51879147Y-92490054D01*
X52201054Y-92008285D01*
X52314093Y-91440000D01*
X54365907Y-91440000D01*
X54478946Y-92008285D01*
X54800853Y-92490054D01*
X55141553Y-92717702D01*
X54998642Y-92784817D01*
X54608355Y-93213076D01*
X54438524Y-93623110D01*
X54559845Y-93853000D01*
X55753000Y-93853000D01*
X55753000Y-93833000D01*
X56007000Y-93833000D01*
X56007000Y-93853000D01*
X57200155Y-93853000D01*
X57321476Y-93623110D01*
X57151645Y-93213076D01*
X56761358Y-92784817D01*
X56618447Y-92717702D01*
X56959147Y-92490054D01*
X57281054Y-92008285D01*
X57394093Y-91440000D01*
X59445907Y-91440000D01*
X59558946Y-92008285D01*
X59880853Y-92490054D01*
X60221553Y-92717702D01*
X60078642Y-92784817D01*
X59688355Y-93213076D01*
X59518524Y-93623110D01*
X59639845Y-93853000D01*
X60833000Y-93853000D01*
X60833000Y-93833000D01*
X61087000Y-93833000D01*
X61087000Y-93853000D01*
X62280155Y-93853000D01*
X62401476Y-93623110D01*
X62231645Y-93213076D01*
X61841358Y-92784817D01*
X61698447Y-92717702D01*
X62039147Y-92490054D01*
X62361054Y-92008285D01*
X62474093Y-91440000D01*
X62361054Y-90871715D01*
X62039147Y-90389946D01*
X61997548Y-90362150D01*
X62045317Y-90353162D01*
X62261441Y-90214090D01*
X62406431Y-90001890D01*
X62457440Y-89750000D01*
X62457440Y-88050000D01*
X62413162Y-87814683D01*
X62274090Y-87598559D01*
X62061890Y-87453569D01*
X61810000Y-87402560D01*
X60110000Y-87402560D01*
X59874683Y-87446838D01*
X59658559Y-87585910D01*
X59513569Y-87798110D01*
X59462560Y-88050000D01*
X59462560Y-89750000D01*
X59506838Y-89985317D01*
X59645910Y-90201441D01*
X59858110Y-90346431D01*
X59925541Y-90360086D01*
X59880853Y-90389946D01*
X59558946Y-90871715D01*
X59445907Y-91440000D01*
X57394093Y-91440000D01*
X57281054Y-90871715D01*
X56959147Y-90389946D01*
X56917548Y-90362150D01*
X56965317Y-90353162D01*
X57181441Y-90214090D01*
X57326431Y-90001890D01*
X57377440Y-89750000D01*
X57377440Y-88050000D01*
X57333162Y-87814683D01*
X57194090Y-87598559D01*
X56981890Y-87453569D01*
X56730000Y-87402560D01*
X55030000Y-87402560D01*
X54794683Y-87446838D01*
X54578559Y-87585910D01*
X54433569Y-87798110D01*
X54382560Y-88050000D01*
X54382560Y-89750000D01*
X54426838Y-89985317D01*
X54565910Y-90201441D01*
X54778110Y-90346431D01*
X54845541Y-90360086D01*
X54800853Y-90389946D01*
X54478946Y-90871715D01*
X54365907Y-91440000D01*
X52314093Y-91440000D01*
X52201054Y-90871715D01*
X51879147Y-90389946D01*
X51837548Y-90362150D01*
X51885317Y-90353162D01*
X52101441Y-90214090D01*
X52246431Y-90001890D01*
X52297440Y-89750000D01*
X52297440Y-88050000D01*
X52253162Y-87814683D01*
X52114090Y-87598559D01*
X51901890Y-87453569D01*
X51650000Y-87402560D01*
X49950000Y-87402560D01*
X49714683Y-87446838D01*
X49498559Y-87585910D01*
X49353569Y-87798110D01*
X49302560Y-88050000D01*
X49302560Y-89750000D01*
X49346838Y-89985317D01*
X49485910Y-90201441D01*
X49698110Y-90346431D01*
X49765541Y-90360086D01*
X49720853Y-90389946D01*
X49398946Y-90871715D01*
X49285907Y-91440000D01*
X47234093Y-91440000D01*
X47121054Y-90871715D01*
X46799147Y-90389946D01*
X46757548Y-90362150D01*
X46805317Y-90353162D01*
X47021441Y-90214090D01*
X47166431Y-90001890D01*
X47217440Y-89750000D01*
X47217440Y-88050000D01*
X47173162Y-87814683D01*
X47034090Y-87598559D01*
X46821890Y-87453569D01*
X46570000Y-87402560D01*
X44870000Y-87402560D01*
X44634683Y-87446838D01*
X44418559Y-87585910D01*
X44273569Y-87798110D01*
X44222560Y-88050000D01*
X44222560Y-89750000D01*
X44266838Y-89985317D01*
X44405910Y-90201441D01*
X44618110Y-90346431D01*
X44685541Y-90360086D01*
X44640853Y-90389946D01*
X44318946Y-90871715D01*
X44205907Y-91440000D01*
X34417000Y-91440000D01*
X34417000Y-75335000D01*
X130567560Y-75335000D01*
X130567560Y-78335000D01*
X130611838Y-78570317D01*
X130750910Y-78786441D01*
X130963110Y-78931431D01*
X131215000Y-78982440D01*
X134215000Y-78982440D01*
X134450317Y-78938162D01*
X134666441Y-78799090D01*
X134811431Y-78586890D01*
X134862440Y-78335000D01*
X134862440Y-75335000D01*
X134818162Y-75099683D01*
X134679090Y-74883559D01*
X134466890Y-74738569D01*
X134215000Y-74687560D01*
X131215000Y-74687560D01*
X130979683Y-74731838D01*
X130763559Y-74870910D01*
X130618569Y-75083110D01*
X130567560Y-75335000D01*
X34417000Y-75335000D01*
X34417000Y-69339482D01*
X35534336Y-69339482D01*
X36116950Y-70749515D01*
X37194811Y-71829259D01*
X38603825Y-72414333D01*
X40129482Y-72415664D01*
X41539515Y-71833050D01*
X42619259Y-70755189D01*
X43204333Y-69346175D01*
X43205664Y-67820518D01*
X43162065Y-67715000D01*
X44207560Y-67715000D01*
X44207560Y-70715000D01*
X44251838Y-70950317D01*
X44390910Y-71166441D01*
X44603110Y-71311431D01*
X44855000Y-71362440D01*
X47855000Y-71362440D01*
X48090317Y-71318162D01*
X48306441Y-71179090D01*
X48451431Y-70966890D01*
X48502440Y-70715000D01*
X48502440Y-69637815D01*
X49299630Y-69637815D01*
X49623980Y-70422800D01*
X50224041Y-71023909D01*
X51008459Y-71349628D01*
X51857815Y-71350370D01*
X52642800Y-71026020D01*
X53243909Y-70425959D01*
X53569628Y-69641541D01*
X53570370Y-68792185D01*
X53246020Y-68007200D01*
X52954330Y-67715000D01*
X54367560Y-67715000D01*
X54367560Y-70715000D01*
X54411838Y-70950317D01*
X54550910Y-71166441D01*
X54763110Y-71311431D01*
X55015000Y-71362440D01*
X58015000Y-71362440D01*
X58250317Y-71318162D01*
X58466441Y-71179090D01*
X58611431Y-70966890D01*
X58662440Y-70715000D01*
X58662440Y-69637815D01*
X59459630Y-69637815D01*
X59783980Y-70422800D01*
X60384041Y-71023909D01*
X61168459Y-71349628D01*
X62017815Y-71350370D01*
X62802800Y-71026020D01*
X63403909Y-70425959D01*
X63729628Y-69641541D01*
X63730370Y-68792185D01*
X63406020Y-68007200D01*
X63114330Y-67715000D01*
X64527560Y-67715000D01*
X64527560Y-70715000D01*
X64571838Y-70950317D01*
X64710910Y-71166441D01*
X64923110Y-71311431D01*
X65175000Y-71362440D01*
X68175000Y-71362440D01*
X68410317Y-71318162D01*
X68626441Y-71179090D01*
X68771431Y-70966890D01*
X68822440Y-70715000D01*
X68822440Y-69637815D01*
X69619630Y-69637815D01*
X69943980Y-70422800D01*
X70544041Y-71023909D01*
X71328459Y-71349628D01*
X72177815Y-71350370D01*
X72962800Y-71026020D01*
X73563909Y-70425959D01*
X73889628Y-69641541D01*
X73890370Y-68792185D01*
X73566020Y-68007200D01*
X73274330Y-67715000D01*
X74687560Y-67715000D01*
X74687560Y-70715000D01*
X74731838Y-70950317D01*
X74870910Y-71166441D01*
X75083110Y-71311431D01*
X75335000Y-71362440D01*
X78335000Y-71362440D01*
X78570317Y-71318162D01*
X78786441Y-71179090D01*
X78931431Y-70966890D01*
X78982440Y-70715000D01*
X78982440Y-69637815D01*
X79779630Y-69637815D01*
X80103980Y-70422800D01*
X80704041Y-71023909D01*
X81488459Y-71349628D01*
X82337815Y-71350370D01*
X83122800Y-71026020D01*
X83723909Y-70425959D01*
X84049628Y-69641541D01*
X84049750Y-69500750D01*
X84860000Y-69500750D01*
X84860000Y-70841310D01*
X84956673Y-71074699D01*
X85135302Y-71253327D01*
X85368691Y-71350000D01*
X86709250Y-71350000D01*
X86868000Y-71191250D01*
X86868000Y-69342000D01*
X87122000Y-69342000D01*
X87122000Y-71191250D01*
X87280750Y-71350000D01*
X88621309Y-71350000D01*
X88854698Y-71253327D01*
X89033327Y-71074699D01*
X89130000Y-70841310D01*
X89130000Y-69637815D01*
X89939630Y-69637815D01*
X90263980Y-70422800D01*
X90864041Y-71023909D01*
X91648459Y-71349628D01*
X92497815Y-71350370D01*
X93282800Y-71026020D01*
X93883909Y-70425959D01*
X94209628Y-69641541D01*
X94209750Y-69500750D01*
X95020000Y-69500750D01*
X95020000Y-70841310D01*
X95116673Y-71074699D01*
X95295302Y-71253327D01*
X95528691Y-71350000D01*
X96869250Y-71350000D01*
X97028000Y-71191250D01*
X97028000Y-69342000D01*
X97282000Y-69342000D01*
X97282000Y-71191250D01*
X97440750Y-71350000D01*
X98781309Y-71350000D01*
X99014698Y-71253327D01*
X99193327Y-71074699D01*
X99290000Y-70841310D01*
X99290000Y-69637815D01*
X100099630Y-69637815D01*
X100423980Y-70422800D01*
X101024041Y-71023909D01*
X101808459Y-71349628D01*
X102657815Y-71350370D01*
X103442800Y-71026020D01*
X104043909Y-70425959D01*
X104369628Y-69641541D01*
X104369750Y-69500750D01*
X105180000Y-69500750D01*
X105180000Y-70841310D01*
X105276673Y-71074699D01*
X105455302Y-71253327D01*
X105688691Y-71350000D01*
X107029250Y-71350000D01*
X107188000Y-71191250D01*
X107188000Y-69342000D01*
X107442000Y-69342000D01*
X107442000Y-71191250D01*
X107600750Y-71350000D01*
X108941309Y-71350000D01*
X109174698Y-71253327D01*
X109353327Y-71074699D01*
X109450000Y-70841310D01*
X109450000Y-69637815D01*
X110259630Y-69637815D01*
X110583980Y-70422800D01*
X111184041Y-71023909D01*
X111968459Y-71349628D01*
X112817815Y-71350370D01*
X113602800Y-71026020D01*
X114203909Y-70425959D01*
X114529628Y-69641541D01*
X114529750Y-69500750D01*
X115340000Y-69500750D01*
X115340000Y-70841310D01*
X115436673Y-71074699D01*
X115615302Y-71253327D01*
X115848691Y-71350000D01*
X117189250Y-71350000D01*
X117348000Y-71191250D01*
X117348000Y-69342000D01*
X117602000Y-69342000D01*
X117602000Y-71191250D01*
X117760750Y-71350000D01*
X119101309Y-71350000D01*
X119334698Y-71253327D01*
X119513327Y-71074699D01*
X119610000Y-70841310D01*
X119610000Y-69637815D01*
X120419630Y-69637815D01*
X120743980Y-70422800D01*
X121344041Y-71023909D01*
X122128459Y-71349628D01*
X122977815Y-71350370D01*
X123762800Y-71026020D01*
X124363909Y-70425959D01*
X124689628Y-69641541D01*
X124689891Y-69339482D01*
X129514336Y-69339482D01*
X130096950Y-70749515D01*
X131174811Y-71829259D01*
X132583825Y-72414333D01*
X134109482Y-72415664D01*
X135519515Y-71833050D01*
X136599259Y-70755189D01*
X137184333Y-69346175D01*
X137185664Y-67820518D01*
X136603050Y-66410485D01*
X135525189Y-65330741D01*
X134116175Y-64745667D01*
X132590518Y-64744336D01*
X131180485Y-65326950D01*
X130100741Y-66404811D01*
X129515667Y-67813825D01*
X129514336Y-69339482D01*
X124689891Y-69339482D01*
X124690370Y-68792185D01*
X124366020Y-68007200D01*
X123765959Y-67406091D01*
X122981541Y-67080372D01*
X122132185Y-67079630D01*
X121347200Y-67403980D01*
X120746091Y-68004041D01*
X120420372Y-68788459D01*
X120419630Y-69637815D01*
X119610000Y-69637815D01*
X119610000Y-69500750D01*
X119451250Y-69342000D01*
X117602000Y-69342000D01*
X117348000Y-69342000D01*
X115498750Y-69342000D01*
X115340000Y-69500750D01*
X114529750Y-69500750D01*
X114530370Y-68792185D01*
X114206020Y-68007200D01*
X113788240Y-67588690D01*
X115340000Y-67588690D01*
X115340000Y-68929250D01*
X115498750Y-69088000D01*
X117348000Y-69088000D01*
X117348000Y-67238750D01*
X117602000Y-67238750D01*
X117602000Y-69088000D01*
X119451250Y-69088000D01*
X119610000Y-68929250D01*
X119610000Y-67588690D01*
X119513327Y-67355301D01*
X119334698Y-67176673D01*
X119101309Y-67080000D01*
X117760750Y-67080000D01*
X117602000Y-67238750D01*
X117348000Y-67238750D01*
X117189250Y-67080000D01*
X115848691Y-67080000D01*
X115615302Y-67176673D01*
X115436673Y-67355301D01*
X115340000Y-67588690D01*
X113788240Y-67588690D01*
X113605959Y-67406091D01*
X112821541Y-67080372D01*
X111972185Y-67079630D01*
X111187200Y-67403980D01*
X110586091Y-68004041D01*
X110260372Y-68788459D01*
X110259630Y-69637815D01*
X109450000Y-69637815D01*
X109450000Y-69500750D01*
X109291250Y-69342000D01*
X107442000Y-69342000D01*
X107188000Y-69342000D01*
X105338750Y-69342000D01*
X105180000Y-69500750D01*
X104369750Y-69500750D01*
X104370370Y-68792185D01*
X104046020Y-68007200D01*
X103628240Y-67588690D01*
X105180000Y-67588690D01*
X105180000Y-68929250D01*
X105338750Y-69088000D01*
X107188000Y-69088000D01*
X107188000Y-67238750D01*
X107442000Y-67238750D01*
X107442000Y-69088000D01*
X109291250Y-69088000D01*
X109450000Y-68929250D01*
X109450000Y-67588690D01*
X109353327Y-67355301D01*
X109174698Y-67176673D01*
X108941309Y-67080000D01*
X107600750Y-67080000D01*
X107442000Y-67238750D01*
X107188000Y-67238750D01*
X107029250Y-67080000D01*
X105688691Y-67080000D01*
X105455302Y-67176673D01*
X105276673Y-67355301D01*
X105180000Y-67588690D01*
X103628240Y-67588690D01*
X103445959Y-67406091D01*
X102661541Y-67080372D01*
X101812185Y-67079630D01*
X101027200Y-67403980D01*
X100426091Y-68004041D01*
X100100372Y-68788459D01*
X100099630Y-69637815D01*
X99290000Y-69637815D01*
X99290000Y-69500750D01*
X99131250Y-69342000D01*
X97282000Y-69342000D01*
X97028000Y-69342000D01*
X95178750Y-69342000D01*
X95020000Y-69500750D01*
X94209750Y-69500750D01*
X94210370Y-68792185D01*
X93886020Y-68007200D01*
X93468240Y-67588690D01*
X95020000Y-67588690D01*
X95020000Y-68929250D01*
X95178750Y-69088000D01*
X97028000Y-69088000D01*
X97028000Y-67238750D01*
X97282000Y-67238750D01*
X97282000Y-69088000D01*
X99131250Y-69088000D01*
X99290000Y-68929250D01*
X99290000Y-67588690D01*
X99193327Y-67355301D01*
X99014698Y-67176673D01*
X98781309Y-67080000D01*
X97440750Y-67080000D01*
X97282000Y-67238750D01*
X97028000Y-67238750D01*
X96869250Y-67080000D01*
X95528691Y-67080000D01*
X95295302Y-67176673D01*
X95116673Y-67355301D01*
X95020000Y-67588690D01*
X93468240Y-67588690D01*
X93285959Y-67406091D01*
X92501541Y-67080372D01*
X91652185Y-67079630D01*
X90867200Y-67403980D01*
X90266091Y-68004041D01*
X89940372Y-68788459D01*
X89939630Y-69637815D01*
X89130000Y-69637815D01*
X89130000Y-69500750D01*
X88971250Y-69342000D01*
X87122000Y-69342000D01*
X86868000Y-69342000D01*
X85018750Y-69342000D01*
X84860000Y-69500750D01*
X84049750Y-69500750D01*
X84050370Y-68792185D01*
X83726020Y-68007200D01*
X83308240Y-67588690D01*
X84860000Y-67588690D01*
X84860000Y-68929250D01*
X85018750Y-69088000D01*
X86868000Y-69088000D01*
X86868000Y-67238750D01*
X87122000Y-67238750D01*
X87122000Y-69088000D01*
X88971250Y-69088000D01*
X89130000Y-68929250D01*
X89130000Y-67588690D01*
X89033327Y-67355301D01*
X88854698Y-67176673D01*
X88621309Y-67080000D01*
X87280750Y-67080000D01*
X87122000Y-67238750D01*
X86868000Y-67238750D01*
X86709250Y-67080000D01*
X85368691Y-67080000D01*
X85135302Y-67176673D01*
X84956673Y-67355301D01*
X84860000Y-67588690D01*
X83308240Y-67588690D01*
X83125959Y-67406091D01*
X82341541Y-67080372D01*
X81492185Y-67079630D01*
X80707200Y-67403980D01*
X80106091Y-68004041D01*
X79780372Y-68788459D01*
X79779630Y-69637815D01*
X78982440Y-69637815D01*
X78982440Y-67715000D01*
X78938162Y-67479683D01*
X78799090Y-67263559D01*
X78586890Y-67118569D01*
X78335000Y-67067560D01*
X75335000Y-67067560D01*
X75099683Y-67111838D01*
X74883559Y-67250910D01*
X74738569Y-67463110D01*
X74687560Y-67715000D01*
X73274330Y-67715000D01*
X72965959Y-67406091D01*
X72181541Y-67080372D01*
X71332185Y-67079630D01*
X70547200Y-67403980D01*
X69946091Y-68004041D01*
X69620372Y-68788459D01*
X69619630Y-69637815D01*
X68822440Y-69637815D01*
X68822440Y-67715000D01*
X68778162Y-67479683D01*
X68639090Y-67263559D01*
X68426890Y-67118569D01*
X68175000Y-67067560D01*
X65175000Y-67067560D01*
X64939683Y-67111838D01*
X64723559Y-67250910D01*
X64578569Y-67463110D01*
X64527560Y-67715000D01*
X63114330Y-67715000D01*
X62805959Y-67406091D01*
X62021541Y-67080372D01*
X61172185Y-67079630D01*
X60387200Y-67403980D01*
X59786091Y-68004041D01*
X59460372Y-68788459D01*
X59459630Y-69637815D01*
X58662440Y-69637815D01*
X58662440Y-67715000D01*
X58618162Y-67479683D01*
X58479090Y-67263559D01*
X58266890Y-67118569D01*
X58015000Y-67067560D01*
X55015000Y-67067560D01*
X54779683Y-67111838D01*
X54563559Y-67250910D01*
X54418569Y-67463110D01*
X54367560Y-67715000D01*
X52954330Y-67715000D01*
X52645959Y-67406091D01*
X51861541Y-67080372D01*
X51012185Y-67079630D01*
X50227200Y-67403980D01*
X49626091Y-68004041D01*
X49300372Y-68788459D01*
X49299630Y-69637815D01*
X48502440Y-69637815D01*
X48502440Y-67715000D01*
X48458162Y-67479683D01*
X48319090Y-67263559D01*
X48106890Y-67118569D01*
X47855000Y-67067560D01*
X44855000Y-67067560D01*
X44619683Y-67111838D01*
X44403559Y-67250910D01*
X44258569Y-67463110D01*
X44207560Y-67715000D01*
X43162065Y-67715000D01*
X42623050Y-66410485D01*
X41545189Y-65330741D01*
X40136175Y-64745667D01*
X38610518Y-64744336D01*
X37200485Y-65326950D01*
X36120741Y-66404811D01*
X35535667Y-67813825D01*
X35534336Y-69339482D01*
X34417000Y-69339482D01*
X34417000Y-63627000D01*
X138303000Y-63627000D01*
X138303000Y-83085587D01*
M02*
