G04 #@! TF.FileFunction,Legend,Top*
%FSLAX46Y46*%
G04 Gerber Fmt 4.6, Leading zero omitted, Abs format (unit mm)*
G04 Created by KiCad (PCBNEW 4.0.5) date 02/02/17 21:36:50*
%MOMM*%
%LPD*%
G01*
G04 APERTURE LIST*
%ADD10C,0.100000*%
%ADD11C,0.300000*%
%ADD12C,0.200000*%
%ADD13C,0.120000*%
%ADD14C,0.150000*%
G04 APERTURE END LIST*
D10*
D11*
X92866429Y-99098571D02*
X92866429Y-97598571D01*
X93366429Y-98670000D01*
X93866429Y-97598571D01*
X93866429Y-99098571D01*
X94795001Y-99098571D02*
X94652143Y-99027143D01*
X94580715Y-98955714D01*
X94509286Y-98812857D01*
X94509286Y-98384286D01*
X94580715Y-98241429D01*
X94652143Y-98170000D01*
X94795001Y-98098571D01*
X95009286Y-98098571D01*
X95152143Y-98170000D01*
X95223572Y-98241429D01*
X95295001Y-98384286D01*
X95295001Y-98812857D01*
X95223572Y-98955714D01*
X95152143Y-99027143D01*
X95009286Y-99098571D01*
X94795001Y-99098571D01*
X95723572Y-98098571D02*
X96295001Y-98098571D01*
X95937858Y-97598571D02*
X95937858Y-98884286D01*
X96009286Y-99027143D01*
X96152144Y-99098571D01*
X96295001Y-99098571D01*
X97009287Y-99098571D02*
X96866429Y-99027143D01*
X96795001Y-98955714D01*
X96723572Y-98812857D01*
X96723572Y-98384286D01*
X96795001Y-98241429D01*
X96866429Y-98170000D01*
X97009287Y-98098571D01*
X97223572Y-98098571D01*
X97366429Y-98170000D01*
X97437858Y-98241429D01*
X97509287Y-98384286D01*
X97509287Y-98812857D01*
X97437858Y-98955714D01*
X97366429Y-99027143D01*
X97223572Y-99098571D01*
X97009287Y-99098571D01*
X98152144Y-99098571D02*
X98152144Y-98098571D01*
X98152144Y-98384286D02*
X98223572Y-98241429D01*
X98295001Y-98170000D01*
X98437858Y-98098571D01*
X98580715Y-98098571D01*
X99080715Y-98527143D02*
X100223572Y-98527143D01*
X100937858Y-99098571D02*
X100937858Y-97598571D01*
X101509286Y-97598571D01*
X101652144Y-97670000D01*
X101723572Y-97741429D01*
X101795001Y-97884286D01*
X101795001Y-98098571D01*
X101723572Y-98241429D01*
X101652144Y-98312857D01*
X101509286Y-98384286D01*
X100937858Y-98384286D01*
X102652144Y-99098571D02*
X102509286Y-99027143D01*
X102437858Y-98955714D01*
X102366429Y-98812857D01*
X102366429Y-98384286D01*
X102437858Y-98241429D01*
X102509286Y-98170000D01*
X102652144Y-98098571D01*
X102866429Y-98098571D01*
X103009286Y-98170000D01*
X103080715Y-98241429D01*
X103152144Y-98384286D01*
X103152144Y-98812857D01*
X103080715Y-98955714D01*
X103009286Y-99027143D01*
X102866429Y-99098571D01*
X102652144Y-99098571D01*
X103652144Y-98098571D02*
X103937858Y-99098571D01*
X104223572Y-98384286D01*
X104509287Y-99098571D01*
X104795001Y-98098571D01*
X105937858Y-99027143D02*
X105795001Y-99098571D01*
X105509287Y-99098571D01*
X105366430Y-99027143D01*
X105295001Y-98884286D01*
X105295001Y-98312857D01*
X105366430Y-98170000D01*
X105509287Y-98098571D01*
X105795001Y-98098571D01*
X105937858Y-98170000D01*
X106009287Y-98312857D01*
X106009287Y-98455714D01*
X105295001Y-98598571D01*
X106652144Y-99098571D02*
X106652144Y-98098571D01*
X106652144Y-98384286D02*
X106723572Y-98241429D01*
X106795001Y-98170000D01*
X106937858Y-98098571D01*
X107080715Y-98098571D01*
X108080715Y-98312857D02*
X108295001Y-98384286D01*
X108366429Y-98455714D01*
X108437858Y-98598571D01*
X108437858Y-98812857D01*
X108366429Y-98955714D01*
X108295001Y-99027143D01*
X108152143Y-99098571D01*
X107580715Y-99098571D01*
X107580715Y-97598571D01*
X108080715Y-97598571D01*
X108223572Y-97670000D01*
X108295001Y-97741429D01*
X108366429Y-97884286D01*
X108366429Y-98027143D01*
X108295001Y-98170000D01*
X108223572Y-98241429D01*
X108080715Y-98312857D01*
X107580715Y-98312857D01*
X109295001Y-99098571D02*
X109152143Y-99027143D01*
X109080715Y-98955714D01*
X109009286Y-98812857D01*
X109009286Y-98384286D01*
X109080715Y-98241429D01*
X109152143Y-98170000D01*
X109295001Y-98098571D01*
X109509286Y-98098571D01*
X109652143Y-98170000D01*
X109723572Y-98241429D01*
X109795001Y-98384286D01*
X109795001Y-98812857D01*
X109723572Y-98955714D01*
X109652143Y-99027143D01*
X109509286Y-99098571D01*
X109295001Y-99098571D01*
X111080715Y-99098571D02*
X111080715Y-98312857D01*
X111009286Y-98170000D01*
X110866429Y-98098571D01*
X110580715Y-98098571D01*
X110437858Y-98170000D01*
X111080715Y-99027143D02*
X110937858Y-99098571D01*
X110580715Y-99098571D01*
X110437858Y-99027143D01*
X110366429Y-98884286D01*
X110366429Y-98741429D01*
X110437858Y-98598571D01*
X110580715Y-98527143D01*
X110937858Y-98527143D01*
X111080715Y-98455714D01*
X111795001Y-99098571D02*
X111795001Y-98098571D01*
X111795001Y-98384286D02*
X111866429Y-98241429D01*
X111937858Y-98170000D01*
X112080715Y-98098571D01*
X112223572Y-98098571D01*
X113366429Y-99098571D02*
X113366429Y-97598571D01*
X113366429Y-99027143D02*
X113223572Y-99098571D01*
X112937858Y-99098571D01*
X112795000Y-99027143D01*
X112723572Y-98955714D01*
X112652143Y-98812857D01*
X112652143Y-98384286D01*
X112723572Y-98241429D01*
X112795000Y-98170000D01*
X112937858Y-98098571D01*
X113223572Y-98098571D01*
X113366429Y-98170000D01*
X115080715Y-98098571D02*
X115437858Y-99098571D01*
X115795000Y-98098571D01*
X117152143Y-99098571D02*
X116295000Y-99098571D01*
X116723572Y-99098571D02*
X116723572Y-97598571D01*
X116580715Y-97812857D01*
X116437857Y-97955714D01*
X116295000Y-98027143D01*
X117795000Y-98955714D02*
X117866428Y-99027143D01*
X117795000Y-99098571D01*
X117723571Y-99027143D01*
X117795000Y-98955714D01*
X117795000Y-99098571D01*
X118795000Y-97598571D02*
X118937857Y-97598571D01*
X119080714Y-97670000D01*
X119152143Y-97741429D01*
X119223572Y-97884286D01*
X119295000Y-98170000D01*
X119295000Y-98527143D01*
X119223572Y-98812857D01*
X119152143Y-98955714D01*
X119080714Y-99027143D01*
X118937857Y-99098571D01*
X118795000Y-99098571D01*
X118652143Y-99027143D01*
X118580714Y-98955714D01*
X118509286Y-98812857D01*
X118437857Y-98527143D01*
X118437857Y-98170000D01*
X118509286Y-97884286D01*
X118580714Y-97741429D01*
X118652143Y-97670000D01*
X118795000Y-97598571D01*
X102116430Y-100148571D02*
X102116430Y-101220000D01*
X102045002Y-101434286D01*
X101902145Y-101577143D01*
X101687859Y-101648571D01*
X101545002Y-101648571D01*
X102759287Y-101577143D02*
X102973573Y-101648571D01*
X103330716Y-101648571D01*
X103473573Y-101577143D01*
X103545002Y-101505714D01*
X103616430Y-101362857D01*
X103616430Y-101220000D01*
X103545002Y-101077143D01*
X103473573Y-101005714D01*
X103330716Y-100934286D01*
X103045002Y-100862857D01*
X102902144Y-100791429D01*
X102830716Y-100720000D01*
X102759287Y-100577143D01*
X102759287Y-100434286D01*
X102830716Y-100291429D01*
X102902144Y-100220000D01*
X103045002Y-100148571D01*
X103402144Y-100148571D01*
X103616430Y-100220000D01*
X105330715Y-100291429D02*
X105402144Y-100220000D01*
X105545001Y-100148571D01*
X105902144Y-100148571D01*
X106045001Y-100220000D01*
X106116430Y-100291429D01*
X106187858Y-100434286D01*
X106187858Y-100577143D01*
X106116430Y-100791429D01*
X105259287Y-101648571D01*
X106187858Y-101648571D01*
X107116429Y-100148571D02*
X107259286Y-100148571D01*
X107402143Y-100220000D01*
X107473572Y-100291429D01*
X107545001Y-100434286D01*
X107616429Y-100720000D01*
X107616429Y-101077143D01*
X107545001Y-101362857D01*
X107473572Y-101505714D01*
X107402143Y-101577143D01*
X107259286Y-101648571D01*
X107116429Y-101648571D01*
X106973572Y-101577143D01*
X106902143Y-101505714D01*
X106830715Y-101362857D01*
X106759286Y-101077143D01*
X106759286Y-100720000D01*
X106830715Y-100434286D01*
X106902143Y-100291429D01*
X106973572Y-100220000D01*
X107116429Y-100148571D01*
X109045000Y-101648571D02*
X108187857Y-101648571D01*
X108616429Y-101648571D02*
X108616429Y-100148571D01*
X108473572Y-100362857D01*
X108330714Y-100505714D01*
X108187857Y-100577143D01*
X109545000Y-100148571D02*
X110545000Y-100148571D01*
X109902143Y-101648571D01*
D12*
X55880000Y-107950000D02*
X55880000Y-104775000D01*
X60960000Y-104775000D02*
X61595000Y-104775000D01*
X60960000Y-107950000D02*
X60960000Y-104775000D01*
X66040000Y-107950000D02*
X66040000Y-104775000D01*
X71120000Y-104775000D02*
X71120000Y-107950000D01*
X50800000Y-104775000D02*
X71120000Y-104775000D01*
X50800000Y-105410000D02*
X50800000Y-104775000D01*
X50800000Y-107950000D02*
X50800000Y-105410000D01*
D11*
X67972858Y-106572857D02*
X68187144Y-106644286D01*
X68258572Y-106715714D01*
X68330001Y-106858571D01*
X68330001Y-107072857D01*
X68258572Y-107215714D01*
X68187144Y-107287143D01*
X68044286Y-107358571D01*
X67472858Y-107358571D01*
X67472858Y-105858571D01*
X67972858Y-105858571D01*
X68115715Y-105930000D01*
X68187144Y-106001429D01*
X68258572Y-106144286D01*
X68258572Y-106287143D01*
X68187144Y-106430000D01*
X68115715Y-106501429D01*
X67972858Y-106572857D01*
X67472858Y-106572857D01*
X69615715Y-106358571D02*
X69615715Y-107358571D01*
X69258572Y-105787143D02*
X68901429Y-106858571D01*
X69830001Y-106858571D01*
X62892858Y-106572857D02*
X63107144Y-106644286D01*
X63178572Y-106715714D01*
X63250001Y-106858571D01*
X63250001Y-107072857D01*
X63178572Y-107215714D01*
X63107144Y-107287143D01*
X62964286Y-107358571D01*
X62392858Y-107358571D01*
X62392858Y-105858571D01*
X62892858Y-105858571D01*
X63035715Y-105930000D01*
X63107144Y-106001429D01*
X63178572Y-106144286D01*
X63178572Y-106287143D01*
X63107144Y-106430000D01*
X63035715Y-106501429D01*
X62892858Y-106572857D01*
X62392858Y-106572857D01*
X63750001Y-105858571D02*
X64678572Y-105858571D01*
X64178572Y-106430000D01*
X64392858Y-106430000D01*
X64535715Y-106501429D01*
X64607144Y-106572857D01*
X64678572Y-106715714D01*
X64678572Y-107072857D01*
X64607144Y-107215714D01*
X64535715Y-107287143D01*
X64392858Y-107358571D01*
X63964286Y-107358571D01*
X63821429Y-107287143D01*
X63750001Y-107215714D01*
X57812858Y-106572857D02*
X58027144Y-106644286D01*
X58098572Y-106715714D01*
X58170001Y-106858571D01*
X58170001Y-107072857D01*
X58098572Y-107215714D01*
X58027144Y-107287143D01*
X57884286Y-107358571D01*
X57312858Y-107358571D01*
X57312858Y-105858571D01*
X57812858Y-105858571D01*
X57955715Y-105930000D01*
X58027144Y-106001429D01*
X58098572Y-106144286D01*
X58098572Y-106287143D01*
X58027144Y-106430000D01*
X57955715Y-106501429D01*
X57812858Y-106572857D01*
X57312858Y-106572857D01*
X58741429Y-106001429D02*
X58812858Y-105930000D01*
X58955715Y-105858571D01*
X59312858Y-105858571D01*
X59455715Y-105930000D01*
X59527144Y-106001429D01*
X59598572Y-106144286D01*
X59598572Y-106287143D01*
X59527144Y-106501429D01*
X58670001Y-107358571D01*
X59598572Y-107358571D01*
X52732858Y-106572857D02*
X52947144Y-106644286D01*
X53018572Y-106715714D01*
X53090001Y-106858571D01*
X53090001Y-107072857D01*
X53018572Y-107215714D01*
X52947144Y-107287143D01*
X52804286Y-107358571D01*
X52232858Y-107358571D01*
X52232858Y-105858571D01*
X52732858Y-105858571D01*
X52875715Y-105930000D01*
X52947144Y-106001429D01*
X53018572Y-106144286D01*
X53018572Y-106287143D01*
X52947144Y-106430000D01*
X52875715Y-106501429D01*
X52732858Y-106572857D01*
X52232858Y-106572857D01*
X54518572Y-107358571D02*
X53661429Y-107358571D01*
X54090001Y-107358571D02*
X54090001Y-105858571D01*
X53947144Y-106072857D01*
X53804286Y-106215714D01*
X53661429Y-106287143D01*
D12*
X121920000Y-130175000D02*
X125095000Y-130175000D01*
X121920000Y-120015000D02*
X121920000Y-130175000D01*
D11*
X123717857Y-126202142D02*
X123789286Y-125987856D01*
X123860714Y-125916428D01*
X124003571Y-125844999D01*
X124217857Y-125844999D01*
X124360714Y-125916428D01*
X124432143Y-125987856D01*
X124503571Y-126130714D01*
X124503571Y-126702142D01*
X123003571Y-126702142D01*
X123003571Y-126202142D01*
X123075000Y-126059285D01*
X123146429Y-125987856D01*
X123289286Y-125916428D01*
X123432143Y-125916428D01*
X123575000Y-125987856D01*
X123646429Y-126059285D01*
X123717857Y-126202142D01*
X123717857Y-126702142D01*
X124075000Y-125273571D02*
X124075000Y-124559285D01*
X124503571Y-125416428D02*
X123003571Y-124916428D01*
X124503571Y-124416428D01*
X123003571Y-124130714D02*
X123003571Y-123273571D01*
X124503571Y-123702142D02*
X123003571Y-123702142D01*
X124503571Y-116792143D02*
X123003571Y-116792143D01*
X123003571Y-116435000D01*
X123075000Y-116220715D01*
X123217857Y-116077857D01*
X123360714Y-116006429D01*
X123646429Y-115935000D01*
X123860714Y-115935000D01*
X124146429Y-116006429D01*
X124289286Y-116077857D01*
X124432143Y-116220715D01*
X124503571Y-116435000D01*
X124503571Y-116792143D01*
X124503571Y-115292143D02*
X123003571Y-115292143D01*
X123075000Y-113792143D02*
X123003571Y-113935000D01*
X123003571Y-114149286D01*
X123075000Y-114363571D01*
X123217857Y-114506429D01*
X123360714Y-114577857D01*
X123646429Y-114649286D01*
X123860714Y-114649286D01*
X124146429Y-114577857D01*
X124289286Y-114506429D01*
X124432143Y-114363571D01*
X124503571Y-114149286D01*
X124503571Y-114006429D01*
X124432143Y-113792143D01*
X124360714Y-113720714D01*
X123860714Y-113720714D01*
X123860714Y-114006429D01*
X124503571Y-113077857D02*
X123003571Y-113077857D01*
X124432143Y-108270714D02*
X124503571Y-108056428D01*
X124503571Y-107699285D01*
X124432143Y-107556428D01*
X124360714Y-107484999D01*
X124217857Y-107413571D01*
X124075000Y-107413571D01*
X123932143Y-107484999D01*
X123860714Y-107556428D01*
X123789286Y-107699285D01*
X123717857Y-107984999D01*
X123646429Y-108127857D01*
X123575000Y-108199285D01*
X123432143Y-108270714D01*
X123289286Y-108270714D01*
X123146429Y-108199285D01*
X123075000Y-108127857D01*
X123003571Y-107984999D01*
X123003571Y-107627857D01*
X123075000Y-107413571D01*
X123717857Y-106770714D02*
X123717857Y-106270714D01*
X124503571Y-106056428D02*
X124503571Y-106770714D01*
X123003571Y-106770714D01*
X123003571Y-106056428D01*
X124503571Y-104556428D02*
X123789286Y-105056428D01*
X124503571Y-105413571D02*
X123003571Y-105413571D01*
X123003571Y-104842143D01*
X123075000Y-104699285D01*
X123146429Y-104627857D01*
X123289286Y-104556428D01*
X123503571Y-104556428D01*
X123646429Y-104627857D01*
X123717857Y-104699285D01*
X123789286Y-104842143D01*
X123789286Y-105413571D01*
X123003571Y-104127857D02*
X124503571Y-103627857D01*
X123003571Y-103127857D01*
X123003571Y-102342143D02*
X123003571Y-102056429D01*
X123075000Y-101913571D01*
X123217857Y-101770714D01*
X123503571Y-101699286D01*
X124003571Y-101699286D01*
X124289286Y-101770714D01*
X124432143Y-101913571D01*
X124503571Y-102056429D01*
X124503571Y-102342143D01*
X124432143Y-102485000D01*
X124289286Y-102627857D01*
X124003571Y-102699286D01*
X123503571Y-102699286D01*
X123217857Y-102627857D01*
X123075000Y-102485000D01*
X123003571Y-102342143D01*
X124503571Y-99056428D02*
X123789286Y-99556428D01*
X124503571Y-99913571D02*
X123003571Y-99913571D01*
X123003571Y-99342143D01*
X123075000Y-99199285D01*
X123146429Y-99127857D01*
X123289286Y-99056428D01*
X123503571Y-99056428D01*
X123646429Y-99127857D01*
X123717857Y-99199285D01*
X123789286Y-99342143D01*
X123789286Y-99913571D01*
X123717857Y-98413571D02*
X123717857Y-97913571D01*
X124503571Y-97699285D02*
X124503571Y-98413571D01*
X123003571Y-98413571D01*
X123003571Y-97699285D01*
X123075000Y-96270714D02*
X123003571Y-96413571D01*
X123003571Y-96627857D01*
X123075000Y-96842142D01*
X123217857Y-96985000D01*
X123360714Y-97056428D01*
X123646429Y-97127857D01*
X123860714Y-97127857D01*
X124146429Y-97056428D01*
X124289286Y-96985000D01*
X124432143Y-96842142D01*
X124503571Y-96627857D01*
X124503571Y-96485000D01*
X124432143Y-96270714D01*
X124360714Y-96199285D01*
X123860714Y-96199285D01*
X123860714Y-96485000D01*
D12*
X71755000Y-82550000D02*
X71755000Y-86360000D01*
X81915000Y-86360000D02*
X81915000Y-82550000D01*
X92075000Y-82550000D02*
X92075000Y-86360000D01*
X102235000Y-86360000D02*
X102235000Y-82550000D01*
X112395000Y-86360000D02*
X112395000Y-82550000D01*
X122555000Y-86360000D02*
X122555000Y-82550000D01*
X71120000Y-120650000D02*
X66040000Y-120650000D01*
X71120000Y-107950000D02*
X71120000Y-120650000D01*
X66040000Y-107950000D02*
X71120000Y-107950000D01*
X66040000Y-120650000D02*
X60960000Y-120650000D01*
X66040000Y-107950000D02*
X66040000Y-120650000D01*
X60960000Y-107950000D02*
X66040000Y-107950000D01*
X60960000Y-120650000D02*
X55880000Y-120650000D01*
X60960000Y-120015000D02*
X60960000Y-120650000D01*
X60960000Y-107950000D02*
X60960000Y-120015000D01*
X55880000Y-107950000D02*
X60960000Y-107950000D01*
X50800000Y-120650000D02*
X50800000Y-114300000D01*
X55880000Y-120650000D02*
X50800000Y-120650000D01*
X55880000Y-107950000D02*
X55880000Y-120650000D01*
X50800000Y-107950000D02*
X55880000Y-107950000D01*
X50800000Y-111760000D02*
X50800000Y-107950000D01*
X132715000Y-109855000D02*
X121920000Y-109855000D01*
X121920000Y-120015000D02*
X125095000Y-120015000D01*
X121920000Y-94615000D02*
X121920000Y-120015000D01*
X132715000Y-94615000D02*
X121920000Y-94615000D01*
X132715000Y-84455000D02*
X125095000Y-84455000D01*
X125095000Y-120015000D02*
X125095000Y-120650000D01*
X132715000Y-120015000D02*
X125095000Y-120015000D01*
X125095000Y-130175000D02*
X132715000Y-130175000D01*
X125095000Y-74295000D02*
X125095000Y-130175000D01*
X133350000Y-74295000D02*
X125095000Y-74295000D01*
X125095000Y-76835000D02*
X125095000Y-69215000D01*
X53975000Y-69215000D02*
X53975000Y-76835000D01*
X64135000Y-76835000D02*
X64770000Y-76835000D01*
X64135000Y-69215000D02*
X64135000Y-76835000D01*
X74295000Y-69215000D02*
X74295000Y-76835000D01*
X84455000Y-69215000D02*
X84455000Y-76835000D01*
X94615000Y-69215000D02*
X94615000Y-76835000D01*
X104775000Y-69215000D02*
X104775000Y-76835000D01*
X114935000Y-69215000D02*
X114935000Y-76835000D01*
X43815000Y-76835000D02*
X125095000Y-76835000D01*
X43815000Y-69215000D02*
X43815000Y-76835000D01*
D11*
X69528572Y-118637857D02*
X70028572Y-118637857D01*
X70242858Y-119423571D02*
X69528572Y-119423571D01*
X69528572Y-117923571D01*
X70242858Y-117923571D01*
X64448572Y-118637857D02*
X64948572Y-118637857D01*
X65162858Y-119423571D02*
X64448572Y-119423571D01*
X64448572Y-117923571D01*
X65162858Y-117923571D01*
X59368572Y-118637857D02*
X59868572Y-118637857D01*
X60082858Y-119423571D02*
X59368572Y-119423571D01*
X59368572Y-117923571D01*
X60082858Y-117923571D01*
X66952857Y-118995000D02*
X67667143Y-118995000D01*
X66810000Y-119423571D02*
X67310000Y-117923571D01*
X67810000Y-119423571D01*
X61872857Y-118995000D02*
X62587143Y-118995000D01*
X61730000Y-119423571D02*
X62230000Y-117923571D01*
X62730000Y-119423571D01*
X56792857Y-118995000D02*
X57507143Y-118995000D01*
X56650000Y-119423571D02*
X57150000Y-117923571D01*
X57650000Y-119423571D01*
X54288572Y-118637857D02*
X54788572Y-118637857D01*
X55002858Y-119423571D02*
X54288572Y-119423571D01*
X54288572Y-117923571D01*
X55002858Y-117923571D01*
X51712857Y-118995000D02*
X52427143Y-118995000D01*
X51570000Y-119423571D02*
X52070000Y-117923571D01*
X52570000Y-119423571D01*
X70314286Y-110390714D02*
X70242857Y-110462143D01*
X70028571Y-110533571D01*
X69885714Y-110533571D01*
X69671429Y-110462143D01*
X69528571Y-110319286D01*
X69457143Y-110176429D01*
X69385714Y-109890714D01*
X69385714Y-109676429D01*
X69457143Y-109390714D01*
X69528571Y-109247857D01*
X69671429Y-109105000D01*
X69885714Y-109033571D01*
X70028571Y-109033571D01*
X70242857Y-109105000D01*
X70314286Y-109176429D01*
X65234286Y-110390714D02*
X65162857Y-110462143D01*
X64948571Y-110533571D01*
X64805714Y-110533571D01*
X64591429Y-110462143D01*
X64448571Y-110319286D01*
X64377143Y-110176429D01*
X64305714Y-109890714D01*
X64305714Y-109676429D01*
X64377143Y-109390714D01*
X64448571Y-109247857D01*
X64591429Y-109105000D01*
X64805714Y-109033571D01*
X64948571Y-109033571D01*
X65162857Y-109105000D01*
X65234286Y-109176429D01*
X60154286Y-110390714D02*
X60082857Y-110462143D01*
X59868571Y-110533571D01*
X59725714Y-110533571D01*
X59511429Y-110462143D01*
X59368571Y-110319286D01*
X59297143Y-110176429D01*
X59225714Y-109890714D01*
X59225714Y-109676429D01*
X59297143Y-109390714D01*
X59368571Y-109247857D01*
X59511429Y-109105000D01*
X59725714Y-109033571D01*
X59868571Y-109033571D01*
X60082857Y-109105000D01*
X60154286Y-109176429D01*
X67417143Y-109747857D02*
X67631429Y-109819286D01*
X67702857Y-109890714D01*
X67774286Y-110033571D01*
X67774286Y-110247857D01*
X67702857Y-110390714D01*
X67631429Y-110462143D01*
X67488571Y-110533571D01*
X66917143Y-110533571D01*
X66917143Y-109033571D01*
X67417143Y-109033571D01*
X67560000Y-109105000D01*
X67631429Y-109176429D01*
X67702857Y-109319286D01*
X67702857Y-109462143D01*
X67631429Y-109605000D01*
X67560000Y-109676429D01*
X67417143Y-109747857D01*
X66917143Y-109747857D01*
X62337143Y-109747857D02*
X62551429Y-109819286D01*
X62622857Y-109890714D01*
X62694286Y-110033571D01*
X62694286Y-110247857D01*
X62622857Y-110390714D01*
X62551429Y-110462143D01*
X62408571Y-110533571D01*
X61837143Y-110533571D01*
X61837143Y-109033571D01*
X62337143Y-109033571D01*
X62480000Y-109105000D01*
X62551429Y-109176429D01*
X62622857Y-109319286D01*
X62622857Y-109462143D01*
X62551429Y-109605000D01*
X62480000Y-109676429D01*
X62337143Y-109747857D01*
X61837143Y-109747857D01*
X52177143Y-109747857D02*
X52391429Y-109819286D01*
X52462857Y-109890714D01*
X52534286Y-110033571D01*
X52534286Y-110247857D01*
X52462857Y-110390714D01*
X52391429Y-110462143D01*
X52248571Y-110533571D01*
X51677143Y-110533571D01*
X51677143Y-109033571D01*
X52177143Y-109033571D01*
X52320000Y-109105000D01*
X52391429Y-109176429D01*
X52462857Y-109319286D01*
X52462857Y-109462143D01*
X52391429Y-109605000D01*
X52320000Y-109676429D01*
X52177143Y-109747857D01*
X51677143Y-109747857D01*
X55074286Y-110390714D02*
X55002857Y-110462143D01*
X54788571Y-110533571D01*
X54645714Y-110533571D01*
X54431429Y-110462143D01*
X54288571Y-110319286D01*
X54217143Y-110176429D01*
X54145714Y-109890714D01*
X54145714Y-109676429D01*
X54217143Y-109390714D01*
X54288571Y-109247857D01*
X54431429Y-109105000D01*
X54645714Y-109033571D01*
X54788571Y-109033571D01*
X55002857Y-109105000D01*
X55074286Y-109176429D01*
X57257143Y-109747857D02*
X57471429Y-109819286D01*
X57542857Y-109890714D01*
X57614286Y-110033571D01*
X57614286Y-110247857D01*
X57542857Y-110390714D01*
X57471429Y-110462143D01*
X57328571Y-110533571D01*
X56757143Y-110533571D01*
X56757143Y-109033571D01*
X57257143Y-109033571D01*
X57400000Y-109105000D01*
X57471429Y-109176429D01*
X57542857Y-109319286D01*
X57542857Y-109462143D01*
X57471429Y-109605000D01*
X57400000Y-109676429D01*
X57257143Y-109747857D01*
X56757143Y-109747857D01*
D12*
X119380000Y-124460000D02*
X118110000Y-125730000D01*
X120650000Y-125730000D02*
X119380000Y-124460000D01*
X118110000Y-125730000D02*
X120650000Y-125730000D01*
X117475000Y-125730000D02*
X116205000Y-124460000D01*
X116840000Y-125730000D02*
X117475000Y-125730000D01*
X114935000Y-125730000D02*
X116840000Y-125730000D01*
X116205000Y-124460000D02*
X114935000Y-125730000D01*
X59944000Y-85852000D02*
X60960000Y-86868000D01*
X61976000Y-85852000D02*
X59944000Y-85852000D01*
X60960000Y-86868000D02*
X61976000Y-85852000D01*
X54864000Y-85852000D02*
X55880000Y-86868000D01*
X56896000Y-85852000D02*
X54864000Y-85852000D01*
X55880000Y-86868000D02*
X56896000Y-85852000D01*
X49784000Y-85852000D02*
X50800000Y-86868000D01*
X51816000Y-85852000D02*
X49784000Y-85852000D01*
X50800000Y-86868000D02*
X51816000Y-85852000D01*
X44704000Y-85852000D02*
X45720000Y-86868000D01*
X46736000Y-85852000D02*
X44704000Y-85852000D01*
X45720000Y-86868000D02*
X46736000Y-85852000D01*
D11*
X117188143Y-135635428D02*
X117259571Y-135421142D01*
X117259571Y-135063999D01*
X117188143Y-134921142D01*
X117116714Y-134849713D01*
X116973857Y-134778285D01*
X116831000Y-134778285D01*
X116688143Y-134849713D01*
X116616714Y-134921142D01*
X116545286Y-135063999D01*
X116473857Y-135349713D01*
X116402429Y-135492571D01*
X116331000Y-135563999D01*
X116188143Y-135635428D01*
X116045286Y-135635428D01*
X115902429Y-135563999D01*
X115831000Y-135492571D01*
X115759571Y-135349713D01*
X115759571Y-134992571D01*
X115831000Y-134778285D01*
X116473857Y-134135428D02*
X116473857Y-133635428D01*
X117259571Y-133421142D02*
X117259571Y-134135428D01*
X115759571Y-134135428D01*
X115759571Y-133421142D01*
X117259571Y-131921142D02*
X116545286Y-132421142D01*
X117259571Y-132778285D02*
X115759571Y-132778285D01*
X115759571Y-132206857D01*
X115831000Y-132063999D01*
X115902429Y-131992571D01*
X116045286Y-131921142D01*
X116259571Y-131921142D01*
X116402429Y-131992571D01*
X116473857Y-132063999D01*
X116545286Y-132206857D01*
X116545286Y-132778285D01*
X115759571Y-131492571D02*
X117259571Y-130992571D01*
X115759571Y-130492571D01*
X115759571Y-129706857D02*
X115759571Y-129421143D01*
X115831000Y-129278285D01*
X115973857Y-129135428D01*
X116259571Y-129064000D01*
X116759571Y-129064000D01*
X117045286Y-129135428D01*
X117188143Y-129278285D01*
X117259571Y-129421143D01*
X117259571Y-129706857D01*
X117188143Y-129849714D01*
X117045286Y-129992571D01*
X116759571Y-130064000D01*
X116259571Y-130064000D01*
X115973857Y-129992571D01*
X115831000Y-129849714D01*
X115759571Y-129706857D01*
X117259571Y-126492571D02*
X117259571Y-127349714D01*
X117259571Y-126921142D02*
X115759571Y-126921142D01*
X115973857Y-127063999D01*
X116116714Y-127206857D01*
X116188143Y-127349714D01*
X119738143Y-135635428D02*
X119809571Y-135421142D01*
X119809571Y-135063999D01*
X119738143Y-134921142D01*
X119666714Y-134849713D01*
X119523857Y-134778285D01*
X119381000Y-134778285D01*
X119238143Y-134849713D01*
X119166714Y-134921142D01*
X119095286Y-135063999D01*
X119023857Y-135349713D01*
X118952429Y-135492571D01*
X118881000Y-135563999D01*
X118738143Y-135635428D01*
X118595286Y-135635428D01*
X118452429Y-135563999D01*
X118381000Y-135492571D01*
X118309571Y-135349713D01*
X118309571Y-134992571D01*
X118381000Y-134778285D01*
X119023857Y-134135428D02*
X119023857Y-133635428D01*
X119809571Y-133421142D02*
X119809571Y-134135428D01*
X118309571Y-134135428D01*
X118309571Y-133421142D01*
X119809571Y-131921142D02*
X119095286Y-132421142D01*
X119809571Y-132778285D02*
X118309571Y-132778285D01*
X118309571Y-132206857D01*
X118381000Y-132063999D01*
X118452429Y-131992571D01*
X118595286Y-131921142D01*
X118809571Y-131921142D01*
X118952429Y-131992571D01*
X119023857Y-132063999D01*
X119095286Y-132206857D01*
X119095286Y-132778285D01*
X118309571Y-131492571D02*
X119809571Y-130992571D01*
X118309571Y-130492571D01*
X118309571Y-129706857D02*
X118309571Y-129421143D01*
X118381000Y-129278285D01*
X118523857Y-129135428D01*
X118809571Y-129064000D01*
X119309571Y-129064000D01*
X119595286Y-129135428D01*
X119738143Y-129278285D01*
X119809571Y-129421143D01*
X119809571Y-129706857D01*
X119738143Y-129849714D01*
X119595286Y-129992571D01*
X119309571Y-130064000D01*
X118809571Y-130064000D01*
X118523857Y-129992571D01*
X118381000Y-129849714D01*
X118309571Y-129706857D01*
X118452429Y-127349714D02*
X118381000Y-127278285D01*
X118309571Y-127135428D01*
X118309571Y-126778285D01*
X118381000Y-126635428D01*
X118452429Y-126563999D01*
X118595286Y-126492571D01*
X118738143Y-126492571D01*
X118952429Y-126563999D01*
X119809571Y-127421142D01*
X119809571Y-126492571D01*
X127107143Y-128309285D02*
X127107143Y-127166428D01*
X127107143Y-123023571D02*
X127107143Y-121880714D01*
X127678571Y-122452143D02*
X126535714Y-122452143D01*
X127107143Y-118149285D02*
X127107143Y-117006428D01*
X127107143Y-112863571D02*
X127107143Y-111720714D01*
X127678571Y-112292143D02*
X126535714Y-112292143D01*
X127107143Y-109306428D02*
X127107143Y-108163571D01*
X127678571Y-108735000D02*
X126535714Y-108735000D01*
X127107143Y-102877857D02*
X127107143Y-101735000D01*
X126178571Y-98449286D02*
X126178571Y-98163572D01*
X126250000Y-98020714D01*
X126392857Y-97877857D01*
X126678571Y-97806429D01*
X127178571Y-97806429D01*
X127464286Y-97877857D01*
X127607143Y-98020714D01*
X127678571Y-98163572D01*
X127678571Y-98449286D01*
X127607143Y-98592143D01*
X127464286Y-98735000D01*
X127178571Y-98806429D01*
X126678571Y-98806429D01*
X126392857Y-98735000D01*
X126250000Y-98592143D01*
X126178571Y-98449286D01*
X126178571Y-97163571D02*
X127392857Y-97163571D01*
X127535714Y-97092143D01*
X127607143Y-97020714D01*
X127678571Y-96877857D01*
X127678571Y-96592143D01*
X127607143Y-96449285D01*
X127535714Y-96377857D01*
X127392857Y-96306428D01*
X126178571Y-96306428D01*
X126178571Y-95806428D02*
X126178571Y-94949285D01*
X127678571Y-95377856D02*
X126178571Y-95377856D01*
X127607143Y-93249286D02*
X127678571Y-93035000D01*
X127678571Y-92677857D01*
X127607143Y-92535000D01*
X127535714Y-92463571D01*
X127392857Y-92392143D01*
X127250000Y-92392143D01*
X127107143Y-92463571D01*
X127035714Y-92535000D01*
X126964286Y-92677857D01*
X126892857Y-92963571D01*
X126821429Y-93106429D01*
X126750000Y-93177857D01*
X126607143Y-93249286D01*
X126464286Y-93249286D01*
X126321429Y-93177857D01*
X126250000Y-93106429D01*
X126178571Y-92963571D01*
X126178571Y-92606429D01*
X126250000Y-92392143D01*
X126178571Y-91892143D02*
X127678571Y-91535000D01*
X126607143Y-91249286D01*
X127678571Y-90963572D01*
X126178571Y-90606429D01*
X127678571Y-88892143D02*
X126178571Y-88892143D01*
X126178571Y-88535000D01*
X126250000Y-88320715D01*
X126392857Y-88177857D01*
X126535714Y-88106429D01*
X126821429Y-88035000D01*
X127035714Y-88035000D01*
X127321429Y-88106429D01*
X127464286Y-88177857D01*
X127607143Y-88320715D01*
X127678571Y-88535000D01*
X127678571Y-88892143D01*
X127678571Y-87392143D02*
X126178571Y-87392143D01*
X126250000Y-85892143D02*
X126178571Y-86035000D01*
X126178571Y-86249286D01*
X126250000Y-86463571D01*
X126392857Y-86606429D01*
X126535714Y-86677857D01*
X126821429Y-86749286D01*
X127035714Y-86749286D01*
X127321429Y-86677857D01*
X127464286Y-86606429D01*
X127607143Y-86463571D01*
X127678571Y-86249286D01*
X127678571Y-86106429D01*
X127607143Y-85892143D01*
X127535714Y-85820714D01*
X127035714Y-85820714D01*
X127035714Y-86106429D01*
X127607143Y-83446429D02*
X127678571Y-83232143D01*
X127678571Y-82875000D01*
X127607143Y-82732143D01*
X127535714Y-82660714D01*
X127392857Y-82589286D01*
X127250000Y-82589286D01*
X127107143Y-82660714D01*
X127035714Y-82732143D01*
X126964286Y-82875000D01*
X126892857Y-83160714D01*
X126821429Y-83303572D01*
X126750000Y-83375000D01*
X126607143Y-83446429D01*
X126464286Y-83446429D01*
X126321429Y-83375000D01*
X126250000Y-83303572D01*
X126178571Y-83160714D01*
X126178571Y-82803572D01*
X126250000Y-82589286D01*
X126178571Y-82089286D02*
X127678571Y-81732143D01*
X126607143Y-81446429D01*
X127678571Y-81160715D01*
X126178571Y-80803572D01*
X127678571Y-79089286D02*
X126178571Y-79089286D01*
X127250000Y-78589286D01*
X126178571Y-78089286D01*
X127678571Y-78089286D01*
X126178571Y-77089286D02*
X126178571Y-76803572D01*
X126250000Y-76660714D01*
X126392857Y-76517857D01*
X126678571Y-76446429D01*
X127178571Y-76446429D01*
X127464286Y-76517857D01*
X127607143Y-76660714D01*
X127678571Y-76803572D01*
X127678571Y-77089286D01*
X127607143Y-77232143D01*
X127464286Y-77375000D01*
X127178571Y-77446429D01*
X126678571Y-77446429D01*
X126392857Y-77375000D01*
X126250000Y-77232143D01*
X126178571Y-77089286D01*
X126178571Y-76017857D02*
X126178571Y-75160714D01*
X127678571Y-75589285D02*
X126178571Y-75589285D01*
X59745715Y-84498571D02*
X59745715Y-82998571D01*
X60245715Y-84070000D01*
X60745715Y-82998571D01*
X60745715Y-84498571D01*
X62102858Y-83498571D02*
X62102858Y-84498571D01*
X61745715Y-82927143D02*
X61388572Y-83998571D01*
X62317144Y-83998571D01*
X54665715Y-84498571D02*
X54665715Y-82998571D01*
X55165715Y-84070000D01*
X55665715Y-82998571D01*
X55665715Y-84498571D01*
X56237144Y-82998571D02*
X57165715Y-82998571D01*
X56665715Y-83570000D01*
X56880001Y-83570000D01*
X57022858Y-83641429D01*
X57094287Y-83712857D01*
X57165715Y-83855714D01*
X57165715Y-84212857D01*
X57094287Y-84355714D01*
X57022858Y-84427143D01*
X56880001Y-84498571D01*
X56451429Y-84498571D01*
X56308572Y-84427143D01*
X56237144Y-84355714D01*
X49585715Y-84498571D02*
X49585715Y-82998571D01*
X50085715Y-84070000D01*
X50585715Y-82998571D01*
X50585715Y-84498571D01*
X51228572Y-83141429D02*
X51300001Y-83070000D01*
X51442858Y-82998571D01*
X51800001Y-82998571D01*
X51942858Y-83070000D01*
X52014287Y-83141429D01*
X52085715Y-83284286D01*
X52085715Y-83427143D01*
X52014287Y-83641429D01*
X51157144Y-84498571D01*
X52085715Y-84498571D01*
X44505715Y-84498571D02*
X44505715Y-82998571D01*
X45005715Y-84070000D01*
X45505715Y-82998571D01*
X45505715Y-84498571D01*
X47005715Y-84498571D02*
X46148572Y-84498571D01*
X46577144Y-84498571D02*
X46577144Y-82998571D01*
X46434287Y-83212857D01*
X46291429Y-83355714D01*
X46148572Y-83427143D01*
X115907858Y-75037143D02*
X117050715Y-75037143D01*
X119407858Y-74822857D02*
X119622144Y-74894286D01*
X119693572Y-74965714D01*
X119765001Y-75108571D01*
X119765001Y-75322857D01*
X119693572Y-75465714D01*
X119622144Y-75537143D01*
X119479286Y-75608571D01*
X118907858Y-75608571D01*
X118907858Y-74108571D01*
X119407858Y-74108571D01*
X119550715Y-74180000D01*
X119622144Y-74251429D01*
X119693572Y-74394286D01*
X119693572Y-74537143D01*
X119622144Y-74680000D01*
X119550715Y-74751429D01*
X119407858Y-74822857D01*
X118907858Y-74822857D01*
X121050715Y-74608571D02*
X121050715Y-75608571D01*
X120693572Y-74037143D02*
X120336429Y-75108571D01*
X121265001Y-75108571D01*
X122979286Y-75037143D02*
X124122143Y-75037143D01*
X123550714Y-75608571D02*
X123550714Y-74465714D01*
X105747858Y-75037143D02*
X106890715Y-75037143D01*
X109247858Y-74822857D02*
X109462144Y-74894286D01*
X109533572Y-74965714D01*
X109605001Y-75108571D01*
X109605001Y-75322857D01*
X109533572Y-75465714D01*
X109462144Y-75537143D01*
X109319286Y-75608571D01*
X108747858Y-75608571D01*
X108747858Y-74108571D01*
X109247858Y-74108571D01*
X109390715Y-74180000D01*
X109462144Y-74251429D01*
X109533572Y-74394286D01*
X109533572Y-74537143D01*
X109462144Y-74680000D01*
X109390715Y-74751429D01*
X109247858Y-74822857D01*
X108747858Y-74822857D01*
X110105001Y-74108571D02*
X111033572Y-74108571D01*
X110533572Y-74680000D01*
X110747858Y-74680000D01*
X110890715Y-74751429D01*
X110962144Y-74822857D01*
X111033572Y-74965714D01*
X111033572Y-75322857D01*
X110962144Y-75465714D01*
X110890715Y-75537143D01*
X110747858Y-75608571D01*
X110319286Y-75608571D01*
X110176429Y-75537143D01*
X110105001Y-75465714D01*
X112819286Y-75037143D02*
X113962143Y-75037143D01*
X113390714Y-75608571D02*
X113390714Y-74465714D01*
X95587858Y-75037143D02*
X96730715Y-75037143D01*
X99087858Y-74822857D02*
X99302144Y-74894286D01*
X99373572Y-74965714D01*
X99445001Y-75108571D01*
X99445001Y-75322857D01*
X99373572Y-75465714D01*
X99302144Y-75537143D01*
X99159286Y-75608571D01*
X98587858Y-75608571D01*
X98587858Y-74108571D01*
X99087858Y-74108571D01*
X99230715Y-74180000D01*
X99302144Y-74251429D01*
X99373572Y-74394286D01*
X99373572Y-74537143D01*
X99302144Y-74680000D01*
X99230715Y-74751429D01*
X99087858Y-74822857D01*
X98587858Y-74822857D01*
X100016429Y-74251429D02*
X100087858Y-74180000D01*
X100230715Y-74108571D01*
X100587858Y-74108571D01*
X100730715Y-74180000D01*
X100802144Y-74251429D01*
X100873572Y-74394286D01*
X100873572Y-74537143D01*
X100802144Y-74751429D01*
X99945001Y-75608571D01*
X100873572Y-75608571D01*
X102659286Y-75037143D02*
X103802143Y-75037143D01*
X103230714Y-75608571D02*
X103230714Y-74465714D01*
X85427858Y-75037143D02*
X86570715Y-75037143D01*
X88927858Y-74822857D02*
X89142144Y-74894286D01*
X89213572Y-74965714D01*
X89285001Y-75108571D01*
X89285001Y-75322857D01*
X89213572Y-75465714D01*
X89142144Y-75537143D01*
X88999286Y-75608571D01*
X88427858Y-75608571D01*
X88427858Y-74108571D01*
X88927858Y-74108571D01*
X89070715Y-74180000D01*
X89142144Y-74251429D01*
X89213572Y-74394286D01*
X89213572Y-74537143D01*
X89142144Y-74680000D01*
X89070715Y-74751429D01*
X88927858Y-74822857D01*
X88427858Y-74822857D01*
X90713572Y-75608571D02*
X89856429Y-75608571D01*
X90285001Y-75608571D02*
X90285001Y-74108571D01*
X90142144Y-74322857D01*
X89999286Y-74465714D01*
X89856429Y-74537143D01*
X92499286Y-75037143D02*
X93642143Y-75037143D01*
X93070714Y-75608571D02*
X93070714Y-74465714D01*
X75553572Y-75180000D02*
X76267858Y-75180000D01*
X75410715Y-75608571D02*
X75910715Y-74108571D01*
X76410715Y-75608571D01*
X78053572Y-75608571D02*
X78053572Y-74108571D01*
X78553572Y-75180000D01*
X79053572Y-74108571D01*
X79053572Y-75608571D01*
X80410715Y-74608571D02*
X80410715Y-75608571D01*
X80053572Y-74037143D02*
X79696429Y-75108571D01*
X80625001Y-75108571D01*
X82839286Y-74822857D02*
X83053572Y-74894286D01*
X83125000Y-74965714D01*
X83196429Y-75108571D01*
X83196429Y-75322857D01*
X83125000Y-75465714D01*
X83053572Y-75537143D01*
X82910714Y-75608571D01*
X82339286Y-75608571D01*
X82339286Y-74108571D01*
X82839286Y-74108571D01*
X82982143Y-74180000D01*
X83053572Y-74251429D01*
X83125000Y-74394286D01*
X83125000Y-74537143D01*
X83053572Y-74680000D01*
X82982143Y-74751429D01*
X82839286Y-74822857D01*
X82339286Y-74822857D01*
X65393572Y-75180000D02*
X66107858Y-75180000D01*
X65250715Y-75608571D02*
X65750715Y-74108571D01*
X66250715Y-75608571D01*
X67893572Y-75608571D02*
X67893572Y-74108571D01*
X68393572Y-75180000D01*
X68893572Y-74108571D01*
X68893572Y-75608571D01*
X69465001Y-74108571D02*
X70393572Y-74108571D01*
X69893572Y-74680000D01*
X70107858Y-74680000D01*
X70250715Y-74751429D01*
X70322144Y-74822857D01*
X70393572Y-74965714D01*
X70393572Y-75322857D01*
X70322144Y-75465714D01*
X70250715Y-75537143D01*
X70107858Y-75608571D01*
X69679286Y-75608571D01*
X69536429Y-75537143D01*
X69465001Y-75465714D01*
X72679286Y-74822857D02*
X72893572Y-74894286D01*
X72965000Y-74965714D01*
X73036429Y-75108571D01*
X73036429Y-75322857D01*
X72965000Y-75465714D01*
X72893572Y-75537143D01*
X72750714Y-75608571D01*
X72179286Y-75608571D01*
X72179286Y-74108571D01*
X72679286Y-74108571D01*
X72822143Y-74180000D01*
X72893572Y-74251429D01*
X72965000Y-74394286D01*
X72965000Y-74537143D01*
X72893572Y-74680000D01*
X72822143Y-74751429D01*
X72679286Y-74822857D01*
X72179286Y-74822857D01*
X55233572Y-75180000D02*
X55947858Y-75180000D01*
X55090715Y-75608571D02*
X55590715Y-74108571D01*
X56090715Y-75608571D01*
X57733572Y-75608571D02*
X57733572Y-74108571D01*
X58233572Y-75180000D01*
X58733572Y-74108571D01*
X58733572Y-75608571D01*
X59376429Y-74251429D02*
X59447858Y-74180000D01*
X59590715Y-74108571D01*
X59947858Y-74108571D01*
X60090715Y-74180000D01*
X60162144Y-74251429D01*
X60233572Y-74394286D01*
X60233572Y-74537143D01*
X60162144Y-74751429D01*
X59305001Y-75608571D01*
X60233572Y-75608571D01*
X62519286Y-74822857D02*
X62733572Y-74894286D01*
X62805000Y-74965714D01*
X62876429Y-75108571D01*
X62876429Y-75322857D01*
X62805000Y-75465714D01*
X62733572Y-75537143D01*
X62590714Y-75608571D01*
X62019286Y-75608571D01*
X62019286Y-74108571D01*
X62519286Y-74108571D01*
X62662143Y-74180000D01*
X62733572Y-74251429D01*
X62805000Y-74394286D01*
X62805000Y-74537143D01*
X62733572Y-74680000D01*
X62662143Y-74751429D01*
X62519286Y-74822857D01*
X62019286Y-74822857D01*
X45073572Y-75180000D02*
X45787858Y-75180000D01*
X44930715Y-75608571D02*
X45430715Y-74108571D01*
X45930715Y-75608571D01*
X47573572Y-75608571D02*
X47573572Y-74108571D01*
X48073572Y-75180000D01*
X48573572Y-74108571D01*
X48573572Y-75608571D01*
X50073572Y-75608571D02*
X49216429Y-75608571D01*
X49645001Y-75608571D02*
X49645001Y-74108571D01*
X49502144Y-74322857D01*
X49359286Y-74465714D01*
X49216429Y-74537143D01*
X52359286Y-74822857D02*
X52573572Y-74894286D01*
X52645000Y-74965714D01*
X52716429Y-75108571D01*
X52716429Y-75322857D01*
X52645000Y-75465714D01*
X52573572Y-75537143D01*
X52430714Y-75608571D01*
X51859286Y-75608571D01*
X51859286Y-74108571D01*
X52359286Y-74108571D01*
X52502143Y-74180000D01*
X52573572Y-74251429D01*
X52645000Y-74394286D01*
X52645000Y-74537143D01*
X52573572Y-74680000D01*
X52502143Y-74751429D01*
X52359286Y-74822857D01*
X51859286Y-74822857D01*
D13*
X123415000Y-82595000D02*
X121695000Y-82595000D01*
X121695000Y-82595000D02*
X121695000Y-86315000D01*
X121695000Y-86315000D02*
X123415000Y-86315000D01*
X123415000Y-86315000D02*
X123415000Y-82595000D01*
X122555000Y-81525000D02*
X122555000Y-82595000D01*
X122555000Y-87385000D02*
X122555000Y-86315000D01*
X113255000Y-82595000D02*
X111535000Y-82595000D01*
X111535000Y-82595000D02*
X111535000Y-86315000D01*
X111535000Y-86315000D02*
X113255000Y-86315000D01*
X113255000Y-86315000D02*
X113255000Y-82595000D01*
X112395000Y-81525000D02*
X112395000Y-82595000D01*
X112395000Y-87385000D02*
X112395000Y-86315000D01*
X103095000Y-82595000D02*
X101375000Y-82595000D01*
X101375000Y-82595000D02*
X101375000Y-86315000D01*
X101375000Y-86315000D02*
X103095000Y-86315000D01*
X103095000Y-86315000D02*
X103095000Y-82595000D01*
X102235000Y-81525000D02*
X102235000Y-82595000D01*
X102235000Y-87385000D02*
X102235000Y-86315000D01*
X92935000Y-82595000D02*
X91215000Y-82595000D01*
X91215000Y-82595000D02*
X91215000Y-86315000D01*
X91215000Y-86315000D02*
X92935000Y-86315000D01*
X92935000Y-86315000D02*
X92935000Y-82595000D01*
X92075000Y-81525000D02*
X92075000Y-82595000D01*
X92075000Y-87385000D02*
X92075000Y-86315000D01*
X92495000Y-125230000D02*
X92495000Y-126230000D01*
X94195000Y-126230000D02*
X94195000Y-125230000D01*
X104380000Y-117090000D02*
X105550000Y-117090000D01*
X108950000Y-117090000D02*
X107780000Y-117090000D01*
X108190000Y-121670000D02*
X107780000Y-121670000D01*
X105140000Y-121670000D02*
X105550000Y-121670000D01*
X104380000Y-120900000D02*
X104380000Y-117090000D01*
X104380000Y-120900000D02*
X105140000Y-121670000D01*
X108950000Y-120900000D02*
X108950000Y-117090000D01*
X108950000Y-120900000D02*
X108190000Y-121670000D01*
X105549666Y-117550207D02*
G75*
G03X105550000Y-121210000I1130334J-1829793D01*
G01*
X107788944Y-121204594D02*
G75*
G03X107780000Y-117550000I-1108944J1824594D01*
G01*
X81055000Y-86315000D02*
X82775000Y-86315000D01*
X82775000Y-86315000D02*
X82775000Y-82595000D01*
X82775000Y-82595000D02*
X81055000Y-82595000D01*
X81055000Y-82595000D02*
X81055000Y-86315000D01*
X81915000Y-87385000D02*
X81915000Y-86315000D01*
X81915000Y-81525000D02*
X81915000Y-82595000D01*
X72615000Y-82595000D02*
X70895000Y-82595000D01*
X70895000Y-82595000D02*
X70895000Y-86315000D01*
X70895000Y-86315000D02*
X72615000Y-86315000D01*
X72615000Y-86315000D02*
X72615000Y-82595000D01*
X71755000Y-81525000D02*
X71755000Y-82595000D01*
X71755000Y-87385000D02*
X71755000Y-86315000D01*
X117595000Y-121285000D02*
X117595000Y-116085000D01*
X117595000Y-116085000D02*
X114815000Y-116085000D01*
X114815000Y-116085000D02*
X114815000Y-121285000D01*
X114815000Y-121285000D02*
X117595000Y-121285000D01*
X117595000Y-122555000D02*
X117595000Y-123945000D01*
X117595000Y-123945000D02*
X116205000Y-123945000D01*
X120770000Y-121285000D02*
X120770000Y-116085000D01*
X120770000Y-116085000D02*
X117990000Y-116085000D01*
X117990000Y-116085000D02*
X117990000Y-121285000D01*
X117990000Y-121285000D02*
X120770000Y-121285000D01*
X120770000Y-122555000D02*
X120770000Y-123945000D01*
X120770000Y-123945000D02*
X119380000Y-123945000D01*
X50800000Y-128390000D02*
X86480000Y-128390000D01*
X86480000Y-128390000D02*
X86480000Y-123070000D01*
X86480000Y-123070000D02*
X48140000Y-123070000D01*
X48140000Y-123070000D02*
X48140000Y-125730000D01*
X48140000Y-125730000D02*
X50800000Y-125730000D01*
X50800000Y-125730000D02*
X50800000Y-128390000D01*
X49530000Y-128390000D02*
X48140000Y-128390000D01*
X48140000Y-128390000D02*
X48140000Y-127000000D01*
X53340000Y-116960000D02*
X71240000Y-116960000D01*
X71240000Y-116960000D02*
X71240000Y-111640000D01*
X71240000Y-111640000D02*
X50680000Y-111640000D01*
X50680000Y-111640000D02*
X50680000Y-114300000D01*
X50680000Y-114300000D02*
X53340000Y-114300000D01*
X53340000Y-114300000D02*
X53340000Y-116960000D01*
X52070000Y-116960000D02*
X50680000Y-116960000D01*
X50680000Y-116960000D02*
X50680000Y-115570000D01*
X59570000Y-90170000D02*
X59570000Y-102990000D01*
X59570000Y-102990000D02*
X62350000Y-102990000D01*
X62350000Y-102990000D02*
X62350000Y-90170000D01*
X62350000Y-90170000D02*
X59570000Y-90170000D01*
X59570000Y-88900000D02*
X59570000Y-87510000D01*
X59570000Y-87510000D02*
X60960000Y-87510000D01*
X54490000Y-90170000D02*
X54490000Y-102990000D01*
X54490000Y-102990000D02*
X57270000Y-102990000D01*
X57270000Y-102990000D02*
X57270000Y-90170000D01*
X57270000Y-90170000D02*
X54490000Y-90170000D01*
X54490000Y-88900000D02*
X54490000Y-87510000D01*
X54490000Y-87510000D02*
X55880000Y-87510000D01*
X49410000Y-90170000D02*
X49410000Y-102990000D01*
X49410000Y-102990000D02*
X52190000Y-102990000D01*
X52190000Y-102990000D02*
X52190000Y-90170000D01*
X52190000Y-90170000D02*
X49410000Y-90170000D01*
X49410000Y-88900000D02*
X49410000Y-87510000D01*
X49410000Y-87510000D02*
X50800000Y-87510000D01*
X44330000Y-90170000D02*
X44330000Y-102990000D01*
X44330000Y-102990000D02*
X47110000Y-102990000D01*
X47110000Y-102990000D02*
X47110000Y-90170000D01*
X47110000Y-90170000D02*
X44330000Y-90170000D01*
X44330000Y-88900000D02*
X44330000Y-87510000D01*
X44330000Y-87510000D02*
X45720000Y-87510000D01*
D14*
X107555000Y-125130000D02*
X107555000Y-126330000D01*
X105805000Y-126330000D02*
X105805000Y-125130000D01*
X100457000Y-124206000D02*
X100457000Y-127381000D01*
X100457000Y-127381000D02*
X102235000Y-127381000D01*
X102235000Y-127381000D02*
X102235000Y-124206000D01*
X95885000Y-124206000D02*
X95885000Y-127381000D01*
X95885000Y-127381000D02*
X97663000Y-127381000D01*
X97663000Y-127381000D02*
X97663000Y-124206000D01*
X102489000Y-118110000D02*
X102489000Y-124206000D01*
X102489000Y-124206000D02*
X95631000Y-124206000D01*
X95631000Y-124206000D02*
X95631000Y-116332000D01*
X95631000Y-116205000D02*
X102489000Y-116205000D01*
X102489000Y-116332000D02*
X102489000Y-118110000D01*
D13*
X130175000Y-84455000D02*
X130175000Y-74295000D01*
X128905000Y-84455000D02*
X136525000Y-84455000D01*
X136525000Y-84455000D02*
X136525000Y-74295000D01*
X136525000Y-74295000D02*
X128905000Y-74295000D01*
X128905000Y-74295000D02*
X128905000Y-84455000D01*
X130175000Y-94615000D02*
X130175000Y-84455000D01*
X128905000Y-94615000D02*
X136525000Y-94615000D01*
X136525000Y-94615000D02*
X136525000Y-84455000D01*
X136525000Y-84455000D02*
X128905000Y-84455000D01*
X128905000Y-84455000D02*
X128905000Y-94615000D01*
X128905000Y-94615000D02*
X136525000Y-94615000D01*
X128905000Y-109855000D02*
X136525000Y-109855000D01*
X130175000Y-94615000D02*
X130175000Y-109855000D01*
X136525000Y-94615000D02*
X136525000Y-109855000D01*
X128905000Y-94615000D02*
X128905000Y-109855000D01*
X94615000Y-71755000D02*
X84455000Y-71755000D01*
X94615000Y-73025000D02*
X94615000Y-65405000D01*
X94615000Y-65405000D02*
X84455000Y-65405000D01*
X84455000Y-65405000D02*
X84455000Y-73025000D01*
X84455000Y-73025000D02*
X94615000Y-73025000D01*
X104775000Y-71755000D02*
X94615000Y-71755000D01*
X104775000Y-73025000D02*
X104775000Y-65405000D01*
X104775000Y-65405000D02*
X94615000Y-65405000D01*
X94615000Y-65405000D02*
X94615000Y-73025000D01*
X94615000Y-73025000D02*
X104775000Y-73025000D01*
X114935000Y-71755000D02*
X104775000Y-71755000D01*
X114935000Y-73025000D02*
X114935000Y-65405000D01*
X114935000Y-65405000D02*
X104775000Y-65405000D01*
X104775000Y-65405000D02*
X104775000Y-73025000D01*
X104775000Y-73025000D02*
X114935000Y-73025000D01*
X125095000Y-71755000D02*
X114935000Y-71755000D01*
X125095000Y-73025000D02*
X125095000Y-65405000D01*
X125095000Y-65405000D02*
X114935000Y-65405000D01*
X114935000Y-65405000D02*
X114935000Y-73025000D01*
X114935000Y-73025000D02*
X125095000Y-73025000D01*
X84455000Y-71755000D02*
X74295000Y-71755000D01*
X84455000Y-73025000D02*
X84455000Y-65405000D01*
X84455000Y-65405000D02*
X74295000Y-65405000D01*
X74295000Y-65405000D02*
X74295000Y-73025000D01*
X74295000Y-73025000D02*
X84455000Y-73025000D01*
X74295000Y-71755000D02*
X64135000Y-71755000D01*
X74295000Y-73025000D02*
X74295000Y-65405000D01*
X74295000Y-65405000D02*
X64135000Y-65405000D01*
X64135000Y-65405000D02*
X64135000Y-73025000D01*
X64135000Y-73025000D02*
X74295000Y-73025000D01*
X64135000Y-71755000D02*
X53975000Y-71755000D01*
X64135000Y-73025000D02*
X64135000Y-65405000D01*
X64135000Y-65405000D02*
X53975000Y-65405000D01*
X53975000Y-65405000D02*
X53975000Y-73025000D01*
X53975000Y-73025000D02*
X64135000Y-73025000D01*
X53975000Y-71755000D02*
X43815000Y-71755000D01*
X53975000Y-73025000D02*
X53975000Y-65405000D01*
X53975000Y-65405000D02*
X43815000Y-65405000D01*
X43815000Y-65405000D02*
X43815000Y-73025000D01*
X43815000Y-73025000D02*
X53975000Y-73025000D01*
X130175000Y-120015000D02*
X130175000Y-109855000D01*
X128905000Y-120015000D02*
X136525000Y-120015000D01*
X136525000Y-120015000D02*
X136525000Y-109855000D01*
X136525000Y-109855000D02*
X128905000Y-109855000D01*
X128905000Y-109855000D02*
X128905000Y-120015000D01*
X130175000Y-130175000D02*
X130175000Y-120015000D01*
X128905000Y-130175000D02*
X136525000Y-130175000D01*
X136525000Y-130175000D02*
X136525000Y-120015000D01*
X136525000Y-120015000D02*
X128905000Y-120015000D01*
X128905000Y-120015000D02*
X128905000Y-130175000D01*
D14*
X122221667Y-90733571D02*
X121888333Y-90733571D01*
X121888333Y-91257381D02*
X121888333Y-90257381D01*
X122364524Y-90257381D01*
X123174048Y-90257381D02*
X122983571Y-90257381D01*
X122888333Y-90305000D01*
X122840714Y-90352619D01*
X122745476Y-90495476D01*
X122697857Y-90685952D01*
X122697857Y-91066905D01*
X122745476Y-91162143D01*
X122793095Y-91209762D01*
X122888333Y-91257381D01*
X123078810Y-91257381D01*
X123174048Y-91209762D01*
X123221667Y-91162143D01*
X123269286Y-91066905D01*
X123269286Y-90828810D01*
X123221667Y-90733571D01*
X123174048Y-90685952D01*
X123078810Y-90638333D01*
X122888333Y-90638333D01*
X122793095Y-90685952D01*
X122745476Y-90733571D01*
X122697857Y-90828810D01*
X112061667Y-90733571D02*
X111728333Y-90733571D01*
X111728333Y-91257381D02*
X111728333Y-90257381D01*
X112204524Y-90257381D01*
X113061667Y-90257381D02*
X112585476Y-90257381D01*
X112537857Y-90733571D01*
X112585476Y-90685952D01*
X112680714Y-90638333D01*
X112918810Y-90638333D01*
X113014048Y-90685952D01*
X113061667Y-90733571D01*
X113109286Y-90828810D01*
X113109286Y-91066905D01*
X113061667Y-91162143D01*
X113014048Y-91209762D01*
X112918810Y-91257381D01*
X112680714Y-91257381D01*
X112585476Y-91209762D01*
X112537857Y-91162143D01*
X101901667Y-90733571D02*
X101568333Y-90733571D01*
X101568333Y-91257381D02*
X101568333Y-90257381D01*
X102044524Y-90257381D01*
X102854048Y-90590714D02*
X102854048Y-91257381D01*
X102615952Y-90209762D02*
X102377857Y-90924048D01*
X102996905Y-90924048D01*
X91741667Y-90733571D02*
X91408333Y-90733571D01*
X91408333Y-91257381D02*
X91408333Y-90257381D01*
X91884524Y-90257381D01*
X92170238Y-90257381D02*
X92789286Y-90257381D01*
X92455952Y-90638333D01*
X92598810Y-90638333D01*
X92694048Y-90685952D01*
X92741667Y-90733571D01*
X92789286Y-90828810D01*
X92789286Y-91066905D01*
X92741667Y-91162143D01*
X92694048Y-91209762D01*
X92598810Y-91257381D01*
X92313095Y-91257381D01*
X92217857Y-91209762D01*
X92170238Y-91162143D01*
X93305334Y-128881143D02*
X93257715Y-128928762D01*
X93114858Y-128976381D01*
X93019620Y-128976381D01*
X92876762Y-128928762D01*
X92781524Y-128833524D01*
X92733905Y-128738286D01*
X92686286Y-128547810D01*
X92686286Y-128404952D01*
X92733905Y-128214476D01*
X92781524Y-128119238D01*
X92876762Y-128024000D01*
X93019620Y-127976381D01*
X93114858Y-127976381D01*
X93257715Y-128024000D01*
X93305334Y-128071619D01*
X94257715Y-128976381D02*
X93686286Y-128976381D01*
X93972000Y-128976381D02*
X93972000Y-127976381D01*
X93876762Y-128119238D01*
X93781524Y-128214476D01*
X93686286Y-128262095D01*
X106513334Y-115165143D02*
X106465715Y-115212762D01*
X106322858Y-115260381D01*
X106227620Y-115260381D01*
X106084762Y-115212762D01*
X105989524Y-115117524D01*
X105941905Y-115022286D01*
X105894286Y-114831810D01*
X105894286Y-114688952D01*
X105941905Y-114498476D01*
X105989524Y-114403238D01*
X106084762Y-114308000D01*
X106227620Y-114260381D01*
X106322858Y-114260381D01*
X106465715Y-114308000D01*
X106513334Y-114355619D01*
X106894286Y-114355619D02*
X106941905Y-114308000D01*
X107037143Y-114260381D01*
X107275239Y-114260381D01*
X107370477Y-114308000D01*
X107418096Y-114355619D01*
X107465715Y-114450857D01*
X107465715Y-114546095D01*
X107418096Y-114688952D01*
X106846667Y-115260381D01*
X107465715Y-115260381D01*
X108741429Y-122540952D02*
X108741429Y-121779047D01*
X109122381Y-122159999D02*
X108360476Y-122159999D01*
X81581667Y-90733571D02*
X81248333Y-90733571D01*
X81248333Y-91257381D02*
X81248333Y-90257381D01*
X81724524Y-90257381D01*
X82629286Y-91257381D02*
X82057857Y-91257381D01*
X82343571Y-91257381D02*
X82343571Y-90257381D01*
X82248333Y-90400238D01*
X82153095Y-90495476D01*
X82057857Y-90543095D01*
X71421667Y-90733571D02*
X71088333Y-90733571D01*
X71088333Y-91257381D02*
X71088333Y-90257381D01*
X71564524Y-90257381D01*
X71897857Y-90352619D02*
X71945476Y-90305000D01*
X72040714Y-90257381D01*
X72278810Y-90257381D01*
X72374048Y-90305000D01*
X72421667Y-90352619D01*
X72469286Y-90447857D01*
X72469286Y-90543095D01*
X72421667Y-90685952D01*
X71850238Y-91257381D01*
X72469286Y-91257381D01*
X115593905Y-115260381D02*
X115593905Y-114260381D01*
X115974858Y-114260381D01*
X116070096Y-114308000D01*
X116117715Y-114355619D01*
X116165334Y-114450857D01*
X116165334Y-114593714D01*
X116117715Y-114688952D01*
X116070096Y-114736571D01*
X115974858Y-114784190D01*
X115593905Y-114784190D01*
X117022477Y-114593714D02*
X117022477Y-115260381D01*
X116784381Y-114212762D02*
X116546286Y-114927048D01*
X117165334Y-114927048D01*
X118641905Y-115260381D02*
X118641905Y-114260381D01*
X119022858Y-114260381D01*
X119118096Y-114308000D01*
X119165715Y-114355619D01*
X119213334Y-114450857D01*
X119213334Y-114593714D01*
X119165715Y-114688952D01*
X119118096Y-114736571D01*
X119022858Y-114784190D01*
X118641905Y-114784190D01*
X120118096Y-114260381D02*
X119641905Y-114260381D01*
X119594286Y-114736571D01*
X119641905Y-114688952D01*
X119737143Y-114641333D01*
X119975239Y-114641333D01*
X120070477Y-114688952D01*
X120118096Y-114736571D01*
X120165715Y-114831810D01*
X120165715Y-115069905D01*
X120118096Y-115165143D01*
X120070477Y-115212762D01*
X119975239Y-115260381D01*
X119737143Y-115260381D01*
X119641905Y-115212762D01*
X119594286Y-115165143D01*
X45013714Y-127452381D02*
X45013714Y-126452381D01*
X45394667Y-126452381D01*
X45489905Y-126500000D01*
X45537524Y-126547619D01*
X45585143Y-126642857D01*
X45585143Y-126785714D01*
X45537524Y-126880952D01*
X45489905Y-126928571D01*
X45394667Y-126976190D01*
X45013714Y-126976190D01*
X46537524Y-127452381D02*
X45966095Y-127452381D01*
X46251809Y-127452381D02*
X46251809Y-126452381D01*
X46156571Y-126595238D01*
X46061333Y-126690476D01*
X45966095Y-126738095D01*
X46918476Y-126547619D02*
X46966095Y-126500000D01*
X47061333Y-126452381D01*
X47299429Y-126452381D01*
X47394667Y-126500000D01*
X47442286Y-126547619D01*
X47489905Y-126642857D01*
X47489905Y-126738095D01*
X47442286Y-126880952D01*
X46870857Y-127452381D01*
X47489905Y-127452381D01*
X47553714Y-115768381D02*
X47553714Y-114768381D01*
X47934667Y-114768381D01*
X48029905Y-114816000D01*
X48077524Y-114863619D01*
X48125143Y-114958857D01*
X48125143Y-115101714D01*
X48077524Y-115196952D01*
X48029905Y-115244571D01*
X47934667Y-115292190D01*
X47553714Y-115292190D01*
X49077524Y-115768381D02*
X48506095Y-115768381D01*
X48791809Y-115768381D02*
X48791809Y-114768381D01*
X48696571Y-114911238D01*
X48601333Y-115006476D01*
X48506095Y-115054095D01*
X49410857Y-114768381D02*
X50029905Y-114768381D01*
X49696571Y-115149333D01*
X49839429Y-115149333D01*
X49934667Y-115196952D01*
X49982286Y-115244571D01*
X50029905Y-115339810D01*
X50029905Y-115577905D01*
X49982286Y-115673143D01*
X49934667Y-115720762D01*
X49839429Y-115768381D01*
X49553714Y-115768381D01*
X49458476Y-115720762D01*
X49410857Y-115673143D01*
X59745714Y-82367381D02*
X59745714Y-81367381D01*
X60126667Y-81367381D01*
X60221905Y-81415000D01*
X60269524Y-81462619D01*
X60317143Y-81557857D01*
X60317143Y-81700714D01*
X60269524Y-81795952D01*
X60221905Y-81843571D01*
X60126667Y-81891190D01*
X59745714Y-81891190D01*
X61269524Y-82367381D02*
X60698095Y-82367381D01*
X60983809Y-82367381D02*
X60983809Y-81367381D01*
X60888571Y-81510238D01*
X60793333Y-81605476D01*
X60698095Y-81653095D01*
X62174286Y-81367381D02*
X61698095Y-81367381D01*
X61650476Y-81843571D01*
X61698095Y-81795952D01*
X61793333Y-81748333D01*
X62031429Y-81748333D01*
X62126667Y-81795952D01*
X62174286Y-81843571D01*
X62221905Y-81938810D01*
X62221905Y-82176905D01*
X62174286Y-82272143D01*
X62126667Y-82319762D01*
X62031429Y-82367381D01*
X61793333Y-82367381D01*
X61698095Y-82319762D01*
X61650476Y-82272143D01*
X54665714Y-82367381D02*
X54665714Y-81367381D01*
X55046667Y-81367381D01*
X55141905Y-81415000D01*
X55189524Y-81462619D01*
X55237143Y-81557857D01*
X55237143Y-81700714D01*
X55189524Y-81795952D01*
X55141905Y-81843571D01*
X55046667Y-81891190D01*
X54665714Y-81891190D01*
X56189524Y-82367381D02*
X55618095Y-82367381D01*
X55903809Y-82367381D02*
X55903809Y-81367381D01*
X55808571Y-81510238D01*
X55713333Y-81605476D01*
X55618095Y-81653095D01*
X56522857Y-81367381D02*
X57189524Y-81367381D01*
X56760952Y-82367381D01*
X49585714Y-82367381D02*
X49585714Y-81367381D01*
X49966667Y-81367381D01*
X50061905Y-81415000D01*
X50109524Y-81462619D01*
X50157143Y-81557857D01*
X50157143Y-81700714D01*
X50109524Y-81795952D01*
X50061905Y-81843571D01*
X49966667Y-81891190D01*
X49585714Y-81891190D01*
X51109524Y-82367381D02*
X50538095Y-82367381D01*
X50823809Y-82367381D02*
X50823809Y-81367381D01*
X50728571Y-81510238D01*
X50633333Y-81605476D01*
X50538095Y-81653095D01*
X51585714Y-82367381D02*
X51776190Y-82367381D01*
X51871429Y-82319762D01*
X51919048Y-82272143D01*
X52014286Y-82129286D01*
X52061905Y-81938810D01*
X52061905Y-81557857D01*
X52014286Y-81462619D01*
X51966667Y-81415000D01*
X51871429Y-81367381D01*
X51680952Y-81367381D01*
X51585714Y-81415000D01*
X51538095Y-81462619D01*
X51490476Y-81557857D01*
X51490476Y-81795952D01*
X51538095Y-81891190D01*
X51585714Y-81938810D01*
X51680952Y-81986429D01*
X51871429Y-81986429D01*
X51966667Y-81938810D01*
X52014286Y-81891190D01*
X52061905Y-81795952D01*
X44505714Y-82367381D02*
X44505714Y-81367381D01*
X44886667Y-81367381D01*
X44981905Y-81415000D01*
X45029524Y-81462619D01*
X45077143Y-81557857D01*
X45077143Y-81700714D01*
X45029524Y-81795952D01*
X44981905Y-81843571D01*
X44886667Y-81891190D01*
X44505714Y-81891190D01*
X45458095Y-81462619D02*
X45505714Y-81415000D01*
X45600952Y-81367381D01*
X45839048Y-81367381D01*
X45934286Y-81415000D01*
X45981905Y-81462619D01*
X46029524Y-81557857D01*
X46029524Y-81653095D01*
X45981905Y-81795952D01*
X45410476Y-82367381D01*
X46029524Y-82367381D01*
X46981905Y-82367381D02*
X46410476Y-82367381D01*
X46696190Y-82367381D02*
X46696190Y-81367381D01*
X46600952Y-81510238D01*
X46505714Y-81605476D01*
X46410476Y-81653095D01*
X106513334Y-128976381D02*
X106180000Y-128500190D01*
X105941905Y-128976381D02*
X105941905Y-127976381D01*
X106322858Y-127976381D01*
X106418096Y-128024000D01*
X106465715Y-128071619D01*
X106513334Y-128166857D01*
X106513334Y-128309714D01*
X106465715Y-128404952D01*
X106418096Y-128452571D01*
X106322858Y-128500190D01*
X105941905Y-128500190D01*
X107465715Y-128976381D02*
X106894286Y-128976381D01*
X107180000Y-128976381D02*
X107180000Y-127976381D01*
X107084762Y-128119238D01*
X106989524Y-128214476D01*
X106894286Y-128262095D01*
X98298095Y-114260381D02*
X98298095Y-115069905D01*
X98345714Y-115165143D01*
X98393333Y-115212762D01*
X98488571Y-115260381D01*
X98679048Y-115260381D01*
X98774286Y-115212762D01*
X98821905Y-115165143D01*
X98869524Y-115069905D01*
X98869524Y-114260381D01*
X99869524Y-115260381D02*
X99298095Y-115260381D01*
X99583809Y-115260381D02*
X99583809Y-114260381D01*
X99488571Y-114403238D01*
X99393333Y-114498476D01*
X99298095Y-114546095D01*
X134580381Y-79581333D02*
X135294667Y-79581333D01*
X135437524Y-79628953D01*
X135532762Y-79724191D01*
X135580381Y-79867048D01*
X135580381Y-79962286D01*
X135580381Y-78581333D02*
X135580381Y-79152762D01*
X135580381Y-78867048D02*
X134580381Y-78867048D01*
X134723238Y-78962286D01*
X134818476Y-79057524D01*
X134866095Y-79152762D01*
X134580381Y-89741333D02*
X135294667Y-89741333D01*
X135437524Y-89788953D01*
X135532762Y-89884191D01*
X135580381Y-90027048D01*
X135580381Y-90122286D01*
X134675619Y-89312762D02*
X134628000Y-89265143D01*
X134580381Y-89169905D01*
X134580381Y-88931809D01*
X134628000Y-88836571D01*
X134675619Y-88788952D01*
X134770857Y-88741333D01*
X134866095Y-88741333D01*
X135008952Y-88788952D01*
X135580381Y-89360381D01*
X135580381Y-88741333D01*
X134580381Y-102441333D02*
X135294667Y-102441333D01*
X135437524Y-102488953D01*
X135532762Y-102584191D01*
X135580381Y-102727048D01*
X135580381Y-102822286D01*
X134580381Y-102060381D02*
X134580381Y-101441333D01*
X134961333Y-101774667D01*
X134961333Y-101631809D01*
X135008952Y-101536571D01*
X135056571Y-101488952D01*
X135151810Y-101441333D01*
X135389905Y-101441333D01*
X135485143Y-101488952D01*
X135532762Y-101536571D01*
X135580381Y-101631809D01*
X135580381Y-101917524D01*
X135532762Y-102012762D01*
X135485143Y-102060381D01*
X89582667Y-66000381D02*
X89582667Y-66714667D01*
X89535047Y-66857524D01*
X89439809Y-66952762D01*
X89296952Y-67000381D01*
X89201714Y-67000381D01*
X90487429Y-66333714D02*
X90487429Y-67000381D01*
X90249333Y-65952762D02*
X90011238Y-66667048D01*
X90630286Y-66667048D01*
X99742667Y-66000381D02*
X99742667Y-66714667D01*
X99695047Y-66857524D01*
X99599809Y-66952762D01*
X99456952Y-67000381D01*
X99361714Y-67000381D01*
X100695048Y-66000381D02*
X100218857Y-66000381D01*
X100171238Y-66476571D01*
X100218857Y-66428952D01*
X100314095Y-66381333D01*
X100552191Y-66381333D01*
X100647429Y-66428952D01*
X100695048Y-66476571D01*
X100742667Y-66571810D01*
X100742667Y-66809905D01*
X100695048Y-66905143D01*
X100647429Y-66952762D01*
X100552191Y-67000381D01*
X100314095Y-67000381D01*
X100218857Y-66952762D01*
X100171238Y-66905143D01*
X109902667Y-66000381D02*
X109902667Y-66714667D01*
X109855047Y-66857524D01*
X109759809Y-66952762D01*
X109616952Y-67000381D01*
X109521714Y-67000381D01*
X110807429Y-66000381D02*
X110616952Y-66000381D01*
X110521714Y-66048000D01*
X110474095Y-66095619D01*
X110378857Y-66238476D01*
X110331238Y-66428952D01*
X110331238Y-66809905D01*
X110378857Y-66905143D01*
X110426476Y-66952762D01*
X110521714Y-67000381D01*
X110712191Y-67000381D01*
X110807429Y-66952762D01*
X110855048Y-66905143D01*
X110902667Y-66809905D01*
X110902667Y-66571810D01*
X110855048Y-66476571D01*
X110807429Y-66428952D01*
X110712191Y-66381333D01*
X110521714Y-66381333D01*
X110426476Y-66428952D01*
X110378857Y-66476571D01*
X110331238Y-66571810D01*
X120062667Y-66000381D02*
X120062667Y-66714667D01*
X120015047Y-66857524D01*
X119919809Y-66952762D01*
X119776952Y-67000381D01*
X119681714Y-67000381D01*
X120443619Y-66000381D02*
X121110286Y-66000381D01*
X120681714Y-67000381D01*
X79422667Y-66000381D02*
X79422667Y-66714667D01*
X79375047Y-66857524D01*
X79279809Y-66952762D01*
X79136952Y-67000381D01*
X79041714Y-67000381D01*
X80041714Y-66428952D02*
X79946476Y-66381333D01*
X79898857Y-66333714D01*
X79851238Y-66238476D01*
X79851238Y-66190857D01*
X79898857Y-66095619D01*
X79946476Y-66048000D01*
X80041714Y-66000381D01*
X80232191Y-66000381D01*
X80327429Y-66048000D01*
X80375048Y-66095619D01*
X80422667Y-66190857D01*
X80422667Y-66238476D01*
X80375048Y-66333714D01*
X80327429Y-66381333D01*
X80232191Y-66428952D01*
X80041714Y-66428952D01*
X79946476Y-66476571D01*
X79898857Y-66524190D01*
X79851238Y-66619429D01*
X79851238Y-66809905D01*
X79898857Y-66905143D01*
X79946476Y-66952762D01*
X80041714Y-67000381D01*
X80232191Y-67000381D01*
X80327429Y-66952762D01*
X80375048Y-66905143D01*
X80422667Y-66809905D01*
X80422667Y-66619429D01*
X80375048Y-66524190D01*
X80327429Y-66476571D01*
X80232191Y-66428952D01*
X69262667Y-66000381D02*
X69262667Y-66714667D01*
X69215047Y-66857524D01*
X69119809Y-66952762D01*
X68976952Y-67000381D01*
X68881714Y-67000381D01*
X69786476Y-67000381D02*
X69976952Y-67000381D01*
X70072191Y-66952762D01*
X70119810Y-66905143D01*
X70215048Y-66762286D01*
X70262667Y-66571810D01*
X70262667Y-66190857D01*
X70215048Y-66095619D01*
X70167429Y-66048000D01*
X70072191Y-66000381D01*
X69881714Y-66000381D01*
X69786476Y-66048000D01*
X69738857Y-66095619D01*
X69691238Y-66190857D01*
X69691238Y-66428952D01*
X69738857Y-66524190D01*
X69786476Y-66571810D01*
X69881714Y-66619429D01*
X70072191Y-66619429D01*
X70167429Y-66571810D01*
X70215048Y-66524190D01*
X70262667Y-66428952D01*
X58626477Y-66000381D02*
X58626477Y-66714667D01*
X58578857Y-66857524D01*
X58483619Y-66952762D01*
X58340762Y-67000381D01*
X58245524Y-67000381D01*
X59626477Y-67000381D02*
X59055048Y-67000381D01*
X59340762Y-67000381D02*
X59340762Y-66000381D01*
X59245524Y-66143238D01*
X59150286Y-66238476D01*
X59055048Y-66286095D01*
X60245524Y-66000381D02*
X60340763Y-66000381D01*
X60436001Y-66048000D01*
X60483620Y-66095619D01*
X60531239Y-66190857D01*
X60578858Y-66381333D01*
X60578858Y-66619429D01*
X60531239Y-66809905D01*
X60483620Y-66905143D01*
X60436001Y-66952762D01*
X60340763Y-67000381D01*
X60245524Y-67000381D01*
X60150286Y-66952762D01*
X60102667Y-66905143D01*
X60055048Y-66809905D01*
X60007429Y-66619429D01*
X60007429Y-66381333D01*
X60055048Y-66190857D01*
X60102667Y-66095619D01*
X60150286Y-66048000D01*
X60245524Y-66000381D01*
X48466477Y-66000381D02*
X48466477Y-66714667D01*
X48418857Y-66857524D01*
X48323619Y-66952762D01*
X48180762Y-67000381D01*
X48085524Y-67000381D01*
X49466477Y-67000381D02*
X48895048Y-67000381D01*
X49180762Y-67000381D02*
X49180762Y-66000381D01*
X49085524Y-66143238D01*
X48990286Y-66238476D01*
X48895048Y-66286095D01*
X50418858Y-67000381D02*
X49847429Y-67000381D01*
X50133143Y-67000381D02*
X50133143Y-66000381D01*
X50037905Y-66143238D01*
X49942667Y-66238476D01*
X49847429Y-66286095D01*
X134580381Y-115617523D02*
X135294667Y-115617523D01*
X135437524Y-115665143D01*
X135532762Y-115760381D01*
X135580381Y-115903238D01*
X135580381Y-115998476D01*
X135580381Y-114617523D02*
X135580381Y-115188952D01*
X135580381Y-114903238D02*
X134580381Y-114903238D01*
X134723238Y-114998476D01*
X134818476Y-115093714D01*
X134866095Y-115188952D01*
X134675619Y-114236571D02*
X134628000Y-114188952D01*
X134580381Y-114093714D01*
X134580381Y-113855618D01*
X134628000Y-113760380D01*
X134675619Y-113712761D01*
X134770857Y-113665142D01*
X134866095Y-113665142D01*
X135008952Y-113712761D01*
X135580381Y-114284190D01*
X135580381Y-113665142D01*
X134580381Y-126285523D02*
X135294667Y-126285523D01*
X135437524Y-126333143D01*
X135532762Y-126428381D01*
X135580381Y-126571238D01*
X135580381Y-126666476D01*
X135580381Y-125285523D02*
X135580381Y-125856952D01*
X135580381Y-125571238D02*
X134580381Y-125571238D01*
X134723238Y-125666476D01*
X134818476Y-125761714D01*
X134866095Y-125856952D01*
X134580381Y-124952190D02*
X134580381Y-124333142D01*
X134961333Y-124666476D01*
X134961333Y-124523618D01*
X135008952Y-124428380D01*
X135056571Y-124380761D01*
X135151810Y-124333142D01*
X135389905Y-124333142D01*
X135485143Y-124380761D01*
X135532762Y-124428380D01*
X135580381Y-124523618D01*
X135580381Y-124809333D01*
X135532762Y-124904571D01*
X135485143Y-124952190D01*
M02*
