M48
;DRILL file {KiCad 4.0.5} date 02/02/17 21:36:56
;FORMAT={-:-/ absolute / metric / decimal}
FMAT,2
METRIC,TZ
T1C0.400
T2C0.700
T3C1.000
T4C1.520
T5C3.200
%
G90
G05
M71
T1
X72.39Y-101.6
X73.66Y-99.06
X74.93Y-100.33
X76.2Y-97.79
X77.47Y-105.41
X78.74Y-104.14
X80.01Y-107.95
X81.28Y-106.68
X88.9Y-113.665
X91.44Y-113.665
T2
X71.755Y-80.645
X71.755Y-88.265
X81.915Y-80.645
X81.915Y-88.265
X92.075Y-80.645
X92.075Y-88.265
X102.235Y-80.645
X102.235Y-88.265
X112.395Y-80.645
X112.395Y-88.265
X122.555Y-80.645
X122.555Y-88.265
T3
X45.72Y-88.9
X45.72Y-91.44
X45.72Y-93.98
X45.72Y-96.52
X45.72Y-99.06
X45.72Y-101.6
X49.53Y-124.46
X49.53Y-127.
X50.8Y-88.9
X50.8Y-91.44
X50.8Y-93.98
X50.8Y-96.52
X50.8Y-99.06
X50.8Y-101.6
X52.07Y-113.03
X52.07Y-115.57
X52.07Y-124.46
X52.07Y-127.
X54.61Y-113.03
X54.61Y-115.57
X54.61Y-124.46
X54.61Y-127.
X55.88Y-88.9
X55.88Y-91.44
X55.88Y-93.98
X55.88Y-96.52
X55.88Y-99.06
X55.88Y-101.6
X57.15Y-113.03
X57.15Y-115.57
X57.15Y-124.46
X57.15Y-127.
X59.69Y-113.03
X59.69Y-115.57
X59.69Y-124.46
X59.69Y-127.
X60.96Y-88.9
X60.96Y-91.44
X60.96Y-93.98
X60.96Y-96.52
X60.96Y-99.06
X60.96Y-101.6
X62.23Y-113.03
X62.23Y-115.57
X62.23Y-124.46
X62.23Y-127.
X64.77Y-113.03
X64.77Y-115.57
X64.77Y-124.46
X64.77Y-127.
X67.31Y-113.03
X67.31Y-115.57
X67.31Y-124.46
X67.31Y-127.
X69.85Y-113.03
X69.85Y-115.57
X69.85Y-124.46
X69.85Y-127.
X72.39Y-124.46
X72.39Y-127.
X74.93Y-124.46
X74.93Y-127.
X77.47Y-124.46
X77.47Y-127.
X80.01Y-124.46
X80.01Y-127.
X82.55Y-124.46
X82.55Y-127.
X85.09Y-124.46
X85.09Y-127.
X116.205Y-117.475
X116.205Y-120.015
X116.205Y-122.555
X119.38Y-117.475
X119.38Y-120.015
X119.38Y-122.555
T4
X46.355Y-69.215
X51.435Y-69.215
X56.515Y-69.215
X61.595Y-69.215
X66.675Y-69.215
X71.755Y-69.215
X76.835Y-69.215
X81.915Y-69.215
X86.995Y-69.215
X92.075Y-69.215
X97.155Y-69.215
X102.235Y-69.215
X107.315Y-69.215
X112.395Y-69.215
X117.475Y-69.215
X122.555Y-69.215
X132.715Y-76.835
X132.715Y-81.915
X132.715Y-86.995
X132.715Y-92.075
X132.715Y-97.155
X132.715Y-102.235
X132.715Y-107.315
X132.715Y-112.395
X132.715Y-117.475
X132.715Y-122.555
X132.715Y-127.635
T5
X39.37Y-68.58
X39.37Y-134.62
X133.35Y-68.58
X133.35Y-134.62
T0
M30
