G04 #@! TF.FileFunction,Soldermask,Top*
%FSLAX46Y46*%
G04 Gerber Fmt 4.6, Leading zero omitted, Abs format (unit mm)*
G04 Created by KiCad (PCBNEW 4.0.5) date 02/02/17 21:36:50*
%MOMM*%
%LPD*%
G01*
G04 APERTURE LIST*
%ADD10C,0.100000*%
%ADD11C,1.800000*%
%ADD12O,1.800000X1.800000*%
%ADD13R,1.650000X1.400000*%
%ADD14R,2.000000X3.000000*%
%ADD15R,2.100000X2.100000*%
%ADD16O,2.100000X2.100000*%
%ADD17R,1.700000X1.100000*%
%ADD18R,2.051000X3.448000*%
%ADD19R,6.496000X6.496000*%
%ADD20R,3.400000X3.400000*%
%ADD21C,3.400000*%
%ADD22C,6.800000*%
G04 APERTURE END LIST*
D10*
D11*
X122555000Y-80645000D03*
D12*
X122555000Y-88265000D03*
D11*
X112395000Y-80645000D03*
D12*
X112395000Y-88265000D03*
D11*
X102235000Y-80645000D03*
D12*
X102235000Y-88265000D03*
D11*
X92075000Y-80645000D03*
D12*
X92075000Y-88265000D03*
D13*
X93345000Y-126730000D03*
X93345000Y-124730000D03*
D14*
X106680000Y-121180000D03*
X106680000Y-117580000D03*
D11*
X81915000Y-88265000D03*
D12*
X81915000Y-80645000D03*
D11*
X71755000Y-80645000D03*
D12*
X71755000Y-88265000D03*
D15*
X116205000Y-122555000D03*
D16*
X116205000Y-120015000D03*
X116205000Y-117475000D03*
D15*
X119380000Y-122555000D03*
D16*
X119380000Y-120015000D03*
X119380000Y-117475000D03*
D15*
X49530000Y-127000000D03*
D16*
X49530000Y-124460000D03*
X52070000Y-127000000D03*
X52070000Y-124460000D03*
X54610000Y-127000000D03*
X54610000Y-124460000D03*
X57150000Y-127000000D03*
X57150000Y-124460000D03*
X59690000Y-127000000D03*
X59690000Y-124460000D03*
X62230000Y-127000000D03*
X62230000Y-124460000D03*
X64770000Y-127000000D03*
X64770000Y-124460000D03*
X67310000Y-127000000D03*
X67310000Y-124460000D03*
X69850000Y-127000000D03*
X69850000Y-124460000D03*
X72390000Y-127000000D03*
X72390000Y-124460000D03*
X74930000Y-127000000D03*
X74930000Y-124460000D03*
X77470000Y-127000000D03*
X77470000Y-124460000D03*
X80010000Y-127000000D03*
X80010000Y-124460000D03*
X82550000Y-127000000D03*
X82550000Y-124460000D03*
X85090000Y-127000000D03*
X85090000Y-124460000D03*
D15*
X52070000Y-115570000D03*
D16*
X52070000Y-113030000D03*
X54610000Y-115570000D03*
X54610000Y-113030000D03*
X57150000Y-115570000D03*
X57150000Y-113030000D03*
X59690000Y-115570000D03*
X59690000Y-113030000D03*
X62230000Y-115570000D03*
X62230000Y-113030000D03*
X64770000Y-115570000D03*
X64770000Y-113030000D03*
X67310000Y-115570000D03*
X67310000Y-113030000D03*
X69850000Y-115570000D03*
X69850000Y-113030000D03*
D15*
X60960000Y-88900000D03*
D16*
X60960000Y-91440000D03*
X60960000Y-93980000D03*
X60960000Y-96520000D03*
X60960000Y-99060000D03*
X60960000Y-101600000D03*
D15*
X55880000Y-88900000D03*
D16*
X55880000Y-91440000D03*
X55880000Y-93980000D03*
X55880000Y-96520000D03*
X55880000Y-99060000D03*
X55880000Y-101600000D03*
D15*
X50800000Y-88900000D03*
D16*
X50800000Y-91440000D03*
X50800000Y-93980000D03*
X50800000Y-96520000D03*
X50800000Y-99060000D03*
X50800000Y-101600000D03*
D15*
X45720000Y-88900000D03*
D16*
X45720000Y-91440000D03*
X45720000Y-93980000D03*
X45720000Y-96520000D03*
X45720000Y-99060000D03*
X45720000Y-101600000D03*
D17*
X106680000Y-126680000D03*
X106680000Y-124780000D03*
D18*
X96774000Y-125730000D03*
D19*
X99060000Y-119380000D03*
D18*
X101346000Y-125730000D03*
D20*
X132715000Y-76835000D03*
D21*
X132715000Y-81915000D03*
D20*
X132715000Y-86995000D03*
D21*
X132715000Y-92075000D03*
D20*
X132715000Y-97155000D03*
D21*
X132715000Y-102235000D03*
X132715000Y-107315000D03*
D20*
X86995000Y-69215000D03*
D21*
X92075000Y-69215000D03*
D20*
X97155000Y-69215000D03*
D21*
X102235000Y-69215000D03*
D20*
X107315000Y-69215000D03*
D21*
X112395000Y-69215000D03*
D20*
X117475000Y-69215000D03*
D21*
X122555000Y-69215000D03*
D20*
X76835000Y-69215000D03*
D21*
X81915000Y-69215000D03*
D20*
X66675000Y-69215000D03*
D21*
X71755000Y-69215000D03*
D20*
X56515000Y-69215000D03*
D21*
X61595000Y-69215000D03*
D20*
X46355000Y-69215000D03*
D21*
X51435000Y-69215000D03*
D20*
X132715000Y-112395000D03*
D21*
X132715000Y-117475000D03*
D20*
X132715000Y-122555000D03*
D21*
X132715000Y-127635000D03*
D22*
X133350000Y-68580000D03*
X39370000Y-68580000D03*
X39370000Y-134620000D03*
X133350000Y-134620000D03*
M02*
