G04 #@! TF.FileFunction,Copper,L1,Top,Signal*
%FSLAX46Y46*%
G04 Gerber Fmt 4.6, Leading zero omitted, Abs format (unit mm)*
G04 Created by KiCad (PCBNEW 4.0.5) date 02/02/17 21:36:50*
%MOMM*%
%LPD*%
G01*
G04 APERTURE LIST*
%ADD10C,0.100000*%
%ADD11C,1.400000*%
%ADD12O,1.400000X1.400000*%
%ADD13R,1.250000X1.000000*%
%ADD14R,1.600000X2.600000*%
%ADD15R,1.700000X1.700000*%
%ADD16O,1.700000X1.700000*%
%ADD17R,1.300000X0.700000*%
%ADD18R,1.651000X3.048000*%
%ADD19R,6.096000X6.096000*%
%ADD20R,3.000000X3.000000*%
%ADD21C,3.000000*%
%ADD22C,6.400000*%
%ADD23C,0.600000*%
%ADD24C,0.400000*%
%ADD25C,1.500000*%
%ADD26C,0.254000*%
G04 APERTURE END LIST*
D10*
D11*
X122555000Y-80645000D03*
D12*
X122555000Y-88265000D03*
D11*
X112395000Y-80645000D03*
D12*
X112395000Y-88265000D03*
D11*
X102235000Y-80645000D03*
D12*
X102235000Y-88265000D03*
D11*
X92075000Y-80645000D03*
D12*
X92075000Y-88265000D03*
D13*
X93345000Y-126730000D03*
X93345000Y-124730000D03*
D14*
X106680000Y-121180000D03*
X106680000Y-117580000D03*
D11*
X81915000Y-88265000D03*
D12*
X81915000Y-80645000D03*
D11*
X71755000Y-80645000D03*
D12*
X71755000Y-88265000D03*
D15*
X116205000Y-122555000D03*
D16*
X116205000Y-120015000D03*
X116205000Y-117475000D03*
D15*
X119380000Y-122555000D03*
D16*
X119380000Y-120015000D03*
X119380000Y-117475000D03*
D15*
X49530000Y-127000000D03*
D16*
X49530000Y-124460000D03*
X52070000Y-127000000D03*
X52070000Y-124460000D03*
X54610000Y-127000000D03*
X54610000Y-124460000D03*
X57150000Y-127000000D03*
X57150000Y-124460000D03*
X59690000Y-127000000D03*
X59690000Y-124460000D03*
X62230000Y-127000000D03*
X62230000Y-124460000D03*
X64770000Y-127000000D03*
X64770000Y-124460000D03*
X67310000Y-127000000D03*
X67310000Y-124460000D03*
X69850000Y-127000000D03*
X69850000Y-124460000D03*
X72390000Y-127000000D03*
X72390000Y-124460000D03*
X74930000Y-127000000D03*
X74930000Y-124460000D03*
X77470000Y-127000000D03*
X77470000Y-124460000D03*
X80010000Y-127000000D03*
X80010000Y-124460000D03*
X82550000Y-127000000D03*
X82550000Y-124460000D03*
X85090000Y-127000000D03*
X85090000Y-124460000D03*
D15*
X52070000Y-115570000D03*
D16*
X52070000Y-113030000D03*
X54610000Y-115570000D03*
X54610000Y-113030000D03*
X57150000Y-115570000D03*
X57150000Y-113030000D03*
X59690000Y-115570000D03*
X59690000Y-113030000D03*
X62230000Y-115570000D03*
X62230000Y-113030000D03*
X64770000Y-115570000D03*
X64770000Y-113030000D03*
X67310000Y-115570000D03*
X67310000Y-113030000D03*
X69850000Y-115570000D03*
X69850000Y-113030000D03*
D15*
X60960000Y-88900000D03*
D16*
X60960000Y-91440000D03*
X60960000Y-93980000D03*
X60960000Y-96520000D03*
X60960000Y-99060000D03*
X60960000Y-101600000D03*
D15*
X55880000Y-88900000D03*
D16*
X55880000Y-91440000D03*
X55880000Y-93980000D03*
X55880000Y-96520000D03*
X55880000Y-99060000D03*
X55880000Y-101600000D03*
D15*
X50800000Y-88900000D03*
D16*
X50800000Y-91440000D03*
X50800000Y-93980000D03*
X50800000Y-96520000D03*
X50800000Y-99060000D03*
X50800000Y-101600000D03*
D15*
X45720000Y-88900000D03*
D16*
X45720000Y-91440000D03*
X45720000Y-93980000D03*
X45720000Y-96520000D03*
X45720000Y-99060000D03*
X45720000Y-101600000D03*
D17*
X106680000Y-126680000D03*
X106680000Y-124780000D03*
D18*
X96774000Y-125730000D03*
D19*
X99060000Y-119380000D03*
D18*
X101346000Y-125730000D03*
D20*
X132715000Y-76835000D03*
D21*
X132715000Y-81915000D03*
D20*
X132715000Y-86995000D03*
D21*
X132715000Y-92075000D03*
D20*
X132715000Y-97155000D03*
D21*
X132715000Y-102235000D03*
X132715000Y-107315000D03*
D20*
X86995000Y-69215000D03*
D21*
X92075000Y-69215000D03*
D20*
X97155000Y-69215000D03*
D21*
X102235000Y-69215000D03*
D20*
X107315000Y-69215000D03*
D21*
X112395000Y-69215000D03*
D20*
X117475000Y-69215000D03*
D21*
X122555000Y-69215000D03*
D20*
X76835000Y-69215000D03*
D21*
X81915000Y-69215000D03*
D20*
X66675000Y-69215000D03*
D21*
X71755000Y-69215000D03*
D20*
X56515000Y-69215000D03*
D21*
X61595000Y-69215000D03*
D20*
X46355000Y-69215000D03*
D21*
X51435000Y-69215000D03*
D20*
X132715000Y-112395000D03*
D21*
X132715000Y-117475000D03*
D20*
X132715000Y-122555000D03*
D21*
X132715000Y-127635000D03*
D22*
X133350000Y-68580000D03*
X39370000Y-68580000D03*
X39370000Y-134620000D03*
X133350000Y-134620000D03*
D23*
X91440000Y-113665000D03*
X73660000Y-99060000D03*
X72390000Y-101600000D03*
X76200000Y-97790000D03*
X74930000Y-100330000D03*
X78740000Y-104140000D03*
X77470000Y-105410000D03*
X81280000Y-106680000D03*
X80010000Y-107950000D03*
X88900000Y-113665000D03*
D24*
X91440000Y-113665000D02*
X91440000Y-125730000D01*
X91440000Y-125730000D02*
X92710000Y-127000000D01*
X92710000Y-127000000D02*
X93075000Y-127000000D01*
X93075000Y-127000000D02*
X93345000Y-126730000D01*
X93345000Y-126730000D02*
X95774000Y-126730000D01*
X95774000Y-126730000D02*
X96774000Y-125730000D01*
D25*
X132715000Y-127635000D02*
X128905000Y-127635000D01*
X128905000Y-127635000D02*
X127000000Y-125730000D01*
X127000000Y-125730000D02*
X127000000Y-124460000D01*
X127000000Y-124460000D02*
X127000000Y-117475000D01*
X132715000Y-117475000D02*
X127000000Y-117475000D01*
X127000000Y-117475000D02*
X127000000Y-118110000D01*
X132715000Y-102235000D02*
X128905000Y-102235000D01*
X127000000Y-104140000D02*
X127000000Y-118110000D01*
X128905000Y-102235000D02*
X127000000Y-104140000D01*
D24*
X106680000Y-124780000D02*
X106680000Y-121180000D01*
D25*
X92075000Y-88265000D02*
X88900000Y-88265000D01*
X74930000Y-88265000D02*
X71755000Y-88265000D01*
X77470000Y-85725000D02*
X74930000Y-88265000D01*
X86360000Y-85725000D02*
X77470000Y-85725000D01*
X88900000Y-88265000D02*
X86360000Y-85725000D01*
X122555000Y-88265000D02*
X123825000Y-88265000D01*
X125730000Y-78740000D02*
X127635000Y-76835000D01*
X127635000Y-76835000D02*
X132715000Y-76835000D01*
X125730000Y-86360000D02*
X125730000Y-78740000D01*
X123825000Y-88265000D02*
X125730000Y-86360000D01*
X112395000Y-88265000D02*
X122555000Y-88265000D01*
X102235000Y-88265000D02*
X112395000Y-88265000D01*
X92075000Y-88265000D02*
X102235000Y-88265000D01*
X92075000Y-80645000D02*
X92075000Y-69215000D01*
X102235000Y-80645000D02*
X102235000Y-69215000D01*
X112395000Y-80645000D02*
X112395000Y-69215000D01*
X122555000Y-80645000D02*
X122555000Y-69215000D01*
X119380000Y-120015000D02*
X121285000Y-120015000D01*
X127635000Y-97155000D02*
X132715000Y-97155000D01*
X124460000Y-100330000D02*
X127635000Y-97155000D01*
X124460000Y-116840000D02*
X124460000Y-100330000D01*
X121285000Y-120015000D02*
X124460000Y-116840000D01*
X116205000Y-120015000D02*
X119380000Y-120015000D01*
X60960000Y-91440000D02*
X62230000Y-91440000D01*
X76200000Y-74930000D02*
X81915000Y-69215000D01*
X73660000Y-74930000D02*
X76200000Y-74930000D01*
X63500000Y-85090000D02*
X73660000Y-74930000D01*
X63500000Y-90170000D02*
X63500000Y-85090000D01*
X62230000Y-91440000D02*
X63500000Y-90170000D01*
X60960000Y-88900000D02*
X60960000Y-83820000D01*
X73660000Y-72390000D02*
X76835000Y-69215000D01*
X72390000Y-72390000D02*
X73660000Y-72390000D01*
X60960000Y-83820000D02*
X72390000Y-72390000D01*
X55880000Y-91440000D02*
X57150000Y-91440000D01*
X58420000Y-82550000D02*
X71755000Y-69215000D01*
X58420000Y-90170000D02*
X58420000Y-82550000D01*
X57150000Y-91440000D02*
X58420000Y-90170000D01*
X66675000Y-69215000D02*
X66675000Y-70485000D01*
X66675000Y-70485000D02*
X55880000Y-81280000D01*
X55880000Y-88900000D02*
X55880000Y-81280000D01*
X50800000Y-91440000D02*
X52070000Y-91440000D01*
X61595000Y-71755000D02*
X61595000Y-69215000D01*
X53340000Y-80010000D02*
X61595000Y-71755000D01*
X53340000Y-90170000D02*
X53340000Y-80010000D01*
X52070000Y-91440000D02*
X53340000Y-90170000D01*
X50800000Y-88900000D02*
X50800000Y-78740000D01*
X56515000Y-73025000D02*
X56515000Y-69215000D01*
X50800000Y-78740000D02*
X56515000Y-73025000D01*
X45720000Y-91440000D02*
X46990000Y-91440000D01*
X51435000Y-74295000D02*
X51435000Y-69215000D01*
X48260000Y-77470000D02*
X51435000Y-74295000D01*
X48260000Y-90170000D02*
X48260000Y-77470000D01*
X46990000Y-91440000D02*
X48260000Y-90170000D01*
X45720000Y-88900000D02*
X45720000Y-69850000D01*
X45720000Y-69850000D02*
X46355000Y-69215000D01*
X45720000Y-69850000D02*
X46355000Y-69215000D01*
D24*
X116205000Y-122555000D02*
X113665000Y-122555000D01*
X83820000Y-125730000D02*
X82550000Y-127000000D01*
X83820000Y-114300000D02*
X83820000Y-125730000D01*
X85725000Y-112395000D02*
X83820000Y-114300000D01*
X111125000Y-112395000D02*
X85725000Y-112395000D01*
X112395000Y-113665000D02*
X111125000Y-112395000D01*
X112395000Y-121285000D02*
X112395000Y-113665000D01*
X113665000Y-122555000D02*
X112395000Y-121285000D01*
X52070000Y-127000000D02*
X50800000Y-125730000D01*
X50800000Y-116840000D02*
X52070000Y-115570000D01*
X50800000Y-118110000D02*
X50800000Y-116840000D01*
X50800000Y-125730000D02*
X50800000Y-118110000D01*
X54610000Y-127000000D02*
X53340000Y-125730000D01*
X53340000Y-116840000D02*
X54610000Y-115570000D01*
X53340000Y-125730000D02*
X53340000Y-116840000D01*
X57150000Y-127000000D02*
X55880000Y-125730000D01*
X55880000Y-116840000D02*
X57150000Y-115570000D01*
X55880000Y-125730000D02*
X55880000Y-116840000D01*
X59690000Y-127000000D02*
X58420000Y-125730000D01*
X58420000Y-116840000D02*
X59690000Y-115570000D01*
X58420000Y-125730000D02*
X58420000Y-116840000D01*
X62230000Y-127000000D02*
X60960000Y-125730000D01*
X60960000Y-116840000D02*
X62230000Y-115570000D01*
X60960000Y-125730000D02*
X60960000Y-116840000D01*
X64770000Y-127000000D02*
X63500000Y-125730000D01*
X63500000Y-116840000D02*
X64770000Y-115570000D01*
X63500000Y-125730000D02*
X63500000Y-116840000D01*
X67310000Y-127000000D02*
X66040000Y-125730000D01*
X66040000Y-116840000D02*
X67310000Y-115570000D01*
X66040000Y-125730000D02*
X66040000Y-116840000D01*
X69850000Y-127000000D02*
X68580000Y-125730000D01*
X68580000Y-116840000D02*
X69850000Y-115570000D01*
X68580000Y-125730000D02*
X68580000Y-116840000D01*
X73660000Y-102870000D02*
X73660000Y-125730000D01*
X72390000Y-127000000D02*
X73660000Y-125730000D01*
X73660000Y-99060000D02*
X73660000Y-102870000D01*
X72390000Y-124460000D02*
X72390000Y-104140000D01*
X72390000Y-101600000D02*
X72390000Y-104140000D01*
X76200000Y-125730000D02*
X74930000Y-127000000D01*
X76200000Y-97790000D02*
X76200000Y-125730000D01*
X74930000Y-100330000D02*
X74930000Y-124460000D01*
X78740000Y-125730000D02*
X77470000Y-127000000D01*
X78740000Y-104140000D02*
X78740000Y-125730000D01*
X77470000Y-105410000D02*
X77470000Y-124460000D01*
X81280000Y-125730000D02*
X80010000Y-127000000D01*
X81280000Y-106680000D02*
X81280000Y-125730000D01*
X80010000Y-107950000D02*
X80010000Y-124460000D01*
X101346000Y-125730000D02*
X101346000Y-127254000D01*
X101346000Y-127254000D02*
X100330000Y-128270000D01*
X88900000Y-125095000D02*
X88900000Y-113665000D01*
X92075000Y-128270000D02*
X88900000Y-125095000D01*
X100330000Y-128270000D02*
X92075000Y-128270000D01*
X106680000Y-126680000D02*
X102296000Y-126680000D01*
X102296000Y-126680000D02*
X101346000Y-125730000D01*
D26*
G36*
X138303000Y-139573000D02*
X34417000Y-139573000D01*
X34417000Y-135379482D01*
X35534336Y-135379482D01*
X36116950Y-136789515D01*
X37194811Y-137869259D01*
X38603825Y-138454333D01*
X40129482Y-138455664D01*
X41539515Y-137873050D01*
X42619259Y-136795189D01*
X43204333Y-135386175D01*
X43204338Y-135379482D01*
X129514336Y-135379482D01*
X130096950Y-136789515D01*
X131174811Y-137869259D01*
X132583825Y-138454333D01*
X134109482Y-138455664D01*
X135519515Y-137873050D01*
X136599259Y-136795189D01*
X137184333Y-135386175D01*
X137185664Y-133860518D01*
X136603050Y-132450485D01*
X135525189Y-131370741D01*
X134116175Y-130785667D01*
X132590518Y-130784336D01*
X131180485Y-131366950D01*
X130100741Y-132444811D01*
X129515667Y-133853825D01*
X129514336Y-135379482D01*
X43204338Y-135379482D01*
X43205664Y-133860518D01*
X42623050Y-132450485D01*
X41545189Y-131370741D01*
X40136175Y-130785667D01*
X38610518Y-130784336D01*
X37200485Y-131366950D01*
X36120741Y-132444811D01*
X35535667Y-133853825D01*
X35534336Y-135379482D01*
X34417000Y-135379482D01*
X34417000Y-129148970D01*
X131380635Y-129148970D01*
X131540418Y-129467739D01*
X132331187Y-129777723D01*
X133180387Y-129761497D01*
X133889582Y-129467739D01*
X134049365Y-129148970D01*
X132715000Y-127814605D01*
X131380635Y-129148970D01*
X34417000Y-129148970D01*
X34417000Y-127285750D01*
X48045000Y-127285750D01*
X48045000Y-127976309D01*
X48141673Y-128209698D01*
X48320301Y-128388327D01*
X48553690Y-128485000D01*
X49244250Y-128485000D01*
X49403000Y-128326250D01*
X49403000Y-127127000D01*
X48203750Y-127127000D01*
X48045000Y-127285750D01*
X34417000Y-127285750D01*
X34417000Y-126023691D01*
X48045000Y-126023691D01*
X48045000Y-126714250D01*
X48203750Y-126873000D01*
X49403000Y-126873000D01*
X49403000Y-124587000D01*
X48209181Y-124587000D01*
X48088514Y-124816892D01*
X48334817Y-125341358D01*
X48534208Y-125523070D01*
X48320301Y-125611673D01*
X48141673Y-125790302D01*
X48045000Y-126023691D01*
X34417000Y-126023691D01*
X34417000Y-124103108D01*
X48088514Y-124103108D01*
X48209181Y-124333000D01*
X49403000Y-124333000D01*
X49403000Y-123139845D01*
X49657000Y-123139845D01*
X49657000Y-124333000D01*
X49677000Y-124333000D01*
X49677000Y-124587000D01*
X49657000Y-124587000D01*
X49657000Y-126873000D01*
X49677000Y-126873000D01*
X49677000Y-127127000D01*
X49657000Y-127127000D01*
X49657000Y-128326250D01*
X49815750Y-128485000D01*
X50506310Y-128485000D01*
X50739699Y-128388327D01*
X50918327Y-128209698D01*
X50990597Y-128035223D01*
X51019946Y-128079147D01*
X51501715Y-128401054D01*
X52070000Y-128514093D01*
X52638285Y-128401054D01*
X53120054Y-128079147D01*
X53340000Y-127749974D01*
X53559946Y-128079147D01*
X54041715Y-128401054D01*
X54610000Y-128514093D01*
X55178285Y-128401054D01*
X55660054Y-128079147D01*
X55880000Y-127749974D01*
X56099946Y-128079147D01*
X56581715Y-128401054D01*
X57150000Y-128514093D01*
X57718285Y-128401054D01*
X58200054Y-128079147D01*
X58420000Y-127749974D01*
X58639946Y-128079147D01*
X59121715Y-128401054D01*
X59690000Y-128514093D01*
X60258285Y-128401054D01*
X60740054Y-128079147D01*
X60960000Y-127749974D01*
X61179946Y-128079147D01*
X61661715Y-128401054D01*
X62230000Y-128514093D01*
X62798285Y-128401054D01*
X63280054Y-128079147D01*
X63500000Y-127749974D01*
X63719946Y-128079147D01*
X64201715Y-128401054D01*
X64770000Y-128514093D01*
X65338285Y-128401054D01*
X65820054Y-128079147D01*
X66040000Y-127749974D01*
X66259946Y-128079147D01*
X66741715Y-128401054D01*
X67310000Y-128514093D01*
X67878285Y-128401054D01*
X68360054Y-128079147D01*
X68580000Y-127749974D01*
X68799946Y-128079147D01*
X69281715Y-128401054D01*
X69850000Y-128514093D01*
X70418285Y-128401054D01*
X70900054Y-128079147D01*
X71120000Y-127749974D01*
X71339946Y-128079147D01*
X71821715Y-128401054D01*
X72390000Y-128514093D01*
X72958285Y-128401054D01*
X73440054Y-128079147D01*
X73660000Y-127749974D01*
X73879946Y-128079147D01*
X74361715Y-128401054D01*
X74930000Y-128514093D01*
X75498285Y-128401054D01*
X75980054Y-128079147D01*
X76200000Y-127749974D01*
X76419946Y-128079147D01*
X76901715Y-128401054D01*
X77470000Y-128514093D01*
X78038285Y-128401054D01*
X78520054Y-128079147D01*
X78740000Y-127749974D01*
X78959946Y-128079147D01*
X79441715Y-128401054D01*
X80010000Y-128514093D01*
X80578285Y-128401054D01*
X81060054Y-128079147D01*
X81280000Y-127749974D01*
X81499946Y-128079147D01*
X81981715Y-128401054D01*
X82550000Y-128514093D01*
X83118285Y-128401054D01*
X83600054Y-128079147D01*
X83827702Y-127738447D01*
X83894817Y-127881358D01*
X84323076Y-128271645D01*
X84733110Y-128441476D01*
X84963000Y-128320155D01*
X84963000Y-127127000D01*
X85217000Y-127127000D01*
X85217000Y-128320155D01*
X85446890Y-128441476D01*
X85856924Y-128271645D01*
X86285183Y-127881358D01*
X86531486Y-127356892D01*
X86410819Y-127127000D01*
X85217000Y-127127000D01*
X84963000Y-127127000D01*
X84943000Y-127127000D01*
X84943000Y-126873000D01*
X84963000Y-126873000D01*
X84963000Y-124587000D01*
X85217000Y-124587000D01*
X85217000Y-126873000D01*
X86410819Y-126873000D01*
X86531486Y-126643108D01*
X86285183Y-126118642D01*
X85858729Y-125730000D01*
X86285183Y-125341358D01*
X86531486Y-124816892D01*
X86410819Y-124587000D01*
X85217000Y-124587000D01*
X84963000Y-124587000D01*
X84943000Y-124587000D01*
X84943000Y-124333000D01*
X84963000Y-124333000D01*
X84963000Y-123139845D01*
X85217000Y-123139845D01*
X85217000Y-124333000D01*
X86410819Y-124333000D01*
X86531486Y-124103108D01*
X86285183Y-123578642D01*
X85856924Y-123188355D01*
X85446890Y-123018524D01*
X85217000Y-123139845D01*
X84963000Y-123139845D01*
X84733110Y-123018524D01*
X84655000Y-123050876D01*
X84655000Y-114645868D01*
X86070868Y-113230000D01*
X88068225Y-113230000D01*
X87965162Y-113478201D01*
X87964838Y-113850167D01*
X88065000Y-114092578D01*
X88065000Y-125095000D01*
X88128561Y-125414541D01*
X88274911Y-125633569D01*
X88309566Y-125685434D01*
X91484566Y-128860434D01*
X91755459Y-129041439D01*
X92075000Y-129105000D01*
X100330000Y-129105000D01*
X100649541Y-129041439D01*
X100920434Y-128860434D01*
X101879428Y-127901440D01*
X102171500Y-127901440D01*
X102406817Y-127857162D01*
X102622941Y-127718090D01*
X102761706Y-127515000D01*
X105615025Y-127515000D01*
X105778110Y-127626431D01*
X106030000Y-127677440D01*
X107330000Y-127677440D01*
X107565317Y-127633162D01*
X107781441Y-127494090D01*
X107926431Y-127281890D01*
X107932648Y-127251187D01*
X130572277Y-127251187D01*
X130588503Y-128100387D01*
X130882261Y-128809582D01*
X131201030Y-128969365D01*
X132535395Y-127635000D01*
X132894605Y-127635000D01*
X134228970Y-128969365D01*
X134547739Y-128809582D01*
X134857723Y-128018813D01*
X134841497Y-127169613D01*
X134547739Y-126460418D01*
X134228970Y-126300635D01*
X132894605Y-127635000D01*
X132535395Y-127635000D01*
X131201030Y-126300635D01*
X130882261Y-126460418D01*
X130572277Y-127251187D01*
X107932648Y-127251187D01*
X107977440Y-127030000D01*
X107977440Y-126330000D01*
X107938120Y-126121030D01*
X131380635Y-126121030D01*
X132715000Y-127455395D01*
X134049365Y-126121030D01*
X133889582Y-125802261D01*
X133098813Y-125492277D01*
X132249613Y-125508503D01*
X131540418Y-125802261D01*
X131380635Y-126121030D01*
X107938120Y-126121030D01*
X107933162Y-126094683D01*
X107794090Y-125878559D01*
X107581890Y-125733569D01*
X107568803Y-125730919D01*
X107781441Y-125594090D01*
X107926431Y-125381890D01*
X107977440Y-125130000D01*
X107977440Y-124430000D01*
X107933162Y-124194683D01*
X107794090Y-123978559D01*
X107581890Y-123833569D01*
X107515000Y-123820023D01*
X107515000Y-123120854D01*
X107715317Y-123083162D01*
X107931441Y-122944090D01*
X108076431Y-122731890D01*
X108127440Y-122480000D01*
X108127440Y-119880000D01*
X108083162Y-119644683D01*
X107944090Y-119428559D01*
X107875994Y-119382031D01*
X108018327Y-119239698D01*
X108115000Y-119006309D01*
X108115000Y-117865750D01*
X107956250Y-117707000D01*
X106807000Y-117707000D01*
X106807000Y-117727000D01*
X106553000Y-117727000D01*
X106553000Y-117707000D01*
X105403750Y-117707000D01*
X105245000Y-117865750D01*
X105245000Y-119006309D01*
X105341673Y-119239698D01*
X105482910Y-119380936D01*
X105428559Y-119415910D01*
X105283569Y-119628110D01*
X105232560Y-119880000D01*
X105232560Y-122480000D01*
X105276838Y-122715317D01*
X105415910Y-122931441D01*
X105628110Y-123076431D01*
X105845000Y-123120352D01*
X105845000Y-123817370D01*
X105794683Y-123826838D01*
X105578559Y-123965910D01*
X105433569Y-124178110D01*
X105382560Y-124430000D01*
X105382560Y-125130000D01*
X105426838Y-125365317D01*
X105565910Y-125581441D01*
X105778110Y-125726431D01*
X105791197Y-125729081D01*
X105611054Y-125845000D01*
X102818940Y-125845000D01*
X102818940Y-124206000D01*
X102774662Y-123970683D01*
X102635590Y-123754559D01*
X102423390Y-123609569D01*
X102171500Y-123558560D01*
X100520500Y-123558560D01*
X100285183Y-123602838D01*
X100069059Y-123741910D01*
X99924069Y-123954110D01*
X99873060Y-124206000D01*
X99873060Y-127254000D01*
X99907118Y-127435000D01*
X98210287Y-127435000D01*
X98246940Y-127254000D01*
X98246940Y-124206000D01*
X98202662Y-123970683D01*
X98063590Y-123754559D01*
X97851390Y-123609569D01*
X97599500Y-123558560D01*
X95948500Y-123558560D01*
X95713183Y-123602838D01*
X95497059Y-123741910D01*
X95352069Y-123954110D01*
X95301060Y-124206000D01*
X95301060Y-125895000D01*
X94509018Y-125895000D01*
X94434090Y-125778559D01*
X94365994Y-125732031D01*
X94508327Y-125589698D01*
X94605000Y-125356309D01*
X94605000Y-125015750D01*
X94446250Y-124857000D01*
X93472000Y-124857000D01*
X93472000Y-124877000D01*
X93218000Y-124877000D01*
X93218000Y-124857000D01*
X93198000Y-124857000D01*
X93198000Y-124603000D01*
X93218000Y-124603000D01*
X93218000Y-123753750D01*
X93472000Y-123753750D01*
X93472000Y-124603000D01*
X94446250Y-124603000D01*
X94605000Y-124444250D01*
X94605000Y-124103691D01*
X94508327Y-123870302D01*
X94329699Y-123691673D01*
X94096310Y-123595000D01*
X93630750Y-123595000D01*
X93472000Y-123753750D01*
X93218000Y-123753750D01*
X93059250Y-123595000D01*
X92593690Y-123595000D01*
X92360301Y-123691673D01*
X92275000Y-123776974D01*
X92275000Y-119665750D01*
X95377000Y-119665750D01*
X95377000Y-122554310D01*
X95473673Y-122787699D01*
X95652302Y-122966327D01*
X95885691Y-123063000D01*
X98774250Y-123063000D01*
X98933000Y-122904250D01*
X98933000Y-119507000D01*
X99187000Y-119507000D01*
X99187000Y-122904250D01*
X99345750Y-123063000D01*
X102234309Y-123063000D01*
X102467698Y-122966327D01*
X102646327Y-122787699D01*
X102743000Y-122554310D01*
X102743000Y-119665750D01*
X102584250Y-119507000D01*
X99187000Y-119507000D01*
X98933000Y-119507000D01*
X95535750Y-119507000D01*
X95377000Y-119665750D01*
X92275000Y-119665750D01*
X92275000Y-116205690D01*
X95377000Y-116205690D01*
X95377000Y-119094250D01*
X95535750Y-119253000D01*
X98933000Y-119253000D01*
X98933000Y-115855750D01*
X99187000Y-115855750D01*
X99187000Y-119253000D01*
X102584250Y-119253000D01*
X102743000Y-119094250D01*
X102743000Y-116205690D01*
X102721462Y-116153691D01*
X105245000Y-116153691D01*
X105245000Y-117294250D01*
X105403750Y-117453000D01*
X106553000Y-117453000D01*
X106553000Y-115803750D01*
X106807000Y-115803750D01*
X106807000Y-117453000D01*
X107956250Y-117453000D01*
X108115000Y-117294250D01*
X108115000Y-116153691D01*
X108018327Y-115920302D01*
X107839699Y-115741673D01*
X107606310Y-115645000D01*
X106965750Y-115645000D01*
X106807000Y-115803750D01*
X106553000Y-115803750D01*
X106394250Y-115645000D01*
X105753690Y-115645000D01*
X105520301Y-115741673D01*
X105341673Y-115920302D01*
X105245000Y-116153691D01*
X102721462Y-116153691D01*
X102646327Y-115972301D01*
X102467698Y-115793673D01*
X102234309Y-115697000D01*
X99345750Y-115697000D01*
X99187000Y-115855750D01*
X98933000Y-115855750D01*
X98774250Y-115697000D01*
X95885691Y-115697000D01*
X95652302Y-115793673D01*
X95473673Y-115972301D01*
X95377000Y-116205690D01*
X92275000Y-116205690D01*
X92275000Y-114092234D01*
X92374838Y-113851799D01*
X92375162Y-113479833D01*
X92271933Y-113230000D01*
X110779132Y-113230000D01*
X111560000Y-114010868D01*
X111560000Y-121285000D01*
X111623561Y-121604541D01*
X111804566Y-121875434D01*
X113074566Y-123145434D01*
X113345459Y-123326439D01*
X113665000Y-123390000D01*
X114707560Y-123390000D01*
X114707560Y-123405000D01*
X114751838Y-123640317D01*
X114890910Y-123856441D01*
X115103110Y-124001431D01*
X115355000Y-124052440D01*
X117055000Y-124052440D01*
X117290317Y-124008162D01*
X117506441Y-123869090D01*
X117651431Y-123656890D01*
X117702440Y-123405000D01*
X117702440Y-121705000D01*
X117658162Y-121469683D01*
X117613322Y-121400000D01*
X117969857Y-121400000D01*
X117933569Y-121453110D01*
X117882560Y-121705000D01*
X117882560Y-123405000D01*
X117926838Y-123640317D01*
X118065910Y-123856441D01*
X118278110Y-124001431D01*
X118530000Y-124052440D01*
X120230000Y-124052440D01*
X120465317Y-124008162D01*
X120681441Y-123869090D01*
X120826431Y-123656890D01*
X120877440Y-123405000D01*
X120877440Y-121705000D01*
X120833162Y-121469683D01*
X120788322Y-121400000D01*
X121285000Y-121400000D01*
X121815017Y-121294573D01*
X122173563Y-121055000D01*
X130567560Y-121055000D01*
X130567560Y-124055000D01*
X130611838Y-124290317D01*
X130750910Y-124506441D01*
X130963110Y-124651431D01*
X131215000Y-124702440D01*
X134215000Y-124702440D01*
X134450317Y-124658162D01*
X134666441Y-124519090D01*
X134811431Y-124306890D01*
X134862440Y-124055000D01*
X134862440Y-121055000D01*
X134818162Y-120819683D01*
X134679090Y-120603559D01*
X134466890Y-120458569D01*
X134215000Y-120407560D01*
X131215000Y-120407560D01*
X130979683Y-120451838D01*
X130763559Y-120590910D01*
X130618569Y-120803110D01*
X130567560Y-121055000D01*
X122173563Y-121055000D01*
X122264343Y-120994343D01*
X124269716Y-118988970D01*
X131380635Y-118988970D01*
X131540418Y-119307739D01*
X132331187Y-119617723D01*
X133180387Y-119601497D01*
X133889582Y-119307739D01*
X134049365Y-118988970D01*
X132715000Y-117654605D01*
X131380635Y-118988970D01*
X124269716Y-118988970D01*
X125439343Y-117819343D01*
X125584567Y-117602000D01*
X125739573Y-117370017D01*
X125795035Y-117091187D01*
X130572277Y-117091187D01*
X130588503Y-117940387D01*
X130882261Y-118649582D01*
X131201030Y-118809365D01*
X132535395Y-117475000D01*
X132894605Y-117475000D01*
X134228970Y-118809365D01*
X134547739Y-118649582D01*
X134857723Y-117858813D01*
X134841497Y-117009613D01*
X134547739Y-116300418D01*
X134228970Y-116140635D01*
X132894605Y-117475000D01*
X132535395Y-117475000D01*
X131201030Y-116140635D01*
X130882261Y-116300418D01*
X130572277Y-117091187D01*
X125795035Y-117091187D01*
X125845000Y-116840000D01*
X125845000Y-115961030D01*
X131380635Y-115961030D01*
X132715000Y-117295395D01*
X134049365Y-115961030D01*
X133889582Y-115642261D01*
X133098813Y-115332277D01*
X132249613Y-115348503D01*
X131540418Y-115642261D01*
X131380635Y-115961030D01*
X125845000Y-115961030D01*
X125845000Y-110895000D01*
X130567560Y-110895000D01*
X130567560Y-113895000D01*
X130611838Y-114130317D01*
X130750910Y-114346441D01*
X130963110Y-114491431D01*
X131215000Y-114542440D01*
X134215000Y-114542440D01*
X134450317Y-114498162D01*
X134666441Y-114359090D01*
X134811431Y-114146890D01*
X134862440Y-113895000D01*
X134862440Y-110895000D01*
X134818162Y-110659683D01*
X134679090Y-110443559D01*
X134466890Y-110298569D01*
X134215000Y-110247560D01*
X131215000Y-110247560D01*
X130979683Y-110291838D01*
X130763559Y-110430910D01*
X130618569Y-110643110D01*
X130567560Y-110895000D01*
X125845000Y-110895000D01*
X125845000Y-107737815D01*
X130579630Y-107737815D01*
X130903980Y-108522800D01*
X131504041Y-109123909D01*
X132288459Y-109449628D01*
X133137815Y-109450370D01*
X133922800Y-109126020D01*
X134523909Y-108525959D01*
X134849628Y-107741541D01*
X134850370Y-106892185D01*
X134526020Y-106107200D01*
X133925959Y-105506091D01*
X133141541Y-105180372D01*
X132292185Y-105179630D01*
X131507200Y-105503980D01*
X130906091Y-106104041D01*
X130580372Y-106888459D01*
X130579630Y-107737815D01*
X125845000Y-107737815D01*
X125845000Y-103748970D01*
X131380635Y-103748970D01*
X131540418Y-104067739D01*
X132331187Y-104377723D01*
X133180387Y-104361497D01*
X133889582Y-104067739D01*
X134049365Y-103748970D01*
X132715000Y-102414605D01*
X131380635Y-103748970D01*
X125845000Y-103748970D01*
X125845000Y-101851187D01*
X130572277Y-101851187D01*
X130588503Y-102700387D01*
X130882261Y-103409582D01*
X131201030Y-103569365D01*
X132535395Y-102235000D01*
X132894605Y-102235000D01*
X134228970Y-103569365D01*
X134547739Y-103409582D01*
X134857723Y-102618813D01*
X134841497Y-101769613D01*
X134547739Y-101060418D01*
X134228970Y-100900635D01*
X132894605Y-102235000D01*
X132535395Y-102235000D01*
X131201030Y-100900635D01*
X130882261Y-101060418D01*
X130572277Y-101851187D01*
X125845000Y-101851187D01*
X125845000Y-100903686D01*
X126027656Y-100721030D01*
X131380635Y-100721030D01*
X132715000Y-102055395D01*
X134049365Y-100721030D01*
X133889582Y-100402261D01*
X133098813Y-100092277D01*
X132249613Y-100108503D01*
X131540418Y-100402261D01*
X131380635Y-100721030D01*
X126027656Y-100721030D01*
X128208686Y-98540000D01*
X130567560Y-98540000D01*
X130567560Y-98655000D01*
X130611838Y-98890317D01*
X130750910Y-99106441D01*
X130963110Y-99251431D01*
X131215000Y-99302440D01*
X134215000Y-99302440D01*
X134450317Y-99258162D01*
X134666441Y-99119090D01*
X134811431Y-98906890D01*
X134862440Y-98655000D01*
X134862440Y-95655000D01*
X134818162Y-95419683D01*
X134679090Y-95203559D01*
X134466890Y-95058569D01*
X134215000Y-95007560D01*
X131215000Y-95007560D01*
X130979683Y-95051838D01*
X130763559Y-95190910D01*
X130618569Y-95403110D01*
X130567560Y-95655000D01*
X130567560Y-95770000D01*
X127635000Y-95770000D01*
X127104983Y-95875427D01*
X126655657Y-96175657D01*
X123480657Y-99350657D01*
X123180427Y-99799983D01*
X123075000Y-100330000D01*
X123075000Y-116266314D01*
X120711314Y-118630000D01*
X120297978Y-118630000D01*
X120651645Y-118241924D01*
X120821476Y-117831890D01*
X120700155Y-117602000D01*
X119507000Y-117602000D01*
X119507000Y-117622000D01*
X119253000Y-117622000D01*
X119253000Y-117602000D01*
X118059845Y-117602000D01*
X117938524Y-117831890D01*
X118108355Y-118241924D01*
X118462022Y-118630000D01*
X117122978Y-118630000D01*
X117476645Y-118241924D01*
X117646476Y-117831890D01*
X117525155Y-117602000D01*
X116332000Y-117602000D01*
X116332000Y-117622000D01*
X116078000Y-117622000D01*
X116078000Y-117602000D01*
X114884845Y-117602000D01*
X114763524Y-117831890D01*
X114933355Y-118241924D01*
X115323642Y-118670183D01*
X115466553Y-118737298D01*
X115125853Y-118964946D01*
X114803946Y-119446715D01*
X114690907Y-120015000D01*
X114803946Y-120583285D01*
X115125853Y-121065054D01*
X115167452Y-121092850D01*
X115119683Y-121101838D01*
X114903559Y-121240910D01*
X114758569Y-121453110D01*
X114707560Y-121705000D01*
X114707560Y-121720000D01*
X114010868Y-121720000D01*
X113230000Y-120939132D01*
X113230000Y-117118110D01*
X114763524Y-117118110D01*
X114884845Y-117348000D01*
X116078000Y-117348000D01*
X116078000Y-116154181D01*
X116332000Y-116154181D01*
X116332000Y-117348000D01*
X117525155Y-117348000D01*
X117646476Y-117118110D01*
X117938524Y-117118110D01*
X118059845Y-117348000D01*
X119253000Y-117348000D01*
X119253000Y-116154181D01*
X119507000Y-116154181D01*
X119507000Y-117348000D01*
X120700155Y-117348000D01*
X120821476Y-117118110D01*
X120651645Y-116708076D01*
X120261358Y-116279817D01*
X119736892Y-116033514D01*
X119507000Y-116154181D01*
X119253000Y-116154181D01*
X119023108Y-116033514D01*
X118498642Y-116279817D01*
X118108355Y-116708076D01*
X117938524Y-117118110D01*
X117646476Y-117118110D01*
X117476645Y-116708076D01*
X117086358Y-116279817D01*
X116561892Y-116033514D01*
X116332000Y-116154181D01*
X116078000Y-116154181D01*
X115848108Y-116033514D01*
X115323642Y-116279817D01*
X114933355Y-116708076D01*
X114763524Y-117118110D01*
X113230000Y-117118110D01*
X113230000Y-113665000D01*
X113166439Y-113345459D01*
X112985434Y-113074566D01*
X111715434Y-111804566D01*
X111444541Y-111623561D01*
X111125000Y-111560000D01*
X85725000Y-111560000D01*
X85405459Y-111623561D01*
X85134566Y-111804566D01*
X83229566Y-113709566D01*
X83048561Y-113980459D01*
X82985000Y-114300000D01*
X82985000Y-123032434D01*
X82550000Y-122945907D01*
X82115000Y-123032434D01*
X82115000Y-107107234D01*
X82214838Y-106866799D01*
X82215162Y-106494833D01*
X82073117Y-106151057D01*
X81810327Y-105887808D01*
X81466799Y-105745162D01*
X81094833Y-105744838D01*
X80751057Y-105886883D01*
X80487808Y-106149673D01*
X80345162Y-106493201D01*
X80344838Y-106865167D01*
X80445000Y-107107578D01*
X80445000Y-107118225D01*
X80196799Y-107015162D01*
X79824833Y-107014838D01*
X79575000Y-107118067D01*
X79575000Y-104567234D01*
X79674838Y-104326799D01*
X79675162Y-103954833D01*
X79533117Y-103611057D01*
X79270327Y-103347808D01*
X78926799Y-103205162D01*
X78554833Y-103204838D01*
X78211057Y-103346883D01*
X77947808Y-103609673D01*
X77805162Y-103953201D01*
X77804838Y-104325167D01*
X77905000Y-104567578D01*
X77905000Y-104578225D01*
X77656799Y-104475162D01*
X77284833Y-104474838D01*
X77035000Y-104578067D01*
X77035000Y-98217234D01*
X77134838Y-97976799D01*
X77135162Y-97604833D01*
X76993117Y-97261057D01*
X76730327Y-96997808D01*
X76386799Y-96855162D01*
X76014833Y-96854838D01*
X75671057Y-96996883D01*
X75407808Y-97259673D01*
X75265162Y-97603201D01*
X75264838Y-97975167D01*
X75365000Y-98217578D01*
X75365000Y-99498225D01*
X75116799Y-99395162D01*
X74744833Y-99394838D01*
X74495000Y-99498067D01*
X74495000Y-99487234D01*
X74594838Y-99246799D01*
X74595162Y-98874833D01*
X74453117Y-98531057D01*
X74190327Y-98267808D01*
X73846799Y-98125162D01*
X73474833Y-98124838D01*
X73131057Y-98266883D01*
X72867808Y-98529673D01*
X72725162Y-98873201D01*
X72724838Y-99245167D01*
X72825000Y-99487578D01*
X72825000Y-100768225D01*
X72576799Y-100665162D01*
X72204833Y-100664838D01*
X71861057Y-100806883D01*
X71597808Y-101069673D01*
X71455162Y-101413201D01*
X71454838Y-101785167D01*
X71555000Y-102027578D01*
X71555000Y-123237159D01*
X71339946Y-123380853D01*
X71120000Y-123710026D01*
X70900054Y-123380853D01*
X70418285Y-123058946D01*
X69850000Y-122945907D01*
X69415000Y-123032434D01*
X69415000Y-117185868D01*
X69572061Y-117028807D01*
X69850000Y-117084093D01*
X70418285Y-116971054D01*
X70900054Y-116649147D01*
X71221961Y-116167378D01*
X71335000Y-115599093D01*
X71335000Y-115540907D01*
X71221961Y-114972622D01*
X70900054Y-114490853D01*
X70614422Y-114300000D01*
X70900054Y-114109147D01*
X71221961Y-113627378D01*
X71335000Y-113059093D01*
X71335000Y-113000907D01*
X71221961Y-112432622D01*
X70900054Y-111950853D01*
X70418285Y-111628946D01*
X69850000Y-111515907D01*
X69281715Y-111628946D01*
X68799946Y-111950853D01*
X68580000Y-112280026D01*
X68360054Y-111950853D01*
X67878285Y-111628946D01*
X67310000Y-111515907D01*
X66741715Y-111628946D01*
X66259946Y-111950853D01*
X66040000Y-112280026D01*
X65820054Y-111950853D01*
X65338285Y-111628946D01*
X64770000Y-111515907D01*
X64201715Y-111628946D01*
X63719946Y-111950853D01*
X63500000Y-112280026D01*
X63280054Y-111950853D01*
X62798285Y-111628946D01*
X62230000Y-111515907D01*
X61661715Y-111628946D01*
X61179946Y-111950853D01*
X60960000Y-112280026D01*
X60740054Y-111950853D01*
X60258285Y-111628946D01*
X59690000Y-111515907D01*
X59121715Y-111628946D01*
X58639946Y-111950853D01*
X58420000Y-112280026D01*
X58200054Y-111950853D01*
X57718285Y-111628946D01*
X57150000Y-111515907D01*
X56581715Y-111628946D01*
X56099946Y-111950853D01*
X55880000Y-112280026D01*
X55660054Y-111950853D01*
X55178285Y-111628946D01*
X54610000Y-111515907D01*
X54041715Y-111628946D01*
X53559946Y-111950853D01*
X53340000Y-112280026D01*
X53120054Y-111950853D01*
X52638285Y-111628946D01*
X52070000Y-111515907D01*
X51501715Y-111628946D01*
X51019946Y-111950853D01*
X50698039Y-112432622D01*
X50585000Y-113000907D01*
X50585000Y-113059093D01*
X50698039Y-113627378D01*
X51019946Y-114109147D01*
X51021179Y-114109971D01*
X50984683Y-114116838D01*
X50768559Y-114255910D01*
X50623569Y-114468110D01*
X50572560Y-114720000D01*
X50572560Y-115886572D01*
X50209566Y-116249566D01*
X50028561Y-116520459D01*
X49965000Y-116840000D01*
X49965000Y-123050876D01*
X49886890Y-123018524D01*
X49657000Y-123139845D01*
X49403000Y-123139845D01*
X49173110Y-123018524D01*
X48763076Y-123188355D01*
X48334817Y-123578642D01*
X48088514Y-124103108D01*
X34417000Y-124103108D01*
X34417000Y-96520000D01*
X44205907Y-96520000D01*
X44318946Y-97088285D01*
X44640853Y-97570054D01*
X44970026Y-97790000D01*
X44640853Y-98009946D01*
X44318946Y-98491715D01*
X44205907Y-99060000D01*
X44318946Y-99628285D01*
X44640853Y-100110054D01*
X44970026Y-100330000D01*
X44640853Y-100549946D01*
X44318946Y-101031715D01*
X44205907Y-101600000D01*
X44318946Y-102168285D01*
X44640853Y-102650054D01*
X45122622Y-102971961D01*
X45690907Y-103085000D01*
X45749093Y-103085000D01*
X46317378Y-102971961D01*
X46799147Y-102650054D01*
X47121054Y-102168285D01*
X47234093Y-101600000D01*
X47121054Y-101031715D01*
X46799147Y-100549946D01*
X46469974Y-100330000D01*
X46799147Y-100110054D01*
X47121054Y-99628285D01*
X47234093Y-99060000D01*
X47121054Y-98491715D01*
X46799147Y-98009946D01*
X46469974Y-97790000D01*
X46799147Y-97570054D01*
X47121054Y-97088285D01*
X47234093Y-96520000D01*
X49285907Y-96520000D01*
X49398946Y-97088285D01*
X49720853Y-97570054D01*
X50050026Y-97790000D01*
X49720853Y-98009946D01*
X49398946Y-98491715D01*
X49285907Y-99060000D01*
X49398946Y-99628285D01*
X49720853Y-100110054D01*
X50050026Y-100330000D01*
X49720853Y-100549946D01*
X49398946Y-101031715D01*
X49285907Y-101600000D01*
X49398946Y-102168285D01*
X49720853Y-102650054D01*
X50202622Y-102971961D01*
X50770907Y-103085000D01*
X50829093Y-103085000D01*
X51397378Y-102971961D01*
X51879147Y-102650054D01*
X52201054Y-102168285D01*
X52314093Y-101600000D01*
X52201054Y-101031715D01*
X51879147Y-100549946D01*
X51549974Y-100330000D01*
X51879147Y-100110054D01*
X52201054Y-99628285D01*
X52314093Y-99060000D01*
X52201054Y-98491715D01*
X51879147Y-98009946D01*
X51549974Y-97790000D01*
X51879147Y-97570054D01*
X52201054Y-97088285D01*
X52314093Y-96520000D01*
X54365907Y-96520000D01*
X54478946Y-97088285D01*
X54800853Y-97570054D01*
X55130026Y-97790000D01*
X54800853Y-98009946D01*
X54478946Y-98491715D01*
X54365907Y-99060000D01*
X54478946Y-99628285D01*
X54800853Y-100110054D01*
X55130026Y-100330000D01*
X54800853Y-100549946D01*
X54478946Y-101031715D01*
X54365907Y-101600000D01*
X54478946Y-102168285D01*
X54800853Y-102650054D01*
X55282622Y-102971961D01*
X55850907Y-103085000D01*
X55909093Y-103085000D01*
X56477378Y-102971961D01*
X56959147Y-102650054D01*
X57281054Y-102168285D01*
X57394093Y-101600000D01*
X57281054Y-101031715D01*
X56959147Y-100549946D01*
X56629974Y-100330000D01*
X56959147Y-100110054D01*
X57281054Y-99628285D01*
X57394093Y-99060000D01*
X57281054Y-98491715D01*
X56959147Y-98009946D01*
X56629974Y-97790000D01*
X56959147Y-97570054D01*
X57281054Y-97088285D01*
X57394093Y-96520000D01*
X59445907Y-96520000D01*
X59558946Y-97088285D01*
X59880853Y-97570054D01*
X60210026Y-97790000D01*
X59880853Y-98009946D01*
X59558946Y-98491715D01*
X59445907Y-99060000D01*
X59558946Y-99628285D01*
X59880853Y-100110054D01*
X60210026Y-100330000D01*
X59880853Y-100549946D01*
X59558946Y-101031715D01*
X59445907Y-101600000D01*
X59558946Y-102168285D01*
X59880853Y-102650054D01*
X60362622Y-102971961D01*
X60930907Y-103085000D01*
X60989093Y-103085000D01*
X61557378Y-102971961D01*
X62039147Y-102650054D01*
X62361054Y-102168285D01*
X62474093Y-101600000D01*
X62361054Y-101031715D01*
X62039147Y-100549946D01*
X61709974Y-100330000D01*
X62039147Y-100110054D01*
X62361054Y-99628285D01*
X62474093Y-99060000D01*
X62361054Y-98491715D01*
X62039147Y-98009946D01*
X61709974Y-97790000D01*
X62039147Y-97570054D01*
X62361054Y-97088285D01*
X62474093Y-96520000D01*
X62361054Y-95951715D01*
X62039147Y-95469946D01*
X61698447Y-95242298D01*
X61841358Y-95175183D01*
X62231645Y-94746924D01*
X62401476Y-94336890D01*
X62280155Y-94107000D01*
X61087000Y-94107000D01*
X61087000Y-94127000D01*
X60833000Y-94127000D01*
X60833000Y-94107000D01*
X59639845Y-94107000D01*
X59518524Y-94336890D01*
X59688355Y-94746924D01*
X60078642Y-95175183D01*
X60221553Y-95242298D01*
X59880853Y-95469946D01*
X59558946Y-95951715D01*
X59445907Y-96520000D01*
X57394093Y-96520000D01*
X57281054Y-95951715D01*
X56959147Y-95469946D01*
X56618447Y-95242298D01*
X56761358Y-95175183D01*
X57151645Y-94746924D01*
X57321476Y-94336890D01*
X57200155Y-94107000D01*
X56007000Y-94107000D01*
X56007000Y-94127000D01*
X55753000Y-94127000D01*
X55753000Y-94107000D01*
X54559845Y-94107000D01*
X54438524Y-94336890D01*
X54608355Y-94746924D01*
X54998642Y-95175183D01*
X55141553Y-95242298D01*
X54800853Y-95469946D01*
X54478946Y-95951715D01*
X54365907Y-96520000D01*
X52314093Y-96520000D01*
X52201054Y-95951715D01*
X51879147Y-95469946D01*
X51538447Y-95242298D01*
X51681358Y-95175183D01*
X52071645Y-94746924D01*
X52241476Y-94336890D01*
X52120155Y-94107000D01*
X50927000Y-94107000D01*
X50927000Y-94127000D01*
X50673000Y-94127000D01*
X50673000Y-94107000D01*
X49479845Y-94107000D01*
X49358524Y-94336890D01*
X49528355Y-94746924D01*
X49918642Y-95175183D01*
X50061553Y-95242298D01*
X49720853Y-95469946D01*
X49398946Y-95951715D01*
X49285907Y-96520000D01*
X47234093Y-96520000D01*
X47121054Y-95951715D01*
X46799147Y-95469946D01*
X46458447Y-95242298D01*
X46601358Y-95175183D01*
X46991645Y-94746924D01*
X47161476Y-94336890D01*
X47040155Y-94107000D01*
X45847000Y-94107000D01*
X45847000Y-94127000D01*
X45593000Y-94127000D01*
X45593000Y-94107000D01*
X44399845Y-94107000D01*
X44278524Y-94336890D01*
X44448355Y-94746924D01*
X44838642Y-95175183D01*
X44981553Y-95242298D01*
X44640853Y-95469946D01*
X44318946Y-95951715D01*
X44205907Y-96520000D01*
X34417000Y-96520000D01*
X34417000Y-91440000D01*
X44205907Y-91440000D01*
X44318946Y-92008285D01*
X44640853Y-92490054D01*
X44981553Y-92717702D01*
X44838642Y-92784817D01*
X44448355Y-93213076D01*
X44278524Y-93623110D01*
X44399845Y-93853000D01*
X45593000Y-93853000D01*
X45593000Y-93833000D01*
X45847000Y-93833000D01*
X45847000Y-93853000D01*
X47040155Y-93853000D01*
X47161476Y-93623110D01*
X46991645Y-93213076D01*
X46637978Y-92825000D01*
X46990000Y-92825000D01*
X47520017Y-92719573D01*
X47969343Y-92419343D01*
X49239343Y-91149343D01*
X49387967Y-90926912D01*
X49285907Y-91440000D01*
X49398946Y-92008285D01*
X49720853Y-92490054D01*
X50061553Y-92717702D01*
X49918642Y-92784817D01*
X49528355Y-93213076D01*
X49358524Y-93623110D01*
X49479845Y-93853000D01*
X50673000Y-93853000D01*
X50673000Y-93833000D01*
X50927000Y-93833000D01*
X50927000Y-93853000D01*
X52120155Y-93853000D01*
X52241476Y-93623110D01*
X52071645Y-93213076D01*
X51717978Y-92825000D01*
X52070000Y-92825000D01*
X52600017Y-92719573D01*
X53049343Y-92419343D01*
X54319343Y-91149343D01*
X54467967Y-90926912D01*
X54365907Y-91440000D01*
X54478946Y-92008285D01*
X54800853Y-92490054D01*
X55141553Y-92717702D01*
X54998642Y-92784817D01*
X54608355Y-93213076D01*
X54438524Y-93623110D01*
X54559845Y-93853000D01*
X55753000Y-93853000D01*
X55753000Y-93833000D01*
X56007000Y-93833000D01*
X56007000Y-93853000D01*
X57200155Y-93853000D01*
X57321476Y-93623110D01*
X57151645Y-93213076D01*
X56797978Y-92825000D01*
X57150000Y-92825000D01*
X57680017Y-92719573D01*
X58129343Y-92419343D01*
X59399343Y-91149343D01*
X59547967Y-90926912D01*
X59445907Y-91440000D01*
X59558946Y-92008285D01*
X59880853Y-92490054D01*
X60221553Y-92717702D01*
X60078642Y-92784817D01*
X59688355Y-93213076D01*
X59518524Y-93623110D01*
X59639845Y-93853000D01*
X60833000Y-93853000D01*
X60833000Y-93833000D01*
X61087000Y-93833000D01*
X61087000Y-93853000D01*
X62280155Y-93853000D01*
X62401476Y-93623110D01*
X62231645Y-93213076D01*
X61877978Y-92825000D01*
X62230000Y-92825000D01*
X62760017Y-92719573D01*
X63091901Y-92497815D01*
X130579630Y-92497815D01*
X130903980Y-93282800D01*
X131504041Y-93883909D01*
X132288459Y-94209628D01*
X133137815Y-94210370D01*
X133922800Y-93886020D01*
X134523909Y-93285959D01*
X134849628Y-92501541D01*
X134850370Y-91652185D01*
X134526020Y-90867200D01*
X133925959Y-90266091D01*
X133141541Y-89940372D01*
X132292185Y-89939630D01*
X131507200Y-90263980D01*
X130906091Y-90864041D01*
X130580372Y-91648459D01*
X130579630Y-92497815D01*
X63091901Y-92497815D01*
X63209343Y-92419343D01*
X64479343Y-91149343D01*
X64779573Y-90700017D01*
X64885000Y-90170000D01*
X64885000Y-88265000D01*
X70370000Y-88265000D01*
X70475427Y-88795017D01*
X70775657Y-89244343D01*
X71224983Y-89544573D01*
X71755000Y-89650000D01*
X74930000Y-89650000D01*
X75460017Y-89544573D01*
X75909343Y-89244343D01*
X78043686Y-87110000D01*
X81214424Y-87110000D01*
X81159771Y-87132582D01*
X80783902Y-87507796D01*
X80580232Y-87998287D01*
X80579769Y-88529383D01*
X80782582Y-89020229D01*
X81157796Y-89396098D01*
X81648287Y-89599768D01*
X82179383Y-89600231D01*
X82670229Y-89397418D01*
X83046098Y-89022204D01*
X83249768Y-88531713D01*
X83250231Y-88000617D01*
X83047418Y-87509771D01*
X82672204Y-87133902D01*
X82614642Y-87110000D01*
X85786314Y-87110000D01*
X87920657Y-89244343D01*
X88369983Y-89544573D01*
X88900000Y-89650000D01*
X123825000Y-89650000D01*
X124355017Y-89544573D01*
X124804343Y-89244343D01*
X126709343Y-87339343D01*
X126862585Y-87110000D01*
X127009573Y-86890017D01*
X127115000Y-86360000D01*
X127115000Y-85495000D01*
X130567560Y-85495000D01*
X130567560Y-88495000D01*
X130611838Y-88730317D01*
X130750910Y-88946441D01*
X130963110Y-89091431D01*
X131215000Y-89142440D01*
X134215000Y-89142440D01*
X134450317Y-89098162D01*
X134666441Y-88959090D01*
X134811431Y-88746890D01*
X134862440Y-88495000D01*
X134862440Y-85495000D01*
X134818162Y-85259683D01*
X134679090Y-85043559D01*
X134466890Y-84898569D01*
X134215000Y-84847560D01*
X131215000Y-84847560D01*
X130979683Y-84891838D01*
X130763559Y-85030910D01*
X130618569Y-85243110D01*
X130567560Y-85495000D01*
X127115000Y-85495000D01*
X127115000Y-82337815D01*
X130579630Y-82337815D01*
X130903980Y-83122800D01*
X131504041Y-83723909D01*
X132288459Y-84049628D01*
X133137815Y-84050370D01*
X133922800Y-83726020D01*
X134523909Y-83125959D01*
X134849628Y-82341541D01*
X134850370Y-81492185D01*
X134526020Y-80707200D01*
X133925959Y-80106091D01*
X133141541Y-79780372D01*
X132292185Y-79779630D01*
X131507200Y-80103980D01*
X130906091Y-80704041D01*
X130580372Y-81488459D01*
X130579630Y-82337815D01*
X127115000Y-82337815D01*
X127115000Y-79313686D01*
X128208686Y-78220000D01*
X130567560Y-78220000D01*
X130567560Y-78335000D01*
X130611838Y-78570317D01*
X130750910Y-78786441D01*
X130963110Y-78931431D01*
X131215000Y-78982440D01*
X134215000Y-78982440D01*
X134450317Y-78938162D01*
X134666441Y-78799090D01*
X134811431Y-78586890D01*
X134862440Y-78335000D01*
X134862440Y-75335000D01*
X134818162Y-75099683D01*
X134679090Y-74883559D01*
X134466890Y-74738569D01*
X134215000Y-74687560D01*
X131215000Y-74687560D01*
X130979683Y-74731838D01*
X130763559Y-74870910D01*
X130618569Y-75083110D01*
X130567560Y-75335000D01*
X130567560Y-75450000D01*
X127635000Y-75450000D01*
X127104983Y-75555427D01*
X126655657Y-75855657D01*
X124750657Y-77760657D01*
X124450427Y-78209983D01*
X124345000Y-78740000D01*
X124345000Y-85786314D01*
X123251314Y-86880000D01*
X89473686Y-86880000D01*
X87339343Y-84745657D01*
X86890017Y-84445427D01*
X86360000Y-84340000D01*
X77470000Y-84340000D01*
X76939983Y-84445427D01*
X76490657Y-84745657D01*
X74356314Y-86880000D01*
X71755000Y-86880000D01*
X71224983Y-86985427D01*
X70775657Y-87285657D01*
X70475427Y-87734983D01*
X70370000Y-88265000D01*
X64885000Y-88265000D01*
X64885000Y-85663686D01*
X70597637Y-79951049D01*
X70420232Y-80378287D01*
X70419769Y-80909383D01*
X70622582Y-81400229D01*
X70997796Y-81776098D01*
X71488287Y-81979768D01*
X72019383Y-81980231D01*
X72510229Y-81777418D01*
X72886098Y-81402204D01*
X73089768Y-80911713D01*
X73090023Y-80618846D01*
X80580000Y-80618846D01*
X80580000Y-80671154D01*
X80681621Y-81182036D01*
X80971012Y-81615142D01*
X81404118Y-81904533D01*
X81915000Y-82006154D01*
X82425882Y-81904533D01*
X82858988Y-81615142D01*
X83148379Y-81182036D01*
X83250000Y-80671154D01*
X83250000Y-80618846D01*
X83148379Y-80107964D01*
X82858988Y-79674858D01*
X82425882Y-79385467D01*
X81915000Y-79283846D01*
X81404118Y-79385467D01*
X80971012Y-79674858D01*
X80681621Y-80107964D01*
X80580000Y-80618846D01*
X73090023Y-80618846D01*
X73090231Y-80380617D01*
X72887418Y-79889771D01*
X72512204Y-79513902D01*
X72021713Y-79310232D01*
X71490617Y-79309769D01*
X71061687Y-79486999D01*
X74233686Y-76315000D01*
X76200000Y-76315000D01*
X76730017Y-76209573D01*
X77179343Y-75909343D01*
X81738839Y-71349847D01*
X82337815Y-71350370D01*
X83122800Y-71026020D01*
X83723909Y-70425959D01*
X84049628Y-69641541D01*
X84049750Y-69500750D01*
X84860000Y-69500750D01*
X84860000Y-70841310D01*
X84956673Y-71074699D01*
X85135302Y-71253327D01*
X85368691Y-71350000D01*
X86709250Y-71350000D01*
X86868000Y-71191250D01*
X86868000Y-69342000D01*
X87122000Y-69342000D01*
X87122000Y-71191250D01*
X87280750Y-71350000D01*
X88621309Y-71350000D01*
X88854698Y-71253327D01*
X89033327Y-71074699D01*
X89130000Y-70841310D01*
X89130000Y-69637815D01*
X89939630Y-69637815D01*
X90263980Y-70422800D01*
X90690000Y-70849564D01*
X90690000Y-80645000D01*
X90739781Y-80895267D01*
X90739769Y-80909383D01*
X90745207Y-80922544D01*
X90795427Y-81175017D01*
X90937191Y-81387182D01*
X90942582Y-81400229D01*
X90952643Y-81410308D01*
X91095657Y-81624343D01*
X91307824Y-81766108D01*
X91317796Y-81776098D01*
X91330947Y-81781559D01*
X91544983Y-81924573D01*
X91795249Y-81974354D01*
X91808287Y-81979768D01*
X91822529Y-81979780D01*
X92075000Y-82030000D01*
X92325267Y-81980219D01*
X92339383Y-81980231D01*
X92352544Y-81974793D01*
X92605017Y-81924573D01*
X92817182Y-81782809D01*
X92830229Y-81777418D01*
X92840308Y-81767357D01*
X93054343Y-81624343D01*
X93196108Y-81412176D01*
X93206098Y-81402204D01*
X93211559Y-81389053D01*
X93354573Y-81175017D01*
X93404354Y-80924751D01*
X93409768Y-80911713D01*
X93409780Y-80897471D01*
X93460000Y-80645000D01*
X93460000Y-70849129D01*
X93883909Y-70425959D01*
X94209628Y-69641541D01*
X94209750Y-69500750D01*
X95020000Y-69500750D01*
X95020000Y-70841310D01*
X95116673Y-71074699D01*
X95295302Y-71253327D01*
X95528691Y-71350000D01*
X96869250Y-71350000D01*
X97028000Y-71191250D01*
X97028000Y-69342000D01*
X97282000Y-69342000D01*
X97282000Y-71191250D01*
X97440750Y-71350000D01*
X98781309Y-71350000D01*
X99014698Y-71253327D01*
X99193327Y-71074699D01*
X99290000Y-70841310D01*
X99290000Y-69637815D01*
X100099630Y-69637815D01*
X100423980Y-70422800D01*
X100850000Y-70849564D01*
X100850000Y-80645000D01*
X100899781Y-80895267D01*
X100899769Y-80909383D01*
X100905207Y-80922544D01*
X100955427Y-81175017D01*
X101097191Y-81387182D01*
X101102582Y-81400229D01*
X101112643Y-81410308D01*
X101255657Y-81624343D01*
X101467824Y-81766108D01*
X101477796Y-81776098D01*
X101490947Y-81781559D01*
X101704983Y-81924573D01*
X101955249Y-81974354D01*
X101968287Y-81979768D01*
X101982529Y-81979780D01*
X102235000Y-82030000D01*
X102485267Y-81980219D01*
X102499383Y-81980231D01*
X102512544Y-81974793D01*
X102765017Y-81924573D01*
X102977182Y-81782809D01*
X102990229Y-81777418D01*
X103000308Y-81767357D01*
X103214343Y-81624343D01*
X103356108Y-81412176D01*
X103366098Y-81402204D01*
X103371559Y-81389053D01*
X103514573Y-81175017D01*
X103564354Y-80924751D01*
X103569768Y-80911713D01*
X103569780Y-80897471D01*
X103620000Y-80645000D01*
X103620000Y-70849129D01*
X104043909Y-70425959D01*
X104369628Y-69641541D01*
X104369750Y-69500750D01*
X105180000Y-69500750D01*
X105180000Y-70841310D01*
X105276673Y-71074699D01*
X105455302Y-71253327D01*
X105688691Y-71350000D01*
X107029250Y-71350000D01*
X107188000Y-71191250D01*
X107188000Y-69342000D01*
X107442000Y-69342000D01*
X107442000Y-71191250D01*
X107600750Y-71350000D01*
X108941309Y-71350000D01*
X109174698Y-71253327D01*
X109353327Y-71074699D01*
X109450000Y-70841310D01*
X109450000Y-69637815D01*
X110259630Y-69637815D01*
X110583980Y-70422800D01*
X111010000Y-70849564D01*
X111010000Y-80645000D01*
X111059781Y-80895267D01*
X111059769Y-80909383D01*
X111065207Y-80922544D01*
X111115427Y-81175017D01*
X111257191Y-81387182D01*
X111262582Y-81400229D01*
X111272643Y-81410308D01*
X111415657Y-81624343D01*
X111627824Y-81766108D01*
X111637796Y-81776098D01*
X111650947Y-81781559D01*
X111864983Y-81924573D01*
X112115249Y-81974354D01*
X112128287Y-81979768D01*
X112142529Y-81979780D01*
X112395000Y-82030000D01*
X112645267Y-81980219D01*
X112659383Y-81980231D01*
X112672544Y-81974793D01*
X112925017Y-81924573D01*
X113137182Y-81782809D01*
X113150229Y-81777418D01*
X113160308Y-81767357D01*
X113374343Y-81624343D01*
X113516108Y-81412176D01*
X113526098Y-81402204D01*
X113531559Y-81389053D01*
X113674573Y-81175017D01*
X113724354Y-80924751D01*
X113729768Y-80911713D01*
X113729780Y-80897471D01*
X113780000Y-80645000D01*
X113780000Y-70849129D01*
X114203909Y-70425959D01*
X114529628Y-69641541D01*
X114529750Y-69500750D01*
X115340000Y-69500750D01*
X115340000Y-70841310D01*
X115436673Y-71074699D01*
X115615302Y-71253327D01*
X115848691Y-71350000D01*
X117189250Y-71350000D01*
X117348000Y-71191250D01*
X117348000Y-69342000D01*
X117602000Y-69342000D01*
X117602000Y-71191250D01*
X117760750Y-71350000D01*
X119101309Y-71350000D01*
X119334698Y-71253327D01*
X119513327Y-71074699D01*
X119610000Y-70841310D01*
X119610000Y-69637815D01*
X120419630Y-69637815D01*
X120743980Y-70422800D01*
X121170000Y-70849564D01*
X121170000Y-80645000D01*
X121219781Y-80895267D01*
X121219769Y-80909383D01*
X121225207Y-80922544D01*
X121275427Y-81175017D01*
X121417191Y-81387182D01*
X121422582Y-81400229D01*
X121432643Y-81410308D01*
X121575657Y-81624343D01*
X121787824Y-81766108D01*
X121797796Y-81776098D01*
X121810947Y-81781559D01*
X122024983Y-81924573D01*
X122275249Y-81974354D01*
X122288287Y-81979768D01*
X122302529Y-81979780D01*
X122555000Y-82030000D01*
X122805267Y-81980219D01*
X122819383Y-81980231D01*
X122832544Y-81974793D01*
X123085017Y-81924573D01*
X123297182Y-81782809D01*
X123310229Y-81777418D01*
X123320308Y-81767357D01*
X123534343Y-81624343D01*
X123676108Y-81412176D01*
X123686098Y-81402204D01*
X123691559Y-81389053D01*
X123834573Y-81175017D01*
X123884354Y-80924751D01*
X123889768Y-80911713D01*
X123889780Y-80897471D01*
X123940000Y-80645000D01*
X123940000Y-70849129D01*
X124363909Y-70425959D01*
X124689628Y-69641541D01*
X124689891Y-69339482D01*
X129514336Y-69339482D01*
X130096950Y-70749515D01*
X131174811Y-71829259D01*
X132583825Y-72414333D01*
X134109482Y-72415664D01*
X135519515Y-71833050D01*
X136599259Y-70755189D01*
X137184333Y-69346175D01*
X137185664Y-67820518D01*
X136603050Y-66410485D01*
X135525189Y-65330741D01*
X134116175Y-64745667D01*
X132590518Y-64744336D01*
X131180485Y-65326950D01*
X130100741Y-66404811D01*
X129515667Y-67813825D01*
X129514336Y-69339482D01*
X124689891Y-69339482D01*
X124690370Y-68792185D01*
X124366020Y-68007200D01*
X123765959Y-67406091D01*
X122981541Y-67080372D01*
X122132185Y-67079630D01*
X121347200Y-67403980D01*
X120746091Y-68004041D01*
X120420372Y-68788459D01*
X120419630Y-69637815D01*
X119610000Y-69637815D01*
X119610000Y-69500750D01*
X119451250Y-69342000D01*
X117602000Y-69342000D01*
X117348000Y-69342000D01*
X115498750Y-69342000D01*
X115340000Y-69500750D01*
X114529750Y-69500750D01*
X114530370Y-68792185D01*
X114206020Y-68007200D01*
X113788240Y-67588690D01*
X115340000Y-67588690D01*
X115340000Y-68929250D01*
X115498750Y-69088000D01*
X117348000Y-69088000D01*
X117348000Y-67238750D01*
X117602000Y-67238750D01*
X117602000Y-69088000D01*
X119451250Y-69088000D01*
X119610000Y-68929250D01*
X119610000Y-67588690D01*
X119513327Y-67355301D01*
X119334698Y-67176673D01*
X119101309Y-67080000D01*
X117760750Y-67080000D01*
X117602000Y-67238750D01*
X117348000Y-67238750D01*
X117189250Y-67080000D01*
X115848691Y-67080000D01*
X115615302Y-67176673D01*
X115436673Y-67355301D01*
X115340000Y-67588690D01*
X113788240Y-67588690D01*
X113605959Y-67406091D01*
X112821541Y-67080372D01*
X111972185Y-67079630D01*
X111187200Y-67403980D01*
X110586091Y-68004041D01*
X110260372Y-68788459D01*
X110259630Y-69637815D01*
X109450000Y-69637815D01*
X109450000Y-69500750D01*
X109291250Y-69342000D01*
X107442000Y-69342000D01*
X107188000Y-69342000D01*
X105338750Y-69342000D01*
X105180000Y-69500750D01*
X104369750Y-69500750D01*
X104370370Y-68792185D01*
X104046020Y-68007200D01*
X103628240Y-67588690D01*
X105180000Y-67588690D01*
X105180000Y-68929250D01*
X105338750Y-69088000D01*
X107188000Y-69088000D01*
X107188000Y-67238750D01*
X107442000Y-67238750D01*
X107442000Y-69088000D01*
X109291250Y-69088000D01*
X109450000Y-68929250D01*
X109450000Y-67588690D01*
X109353327Y-67355301D01*
X109174698Y-67176673D01*
X108941309Y-67080000D01*
X107600750Y-67080000D01*
X107442000Y-67238750D01*
X107188000Y-67238750D01*
X107029250Y-67080000D01*
X105688691Y-67080000D01*
X105455302Y-67176673D01*
X105276673Y-67355301D01*
X105180000Y-67588690D01*
X103628240Y-67588690D01*
X103445959Y-67406091D01*
X102661541Y-67080372D01*
X101812185Y-67079630D01*
X101027200Y-67403980D01*
X100426091Y-68004041D01*
X100100372Y-68788459D01*
X100099630Y-69637815D01*
X99290000Y-69637815D01*
X99290000Y-69500750D01*
X99131250Y-69342000D01*
X97282000Y-69342000D01*
X97028000Y-69342000D01*
X95178750Y-69342000D01*
X95020000Y-69500750D01*
X94209750Y-69500750D01*
X94210370Y-68792185D01*
X93886020Y-68007200D01*
X93468240Y-67588690D01*
X95020000Y-67588690D01*
X95020000Y-68929250D01*
X95178750Y-69088000D01*
X97028000Y-69088000D01*
X97028000Y-67238750D01*
X97282000Y-67238750D01*
X97282000Y-69088000D01*
X99131250Y-69088000D01*
X99290000Y-68929250D01*
X99290000Y-67588690D01*
X99193327Y-67355301D01*
X99014698Y-67176673D01*
X98781309Y-67080000D01*
X97440750Y-67080000D01*
X97282000Y-67238750D01*
X97028000Y-67238750D01*
X96869250Y-67080000D01*
X95528691Y-67080000D01*
X95295302Y-67176673D01*
X95116673Y-67355301D01*
X95020000Y-67588690D01*
X93468240Y-67588690D01*
X93285959Y-67406091D01*
X92501541Y-67080372D01*
X91652185Y-67079630D01*
X90867200Y-67403980D01*
X90266091Y-68004041D01*
X89940372Y-68788459D01*
X89939630Y-69637815D01*
X89130000Y-69637815D01*
X89130000Y-69500750D01*
X88971250Y-69342000D01*
X87122000Y-69342000D01*
X86868000Y-69342000D01*
X85018750Y-69342000D01*
X84860000Y-69500750D01*
X84049750Y-69500750D01*
X84050370Y-68792185D01*
X83726020Y-68007200D01*
X83308240Y-67588690D01*
X84860000Y-67588690D01*
X84860000Y-68929250D01*
X85018750Y-69088000D01*
X86868000Y-69088000D01*
X86868000Y-67238750D01*
X87122000Y-67238750D01*
X87122000Y-69088000D01*
X88971250Y-69088000D01*
X89130000Y-68929250D01*
X89130000Y-67588690D01*
X89033327Y-67355301D01*
X88854698Y-67176673D01*
X88621309Y-67080000D01*
X87280750Y-67080000D01*
X87122000Y-67238750D01*
X86868000Y-67238750D01*
X86709250Y-67080000D01*
X85368691Y-67080000D01*
X85135302Y-67176673D01*
X84956673Y-67355301D01*
X84860000Y-67588690D01*
X83308240Y-67588690D01*
X83125959Y-67406091D01*
X82341541Y-67080372D01*
X81492185Y-67079630D01*
X80707200Y-67403980D01*
X80106091Y-68004041D01*
X79780372Y-68788459D01*
X79779845Y-69391469D01*
X78982440Y-70188874D01*
X78982440Y-67715000D01*
X78938162Y-67479683D01*
X78799090Y-67263559D01*
X78586890Y-67118569D01*
X78335000Y-67067560D01*
X75335000Y-67067560D01*
X75099683Y-67111838D01*
X74883559Y-67250910D01*
X74738569Y-67463110D01*
X74687560Y-67715000D01*
X74687560Y-69403754D01*
X73086314Y-71005000D01*
X72983857Y-71005000D01*
X73563909Y-70425959D01*
X73889628Y-69641541D01*
X73890370Y-68792185D01*
X73566020Y-68007200D01*
X72965959Y-67406091D01*
X72181541Y-67080372D01*
X71332185Y-67079630D01*
X70547200Y-67403980D01*
X69946091Y-68004041D01*
X69620372Y-68788459D01*
X69619845Y-69391469D01*
X68822440Y-70188874D01*
X68822440Y-67715000D01*
X68778162Y-67479683D01*
X68639090Y-67263559D01*
X68426890Y-67118569D01*
X68175000Y-67067560D01*
X65175000Y-67067560D01*
X64939683Y-67111838D01*
X64723559Y-67250910D01*
X64578569Y-67463110D01*
X64527560Y-67715000D01*
X64527560Y-70673754D01*
X62790555Y-72410759D01*
X62874573Y-72285017D01*
X62980000Y-71755000D01*
X62980000Y-70849129D01*
X63403909Y-70425959D01*
X63729628Y-69641541D01*
X63730370Y-68792185D01*
X63406020Y-68007200D01*
X62805959Y-67406091D01*
X62021541Y-67080372D01*
X61172185Y-67079630D01*
X60387200Y-67403980D01*
X59786091Y-68004041D01*
X59460372Y-68788459D01*
X59459630Y-69637815D01*
X59783980Y-70422800D01*
X60210000Y-70849564D01*
X60210000Y-71181314D01*
X57710555Y-73680759D01*
X57794574Y-73555016D01*
X57900001Y-73025000D01*
X57900000Y-73024995D01*
X57900000Y-71362440D01*
X58015000Y-71362440D01*
X58250317Y-71318162D01*
X58466441Y-71179090D01*
X58611431Y-70966890D01*
X58662440Y-70715000D01*
X58662440Y-67715000D01*
X58618162Y-67479683D01*
X58479090Y-67263559D01*
X58266890Y-67118569D01*
X58015000Y-67067560D01*
X55015000Y-67067560D01*
X54779683Y-67111838D01*
X54563559Y-67250910D01*
X54418569Y-67463110D01*
X54367560Y-67715000D01*
X54367560Y-70715000D01*
X54411838Y-70950317D01*
X54550910Y-71166441D01*
X54763110Y-71311431D01*
X55015000Y-71362440D01*
X55130000Y-71362440D01*
X55130000Y-72451314D01*
X52630555Y-74950759D01*
X52714573Y-74825017D01*
X52820000Y-74295000D01*
X52820000Y-70849129D01*
X53243909Y-70425959D01*
X53569628Y-69641541D01*
X53570370Y-68792185D01*
X53246020Y-68007200D01*
X52645959Y-67406091D01*
X51861541Y-67080372D01*
X51012185Y-67079630D01*
X50227200Y-67403980D01*
X49626091Y-68004041D01*
X49300372Y-68788459D01*
X49299630Y-69637815D01*
X49623980Y-70422800D01*
X50050000Y-70849564D01*
X50050000Y-73721314D01*
X47280657Y-76490657D01*
X47105000Y-76753546D01*
X47105000Y-71362440D01*
X47855000Y-71362440D01*
X48090317Y-71318162D01*
X48306441Y-71179090D01*
X48451431Y-70966890D01*
X48502440Y-70715000D01*
X48502440Y-67715000D01*
X48458162Y-67479683D01*
X48319090Y-67263559D01*
X48106890Y-67118569D01*
X47855000Y-67067560D01*
X44855000Y-67067560D01*
X44619683Y-67111838D01*
X44403559Y-67250910D01*
X44258569Y-67463110D01*
X44207560Y-67715000D01*
X44207560Y-70715000D01*
X44251838Y-70950317D01*
X44335000Y-71079554D01*
X44335000Y-87708203D01*
X44273569Y-87798110D01*
X44222560Y-88050000D01*
X44222560Y-89750000D01*
X44266838Y-89985317D01*
X44405910Y-90201441D01*
X44618110Y-90346431D01*
X44685541Y-90360086D01*
X44640853Y-90389946D01*
X44318946Y-90871715D01*
X44205907Y-91440000D01*
X34417000Y-91440000D01*
X34417000Y-69339482D01*
X35534336Y-69339482D01*
X36116950Y-70749515D01*
X37194811Y-71829259D01*
X38603825Y-72414333D01*
X40129482Y-72415664D01*
X41539515Y-71833050D01*
X42619259Y-70755189D01*
X43204333Y-69346175D01*
X43205664Y-67820518D01*
X42623050Y-66410485D01*
X41545189Y-65330741D01*
X40136175Y-64745667D01*
X38610518Y-64744336D01*
X37200485Y-65326950D01*
X36120741Y-66404811D01*
X35535667Y-67813825D01*
X35534336Y-69339482D01*
X34417000Y-69339482D01*
X34417000Y-63627000D01*
X138303000Y-63627000D01*
X138303000Y-139573000D01*
X138303000Y-139573000D01*
G37*
X138303000Y-139573000D02*
X34417000Y-139573000D01*
X34417000Y-135379482D01*
X35534336Y-135379482D01*
X36116950Y-136789515D01*
X37194811Y-137869259D01*
X38603825Y-138454333D01*
X40129482Y-138455664D01*
X41539515Y-137873050D01*
X42619259Y-136795189D01*
X43204333Y-135386175D01*
X43204338Y-135379482D01*
X129514336Y-135379482D01*
X130096950Y-136789515D01*
X131174811Y-137869259D01*
X132583825Y-138454333D01*
X134109482Y-138455664D01*
X135519515Y-137873050D01*
X136599259Y-136795189D01*
X137184333Y-135386175D01*
X137185664Y-133860518D01*
X136603050Y-132450485D01*
X135525189Y-131370741D01*
X134116175Y-130785667D01*
X132590518Y-130784336D01*
X131180485Y-131366950D01*
X130100741Y-132444811D01*
X129515667Y-133853825D01*
X129514336Y-135379482D01*
X43204338Y-135379482D01*
X43205664Y-133860518D01*
X42623050Y-132450485D01*
X41545189Y-131370741D01*
X40136175Y-130785667D01*
X38610518Y-130784336D01*
X37200485Y-131366950D01*
X36120741Y-132444811D01*
X35535667Y-133853825D01*
X35534336Y-135379482D01*
X34417000Y-135379482D01*
X34417000Y-129148970D01*
X131380635Y-129148970D01*
X131540418Y-129467739D01*
X132331187Y-129777723D01*
X133180387Y-129761497D01*
X133889582Y-129467739D01*
X134049365Y-129148970D01*
X132715000Y-127814605D01*
X131380635Y-129148970D01*
X34417000Y-129148970D01*
X34417000Y-127285750D01*
X48045000Y-127285750D01*
X48045000Y-127976309D01*
X48141673Y-128209698D01*
X48320301Y-128388327D01*
X48553690Y-128485000D01*
X49244250Y-128485000D01*
X49403000Y-128326250D01*
X49403000Y-127127000D01*
X48203750Y-127127000D01*
X48045000Y-127285750D01*
X34417000Y-127285750D01*
X34417000Y-126023691D01*
X48045000Y-126023691D01*
X48045000Y-126714250D01*
X48203750Y-126873000D01*
X49403000Y-126873000D01*
X49403000Y-124587000D01*
X48209181Y-124587000D01*
X48088514Y-124816892D01*
X48334817Y-125341358D01*
X48534208Y-125523070D01*
X48320301Y-125611673D01*
X48141673Y-125790302D01*
X48045000Y-126023691D01*
X34417000Y-126023691D01*
X34417000Y-124103108D01*
X48088514Y-124103108D01*
X48209181Y-124333000D01*
X49403000Y-124333000D01*
X49403000Y-123139845D01*
X49657000Y-123139845D01*
X49657000Y-124333000D01*
X49677000Y-124333000D01*
X49677000Y-124587000D01*
X49657000Y-124587000D01*
X49657000Y-126873000D01*
X49677000Y-126873000D01*
X49677000Y-127127000D01*
X49657000Y-127127000D01*
X49657000Y-128326250D01*
X49815750Y-128485000D01*
X50506310Y-128485000D01*
X50739699Y-128388327D01*
X50918327Y-128209698D01*
X50990597Y-128035223D01*
X51019946Y-128079147D01*
X51501715Y-128401054D01*
X52070000Y-128514093D01*
X52638285Y-128401054D01*
X53120054Y-128079147D01*
X53340000Y-127749974D01*
X53559946Y-128079147D01*
X54041715Y-128401054D01*
X54610000Y-128514093D01*
X55178285Y-128401054D01*
X55660054Y-128079147D01*
X55880000Y-127749974D01*
X56099946Y-128079147D01*
X56581715Y-128401054D01*
X57150000Y-128514093D01*
X57718285Y-128401054D01*
X58200054Y-128079147D01*
X58420000Y-127749974D01*
X58639946Y-128079147D01*
X59121715Y-128401054D01*
X59690000Y-128514093D01*
X60258285Y-128401054D01*
X60740054Y-128079147D01*
X60960000Y-127749974D01*
X61179946Y-128079147D01*
X61661715Y-128401054D01*
X62230000Y-128514093D01*
X62798285Y-128401054D01*
X63280054Y-128079147D01*
X63500000Y-127749974D01*
X63719946Y-128079147D01*
X64201715Y-128401054D01*
X64770000Y-128514093D01*
X65338285Y-128401054D01*
X65820054Y-128079147D01*
X66040000Y-127749974D01*
X66259946Y-128079147D01*
X66741715Y-128401054D01*
X67310000Y-128514093D01*
X67878285Y-128401054D01*
X68360054Y-128079147D01*
X68580000Y-127749974D01*
X68799946Y-128079147D01*
X69281715Y-128401054D01*
X69850000Y-128514093D01*
X70418285Y-128401054D01*
X70900054Y-128079147D01*
X71120000Y-127749974D01*
X71339946Y-128079147D01*
X71821715Y-128401054D01*
X72390000Y-128514093D01*
X72958285Y-128401054D01*
X73440054Y-128079147D01*
X73660000Y-127749974D01*
X73879946Y-128079147D01*
X74361715Y-128401054D01*
X74930000Y-128514093D01*
X75498285Y-128401054D01*
X75980054Y-128079147D01*
X76200000Y-127749974D01*
X76419946Y-128079147D01*
X76901715Y-128401054D01*
X77470000Y-128514093D01*
X78038285Y-128401054D01*
X78520054Y-128079147D01*
X78740000Y-127749974D01*
X78959946Y-128079147D01*
X79441715Y-128401054D01*
X80010000Y-128514093D01*
X80578285Y-128401054D01*
X81060054Y-128079147D01*
X81280000Y-127749974D01*
X81499946Y-128079147D01*
X81981715Y-128401054D01*
X82550000Y-128514093D01*
X83118285Y-128401054D01*
X83600054Y-128079147D01*
X83827702Y-127738447D01*
X83894817Y-127881358D01*
X84323076Y-128271645D01*
X84733110Y-128441476D01*
X84963000Y-128320155D01*
X84963000Y-127127000D01*
X85217000Y-127127000D01*
X85217000Y-128320155D01*
X85446890Y-128441476D01*
X85856924Y-128271645D01*
X86285183Y-127881358D01*
X86531486Y-127356892D01*
X86410819Y-127127000D01*
X85217000Y-127127000D01*
X84963000Y-127127000D01*
X84943000Y-127127000D01*
X84943000Y-126873000D01*
X84963000Y-126873000D01*
X84963000Y-124587000D01*
X85217000Y-124587000D01*
X85217000Y-126873000D01*
X86410819Y-126873000D01*
X86531486Y-126643108D01*
X86285183Y-126118642D01*
X85858729Y-125730000D01*
X86285183Y-125341358D01*
X86531486Y-124816892D01*
X86410819Y-124587000D01*
X85217000Y-124587000D01*
X84963000Y-124587000D01*
X84943000Y-124587000D01*
X84943000Y-124333000D01*
X84963000Y-124333000D01*
X84963000Y-123139845D01*
X85217000Y-123139845D01*
X85217000Y-124333000D01*
X86410819Y-124333000D01*
X86531486Y-124103108D01*
X86285183Y-123578642D01*
X85856924Y-123188355D01*
X85446890Y-123018524D01*
X85217000Y-123139845D01*
X84963000Y-123139845D01*
X84733110Y-123018524D01*
X84655000Y-123050876D01*
X84655000Y-114645868D01*
X86070868Y-113230000D01*
X88068225Y-113230000D01*
X87965162Y-113478201D01*
X87964838Y-113850167D01*
X88065000Y-114092578D01*
X88065000Y-125095000D01*
X88128561Y-125414541D01*
X88274911Y-125633569D01*
X88309566Y-125685434D01*
X91484566Y-128860434D01*
X91755459Y-129041439D01*
X92075000Y-129105000D01*
X100330000Y-129105000D01*
X100649541Y-129041439D01*
X100920434Y-128860434D01*
X101879428Y-127901440D01*
X102171500Y-127901440D01*
X102406817Y-127857162D01*
X102622941Y-127718090D01*
X102761706Y-127515000D01*
X105615025Y-127515000D01*
X105778110Y-127626431D01*
X106030000Y-127677440D01*
X107330000Y-127677440D01*
X107565317Y-127633162D01*
X107781441Y-127494090D01*
X107926431Y-127281890D01*
X107932648Y-127251187D01*
X130572277Y-127251187D01*
X130588503Y-128100387D01*
X130882261Y-128809582D01*
X131201030Y-128969365D01*
X132535395Y-127635000D01*
X132894605Y-127635000D01*
X134228970Y-128969365D01*
X134547739Y-128809582D01*
X134857723Y-128018813D01*
X134841497Y-127169613D01*
X134547739Y-126460418D01*
X134228970Y-126300635D01*
X132894605Y-127635000D01*
X132535395Y-127635000D01*
X131201030Y-126300635D01*
X130882261Y-126460418D01*
X130572277Y-127251187D01*
X107932648Y-127251187D01*
X107977440Y-127030000D01*
X107977440Y-126330000D01*
X107938120Y-126121030D01*
X131380635Y-126121030D01*
X132715000Y-127455395D01*
X134049365Y-126121030D01*
X133889582Y-125802261D01*
X133098813Y-125492277D01*
X132249613Y-125508503D01*
X131540418Y-125802261D01*
X131380635Y-126121030D01*
X107938120Y-126121030D01*
X107933162Y-126094683D01*
X107794090Y-125878559D01*
X107581890Y-125733569D01*
X107568803Y-125730919D01*
X107781441Y-125594090D01*
X107926431Y-125381890D01*
X107977440Y-125130000D01*
X107977440Y-124430000D01*
X107933162Y-124194683D01*
X107794090Y-123978559D01*
X107581890Y-123833569D01*
X107515000Y-123820023D01*
X107515000Y-123120854D01*
X107715317Y-123083162D01*
X107931441Y-122944090D01*
X108076431Y-122731890D01*
X108127440Y-122480000D01*
X108127440Y-119880000D01*
X108083162Y-119644683D01*
X107944090Y-119428559D01*
X107875994Y-119382031D01*
X108018327Y-119239698D01*
X108115000Y-119006309D01*
X108115000Y-117865750D01*
X107956250Y-117707000D01*
X106807000Y-117707000D01*
X106807000Y-117727000D01*
X106553000Y-117727000D01*
X106553000Y-117707000D01*
X105403750Y-117707000D01*
X105245000Y-117865750D01*
X105245000Y-119006309D01*
X105341673Y-119239698D01*
X105482910Y-119380936D01*
X105428559Y-119415910D01*
X105283569Y-119628110D01*
X105232560Y-119880000D01*
X105232560Y-122480000D01*
X105276838Y-122715317D01*
X105415910Y-122931441D01*
X105628110Y-123076431D01*
X105845000Y-123120352D01*
X105845000Y-123817370D01*
X105794683Y-123826838D01*
X105578559Y-123965910D01*
X105433569Y-124178110D01*
X105382560Y-124430000D01*
X105382560Y-125130000D01*
X105426838Y-125365317D01*
X105565910Y-125581441D01*
X105778110Y-125726431D01*
X105791197Y-125729081D01*
X105611054Y-125845000D01*
X102818940Y-125845000D01*
X102818940Y-124206000D01*
X102774662Y-123970683D01*
X102635590Y-123754559D01*
X102423390Y-123609569D01*
X102171500Y-123558560D01*
X100520500Y-123558560D01*
X100285183Y-123602838D01*
X100069059Y-123741910D01*
X99924069Y-123954110D01*
X99873060Y-124206000D01*
X99873060Y-127254000D01*
X99907118Y-127435000D01*
X98210287Y-127435000D01*
X98246940Y-127254000D01*
X98246940Y-124206000D01*
X98202662Y-123970683D01*
X98063590Y-123754559D01*
X97851390Y-123609569D01*
X97599500Y-123558560D01*
X95948500Y-123558560D01*
X95713183Y-123602838D01*
X95497059Y-123741910D01*
X95352069Y-123954110D01*
X95301060Y-124206000D01*
X95301060Y-125895000D01*
X94509018Y-125895000D01*
X94434090Y-125778559D01*
X94365994Y-125732031D01*
X94508327Y-125589698D01*
X94605000Y-125356309D01*
X94605000Y-125015750D01*
X94446250Y-124857000D01*
X93472000Y-124857000D01*
X93472000Y-124877000D01*
X93218000Y-124877000D01*
X93218000Y-124857000D01*
X93198000Y-124857000D01*
X93198000Y-124603000D01*
X93218000Y-124603000D01*
X93218000Y-123753750D01*
X93472000Y-123753750D01*
X93472000Y-124603000D01*
X94446250Y-124603000D01*
X94605000Y-124444250D01*
X94605000Y-124103691D01*
X94508327Y-123870302D01*
X94329699Y-123691673D01*
X94096310Y-123595000D01*
X93630750Y-123595000D01*
X93472000Y-123753750D01*
X93218000Y-123753750D01*
X93059250Y-123595000D01*
X92593690Y-123595000D01*
X92360301Y-123691673D01*
X92275000Y-123776974D01*
X92275000Y-119665750D01*
X95377000Y-119665750D01*
X95377000Y-122554310D01*
X95473673Y-122787699D01*
X95652302Y-122966327D01*
X95885691Y-123063000D01*
X98774250Y-123063000D01*
X98933000Y-122904250D01*
X98933000Y-119507000D01*
X99187000Y-119507000D01*
X99187000Y-122904250D01*
X99345750Y-123063000D01*
X102234309Y-123063000D01*
X102467698Y-122966327D01*
X102646327Y-122787699D01*
X102743000Y-122554310D01*
X102743000Y-119665750D01*
X102584250Y-119507000D01*
X99187000Y-119507000D01*
X98933000Y-119507000D01*
X95535750Y-119507000D01*
X95377000Y-119665750D01*
X92275000Y-119665750D01*
X92275000Y-116205690D01*
X95377000Y-116205690D01*
X95377000Y-119094250D01*
X95535750Y-119253000D01*
X98933000Y-119253000D01*
X98933000Y-115855750D01*
X99187000Y-115855750D01*
X99187000Y-119253000D01*
X102584250Y-119253000D01*
X102743000Y-119094250D01*
X102743000Y-116205690D01*
X102721462Y-116153691D01*
X105245000Y-116153691D01*
X105245000Y-117294250D01*
X105403750Y-117453000D01*
X106553000Y-117453000D01*
X106553000Y-115803750D01*
X106807000Y-115803750D01*
X106807000Y-117453000D01*
X107956250Y-117453000D01*
X108115000Y-117294250D01*
X108115000Y-116153691D01*
X108018327Y-115920302D01*
X107839699Y-115741673D01*
X107606310Y-115645000D01*
X106965750Y-115645000D01*
X106807000Y-115803750D01*
X106553000Y-115803750D01*
X106394250Y-115645000D01*
X105753690Y-115645000D01*
X105520301Y-115741673D01*
X105341673Y-115920302D01*
X105245000Y-116153691D01*
X102721462Y-116153691D01*
X102646327Y-115972301D01*
X102467698Y-115793673D01*
X102234309Y-115697000D01*
X99345750Y-115697000D01*
X99187000Y-115855750D01*
X98933000Y-115855750D01*
X98774250Y-115697000D01*
X95885691Y-115697000D01*
X95652302Y-115793673D01*
X95473673Y-115972301D01*
X95377000Y-116205690D01*
X92275000Y-116205690D01*
X92275000Y-114092234D01*
X92374838Y-113851799D01*
X92375162Y-113479833D01*
X92271933Y-113230000D01*
X110779132Y-113230000D01*
X111560000Y-114010868D01*
X111560000Y-121285000D01*
X111623561Y-121604541D01*
X111804566Y-121875434D01*
X113074566Y-123145434D01*
X113345459Y-123326439D01*
X113665000Y-123390000D01*
X114707560Y-123390000D01*
X114707560Y-123405000D01*
X114751838Y-123640317D01*
X114890910Y-123856441D01*
X115103110Y-124001431D01*
X115355000Y-124052440D01*
X117055000Y-124052440D01*
X117290317Y-124008162D01*
X117506441Y-123869090D01*
X117651431Y-123656890D01*
X117702440Y-123405000D01*
X117702440Y-121705000D01*
X117658162Y-121469683D01*
X117613322Y-121400000D01*
X117969857Y-121400000D01*
X117933569Y-121453110D01*
X117882560Y-121705000D01*
X117882560Y-123405000D01*
X117926838Y-123640317D01*
X118065910Y-123856441D01*
X118278110Y-124001431D01*
X118530000Y-124052440D01*
X120230000Y-124052440D01*
X120465317Y-124008162D01*
X120681441Y-123869090D01*
X120826431Y-123656890D01*
X120877440Y-123405000D01*
X120877440Y-121705000D01*
X120833162Y-121469683D01*
X120788322Y-121400000D01*
X121285000Y-121400000D01*
X121815017Y-121294573D01*
X122173563Y-121055000D01*
X130567560Y-121055000D01*
X130567560Y-124055000D01*
X130611838Y-124290317D01*
X130750910Y-124506441D01*
X130963110Y-124651431D01*
X131215000Y-124702440D01*
X134215000Y-124702440D01*
X134450317Y-124658162D01*
X134666441Y-124519090D01*
X134811431Y-124306890D01*
X134862440Y-124055000D01*
X134862440Y-121055000D01*
X134818162Y-120819683D01*
X134679090Y-120603559D01*
X134466890Y-120458569D01*
X134215000Y-120407560D01*
X131215000Y-120407560D01*
X130979683Y-120451838D01*
X130763559Y-120590910D01*
X130618569Y-120803110D01*
X130567560Y-121055000D01*
X122173563Y-121055000D01*
X122264343Y-120994343D01*
X124269716Y-118988970D01*
X131380635Y-118988970D01*
X131540418Y-119307739D01*
X132331187Y-119617723D01*
X133180387Y-119601497D01*
X133889582Y-119307739D01*
X134049365Y-118988970D01*
X132715000Y-117654605D01*
X131380635Y-118988970D01*
X124269716Y-118988970D01*
X125439343Y-117819343D01*
X125584567Y-117602000D01*
X125739573Y-117370017D01*
X125795035Y-117091187D01*
X130572277Y-117091187D01*
X130588503Y-117940387D01*
X130882261Y-118649582D01*
X131201030Y-118809365D01*
X132535395Y-117475000D01*
X132894605Y-117475000D01*
X134228970Y-118809365D01*
X134547739Y-118649582D01*
X134857723Y-117858813D01*
X134841497Y-117009613D01*
X134547739Y-116300418D01*
X134228970Y-116140635D01*
X132894605Y-117475000D01*
X132535395Y-117475000D01*
X131201030Y-116140635D01*
X130882261Y-116300418D01*
X130572277Y-117091187D01*
X125795035Y-117091187D01*
X125845000Y-116840000D01*
X125845000Y-115961030D01*
X131380635Y-115961030D01*
X132715000Y-117295395D01*
X134049365Y-115961030D01*
X133889582Y-115642261D01*
X133098813Y-115332277D01*
X132249613Y-115348503D01*
X131540418Y-115642261D01*
X131380635Y-115961030D01*
X125845000Y-115961030D01*
X125845000Y-110895000D01*
X130567560Y-110895000D01*
X130567560Y-113895000D01*
X130611838Y-114130317D01*
X130750910Y-114346441D01*
X130963110Y-114491431D01*
X131215000Y-114542440D01*
X134215000Y-114542440D01*
X134450317Y-114498162D01*
X134666441Y-114359090D01*
X134811431Y-114146890D01*
X134862440Y-113895000D01*
X134862440Y-110895000D01*
X134818162Y-110659683D01*
X134679090Y-110443559D01*
X134466890Y-110298569D01*
X134215000Y-110247560D01*
X131215000Y-110247560D01*
X130979683Y-110291838D01*
X130763559Y-110430910D01*
X130618569Y-110643110D01*
X130567560Y-110895000D01*
X125845000Y-110895000D01*
X125845000Y-107737815D01*
X130579630Y-107737815D01*
X130903980Y-108522800D01*
X131504041Y-109123909D01*
X132288459Y-109449628D01*
X133137815Y-109450370D01*
X133922800Y-109126020D01*
X134523909Y-108525959D01*
X134849628Y-107741541D01*
X134850370Y-106892185D01*
X134526020Y-106107200D01*
X133925959Y-105506091D01*
X133141541Y-105180372D01*
X132292185Y-105179630D01*
X131507200Y-105503980D01*
X130906091Y-106104041D01*
X130580372Y-106888459D01*
X130579630Y-107737815D01*
X125845000Y-107737815D01*
X125845000Y-103748970D01*
X131380635Y-103748970D01*
X131540418Y-104067739D01*
X132331187Y-104377723D01*
X133180387Y-104361497D01*
X133889582Y-104067739D01*
X134049365Y-103748970D01*
X132715000Y-102414605D01*
X131380635Y-103748970D01*
X125845000Y-103748970D01*
X125845000Y-101851187D01*
X130572277Y-101851187D01*
X130588503Y-102700387D01*
X130882261Y-103409582D01*
X131201030Y-103569365D01*
X132535395Y-102235000D01*
X132894605Y-102235000D01*
X134228970Y-103569365D01*
X134547739Y-103409582D01*
X134857723Y-102618813D01*
X134841497Y-101769613D01*
X134547739Y-101060418D01*
X134228970Y-100900635D01*
X132894605Y-102235000D01*
X132535395Y-102235000D01*
X131201030Y-100900635D01*
X130882261Y-101060418D01*
X130572277Y-101851187D01*
X125845000Y-101851187D01*
X125845000Y-100903686D01*
X126027656Y-100721030D01*
X131380635Y-100721030D01*
X132715000Y-102055395D01*
X134049365Y-100721030D01*
X133889582Y-100402261D01*
X133098813Y-100092277D01*
X132249613Y-100108503D01*
X131540418Y-100402261D01*
X131380635Y-100721030D01*
X126027656Y-100721030D01*
X128208686Y-98540000D01*
X130567560Y-98540000D01*
X130567560Y-98655000D01*
X130611838Y-98890317D01*
X130750910Y-99106441D01*
X130963110Y-99251431D01*
X131215000Y-99302440D01*
X134215000Y-99302440D01*
X134450317Y-99258162D01*
X134666441Y-99119090D01*
X134811431Y-98906890D01*
X134862440Y-98655000D01*
X134862440Y-95655000D01*
X134818162Y-95419683D01*
X134679090Y-95203559D01*
X134466890Y-95058569D01*
X134215000Y-95007560D01*
X131215000Y-95007560D01*
X130979683Y-95051838D01*
X130763559Y-95190910D01*
X130618569Y-95403110D01*
X130567560Y-95655000D01*
X130567560Y-95770000D01*
X127635000Y-95770000D01*
X127104983Y-95875427D01*
X126655657Y-96175657D01*
X123480657Y-99350657D01*
X123180427Y-99799983D01*
X123075000Y-100330000D01*
X123075000Y-116266314D01*
X120711314Y-118630000D01*
X120297978Y-118630000D01*
X120651645Y-118241924D01*
X120821476Y-117831890D01*
X120700155Y-117602000D01*
X119507000Y-117602000D01*
X119507000Y-117622000D01*
X119253000Y-117622000D01*
X119253000Y-117602000D01*
X118059845Y-117602000D01*
X117938524Y-117831890D01*
X118108355Y-118241924D01*
X118462022Y-118630000D01*
X117122978Y-118630000D01*
X117476645Y-118241924D01*
X117646476Y-117831890D01*
X117525155Y-117602000D01*
X116332000Y-117602000D01*
X116332000Y-117622000D01*
X116078000Y-117622000D01*
X116078000Y-117602000D01*
X114884845Y-117602000D01*
X114763524Y-117831890D01*
X114933355Y-118241924D01*
X115323642Y-118670183D01*
X115466553Y-118737298D01*
X115125853Y-118964946D01*
X114803946Y-119446715D01*
X114690907Y-120015000D01*
X114803946Y-120583285D01*
X115125853Y-121065054D01*
X115167452Y-121092850D01*
X115119683Y-121101838D01*
X114903559Y-121240910D01*
X114758569Y-121453110D01*
X114707560Y-121705000D01*
X114707560Y-121720000D01*
X114010868Y-121720000D01*
X113230000Y-120939132D01*
X113230000Y-117118110D01*
X114763524Y-117118110D01*
X114884845Y-117348000D01*
X116078000Y-117348000D01*
X116078000Y-116154181D01*
X116332000Y-116154181D01*
X116332000Y-117348000D01*
X117525155Y-117348000D01*
X117646476Y-117118110D01*
X117938524Y-117118110D01*
X118059845Y-117348000D01*
X119253000Y-117348000D01*
X119253000Y-116154181D01*
X119507000Y-116154181D01*
X119507000Y-117348000D01*
X120700155Y-117348000D01*
X120821476Y-117118110D01*
X120651645Y-116708076D01*
X120261358Y-116279817D01*
X119736892Y-116033514D01*
X119507000Y-116154181D01*
X119253000Y-116154181D01*
X119023108Y-116033514D01*
X118498642Y-116279817D01*
X118108355Y-116708076D01*
X117938524Y-117118110D01*
X117646476Y-117118110D01*
X117476645Y-116708076D01*
X117086358Y-116279817D01*
X116561892Y-116033514D01*
X116332000Y-116154181D01*
X116078000Y-116154181D01*
X115848108Y-116033514D01*
X115323642Y-116279817D01*
X114933355Y-116708076D01*
X114763524Y-117118110D01*
X113230000Y-117118110D01*
X113230000Y-113665000D01*
X113166439Y-113345459D01*
X112985434Y-113074566D01*
X111715434Y-111804566D01*
X111444541Y-111623561D01*
X111125000Y-111560000D01*
X85725000Y-111560000D01*
X85405459Y-111623561D01*
X85134566Y-111804566D01*
X83229566Y-113709566D01*
X83048561Y-113980459D01*
X82985000Y-114300000D01*
X82985000Y-123032434D01*
X82550000Y-122945907D01*
X82115000Y-123032434D01*
X82115000Y-107107234D01*
X82214838Y-106866799D01*
X82215162Y-106494833D01*
X82073117Y-106151057D01*
X81810327Y-105887808D01*
X81466799Y-105745162D01*
X81094833Y-105744838D01*
X80751057Y-105886883D01*
X80487808Y-106149673D01*
X80345162Y-106493201D01*
X80344838Y-106865167D01*
X80445000Y-107107578D01*
X80445000Y-107118225D01*
X80196799Y-107015162D01*
X79824833Y-107014838D01*
X79575000Y-107118067D01*
X79575000Y-104567234D01*
X79674838Y-104326799D01*
X79675162Y-103954833D01*
X79533117Y-103611057D01*
X79270327Y-103347808D01*
X78926799Y-103205162D01*
X78554833Y-103204838D01*
X78211057Y-103346883D01*
X77947808Y-103609673D01*
X77805162Y-103953201D01*
X77804838Y-104325167D01*
X77905000Y-104567578D01*
X77905000Y-104578225D01*
X77656799Y-104475162D01*
X77284833Y-104474838D01*
X77035000Y-104578067D01*
X77035000Y-98217234D01*
X77134838Y-97976799D01*
X77135162Y-97604833D01*
X76993117Y-97261057D01*
X76730327Y-96997808D01*
X76386799Y-96855162D01*
X76014833Y-96854838D01*
X75671057Y-96996883D01*
X75407808Y-97259673D01*
X75265162Y-97603201D01*
X75264838Y-97975167D01*
X75365000Y-98217578D01*
X75365000Y-99498225D01*
X75116799Y-99395162D01*
X74744833Y-99394838D01*
X74495000Y-99498067D01*
X74495000Y-99487234D01*
X74594838Y-99246799D01*
X74595162Y-98874833D01*
X74453117Y-98531057D01*
X74190327Y-98267808D01*
X73846799Y-98125162D01*
X73474833Y-98124838D01*
X73131057Y-98266883D01*
X72867808Y-98529673D01*
X72725162Y-98873201D01*
X72724838Y-99245167D01*
X72825000Y-99487578D01*
X72825000Y-100768225D01*
X72576799Y-100665162D01*
X72204833Y-100664838D01*
X71861057Y-100806883D01*
X71597808Y-101069673D01*
X71455162Y-101413201D01*
X71454838Y-101785167D01*
X71555000Y-102027578D01*
X71555000Y-123237159D01*
X71339946Y-123380853D01*
X71120000Y-123710026D01*
X70900054Y-123380853D01*
X70418285Y-123058946D01*
X69850000Y-122945907D01*
X69415000Y-123032434D01*
X69415000Y-117185868D01*
X69572061Y-117028807D01*
X69850000Y-117084093D01*
X70418285Y-116971054D01*
X70900054Y-116649147D01*
X71221961Y-116167378D01*
X71335000Y-115599093D01*
X71335000Y-115540907D01*
X71221961Y-114972622D01*
X70900054Y-114490853D01*
X70614422Y-114300000D01*
X70900054Y-114109147D01*
X71221961Y-113627378D01*
X71335000Y-113059093D01*
X71335000Y-113000907D01*
X71221961Y-112432622D01*
X70900054Y-111950853D01*
X70418285Y-111628946D01*
X69850000Y-111515907D01*
X69281715Y-111628946D01*
X68799946Y-111950853D01*
X68580000Y-112280026D01*
X68360054Y-111950853D01*
X67878285Y-111628946D01*
X67310000Y-111515907D01*
X66741715Y-111628946D01*
X66259946Y-111950853D01*
X66040000Y-112280026D01*
X65820054Y-111950853D01*
X65338285Y-111628946D01*
X64770000Y-111515907D01*
X64201715Y-111628946D01*
X63719946Y-111950853D01*
X63500000Y-112280026D01*
X63280054Y-111950853D01*
X62798285Y-111628946D01*
X62230000Y-111515907D01*
X61661715Y-111628946D01*
X61179946Y-111950853D01*
X60960000Y-112280026D01*
X60740054Y-111950853D01*
X60258285Y-111628946D01*
X59690000Y-111515907D01*
X59121715Y-111628946D01*
X58639946Y-111950853D01*
X58420000Y-112280026D01*
X58200054Y-111950853D01*
X57718285Y-111628946D01*
X57150000Y-111515907D01*
X56581715Y-111628946D01*
X56099946Y-111950853D01*
X55880000Y-112280026D01*
X55660054Y-111950853D01*
X55178285Y-111628946D01*
X54610000Y-111515907D01*
X54041715Y-111628946D01*
X53559946Y-111950853D01*
X53340000Y-112280026D01*
X53120054Y-111950853D01*
X52638285Y-111628946D01*
X52070000Y-111515907D01*
X51501715Y-111628946D01*
X51019946Y-111950853D01*
X50698039Y-112432622D01*
X50585000Y-113000907D01*
X50585000Y-113059093D01*
X50698039Y-113627378D01*
X51019946Y-114109147D01*
X51021179Y-114109971D01*
X50984683Y-114116838D01*
X50768559Y-114255910D01*
X50623569Y-114468110D01*
X50572560Y-114720000D01*
X50572560Y-115886572D01*
X50209566Y-116249566D01*
X50028561Y-116520459D01*
X49965000Y-116840000D01*
X49965000Y-123050876D01*
X49886890Y-123018524D01*
X49657000Y-123139845D01*
X49403000Y-123139845D01*
X49173110Y-123018524D01*
X48763076Y-123188355D01*
X48334817Y-123578642D01*
X48088514Y-124103108D01*
X34417000Y-124103108D01*
X34417000Y-96520000D01*
X44205907Y-96520000D01*
X44318946Y-97088285D01*
X44640853Y-97570054D01*
X44970026Y-97790000D01*
X44640853Y-98009946D01*
X44318946Y-98491715D01*
X44205907Y-99060000D01*
X44318946Y-99628285D01*
X44640853Y-100110054D01*
X44970026Y-100330000D01*
X44640853Y-100549946D01*
X44318946Y-101031715D01*
X44205907Y-101600000D01*
X44318946Y-102168285D01*
X44640853Y-102650054D01*
X45122622Y-102971961D01*
X45690907Y-103085000D01*
X45749093Y-103085000D01*
X46317378Y-102971961D01*
X46799147Y-102650054D01*
X47121054Y-102168285D01*
X47234093Y-101600000D01*
X47121054Y-101031715D01*
X46799147Y-100549946D01*
X46469974Y-100330000D01*
X46799147Y-100110054D01*
X47121054Y-99628285D01*
X47234093Y-99060000D01*
X47121054Y-98491715D01*
X46799147Y-98009946D01*
X46469974Y-97790000D01*
X46799147Y-97570054D01*
X47121054Y-97088285D01*
X47234093Y-96520000D01*
X49285907Y-96520000D01*
X49398946Y-97088285D01*
X49720853Y-97570054D01*
X50050026Y-97790000D01*
X49720853Y-98009946D01*
X49398946Y-98491715D01*
X49285907Y-99060000D01*
X49398946Y-99628285D01*
X49720853Y-100110054D01*
X50050026Y-100330000D01*
X49720853Y-100549946D01*
X49398946Y-101031715D01*
X49285907Y-101600000D01*
X49398946Y-102168285D01*
X49720853Y-102650054D01*
X50202622Y-102971961D01*
X50770907Y-103085000D01*
X50829093Y-103085000D01*
X51397378Y-102971961D01*
X51879147Y-102650054D01*
X52201054Y-102168285D01*
X52314093Y-101600000D01*
X52201054Y-101031715D01*
X51879147Y-100549946D01*
X51549974Y-100330000D01*
X51879147Y-100110054D01*
X52201054Y-99628285D01*
X52314093Y-99060000D01*
X52201054Y-98491715D01*
X51879147Y-98009946D01*
X51549974Y-97790000D01*
X51879147Y-97570054D01*
X52201054Y-97088285D01*
X52314093Y-96520000D01*
X54365907Y-96520000D01*
X54478946Y-97088285D01*
X54800853Y-97570054D01*
X55130026Y-97790000D01*
X54800853Y-98009946D01*
X54478946Y-98491715D01*
X54365907Y-99060000D01*
X54478946Y-99628285D01*
X54800853Y-100110054D01*
X55130026Y-100330000D01*
X54800853Y-100549946D01*
X54478946Y-101031715D01*
X54365907Y-101600000D01*
X54478946Y-102168285D01*
X54800853Y-102650054D01*
X55282622Y-102971961D01*
X55850907Y-103085000D01*
X55909093Y-103085000D01*
X56477378Y-102971961D01*
X56959147Y-102650054D01*
X57281054Y-102168285D01*
X57394093Y-101600000D01*
X57281054Y-101031715D01*
X56959147Y-100549946D01*
X56629974Y-100330000D01*
X56959147Y-100110054D01*
X57281054Y-99628285D01*
X57394093Y-99060000D01*
X57281054Y-98491715D01*
X56959147Y-98009946D01*
X56629974Y-97790000D01*
X56959147Y-97570054D01*
X57281054Y-97088285D01*
X57394093Y-96520000D01*
X59445907Y-96520000D01*
X59558946Y-97088285D01*
X59880853Y-97570054D01*
X60210026Y-97790000D01*
X59880853Y-98009946D01*
X59558946Y-98491715D01*
X59445907Y-99060000D01*
X59558946Y-99628285D01*
X59880853Y-100110054D01*
X60210026Y-100330000D01*
X59880853Y-100549946D01*
X59558946Y-101031715D01*
X59445907Y-101600000D01*
X59558946Y-102168285D01*
X59880853Y-102650054D01*
X60362622Y-102971961D01*
X60930907Y-103085000D01*
X60989093Y-103085000D01*
X61557378Y-102971961D01*
X62039147Y-102650054D01*
X62361054Y-102168285D01*
X62474093Y-101600000D01*
X62361054Y-101031715D01*
X62039147Y-100549946D01*
X61709974Y-100330000D01*
X62039147Y-100110054D01*
X62361054Y-99628285D01*
X62474093Y-99060000D01*
X62361054Y-98491715D01*
X62039147Y-98009946D01*
X61709974Y-97790000D01*
X62039147Y-97570054D01*
X62361054Y-97088285D01*
X62474093Y-96520000D01*
X62361054Y-95951715D01*
X62039147Y-95469946D01*
X61698447Y-95242298D01*
X61841358Y-95175183D01*
X62231645Y-94746924D01*
X62401476Y-94336890D01*
X62280155Y-94107000D01*
X61087000Y-94107000D01*
X61087000Y-94127000D01*
X60833000Y-94127000D01*
X60833000Y-94107000D01*
X59639845Y-94107000D01*
X59518524Y-94336890D01*
X59688355Y-94746924D01*
X60078642Y-95175183D01*
X60221553Y-95242298D01*
X59880853Y-95469946D01*
X59558946Y-95951715D01*
X59445907Y-96520000D01*
X57394093Y-96520000D01*
X57281054Y-95951715D01*
X56959147Y-95469946D01*
X56618447Y-95242298D01*
X56761358Y-95175183D01*
X57151645Y-94746924D01*
X57321476Y-94336890D01*
X57200155Y-94107000D01*
X56007000Y-94107000D01*
X56007000Y-94127000D01*
X55753000Y-94127000D01*
X55753000Y-94107000D01*
X54559845Y-94107000D01*
X54438524Y-94336890D01*
X54608355Y-94746924D01*
X54998642Y-95175183D01*
X55141553Y-95242298D01*
X54800853Y-95469946D01*
X54478946Y-95951715D01*
X54365907Y-96520000D01*
X52314093Y-96520000D01*
X52201054Y-95951715D01*
X51879147Y-95469946D01*
X51538447Y-95242298D01*
X51681358Y-95175183D01*
X52071645Y-94746924D01*
X52241476Y-94336890D01*
X52120155Y-94107000D01*
X50927000Y-94107000D01*
X50927000Y-94127000D01*
X50673000Y-94127000D01*
X50673000Y-94107000D01*
X49479845Y-94107000D01*
X49358524Y-94336890D01*
X49528355Y-94746924D01*
X49918642Y-95175183D01*
X50061553Y-95242298D01*
X49720853Y-95469946D01*
X49398946Y-95951715D01*
X49285907Y-96520000D01*
X47234093Y-96520000D01*
X47121054Y-95951715D01*
X46799147Y-95469946D01*
X46458447Y-95242298D01*
X46601358Y-95175183D01*
X46991645Y-94746924D01*
X47161476Y-94336890D01*
X47040155Y-94107000D01*
X45847000Y-94107000D01*
X45847000Y-94127000D01*
X45593000Y-94127000D01*
X45593000Y-94107000D01*
X44399845Y-94107000D01*
X44278524Y-94336890D01*
X44448355Y-94746924D01*
X44838642Y-95175183D01*
X44981553Y-95242298D01*
X44640853Y-95469946D01*
X44318946Y-95951715D01*
X44205907Y-96520000D01*
X34417000Y-96520000D01*
X34417000Y-91440000D01*
X44205907Y-91440000D01*
X44318946Y-92008285D01*
X44640853Y-92490054D01*
X44981553Y-92717702D01*
X44838642Y-92784817D01*
X44448355Y-93213076D01*
X44278524Y-93623110D01*
X44399845Y-93853000D01*
X45593000Y-93853000D01*
X45593000Y-93833000D01*
X45847000Y-93833000D01*
X45847000Y-93853000D01*
X47040155Y-93853000D01*
X47161476Y-93623110D01*
X46991645Y-93213076D01*
X46637978Y-92825000D01*
X46990000Y-92825000D01*
X47520017Y-92719573D01*
X47969343Y-92419343D01*
X49239343Y-91149343D01*
X49387967Y-90926912D01*
X49285907Y-91440000D01*
X49398946Y-92008285D01*
X49720853Y-92490054D01*
X50061553Y-92717702D01*
X49918642Y-92784817D01*
X49528355Y-93213076D01*
X49358524Y-93623110D01*
X49479845Y-93853000D01*
X50673000Y-93853000D01*
X50673000Y-93833000D01*
X50927000Y-93833000D01*
X50927000Y-93853000D01*
X52120155Y-93853000D01*
X52241476Y-93623110D01*
X52071645Y-93213076D01*
X51717978Y-92825000D01*
X52070000Y-92825000D01*
X52600017Y-92719573D01*
X53049343Y-92419343D01*
X54319343Y-91149343D01*
X54467967Y-90926912D01*
X54365907Y-91440000D01*
X54478946Y-92008285D01*
X54800853Y-92490054D01*
X55141553Y-92717702D01*
X54998642Y-92784817D01*
X54608355Y-93213076D01*
X54438524Y-93623110D01*
X54559845Y-93853000D01*
X55753000Y-93853000D01*
X55753000Y-93833000D01*
X56007000Y-93833000D01*
X56007000Y-93853000D01*
X57200155Y-93853000D01*
X57321476Y-93623110D01*
X57151645Y-93213076D01*
X56797978Y-92825000D01*
X57150000Y-92825000D01*
X57680017Y-92719573D01*
X58129343Y-92419343D01*
X59399343Y-91149343D01*
X59547967Y-90926912D01*
X59445907Y-91440000D01*
X59558946Y-92008285D01*
X59880853Y-92490054D01*
X60221553Y-92717702D01*
X60078642Y-92784817D01*
X59688355Y-93213076D01*
X59518524Y-93623110D01*
X59639845Y-93853000D01*
X60833000Y-93853000D01*
X60833000Y-93833000D01*
X61087000Y-93833000D01*
X61087000Y-93853000D01*
X62280155Y-93853000D01*
X62401476Y-93623110D01*
X62231645Y-93213076D01*
X61877978Y-92825000D01*
X62230000Y-92825000D01*
X62760017Y-92719573D01*
X63091901Y-92497815D01*
X130579630Y-92497815D01*
X130903980Y-93282800D01*
X131504041Y-93883909D01*
X132288459Y-94209628D01*
X133137815Y-94210370D01*
X133922800Y-93886020D01*
X134523909Y-93285959D01*
X134849628Y-92501541D01*
X134850370Y-91652185D01*
X134526020Y-90867200D01*
X133925959Y-90266091D01*
X133141541Y-89940372D01*
X132292185Y-89939630D01*
X131507200Y-90263980D01*
X130906091Y-90864041D01*
X130580372Y-91648459D01*
X130579630Y-92497815D01*
X63091901Y-92497815D01*
X63209343Y-92419343D01*
X64479343Y-91149343D01*
X64779573Y-90700017D01*
X64885000Y-90170000D01*
X64885000Y-88265000D01*
X70370000Y-88265000D01*
X70475427Y-88795017D01*
X70775657Y-89244343D01*
X71224983Y-89544573D01*
X71755000Y-89650000D01*
X74930000Y-89650000D01*
X75460017Y-89544573D01*
X75909343Y-89244343D01*
X78043686Y-87110000D01*
X81214424Y-87110000D01*
X81159771Y-87132582D01*
X80783902Y-87507796D01*
X80580232Y-87998287D01*
X80579769Y-88529383D01*
X80782582Y-89020229D01*
X81157796Y-89396098D01*
X81648287Y-89599768D01*
X82179383Y-89600231D01*
X82670229Y-89397418D01*
X83046098Y-89022204D01*
X83249768Y-88531713D01*
X83250231Y-88000617D01*
X83047418Y-87509771D01*
X82672204Y-87133902D01*
X82614642Y-87110000D01*
X85786314Y-87110000D01*
X87920657Y-89244343D01*
X88369983Y-89544573D01*
X88900000Y-89650000D01*
X123825000Y-89650000D01*
X124355017Y-89544573D01*
X124804343Y-89244343D01*
X126709343Y-87339343D01*
X126862585Y-87110000D01*
X127009573Y-86890017D01*
X127115000Y-86360000D01*
X127115000Y-85495000D01*
X130567560Y-85495000D01*
X130567560Y-88495000D01*
X130611838Y-88730317D01*
X130750910Y-88946441D01*
X130963110Y-89091431D01*
X131215000Y-89142440D01*
X134215000Y-89142440D01*
X134450317Y-89098162D01*
X134666441Y-88959090D01*
X134811431Y-88746890D01*
X134862440Y-88495000D01*
X134862440Y-85495000D01*
X134818162Y-85259683D01*
X134679090Y-85043559D01*
X134466890Y-84898569D01*
X134215000Y-84847560D01*
X131215000Y-84847560D01*
X130979683Y-84891838D01*
X130763559Y-85030910D01*
X130618569Y-85243110D01*
X130567560Y-85495000D01*
X127115000Y-85495000D01*
X127115000Y-82337815D01*
X130579630Y-82337815D01*
X130903980Y-83122800D01*
X131504041Y-83723909D01*
X132288459Y-84049628D01*
X133137815Y-84050370D01*
X133922800Y-83726020D01*
X134523909Y-83125959D01*
X134849628Y-82341541D01*
X134850370Y-81492185D01*
X134526020Y-80707200D01*
X133925959Y-80106091D01*
X133141541Y-79780372D01*
X132292185Y-79779630D01*
X131507200Y-80103980D01*
X130906091Y-80704041D01*
X130580372Y-81488459D01*
X130579630Y-82337815D01*
X127115000Y-82337815D01*
X127115000Y-79313686D01*
X128208686Y-78220000D01*
X130567560Y-78220000D01*
X130567560Y-78335000D01*
X130611838Y-78570317D01*
X130750910Y-78786441D01*
X130963110Y-78931431D01*
X131215000Y-78982440D01*
X134215000Y-78982440D01*
X134450317Y-78938162D01*
X134666441Y-78799090D01*
X134811431Y-78586890D01*
X134862440Y-78335000D01*
X134862440Y-75335000D01*
X134818162Y-75099683D01*
X134679090Y-74883559D01*
X134466890Y-74738569D01*
X134215000Y-74687560D01*
X131215000Y-74687560D01*
X130979683Y-74731838D01*
X130763559Y-74870910D01*
X130618569Y-75083110D01*
X130567560Y-75335000D01*
X130567560Y-75450000D01*
X127635000Y-75450000D01*
X127104983Y-75555427D01*
X126655657Y-75855657D01*
X124750657Y-77760657D01*
X124450427Y-78209983D01*
X124345000Y-78740000D01*
X124345000Y-85786314D01*
X123251314Y-86880000D01*
X89473686Y-86880000D01*
X87339343Y-84745657D01*
X86890017Y-84445427D01*
X86360000Y-84340000D01*
X77470000Y-84340000D01*
X76939983Y-84445427D01*
X76490657Y-84745657D01*
X74356314Y-86880000D01*
X71755000Y-86880000D01*
X71224983Y-86985427D01*
X70775657Y-87285657D01*
X70475427Y-87734983D01*
X70370000Y-88265000D01*
X64885000Y-88265000D01*
X64885000Y-85663686D01*
X70597637Y-79951049D01*
X70420232Y-80378287D01*
X70419769Y-80909383D01*
X70622582Y-81400229D01*
X70997796Y-81776098D01*
X71488287Y-81979768D01*
X72019383Y-81980231D01*
X72510229Y-81777418D01*
X72886098Y-81402204D01*
X73089768Y-80911713D01*
X73090023Y-80618846D01*
X80580000Y-80618846D01*
X80580000Y-80671154D01*
X80681621Y-81182036D01*
X80971012Y-81615142D01*
X81404118Y-81904533D01*
X81915000Y-82006154D01*
X82425882Y-81904533D01*
X82858988Y-81615142D01*
X83148379Y-81182036D01*
X83250000Y-80671154D01*
X83250000Y-80618846D01*
X83148379Y-80107964D01*
X82858988Y-79674858D01*
X82425882Y-79385467D01*
X81915000Y-79283846D01*
X81404118Y-79385467D01*
X80971012Y-79674858D01*
X80681621Y-80107964D01*
X80580000Y-80618846D01*
X73090023Y-80618846D01*
X73090231Y-80380617D01*
X72887418Y-79889771D01*
X72512204Y-79513902D01*
X72021713Y-79310232D01*
X71490617Y-79309769D01*
X71061687Y-79486999D01*
X74233686Y-76315000D01*
X76200000Y-76315000D01*
X76730017Y-76209573D01*
X77179343Y-75909343D01*
X81738839Y-71349847D01*
X82337815Y-71350370D01*
X83122800Y-71026020D01*
X83723909Y-70425959D01*
X84049628Y-69641541D01*
X84049750Y-69500750D01*
X84860000Y-69500750D01*
X84860000Y-70841310D01*
X84956673Y-71074699D01*
X85135302Y-71253327D01*
X85368691Y-71350000D01*
X86709250Y-71350000D01*
X86868000Y-71191250D01*
X86868000Y-69342000D01*
X87122000Y-69342000D01*
X87122000Y-71191250D01*
X87280750Y-71350000D01*
X88621309Y-71350000D01*
X88854698Y-71253327D01*
X89033327Y-71074699D01*
X89130000Y-70841310D01*
X89130000Y-69637815D01*
X89939630Y-69637815D01*
X90263980Y-70422800D01*
X90690000Y-70849564D01*
X90690000Y-80645000D01*
X90739781Y-80895267D01*
X90739769Y-80909383D01*
X90745207Y-80922544D01*
X90795427Y-81175017D01*
X90937191Y-81387182D01*
X90942582Y-81400229D01*
X90952643Y-81410308D01*
X91095657Y-81624343D01*
X91307824Y-81766108D01*
X91317796Y-81776098D01*
X91330947Y-81781559D01*
X91544983Y-81924573D01*
X91795249Y-81974354D01*
X91808287Y-81979768D01*
X91822529Y-81979780D01*
X92075000Y-82030000D01*
X92325267Y-81980219D01*
X92339383Y-81980231D01*
X92352544Y-81974793D01*
X92605017Y-81924573D01*
X92817182Y-81782809D01*
X92830229Y-81777418D01*
X92840308Y-81767357D01*
X93054343Y-81624343D01*
X93196108Y-81412176D01*
X93206098Y-81402204D01*
X93211559Y-81389053D01*
X93354573Y-81175017D01*
X93404354Y-80924751D01*
X93409768Y-80911713D01*
X93409780Y-80897471D01*
X93460000Y-80645000D01*
X93460000Y-70849129D01*
X93883909Y-70425959D01*
X94209628Y-69641541D01*
X94209750Y-69500750D01*
X95020000Y-69500750D01*
X95020000Y-70841310D01*
X95116673Y-71074699D01*
X95295302Y-71253327D01*
X95528691Y-71350000D01*
X96869250Y-71350000D01*
X97028000Y-71191250D01*
X97028000Y-69342000D01*
X97282000Y-69342000D01*
X97282000Y-71191250D01*
X97440750Y-71350000D01*
X98781309Y-71350000D01*
X99014698Y-71253327D01*
X99193327Y-71074699D01*
X99290000Y-70841310D01*
X99290000Y-69637815D01*
X100099630Y-69637815D01*
X100423980Y-70422800D01*
X100850000Y-70849564D01*
X100850000Y-80645000D01*
X100899781Y-80895267D01*
X100899769Y-80909383D01*
X100905207Y-80922544D01*
X100955427Y-81175017D01*
X101097191Y-81387182D01*
X101102582Y-81400229D01*
X101112643Y-81410308D01*
X101255657Y-81624343D01*
X101467824Y-81766108D01*
X101477796Y-81776098D01*
X101490947Y-81781559D01*
X101704983Y-81924573D01*
X101955249Y-81974354D01*
X101968287Y-81979768D01*
X101982529Y-81979780D01*
X102235000Y-82030000D01*
X102485267Y-81980219D01*
X102499383Y-81980231D01*
X102512544Y-81974793D01*
X102765017Y-81924573D01*
X102977182Y-81782809D01*
X102990229Y-81777418D01*
X103000308Y-81767357D01*
X103214343Y-81624343D01*
X103356108Y-81412176D01*
X103366098Y-81402204D01*
X103371559Y-81389053D01*
X103514573Y-81175017D01*
X103564354Y-80924751D01*
X103569768Y-80911713D01*
X103569780Y-80897471D01*
X103620000Y-80645000D01*
X103620000Y-70849129D01*
X104043909Y-70425959D01*
X104369628Y-69641541D01*
X104369750Y-69500750D01*
X105180000Y-69500750D01*
X105180000Y-70841310D01*
X105276673Y-71074699D01*
X105455302Y-71253327D01*
X105688691Y-71350000D01*
X107029250Y-71350000D01*
X107188000Y-71191250D01*
X107188000Y-69342000D01*
X107442000Y-69342000D01*
X107442000Y-71191250D01*
X107600750Y-71350000D01*
X108941309Y-71350000D01*
X109174698Y-71253327D01*
X109353327Y-71074699D01*
X109450000Y-70841310D01*
X109450000Y-69637815D01*
X110259630Y-69637815D01*
X110583980Y-70422800D01*
X111010000Y-70849564D01*
X111010000Y-80645000D01*
X111059781Y-80895267D01*
X111059769Y-80909383D01*
X111065207Y-80922544D01*
X111115427Y-81175017D01*
X111257191Y-81387182D01*
X111262582Y-81400229D01*
X111272643Y-81410308D01*
X111415657Y-81624343D01*
X111627824Y-81766108D01*
X111637796Y-81776098D01*
X111650947Y-81781559D01*
X111864983Y-81924573D01*
X112115249Y-81974354D01*
X112128287Y-81979768D01*
X112142529Y-81979780D01*
X112395000Y-82030000D01*
X112645267Y-81980219D01*
X112659383Y-81980231D01*
X112672544Y-81974793D01*
X112925017Y-81924573D01*
X113137182Y-81782809D01*
X113150229Y-81777418D01*
X113160308Y-81767357D01*
X113374343Y-81624343D01*
X113516108Y-81412176D01*
X113526098Y-81402204D01*
X113531559Y-81389053D01*
X113674573Y-81175017D01*
X113724354Y-80924751D01*
X113729768Y-80911713D01*
X113729780Y-80897471D01*
X113780000Y-80645000D01*
X113780000Y-70849129D01*
X114203909Y-70425959D01*
X114529628Y-69641541D01*
X114529750Y-69500750D01*
X115340000Y-69500750D01*
X115340000Y-70841310D01*
X115436673Y-71074699D01*
X115615302Y-71253327D01*
X115848691Y-71350000D01*
X117189250Y-71350000D01*
X117348000Y-71191250D01*
X117348000Y-69342000D01*
X117602000Y-69342000D01*
X117602000Y-71191250D01*
X117760750Y-71350000D01*
X119101309Y-71350000D01*
X119334698Y-71253327D01*
X119513327Y-71074699D01*
X119610000Y-70841310D01*
X119610000Y-69637815D01*
X120419630Y-69637815D01*
X120743980Y-70422800D01*
X121170000Y-70849564D01*
X121170000Y-80645000D01*
X121219781Y-80895267D01*
X121219769Y-80909383D01*
X121225207Y-80922544D01*
X121275427Y-81175017D01*
X121417191Y-81387182D01*
X121422582Y-81400229D01*
X121432643Y-81410308D01*
X121575657Y-81624343D01*
X121787824Y-81766108D01*
X121797796Y-81776098D01*
X121810947Y-81781559D01*
X122024983Y-81924573D01*
X122275249Y-81974354D01*
X122288287Y-81979768D01*
X122302529Y-81979780D01*
X122555000Y-82030000D01*
X122805267Y-81980219D01*
X122819383Y-81980231D01*
X122832544Y-81974793D01*
X123085017Y-81924573D01*
X123297182Y-81782809D01*
X123310229Y-81777418D01*
X123320308Y-81767357D01*
X123534343Y-81624343D01*
X123676108Y-81412176D01*
X123686098Y-81402204D01*
X123691559Y-81389053D01*
X123834573Y-81175017D01*
X123884354Y-80924751D01*
X123889768Y-80911713D01*
X123889780Y-80897471D01*
X123940000Y-80645000D01*
X123940000Y-70849129D01*
X124363909Y-70425959D01*
X124689628Y-69641541D01*
X124689891Y-69339482D01*
X129514336Y-69339482D01*
X130096950Y-70749515D01*
X131174811Y-71829259D01*
X132583825Y-72414333D01*
X134109482Y-72415664D01*
X135519515Y-71833050D01*
X136599259Y-70755189D01*
X137184333Y-69346175D01*
X137185664Y-67820518D01*
X136603050Y-66410485D01*
X135525189Y-65330741D01*
X134116175Y-64745667D01*
X132590518Y-64744336D01*
X131180485Y-65326950D01*
X130100741Y-66404811D01*
X129515667Y-67813825D01*
X129514336Y-69339482D01*
X124689891Y-69339482D01*
X124690370Y-68792185D01*
X124366020Y-68007200D01*
X123765959Y-67406091D01*
X122981541Y-67080372D01*
X122132185Y-67079630D01*
X121347200Y-67403980D01*
X120746091Y-68004041D01*
X120420372Y-68788459D01*
X120419630Y-69637815D01*
X119610000Y-69637815D01*
X119610000Y-69500750D01*
X119451250Y-69342000D01*
X117602000Y-69342000D01*
X117348000Y-69342000D01*
X115498750Y-69342000D01*
X115340000Y-69500750D01*
X114529750Y-69500750D01*
X114530370Y-68792185D01*
X114206020Y-68007200D01*
X113788240Y-67588690D01*
X115340000Y-67588690D01*
X115340000Y-68929250D01*
X115498750Y-69088000D01*
X117348000Y-69088000D01*
X117348000Y-67238750D01*
X117602000Y-67238750D01*
X117602000Y-69088000D01*
X119451250Y-69088000D01*
X119610000Y-68929250D01*
X119610000Y-67588690D01*
X119513327Y-67355301D01*
X119334698Y-67176673D01*
X119101309Y-67080000D01*
X117760750Y-67080000D01*
X117602000Y-67238750D01*
X117348000Y-67238750D01*
X117189250Y-67080000D01*
X115848691Y-67080000D01*
X115615302Y-67176673D01*
X115436673Y-67355301D01*
X115340000Y-67588690D01*
X113788240Y-67588690D01*
X113605959Y-67406091D01*
X112821541Y-67080372D01*
X111972185Y-67079630D01*
X111187200Y-67403980D01*
X110586091Y-68004041D01*
X110260372Y-68788459D01*
X110259630Y-69637815D01*
X109450000Y-69637815D01*
X109450000Y-69500750D01*
X109291250Y-69342000D01*
X107442000Y-69342000D01*
X107188000Y-69342000D01*
X105338750Y-69342000D01*
X105180000Y-69500750D01*
X104369750Y-69500750D01*
X104370370Y-68792185D01*
X104046020Y-68007200D01*
X103628240Y-67588690D01*
X105180000Y-67588690D01*
X105180000Y-68929250D01*
X105338750Y-69088000D01*
X107188000Y-69088000D01*
X107188000Y-67238750D01*
X107442000Y-67238750D01*
X107442000Y-69088000D01*
X109291250Y-69088000D01*
X109450000Y-68929250D01*
X109450000Y-67588690D01*
X109353327Y-67355301D01*
X109174698Y-67176673D01*
X108941309Y-67080000D01*
X107600750Y-67080000D01*
X107442000Y-67238750D01*
X107188000Y-67238750D01*
X107029250Y-67080000D01*
X105688691Y-67080000D01*
X105455302Y-67176673D01*
X105276673Y-67355301D01*
X105180000Y-67588690D01*
X103628240Y-67588690D01*
X103445959Y-67406091D01*
X102661541Y-67080372D01*
X101812185Y-67079630D01*
X101027200Y-67403980D01*
X100426091Y-68004041D01*
X100100372Y-68788459D01*
X100099630Y-69637815D01*
X99290000Y-69637815D01*
X99290000Y-69500750D01*
X99131250Y-69342000D01*
X97282000Y-69342000D01*
X97028000Y-69342000D01*
X95178750Y-69342000D01*
X95020000Y-69500750D01*
X94209750Y-69500750D01*
X94210370Y-68792185D01*
X93886020Y-68007200D01*
X93468240Y-67588690D01*
X95020000Y-67588690D01*
X95020000Y-68929250D01*
X95178750Y-69088000D01*
X97028000Y-69088000D01*
X97028000Y-67238750D01*
X97282000Y-67238750D01*
X97282000Y-69088000D01*
X99131250Y-69088000D01*
X99290000Y-68929250D01*
X99290000Y-67588690D01*
X99193327Y-67355301D01*
X99014698Y-67176673D01*
X98781309Y-67080000D01*
X97440750Y-67080000D01*
X97282000Y-67238750D01*
X97028000Y-67238750D01*
X96869250Y-67080000D01*
X95528691Y-67080000D01*
X95295302Y-67176673D01*
X95116673Y-67355301D01*
X95020000Y-67588690D01*
X93468240Y-67588690D01*
X93285959Y-67406091D01*
X92501541Y-67080372D01*
X91652185Y-67079630D01*
X90867200Y-67403980D01*
X90266091Y-68004041D01*
X89940372Y-68788459D01*
X89939630Y-69637815D01*
X89130000Y-69637815D01*
X89130000Y-69500750D01*
X88971250Y-69342000D01*
X87122000Y-69342000D01*
X86868000Y-69342000D01*
X85018750Y-69342000D01*
X84860000Y-69500750D01*
X84049750Y-69500750D01*
X84050370Y-68792185D01*
X83726020Y-68007200D01*
X83308240Y-67588690D01*
X84860000Y-67588690D01*
X84860000Y-68929250D01*
X85018750Y-69088000D01*
X86868000Y-69088000D01*
X86868000Y-67238750D01*
X87122000Y-67238750D01*
X87122000Y-69088000D01*
X88971250Y-69088000D01*
X89130000Y-68929250D01*
X89130000Y-67588690D01*
X89033327Y-67355301D01*
X88854698Y-67176673D01*
X88621309Y-67080000D01*
X87280750Y-67080000D01*
X87122000Y-67238750D01*
X86868000Y-67238750D01*
X86709250Y-67080000D01*
X85368691Y-67080000D01*
X85135302Y-67176673D01*
X84956673Y-67355301D01*
X84860000Y-67588690D01*
X83308240Y-67588690D01*
X83125959Y-67406091D01*
X82341541Y-67080372D01*
X81492185Y-67079630D01*
X80707200Y-67403980D01*
X80106091Y-68004041D01*
X79780372Y-68788459D01*
X79779845Y-69391469D01*
X78982440Y-70188874D01*
X78982440Y-67715000D01*
X78938162Y-67479683D01*
X78799090Y-67263559D01*
X78586890Y-67118569D01*
X78335000Y-67067560D01*
X75335000Y-67067560D01*
X75099683Y-67111838D01*
X74883559Y-67250910D01*
X74738569Y-67463110D01*
X74687560Y-67715000D01*
X74687560Y-69403754D01*
X73086314Y-71005000D01*
X72983857Y-71005000D01*
X73563909Y-70425959D01*
X73889628Y-69641541D01*
X73890370Y-68792185D01*
X73566020Y-68007200D01*
X72965959Y-67406091D01*
X72181541Y-67080372D01*
X71332185Y-67079630D01*
X70547200Y-67403980D01*
X69946091Y-68004041D01*
X69620372Y-68788459D01*
X69619845Y-69391469D01*
X68822440Y-70188874D01*
X68822440Y-67715000D01*
X68778162Y-67479683D01*
X68639090Y-67263559D01*
X68426890Y-67118569D01*
X68175000Y-67067560D01*
X65175000Y-67067560D01*
X64939683Y-67111838D01*
X64723559Y-67250910D01*
X64578569Y-67463110D01*
X64527560Y-67715000D01*
X64527560Y-70673754D01*
X62790555Y-72410759D01*
X62874573Y-72285017D01*
X62980000Y-71755000D01*
X62980000Y-70849129D01*
X63403909Y-70425959D01*
X63729628Y-69641541D01*
X63730370Y-68792185D01*
X63406020Y-68007200D01*
X62805959Y-67406091D01*
X62021541Y-67080372D01*
X61172185Y-67079630D01*
X60387200Y-67403980D01*
X59786091Y-68004041D01*
X59460372Y-68788459D01*
X59459630Y-69637815D01*
X59783980Y-70422800D01*
X60210000Y-70849564D01*
X60210000Y-71181314D01*
X57710555Y-73680759D01*
X57794574Y-73555016D01*
X57900001Y-73025000D01*
X57900000Y-73024995D01*
X57900000Y-71362440D01*
X58015000Y-71362440D01*
X58250317Y-71318162D01*
X58466441Y-71179090D01*
X58611431Y-70966890D01*
X58662440Y-70715000D01*
X58662440Y-67715000D01*
X58618162Y-67479683D01*
X58479090Y-67263559D01*
X58266890Y-67118569D01*
X58015000Y-67067560D01*
X55015000Y-67067560D01*
X54779683Y-67111838D01*
X54563559Y-67250910D01*
X54418569Y-67463110D01*
X54367560Y-67715000D01*
X54367560Y-70715000D01*
X54411838Y-70950317D01*
X54550910Y-71166441D01*
X54763110Y-71311431D01*
X55015000Y-71362440D01*
X55130000Y-71362440D01*
X55130000Y-72451314D01*
X52630555Y-74950759D01*
X52714573Y-74825017D01*
X52820000Y-74295000D01*
X52820000Y-70849129D01*
X53243909Y-70425959D01*
X53569628Y-69641541D01*
X53570370Y-68792185D01*
X53246020Y-68007200D01*
X52645959Y-67406091D01*
X51861541Y-67080372D01*
X51012185Y-67079630D01*
X50227200Y-67403980D01*
X49626091Y-68004041D01*
X49300372Y-68788459D01*
X49299630Y-69637815D01*
X49623980Y-70422800D01*
X50050000Y-70849564D01*
X50050000Y-73721314D01*
X47280657Y-76490657D01*
X47105000Y-76753546D01*
X47105000Y-71362440D01*
X47855000Y-71362440D01*
X48090317Y-71318162D01*
X48306441Y-71179090D01*
X48451431Y-70966890D01*
X48502440Y-70715000D01*
X48502440Y-67715000D01*
X48458162Y-67479683D01*
X48319090Y-67263559D01*
X48106890Y-67118569D01*
X47855000Y-67067560D01*
X44855000Y-67067560D01*
X44619683Y-67111838D01*
X44403559Y-67250910D01*
X44258569Y-67463110D01*
X44207560Y-67715000D01*
X44207560Y-70715000D01*
X44251838Y-70950317D01*
X44335000Y-71079554D01*
X44335000Y-87708203D01*
X44273569Y-87798110D01*
X44222560Y-88050000D01*
X44222560Y-89750000D01*
X44266838Y-89985317D01*
X44405910Y-90201441D01*
X44618110Y-90346431D01*
X44685541Y-90360086D01*
X44640853Y-90389946D01*
X44318946Y-90871715D01*
X44205907Y-91440000D01*
X34417000Y-91440000D01*
X34417000Y-69339482D01*
X35534336Y-69339482D01*
X36116950Y-70749515D01*
X37194811Y-71829259D01*
X38603825Y-72414333D01*
X40129482Y-72415664D01*
X41539515Y-71833050D01*
X42619259Y-70755189D01*
X43204333Y-69346175D01*
X43205664Y-67820518D01*
X42623050Y-66410485D01*
X41545189Y-65330741D01*
X40136175Y-64745667D01*
X38610518Y-64744336D01*
X37200485Y-65326950D01*
X36120741Y-66404811D01*
X35535667Y-67813825D01*
X35534336Y-69339482D01*
X34417000Y-69339482D01*
X34417000Y-63627000D01*
X138303000Y-63627000D01*
X138303000Y-139573000D01*
M02*
